<?xml version="1.0" standalone="no"?>
<!DOCTYPE svg PUBLIC "-//W3C//DTD SVG 20010904//EN"
 "http://www.w3.org/TR/2001/REC-SVG-20010904/DTD/svg10.dtd">
<svg version="1.0" xmlns="http://www.w3.org/2000/svg"
 width="1156.000000pt" height="1156.000000pt" viewBox="0 0 1156.000000 1156.000000"
 preserveAspectRatio="xMidYMid meet">
<metadata>
Created by potrace 1.14, written by Peter Selinger 2001-2017
</metadata>
<g transform="translate(0.000000,1156.000000) scale(0.100000,-0.100000)"
fill="#000000" stroke="none">
<path d="M270 9650 c-97 -20 -192 -95 -231 -183 l-24 -52 0 -3635 0 -3635 24
-52 c28 -62 103 -136 169 -166 l47 -22 5525 0 5525 0 68 33 c78 39 136 103
161 180 15 43 16 379 14 3677 l-3 3630 -27 50 c-32 62 -102 128 -166 158 l-47
22 -5500 1 c-3025 1 -5516 -2 -5535 -6z m6820 -2105 l0 -1205 1065 0 1065 0 0
1205 0 1205 640 0 640 0 0 -2930 0 -2930 -637 2 -638 3 -3 1198 -2 1197 -1065
0 -1065 0 0 -1200 0 -1200 -640 0 -640 0 0 2930 0 2930 640 0 640 0 0 -1205z
m-3770 145 c595 -36 1062 -218 1420 -556 38 -36 72 -74 75 -85 6 -18 -125
-150 -682 -693 l-112 -109 -90 86 c-164 155 -358 264 -569 319 -97 25 -139 30
-242 31 -79 1 -145 -3 -180 -12 -170 -43 -270 -132 -306 -273 -31 -121 5 -227
109 -325 118 -110 223 -161 684 -334 347 -130 488 -189 633 -266 496 -262 733
-584 780 -1058 36 -363 -80 -723 -327 -1016 -245 -292 -631 -489 -1096 -560
-170 -26 -542 -37 -724 -20 -537 49 -1013 213 -1363 469 -104 76 -260 212
-260 227 0 9 392 467 712 833 l29 34 97 -94 c233 -225 545 -393 856 -460 137
-30 407 -32 506 -4 142 39 234 106 286 207 32 62 44 186 25 255 -14 52 -69
126 -135 182 -70 60 -314 176 -536 257 -684 249 -938 383 -1171 614 -176 174
-271 335 -325 550 -96 378 -31 758 186 1091 82 125 270 313 400 399 278 185
630 296 995 314 133 7 166 6 325 -3z"/>
</g>
</svg>
