<svg xmlns="http://www.w3.org/2000/svg" viewBox="0 0 4680.36 1756.43"><defs><style>.cls-1{fill:#4c0d0d;}</style></defs><g id="Layer_2" data-name="Layer 2"><g id="Layer_4" data-name="Layer 4"><path class="cls-1" d="M4588.34,1613.91l92-139.31L4621.78,1257l-8.59-14.65,29.09-.07a149.77,149.77,0,0,1-31.81-4.57L4596,1213.09a85.28,85.28,0,0,0,15.93,2.93,24.43,24.43,0,0,1-13.23-15.21,82.39,82.39,0,0,0,38.65,9.25l-13-10.12a155.72,155.72,0,0,0,38.26-2.19l-22.84-8.43a88.51,88.51,0,0,0,38.8-6.62c-26.42,0-53.32,0-78.57-7.65q13-.65,26-2.58a41.69,41.69,0,0,1-15.69-3.42c10-2.71,20.43-5.59,28.41-12.2l-33.5.13c-9.77,0-19.69.06-29.14-2.42a48.26,48.26,0,0,1-7.85-2.79,85.87,85.87,0,0,0,15.37.88l-9.2-12.72a99.29,99.29,0,0,0,48.13,4.65,36,36,0,0,0-15.11-10.68,110.68,110.68,0,0,0,58.6,3.66l-24.73-8.13a60.56,60.56,0,0,0,39.1-13.7c-28.18-.52-56.38,2.82-84.51,1.08s-57.15-9.25-77.79-28.19a138.12,138.12,0,0,0,57.47,12.5,112.76,112.76,0,0,1-21.72-22.73c19.86,11.08,41.27,22.53,64,20.72a99.57,99.57,0,0,0-17.5-15.35c15.73,8.79,35,7.38,53,5.72l-17.93-12.69a197.9,197.9,0,0,0,44.41-3,326.65,326.65,0,0,1-38.25-9.73,74.66,74.66,0,0,0,26.74-9c-28.07.08-56.31.15-84-4.64s-54.95-14.76-76.34-32.7a141.23,141.23,0,0,0,59.49,15.77l-9.94-16.28a66.52,66.52,0,0,0,39.92,13,128.14,128.14,0,0,0-19.27-16,112.26,112.26,0,0,0,48.6,6l-17.88-9.15a127.23,127.23,0,0,0,48.4-2.16,53.75,53.75,0,0,1-17.67-7.17c12.33.14,26.07-.24,34.87-8.76l-26.76-.31c-16.11-.18-32.26-.37-48.27-2.17a239.7,239.7,0,0,1-48-10.48c-7.39-2.43-14.72-5.26-21.3-9.4a103,103,0,0,1-13.57-10.52c15.25,8.83,31.78,18,49.4,16.49-.56-2.39-1.11-4.77-1.66-7.16a44.9,44.9,0,0,0,38,7.89l-8-8.61a75.87,75.87,0,0,0,44.43-3.21l-16.57-6.37a76.05,76.05,0,0,0,28.77-9.53c-9.36-1.7-19-1.26-28.47-1.58a178.13,178.13,0,0,1-113.65-46.73c8,5.5,18.93,7.3,29,7.11-.3-2.72-.59-5.45-.89-8.18a77.93,77.93,0,0,0,32.41,8.19,26,26,0,0,1-9.48-10.19q20.35.48,40.71-.82a71.8,71.8,0,0,0-22.91-7.35,188,188,0,0,0,41.54-7c-11.56-3.5-23.94-2.75-36-4.09-15.81-1.78-30.94-7.18-45.9-12.55l-30.73-11c8.26,1.88,17.07,1.81,25.53.73a7.19,7.19,0,0,0-4.55-6.36,68.73,68.73,0,0,0,28.65,2.53l-10.3-10.14,37.51,4.63a150,150,0,0,0-24.67-11.24l29.27-2a152.22,152.22,0,0,1-98.34-42.83,39.24,39.24,0,0,0,26.81,6.11,26,26,0,0,1-6.21-9.62,72.41,72.41,0,0,0,15,4.46l-11.86-10.55,8.6.16c-14.79-4.81-26.67-16.2-34.9-29.26s-13.21-27.82-17.92-42.48c-3.52,10.9-11.29,19.27-18.55,28.19-11.07,13.61-22.75,27.66-37.12,37.42a151.84,151.84,0,0,1-52.67-13.1,29.74,29.74,0,0,0,2.49-2.17l-7.3-.08a149.55,149.55,0,0,1-38.79-27.36,39.27,39.27,0,0,0,26.8,6.11A26.08,26.08,0,0,1,4338,729a72.38,72.38,0,0,0,15,4.45l-11.86-10.54,8.6.16c-10.14-3.3-18.92-9.7-26.09-17.61q4.14-1.9,8.08-4.16a108.81,108.81,0,0,0-12.73-1.48c-1.47-2-2.86-4-4.16-6-8.23-13.07-13.21-27.82-17.93-42.48-3.51,10.9-11.28,19.27-18.54,28.19-4.58,5.63-9.27,11.34-14.21,16.79A241.24,241.24,0,0,1,4139.55,636c10.87,7.44,25.6,9.87,39.2,9.62l-1.2-11.07a105.17,105.17,0,0,0,43.82,11.07,35.11,35.11,0,0,1-12.82-13.78q27.52.67,55.05-1.1a97.55,97.55,0,0,0-31-9.94,254,254,0,0,0,56.17-9.42c-15.63-4.74-32.37-3.72-48.62-5.54-21.38-2.39-41.84-9.71-62.07-17L4136.55,574c11.17,2.53,23.08,2.44,34.53,1a9.75,9.75,0,0,0-6.17-8.6,92.83,92.83,0,0,0,38.74,3.42l-13.92-13.71,50.72,6.26a203.1,203.1,0,0,0-33.36-15.19l39.58-2.68c-49.49-2.36-97.83-23.42-133-57.92a53,53,0,0,0,36.23,8.27,35.33,35.33,0,0,1-8.39-13,98.67,98.67,0,0,0,20.27,6l-16-14.26,11.63.22c-20-6.52-36.07-21.91-47.19-39.57s-17.86-37.62-24.24-57.44c-4.75,14.74-15.26,26.06-25.07,38.12-20.42,25.1-42.38,51.32-73,62.38a161.38,161.38,0,0,0,34.74-5.5c-5.11,7.42-14.25,10.84-22.81,13.84l40.22-.08-25.9,11.18a320,320,0,0,0,34.48,1.1c-12.45,12.55-28.93,20.65-46,25.6s-34.87,6.92-52.57,8.69a37.55,37.55,0,0,0,28.55,2.58,86,86,0,0,1-14.62,9.16,148.61,148.61,0,0,0,39.07-1.06,152.28,152.28,0,0,1-22.09,11,102.88,102.88,0,0,0,55.75-2.11c-1,5.61-5.86,9.64-10.57,12.91a186.11,186.11,0,0,1-62.59,27.9,181.19,181.19,0,0,1-31.28-7.29,72.32,72.32,0,0,1-16.14-7.12,77.71,77.71,0,0,1-10.29-8c11.56,6.69,24.09,13.61,37.44,12.5l-1.26-5.43a34,34,0,0,0,28.77,6l-6-6.53a57.4,57.4,0,0,0,33.67-2.43l-12.56-4.83a57.59,57.59,0,0,0,21.8-7.22c-7.09-1.29-14.37-1-21.58-1.2A134.91,134.91,0,0,1,3900,525.58c6.09,4.17,14.35,5.53,22,5.39-.22-2.06-.45-4.13-.67-6.2a58.81,58.81,0,0,0,24.55,6.2,19.68,19.68,0,0,1-7.18-7.72q15.43.38,30.86-.61a54.78,54.78,0,0,0-17.37-5.58,141.66,141.66,0,0,0,31.48-5.28c-8.76-2.65-18.14-2.08-27.25-3.1-12-1.34-23.45-5.44-34.78-9.51l-23.29-8.35a56.1,56.1,0,0,0,19.35.55,5.46,5.46,0,0,0-3.45-4.82,51.92,51.92,0,0,0,21.71,1.91l-7.81-7.68,28.43,3.51a113,113,0,0,0-18.7-8.51l22.19-1.51a115.33,115.33,0,0,1-74.52-32.45,29.74,29.74,0,0,0,20.31,4.63,19.79,19.79,0,0,1-4.71-7.29,54.94,54.94,0,0,0,11.36,3.37l-9-8,6.52.13c-11.21-3.65-20.22-12.28-26.45-22.18s-10-21.08-13.59-32.19c-2.66,8.26-8.55,14.6-14.05,21.36-11.44,14.07-23.75,28.76-40.91,35a90.94,90.94,0,0,0,19.47-3.09c-2.86,4.16-8,6.08-12.78,7.75l22.54,0-14.52,6.27a178.08,178.08,0,0,0,19.33.61c-7,7-16.21,11.58-25.78,14.35s-19.55,3.88-29.47,4.87a21,21,0,0,0,16,1.45,47.49,47.49,0,0,1-8.19,5.13,83.23,83.23,0,0,0,21.9-.59,85.59,85.59,0,0,1-12.38,6.18,57.5,57.5,0,0,0,31.24-1.18c-.53,3.15-3.28,5.4-5.92,7.24A105.05,105.05,0,0,1,3772.64,504c7.19,5.55,17.36,4.51,26.39,3.18a82.43,82.43,0,0,0-11.28,11.29,225.82,225.82,0,0,0,29.55-10.24l-10.79,10.39a43.93,43.93,0,0,0,27.67-4.22c-1.93,3.6-5.49,6.77-8.95,9a141.46,141.46,0,0,1-64,21.71c-16.69-7.06-30.22-20.58-39.87-35.9-10.66-16.93-17.12-36.06-23.24-55.06-4.55,14.13-14.63,25-24,36.54-13.8,17-28.34,34.46-46,47-3.21-.18-6.41-.39-9.59-.74-15.86-1.78-31-7.2-46-12.58l-30.81-11.06c8.28,1.88,17.11,1.81,25.6.73a7.23,7.23,0,0,0-4.57-6.38,69,69,0,0,0,28.73,2.54l-10.33-10.17,37.62,4.64A150.86,150.86,0,0,0,3594,493.46l29.36-2a152.56,152.56,0,0,1-98.6-43,39.35,39.35,0,0,0,26.87,6.14,26.28,26.28,0,0,1-6.22-9.65,73.22,73.22,0,0,0,15,4.47l-11.89-10.58,8.62.16c-14.83-4.83-26.75-16.24-35-29.34s-13.24-27.89-18-42.59c-3.52,10.93-11.31,19.32-18.59,28.26-15.14,18.62-31.42,38.06-54.13,46.27a120.08,120.08,0,0,0,25.76-4.08c-3.79,5.5-10.56,8-16.91,10.26l29.82-.06-19.21,8.29a237.18,237.18,0,0,0,25.57.81c-9.23,9.31-21.45,15.32-34.11,19s-25.86,5.13-39,6.44a27.84,27.84,0,0,0,21.17,1.92,64,64,0,0,1-10.84,6.79,110.65,110.65,0,0,0,29-.78,113.24,113.24,0,0,1-16.38,8.18,76.24,76.24,0,0,0,41.34-1.57c-.71,4.16-4.34,7.15-7.84,9.58a139,139,0,0,1-84.44,24.43c9.51,7.34,23,6,34.92,4.21A108.51,108.51,0,0,0,3395.36,550a300.46,300.46,0,0,0,39.09-13.54l-14.27,13.74a58,58,0,0,0,36.6-5.58c-2.55,4.77-7.25,9-11.83,11.9a187.5,187.5,0,0,1-103.29,29.4,224.08,224.08,0,0,1-42.61-32.7,59.52,59.52,0,0,0,40.63,9.27,39.63,39.63,0,0,1-9.41-14.59,110.45,110.45,0,0,0,22.73,6.76l-18-16,13,.25c-22.43-7.31-40.44-24.57-52.91-44.37s-20-42.18-27.18-64.4c-5.32,16.52-17.11,29.21-28.11,42.73-3,3.69-6,7.4-9.11,11.09-2.7-.21-5.39-.45-8.07-.75-30.48-3.42-59.64-13.84-88.47-24.19L3075,437.78c15.93,3.62,32.9,3.48,49.22,1.4a13.87,13.87,0,0,0-8.79-12.26,132.47,132.47,0,0,0,55.23,4.88l-19.85-19.55,72.3,8.93a289.68,289.68,0,0,0-47.56-21.66l56.43-3.81c-70.55-3.37-139.46-33.38-189.54-82.56a75.65,75.65,0,0,0,51.66,11.79,50.47,50.47,0,0,1-12-18.55A140.17,140.17,0,0,0,3111,315l-22.86-20.33,16.58.32c-28.51-9.29-51.41-31.24-67.27-56.41s-25.45-53.62-34.55-81.87c-6.77,21-21.75,37.14-35.74,54.33-29.1,35.78-60.4,73.16-104,88.93a230.28,230.28,0,0,0,49.51-7.84c-7.27,10.57-20.3,15.45-32.5,19.72l57.33-.11-36.93,15.94a453,453,0,0,0,49.15,1.56c-17.75,17.89-41.22,29.44-65.56,36.49l-2.9.81c-4.87-.61-9.86-.57-14.75-1.13-9.39-1.08-18.38-4.38-27.27-7.65L2820.94,351a42.93,42.93,0,0,0,15.17.44,4.4,4.4,0,0,0-2.71-3.88,39.87,39.87,0,0,0,17,1.55l-6.12-6.19,22.29,2.82a88.44,88.44,0,0,0-14.66-6.85l17.39-1.21a89.27,89.27,0,0,1-58.42-26.12,22.86,22.86,0,0,0,15.92,3.73,16.15,16.15,0,0,1-3.69-5.87,42.05,42.05,0,0,0,8.91,2.71l-7.05-6.43,5.11.1c-8.78-2.94-15.84-9.88-20.73-17.85s-7.85-17-10.65-25.91c-2.09,6.65-6.71,11.75-11,17.19-9,11.33-18.61,23.16-32.07,28.15a69.75,69.75,0,0,0,15.26-2.48c-2.24,3.34-6.25,4.89-10,6.24l17.67,0-11.38,5.05a136.86,136.86,0,0,0,15.15.49c-5.47,5.66-12.7,9.32-20.21,11.55s-15.32,3.12-23.1,3.92a16.16,16.16,0,0,0,12.55,1.17,38.35,38.35,0,0,1-6.42,4.13,64,64,0,0,0,17.16-.48,66.74,66.74,0,0,1-9.7,5,44.08,44.08,0,0,0,24.49-.95c-.42,2.53-2.57,4.35-4.64,5.82a80.87,80.87,0,0,1-44.16,14.88A216.86,216.86,0,0,1,2685,313.15c9.76,10,22,14.26,33.64,11.79a58.52,58.52,0,0,1-7.79-18.55,69.7,69.7,0,0,0,18.82,8.59l-14.89-20.33,10.8.32c-18.57-9.29-33.48-31.24-43.81-56.41s-16.57-53.62-22.49-81.87c-4.41,21-14.17,37.14-23.28,54.33-18.95,35.78-39.33,73.16-67.76,88.93a103,103,0,0,0,32.25-7.84c-4.74,10.57-13.22,15.45-21.17,19.72l37.33-.11-24,15.94a192.62,192.62,0,0,0,32,1.56A96.7,96.7,0,0,1,2589.4,362a88.52,88.52,0,0,1-19.15-14.6,22.81,22.81,0,0,0,15.92,3.73,16.15,16.15,0,0,1-3.69-5.87,42.08,42.08,0,0,0,8.91,2.72l-7-6.43,5.11.1c-8.79-2.94-15.84-9.89-20.73-17.86s-7.85-17-10.65-25.91c-2.09,6.65-6.71,11.76-11,17.2-9,11.32-18.61,23.15-32.07,28.14a68.57,68.57,0,0,0,15.26-2.48c-2.24,3.35-6.26,4.89-10,6.24l17.67,0-11.38,5a136.87,136.87,0,0,0,15.15.5c-5.47,5.66-12.7,9.32-20.21,11.55s-15.32,3.12-23.1,3.92a16.11,16.11,0,0,0,12.55,1.16,37.13,37.13,0,0,1-6.42,4.13,63.63,63.63,0,0,0,17.16-.47,66.74,66.74,0,0,1-9.7,5,44,44,0,0,0,24.49-1,4.71,4.71,0,0,1-.22.84l-3.14.49c.66.54,1.35,1,2,1.51a16,16,0,0,1-3.32,3,81,81,0,0,1-33.46,13.82,45.54,45.54,0,0,0-14.32-6,109.43,109.43,0,0,0,35-9c-9.75-4.53-20.2-3.56-30.33-5.3-13.34-2.3-26.1-9.3-38.71-16.26l-25.92-14.28c7,2.43,14.39,2.34,21.53.94-.06-3.56-1.65-7-3.84-8.24a38.76,38.76,0,0,0,24.16,3.28l-8.68-13.13,31.64,6a113.91,113.91,0,0,0-20.81-14.55l24.69-2.56c-30.88-2.26-61-22.43-82.94-55.48,6.55,6.7,14.77,9.58,22.6,7.92a39.06,39.06,0,0,1-5.23-12.46,46.85,46.85,0,0,0,12.64,5.77q-5-6.82-10-13.66l7.25.21c-12.47-6.24-22.5-21-29.43-37.9s-11.14-36-15.12-55c-3,14.12-9.52,25-15.64,36.51-12.74,24.05-26.43,49.16-45.54,59.76a69.15,69.15,0,0,0,21.67-5.27c-3.18,7.11-8.88,10.38-14.22,13.25l25.08-.07-16.15,10.71a129,129,0,0,0,21.5,1.05,65.23,65.23,0,0,1-28.69,24.52,96.16,96.16,0,0,1-20.43,6.21,24.82,24.82,0,0,1-4.81-8.12,65.73,65.73,0,0,0,13.81,4.21l-10.92-10,7.92.15c-13.62-4.55-24.57-15.32-32.14-27.67s-12.17-26.31-16.51-40.17c-3.24,10.31-10.4,18.22-17.08,26.66-13.91,17.55-28.86,35.89-49.72,43.63a107.32,107.32,0,0,0,23.66-3.85c-3.48,5.19-9.7,7.58-15.53,9.68l27.39-.06-17.64,7.83a213.94,213.94,0,0,0,23.48.76c-8.48,8.78-19.7,14.45-31.33,17.9s-23.75,4.85-35.81,6.08a25,25,0,0,0,19.45,1.81,57.54,57.54,0,0,1-9.95,6.4,98.36,98.36,0,0,0,26.6-.74,101.62,101.62,0,0,1-15,7.72,68.24,68.24,0,0,0,38-1.47c-.65,3.92-4,6.74-7.2,9a125.6,125.6,0,0,1-62.2,22.73q-3-7.86-5.68-16.06c1.48-.19,3-.42,4.4-.65l-7.34-9c-.28-1-.56-1.93-.83-2.9a63.64,63.64,0,0,0,22.61-2.88,121.43,121.43,0,0,1-20.86-9.2,31.33,31.33,0,0,0,14.59-8.55c-7.26,0-14.53.07-21.78-.39-2.52-10.58-4.81-21.3-7-32a35.8,35.8,0,0,0,6.19-.49l-9.75-8.66a41,41,0,0,0,26.4-2,24.62,24.62,0,0,1-9.64-6.78c6.73.13,14.22-.23,19-8.29l-14.6-.29c-8.79-.17-17.59-.35-26.32-2.06a86,86,0,0,1-26.16-9.9,45.94,45.94,0,0,1-11.61-8.89,75.68,75.68,0,0,1-7.41-10c8.32,8.35,17.34,17,26.95,15.6q-.47-3.39-.91-6.78c5.74,7.74,13.63,10.59,20.71,7.47l-4.35-8.15c8,3.23,16.59,2.15,24.23-3l-9-6c5.51-1.14,10.89-4.22,15.69-9-5.11-1.61-10.34-1.19-15.53-1.5-22.86-1.34-45.3-17.44-62-44.18A19.28,19.28,0,0,0,2110.3,188q-.24-3.89-.49-7.75c5.47,4.76,11.55,7.42,17.68,7.75a24.25,24.25,0,0,1-5.17-9.64,145.81,145.81,0,0,0,22.2-.77,29.41,29.41,0,0,0-12.49-7,64.4,64.4,0,0,0,22.65-6.59c-6.3-3.31-13-2.6-19.61-3.87-8.62-1.68-16.87-6.79-25-11.87l-16.76-10.43a23.64,23.64,0,0,0,13.92.69c0-2.6-1.06-5.08-2.48-6a22.58,22.58,0,0,0,15.62,2.39l-5.61-9.59,20.46,4.38a74.48,74.48,0,0,0-13.46-10.63l16-1.87c-20-1.65-39.46-16.38-53.63-40.5,4.24,4.89,9.56,7,14.62,5.78a30.72,30.72,0,0,1-3.38-9.1,28.63,28.63,0,0,0,8.17,4.21l-6.47-10,4.7.15c-8.07-4.55-14.55-15.32-19-27.67s-7.2-26.31-9.78-40.17c-1.91,10.31-6.15,18.22-10.11,26.66-8.23,17.55-17.09,35.89-29.44,43.63a40.55,40.55,0,0,0,14-3.85c-2.06,5.19-5.75,7.58-9.2,9.68l16.22-.06-10.44,7.82a74.44,74.44,0,0,0,13.9.77,43.91,43.91,0,0,1-18.55,17.9c-6.89,3.46-14.06,4.85-21.2,6.08,3.48,3.21,7.74,3.88,11.51,1.81a38.81,38.81,0,0,1-5.89,6.4,34.85,34.85,0,0,0,15.75-.74,58.13,58.13,0,0,1-8.91,7.72,24.91,24.91,0,0,0,22.49-1.47,16.45,16.45,0,0,1-4.26,9c-13.29,16-29.7,24.23-45.93,23,5.17,6.93,12.49,5.63,19,4a97,97,0,0,0-8.11,14.08A126.79,126.79,0,0,0,2035,159.7q-3.88,6.48-7.76,13c6.73,2.08,13.85.19,19.91-5.26a31.15,31.15,0,0,1-6.44,11.22c-18.13,20.21-40.16,30-61.74,27.33,4.63,7.37,11.68,7.4,18,7l-7.33,5.64a52.51,52.51,0,0,0,24-3.17,51.09,51.09,0,0,1-9.57,13.92,45.35,45.35,0,0,0,21.41-6.44l-7.45,9.65a38.65,38.65,0,0,0,19.82-6.29c-6.36,10.35-14.63,16.86-23.18,20.27s-17.41,3.89-26.18,3.32c4.39,4,9.54,5.48,14.45,4.13a58.42,58.42,0,0,1-8.53,9.54c7.32,1.54,14.56-3,21.4-7.62l-8.21,10.15a40.31,40.31,0,0,0,23-6.44c-14.63,18.72-33.35,27.81-51.55,25,4.57,3.84,9.94,3,15,2.12a46.28,46.28,0,0,1-11.29,7.2c7.15,3.51,15,2.63,21.85-2.44l-6.67,6.61a26.59,26.59,0,0,0,19.54-1.39c-11.83,14.27-27,18.48-41.44,16.87l-1.18,1.21a18.2,18.2,0,0,0,12.52,3.54l-8.67,6.81a162.66,162.66,0,0,1-80.19-41.35c7.4,5.2,17.44,6.9,26.7,6.73-.27-2.58-.55-5.17-.82-7.75a70.09,70.09,0,0,0,29.85,7.75,24.3,24.3,0,0,1-8.73-9.64q18.75.46,37.5-.77a65,65,0,0,0-21.11-6.95,169,169,0,0,0,38.26-6.59c-10.65-3.31-22-2.6-33.11-3.87-14.57-1.68-28.5-6.79-42.28-11.87l-28.3-10.43a66.29,66.29,0,0,0,23.51.69,6.79,6.79,0,0,0-4.2-6,61.76,61.76,0,0,0,26.39,2.39l-9.48-9.59,34.55,4.38a137.82,137.82,0,0,0-22.73-10.63l27-1.87a138.44,138.44,0,0,1-90.56-40.5,35.41,35.41,0,0,0,24.68,5.78,25,25,0,0,1-5.72-9.1,65.55,65.55,0,0,0,13.81,4.21l-10.92-10,7.92.15c-13.63-4.55-24.57-15.32-32.14-27.67s-12.17-26.31-16.51-40.17c-3.24,10.31-10.4,18.22-17.08,26.66-13.91,17.55-28.86,35.89-49.72,43.63a107.32,107.32,0,0,0,23.66-3.85c-3.48,5.19-9.7,7.58-15.54,9.68l27.4-.06-17.64,7.83a213.94,213.94,0,0,0,23.48.76c-8.48,8.78-19.7,14.45-31.33,17.91s-23.75,4.84-35.81,6.07a25,25,0,0,0,19.45,1.81,57.54,57.54,0,0,1-9.95,6.4,98.77,98.77,0,0,0,26.6-.73,102.53,102.53,0,0,1-15,7.71,68.24,68.24,0,0,0,38-1.47c-.65,3.92-4,6.74-7.2,9a125.29,125.29,0,0,1-77.56,23c8.73,6.93,21.1,5.62,32.07,4A101.32,101.32,0,0,0,1762,275a272.13,272.13,0,0,0,35.9-12.77l-13.1,13a52.1,52.1,0,0,0,33.62-5.26c-2.35,4.49-6.67,8.44-10.87,11.22a168.7,168.7,0,0,1-104.26,27.33c7.83,7.37,19.73,7.41,30.4,7l-12.38,5.64a146,146,0,0,0,40.53-3.17,61,61,0,0,1-16.17,13.92,118.25,118.25,0,0,0,36.16-6.43l-12.58,9.64a99.49,99.49,0,0,0,33.47-6.29c-10.75,10.35-24.7,16.86-39.14,20.28s-29.4,3.88-44.22,3.31a38.7,38.7,0,0,0,24.41,4.13,85.6,85.6,0,0,1-14.4,9.54c12.35,1.54,24.57-3,36.14-7.62l-13.87,10.15a105.69,105.69,0,0,0,38.77-6.43,126.86,126.86,0,0,1-82.64,25.33,114.43,114.43,0,0,1-12.17-1.68c-12.74-2.83-24.94-11.5-37-20.1L1633.88,348c6.66,3,13.76,2.89,20.58,1.16-.06-4.41-1.58-8.61-3.68-10.19,7.44,4.57,15.37,6,23.1,4.06q-4.16-8.13-8.3-16.25l30.23,7.42a112.74,112.74,0,0,0-19.89-18l23.6-3.17c-29.5-2.8-58.32-27.75-79.26-68.62,6.27,8.29,14.12,11.85,21.6,9.8a57.15,57.15,0,0,1-5-15.41,40.91,40.91,0,0,0,12.08,7.13l-9.56-16.9,6.94.27c-11.93-7.72-21.5-26-28.13-46.89s-10.65-44.56-14.45-68c-2.83,17.46-9.1,30.87-14.94,45.16-12.17,29.73-25.26,60.8-43.51,73.91A54.21,54.21,0,0,0,1566,227c-3,8.79-8.49,12.84-13.59,16.39l24-.09-15.44,13.25a96.53,96.53,0,0,0,20.55,1.3c-7.42,14.87-17.24,24.47-27.42,30.33s-20.78,8.2-31.33,10.3c5.15,5.43,11.44,6.56,17,3.06a63.61,63.61,0,0,1-8.71,10.84,45.1,45.1,0,0,0,23.28-1.25q-2.08,2.52-4.25,4.8c-5.16-.63-10.43-.64-15.6-1.32-10.67-1.41-20.87-5.7-31-10l-20.73-8.76a42.54,42.54,0,0,0,17.23.58,5.72,5.72,0,0,0-3.08-5.05,39.84,39.84,0,0,0,19.33,2l-6.94-8.06,25.3,3.68a95.4,95.4,0,0,0-16.64-8.92l19.74-1.57c-24.69-1.39-48.81-13.75-66.33-34a23.34,23.34,0,0,0,18.08,4.85,21.32,21.32,0,0,1-4.19-7.63,43.85,43.85,0,0,0,10.11,3.53l-8-8.37,5.81.13c-10-3.83-18-12.87-23.55-23.24s-8.91-22.09-12.09-33.73c-2.37,8.66-7.62,15.3-12.51,22.39-10.19,14.74-21.14,30.13-36.42,36.63a69.73,69.73,0,0,0,17.33-3.23c-2.55,4.36-7.11,6.37-11.38,8.12l20.07,0-12.93,6.57a135.52,135.52,0,0,0,17.21.64c-6.22,7.37-14.43,12.13-23,15s-17.4,4.07-26.23,5.11a16.22,16.22,0,0,0,14.24,1.51,41.79,41.79,0,0,1-7.29,5.38,63.11,63.11,0,0,0,19.49-.62,72.59,72.59,0,0,1-11,6.48,43.88,43.88,0,0,0,27.81-1.24c-.47,3.29-2.92,5.66-5.27,7.58-16.43,13.44-36.74,20.35-56.81,19.35,6.4,5.82,15.46,4.72,23.49,3.33a81.22,81.22,0,0,0-10,11.82,181.61,181.61,0,0,0,26.3-10.72l-9.6,10.89a33.94,33.94,0,0,0,24.62-4.42,26.12,26.12,0,0,1-8,9.42c-22.42,17-49.68,25.16-76.37,23,5.73,6.19,14.45,6.22,22.27,5.88l-9.07,4.73a93.56,93.56,0,0,0,29.69-2.66,47.26,47.26,0,0,1-11.84,11.69,76.46,76.46,0,0,0,26.48-5.41l-9.21,8.1a64.84,64.84,0,0,0,24.52-5.28,59.3,59.3,0,0,1-28.67,17,94.8,94.8,0,0,1-24.1,2.95c-25.27-7.47-49.31-30.91-67.45-66.3,6.27,8.28,14.12,11.84,21.6,9.79a57,57,0,0,1-5-15.41,40.69,40.69,0,0,0,12.08,7.13q-4.77-8.45-9.56-16.89l6.94.26c-11.93-7.72-21.5-26-28.13-46.88s-10.65-44.57-14.45-68c-2.83,17.46-9.1,30.87-14.94,45.16-12.17,29.74-25.26,60.8-43.51,73.91a53.87,53.87,0,0,0,20.7-6.52c-3,8.79-8.49,12.85-13.59,16.4l24-.09-15.44,13.25a96.52,96.52,0,0,0,20.55,1.29c-7.13,14.3-16.49,23.72-26.24,29.63a94.36,94.36,0,0,0-15.87-8.41l19.75-1.57c-24.69-1.39-48.81-13.75-66.34-34a23.37,23.37,0,0,0,18.08,4.85,21.42,21.42,0,0,1-4.18-7.64,43.25,43.25,0,0,0,10.11,3.54l-8-8.37,5.8.13c-10-3.83-18-12.87-23.54-23.24s-8.91-22.09-12.09-33.73c-2.37,8.66-7.62,15.3-12.51,22.38-10.19,14.74-21.14,30.14-36.42,36.64a69.73,69.73,0,0,0,17.33-3.23c-2.55,4.36-7.11,6.36-11.38,8.12l20.07,0-12.93,6.57a137.4,137.4,0,0,0,17.21.64c-6.22,7.37-14.43,12.13-23,15s-17.4,4.07-26.23,5.11a16.22,16.22,0,0,0,14.24,1.51,42.3,42.3,0,0,1-7.29,5.38,63.42,63.42,0,0,0,19.49-.62,72.59,72.59,0,0,1-11,6.48,43.88,43.88,0,0,0,27.81-1.24c-.47,3.29-2.92,5.66-5.27,7.58C1106.38,382,1086.07,388.9,1066,387.9c6.4,5.81,15.46,4.72,23.49,3.33a81.91,81.91,0,0,0-10,11.82,180.69,180.69,0,0,0,26.3-10.72l-9.59,10.89a33.94,33.94,0,0,0,24.62-4.42,26.12,26.12,0,0,1-8,9.42c-21.46,16.24-47.34,24.43-72.91,23.17a122.64,122.64,0,0,1-9.89-9.61c5.42,4.37,12.77,5.79,19.55,5.65l-.6-6.51a46.24,46.24,0,0,0,21.86,6.51,19.81,19.81,0,0,1-6.39-8.09,265.11,265.11,0,0,0,27.47-.65,43.73,43.73,0,0,0-15.46-5.84,109.53,109.53,0,0,0,28-5.53c-7.8-2.78-16.15-2.18-24.25-3.25-10.67-1.41-20.88-5.7-31-10l-20.73-8.76a42.67,42.67,0,0,0,17.22.58,5.73,5.73,0,0,0-3.07-5.05,39.84,39.84,0,0,0,19.33,2l-7-8.06,25.31,3.68a95.13,95.13,0,0,0-16.65-8.92l19.75-1.57c-24.69-1.39-48.81-13.75-66.34-34a23.4,23.4,0,0,0,18.08,4.85,21.52,21.52,0,0,1-4.19-7.64,44,44,0,0,0,10.12,3.54l-8-8.37,5.8.13c-10-3.83-18-12.87-23.55-23.24s-8.9-22.09-12.09-33.73c-2.37,8.66-7.61,15.3-12.51,22.38-10.18,14.74-21.14,30.14-36.42,36.64a69.64,69.64,0,0,0,17.33-3.23c-2.54,4.35-7.1,6.36-11.37,8.12l20.06,0L967.46,340a135.37,135.37,0,0,0,17.2.65c-6.21,7.37-14.43,12.13-22.95,15s-17.39,4.07-26.23,5.1a16.21,16.21,0,0,0,14.25,1.52,43.09,43.09,0,0,1-7.29,5.38,63.43,63.43,0,0,0,19.49-.62,73.58,73.58,0,0,1-11,6.48,44,44,0,0,0,27.81-1.24c-.48,3.29-2.92,5.66-5.27,7.58C957,393.3,936.71,400.21,916.63,399.2c6.4,5.82,15.46,4.73,23.5,3.34a81.28,81.28,0,0,0-10,11.82,181.15,181.15,0,0,0,26.3-10.72l-9.6,10.88a33.87,33.87,0,0,0,24.63-4.42,26.1,26.1,0,0,1-8,9.43,114,114,0,0,1-55.83,22.62c-1.77-2.95-3.49-6-5.13-9.24,4.68,6.19,10.54,8.85,16.13,7.32a42.63,42.63,0,0,1-3.73-11.51,30.46,30.46,0,0,0,9,5.33l-7.14-12.62,5.18.19c-8.91-5.76-16.06-19.39-21-35s-8-33.29-10.79-50.83c-2.12,13-6.8,23.06-11.17,33.73-3.36,8.23-6.83,16.59-10.54,24.36-4.55-.44-9.16-.51-13.69-1.11-10.67-1.41-20.87-5.7-31-10L803.05,374a42.54,42.54,0,0,0,17.23.58,5.73,5.73,0,0,0-3.07-5.05,39.81,39.81,0,0,0,19.32,2l-6.94-8.06,25.3,3.68a95.4,95.4,0,0,0-16.64-8.92L858,356.71c-24.7-1.39-48.82-13.75-66.34-34a23.34,23.34,0,0,0,18.08,4.85,21.28,21.28,0,0,1-4.19-7.64,43.41,43.41,0,0,0,10.11,3.54l-8-8.37,5.81.13c-10-3.83-18-12.87-23.55-23.24s-8.91-22.09-12.09-33.73c-2.37,8.66-7.62,15.3-12.51,22.38-10.19,14.74-21.14,30.14-36.42,36.64A69.64,69.64,0,0,0,746.23,314c-2.55,4.36-7.11,6.36-11.38,8.12l20.07,0L742,328.68a137.17,137.17,0,0,0,17.2.64c-6.21,7.37-14.43,12.13-23,15s-17.4,4.07-26.23,5.11A16.24,16.24,0,0,0,724.27,351a42.76,42.76,0,0,1-7.3,5.38,63.42,63.42,0,0,0,19.49-.62,72.59,72.59,0,0,1-11,6.48A43.91,43.91,0,0,0,753.26,361c-.48,3.29-2.93,5.66-5.28,7.58a87.08,87.08,0,0,1-26.29,14.82c-14.28-8.34-27.52-23.52-38.09-44.14,4.68,6.19,10.55,8.85,16.14,7.32A42.24,42.24,0,0,1,696,335a30.28,30.28,0,0,0,9,5.33l-7.14-12.62,5.18.2c-8.9-5.76-16.06-19.39-21-35s-7.95-33.29-10.79-50.83c-2.11,13-6.79,23.06-11.16,33.73C651,298,641.23,321.24,627.6,331a40.2,40.2,0,0,0,15.46-4.87c-2.27,6.57-6.34,9.6-10.15,12.25l17.91-.07-11.53,9.9a72.61,72.61,0,0,0,15.35,1c-5.55,11.1-12.88,18.27-20.48,22.65s-15.53,6.13-23.41,7.69c3.85,4.06,8.55,4.91,12.71,2.29a47.6,47.6,0,0,1-6.5,8.1,33.85,33.85,0,0,0,17.39-.93,68.55,68.55,0,0,1-9.84,9.76c8.15,3.94,16.86,3.29,24.82-1.86a22,22,0,0,1-4.7,11.42C630,428.58,611.84,439,593.93,437.48c5.71,8.77,13.79,7.12,21,5a127,127,0,0,0-9,17.81,136.49,136.49,0,0,0,23.47-16.15l-8.57,16.4c7.43,2.63,15.3.24,22-6.66a41.24,41.24,0,0,1-7.11,14.2C622.27,485.29,606.87,496.49,591,501l-11-5a46,46,0,0,0,19.4-7.56c-6.31-1.35-12.79-1-19.2-1.26-28.28-1.12-56-14.64-76.67-37.1,5.42,4.37,12.77,5.8,19.56,5.65l-.6-6.5a46.34,46.34,0,0,0,21.86,6.5,19.76,19.76,0,0,1-6.4-8.09,262.29,262.29,0,0,0,27.47-.65A43.73,43.73,0,0,0,550,441.15a108.76,108.76,0,0,0,28-5.53c-7.8-2.78-16.15-2.18-24.26-3.25-10.67-1.41-20.88-5.7-31-10L502,413.65a42.54,42.54,0,0,0,17.23.58,5.72,5.72,0,0,0-3.08-5.05,39.72,39.72,0,0,0,19.33,2q-3.46-4-7-8.05l25.31,3.67a95.13,95.13,0,0,0-16.65-8.92L557,396.32c-24.69-1.39-48.81-13.75-66.34-34a23.42,23.42,0,0,0,18.09,4.86,21.45,21.45,0,0,1-4.19-7.64,43.22,43.22,0,0,0,10.11,3.53l-8-8.37,5.8.13c-10-3.83-18-12.87-23.54-23.24S480,309.49,476.8,297.85c-2.37,8.66-7.62,15.31-12.51,22.39-10.19,14.74-21.14,30.13-36.42,36.63a69.27,69.27,0,0,0,17.33-3.23c-2.55,4.36-7.11,6.37-11.38,8.13l20.07,0L441,368.29a135.52,135.52,0,0,0,17.21.64c-6.22,7.37-14.43,12.13-22.95,15S417.82,388,409,389.07a16.25,16.25,0,0,0,14.24,1.52,42.24,42.24,0,0,1-7.29,5.37,62.8,62.8,0,0,0,19.49-.62,71.77,71.77,0,0,1-11,6.48,43.88,43.88,0,0,0,27.81-1.24c-.47,3.3-2.92,5.66-5.27,7.58-16.43,13.44-36.74,20.35-56.81,19.35,6.4,5.82,15.46,4.72,23.49,3.34a80.85,80.85,0,0,0-10,11.82,181.87,181.87,0,0,0,26.3-10.73l-9.59,10.89a33.94,33.94,0,0,0,24.62-4.42,26.12,26.12,0,0,1-8,9.42c-22.43,17-49.68,25.16-76.37,22.95,5.73,6.19,14.45,6.22,22.27,5.88l-9.07,4.74a93.86,93.86,0,0,0,29.69-2.67,47,47,0,0,1-11.85,11.69,76.68,76.68,0,0,0,26.49-5.4l-9.21,8.1a64.76,64.76,0,0,0,24.51-5.29,59.21,59.21,0,0,1-28.67,17c-10.57,2.87-21.53,3.26-32.39,2.78a25.26,25.26,0,0,0,17.88,3.47,62.57,62.57,0,0,1-10.55,8c9.05,1.29,18-2.5,26.47-6.4L396,521.24a68.47,68.47,0,0,0,28.4-5.4c-18.1,15.71-41.26,23.35-63.76,21,5.64,3.23,12.29,2.54,18.55,1.78a64.89,64.89,0,0,1-14,6.05,35.3,35.3,0,0,0,27-2.06L384,548.19A47.35,47.35,0,0,0,408.19,547a60.82,60.82,0,0,1-19,10.44c-25.7-8-49.64-23.7-68.5-45.51A35.24,35.24,0,0,0,348,519.27a32.33,32.33,0,0,1-6.31-11.51,66,66,0,0,0,15.24,5.33l-12.06-12.62,8.75.19c-15.05-5.76-27.12-19.39-35.49-35s-13.42-33.29-18.22-50.82c-3.57,13-11.48,23.06-18.85,33.73-2.37,3.43-4.77,6.88-7.22,10.3-28.12-1.24-55.69-14.73-76.22-37.07,5.42,4.37,12.77,5.79,19.56,5.65l-.6-6.51a46.24,46.24,0,0,0,21.86,6.51,19.83,19.83,0,0,1-6.4-8.09,265,265,0,0,0,27.47-.65A43.73,43.73,0,0,0,244,412.85a109.52,109.52,0,0,0,28-5.53c-7.8-2.78-16.15-2.18-24.26-3.25-10.67-1.41-20.87-5.7-31-10l-20.73-8.76a42.72,42.72,0,0,0,17.23.58,5.72,5.72,0,0,0-3.08-5.05,39.85,39.85,0,0,0,19.33,2l-6.94-8.06,25.3,3.68a95.4,95.4,0,0,0-16.64-8.92L251,368c-24.69-1.39-48.81-13.75-66.33-34a23.38,23.38,0,0,0,18.08,4.85,21.37,21.37,0,0,1-4.19-7.64,43.88,43.88,0,0,0,10.11,3.54l-8-8.37,5.81.13c-10-3.83-18-12.87-23.55-23.24s-8.91-22.09-12.09-33.73c-2.37,8.66-7.62,15.3-12.51,22.38-10.19,14.74-21.14,30.14-36.42,36.64a69.73,69.73,0,0,0,17.33-3.23c-2.55,4.35-7.11,6.36-11.38,8.12l20.07,0L135,340a135.53,135.53,0,0,0,17.21.65c-6.22,7.37-14.43,12.13-22.95,15a78,78,0,0,1-7.56,2.13c-28.45-10-55.16-33.11-75.82-66.3,7.94,8.65,17.89,12.36,27.37,10.22A52.37,52.37,0,0,1,67,285.63a55.4,55.4,0,0,0,15.31,7.45L70.15,275.45l8.79.28c-15.11-8.05-27.24-27.08-35.64-48.9s-13.49-46.48-18.31-71c-3.58,18.21-11.52,32.2-18.93,47.1Q3.06,209,0,215v1541.4H4582.66ZM260.36,476.37q-1.1,1.31-2.22,2.58c-1-1.21-1.91-2.43-2.86-3.64A44.05,44.05,0,0,0,260.36,476.37Zm-3.41,39L251.69,518a90.69,90.69,0,0,0-7.35-6.56A66.29,66.29,0,0,0,257,515.34Zm-20.8-33.77c-.37-1.9-.74-3.79-1.12-5.69a27.35,27.35,0,0,0,19.24,7.29q-3.68,3.85-7.57,7.3a142.17,142.17,0,0,1-20.35-6.18A60.1,60.1,0,0,1,212,476.83a71.9,71.9,0,0,1-9.15-8.36C213.11,475.48,224.27,482.74,236.15,481.57ZM184.78,661.86q1.13,3.2,2.34,6.35l-2.27.71c-.55-2.35-1-4.71-1.49-7.1Zm-10.89,28.56,2.24-.34a39.43,39.43,0,0,0,4.59,6.76c0-2.52,0-5,.05-7.56l.15,0a16.64,16.64,0,0,0,2.07,6,69.68,69.68,0,0,1-9.31,8.27C173.8,698.58,173.89,694,173.89,690.42Zm13.93,102q2.91.15,5.84.07a91.1,91.1,0,0,1-18.84,10.88q-3.06-5.25-6.38-10.07A71.17,71.17,0,0,0,187.82,792.46Zm-21.68-6.06,1.28.72-2.34,1.58-1.19-1.57C164.64,786.9,165.39,786.66,166.14,786.4ZM151.36,674.72v.64h-.11C151.28,675.16,151.33,674.94,151.36,674.72Zm.33,9.73c0,.16,0,.33,0,.5l-.33-.51Zm-.11,7.26c-.13,9.51-.23,19.29-.23,27.38,0,2.78-.06,5.57-.16,8.36-2.91-.66-5.82-1.38-8.73-2.21a143.07,143.07,0,0,1-48.27-24,74.55,74.55,0,0,0,13.15-7.26c1.55.42,3.11.8,4.66,1.14l-2.07,3.36a45.59,45.59,0,0,0,7.66-2.32q3.82.58,7.67.84l-1.44-3.86a51.71,51.71,0,0,0,9.89-7.45c.92.51,1.85,1,2.79,1.45q-3.36,10.32-6.74,20.64a41.16,41.16,0,0,0,15.92-16.27C147.65,691.59,149.61,691.67,151.58,691.71Zm-69.11-105C79.36,583,76.58,579,73.4,574.5h0c4,3.8,8.11,7.62,12.29,11.17C84.62,586,83.55,586.38,82.47,586.71Zm.65,104-.53.61-.17-.16C82.65,691,82.89,690.83,83.12,690.67ZM72,481.91a34.8,34.8,0,0,0,8.53,4.14,59.29,59.29,0,0,1-5.33,3.84q-3.56-4.62-7-9.53A26.46,26.46,0,0,0,72,481.91Zm-4.41-2.53c-.73-1.06-1.45-2.12-2.17-3.2a36,36,0,0,0,3.31,3.24ZM76.1,491c5.29.26,10.53-1.06,15.66-3,1.1,0,2.2.06,3.28,0,0-.44-.05-.87-.08-1.31,1.78-.75,3.54-1.54,5.28-2.34l-10.15,8.52a68.63,68.63,0,0,0,28.4-5.4,88.4,88.4,0,0,1-30.62,17.39Q81.81,498.38,76.1,491Zm18-16.64c1.08.88,2.17,1.72,3.28,2.53-1,.25-2,.48-3.07.7Zm8.13,44.33-.17.13-.07-.07ZM95.51,689.88l1.76.73a82.36,82.36,0,0,0-4.38,9.58q-2.88-2.27-5.7-4.72Zm50.62.77.08-.16.16,0Zm.18-318.37c-.48,3.29-2.93,5.66-5.28,7.58-.92.76-1.86,1.48-2.8,2.2q-4.15-3.65-8.45-6.87A44.15,44.15,0,0,0,146.31,372.28ZM129.51,367q-2.86,2-5.9,3.78-2.1-1.41-4.23-2.71A64,64,0,0,0,129.51,367ZM103.33,377.4l32.31,6.52a83.51,83.51,0,0,1-46.48,15.35c-.41-4-2.19-7.68-4.57-9.15a44.52,44.52,0,0,0,29.26,4.22Q108.59,385.88,103.33,377.4Zm-16.4,23.78c6.1,3.54,13.82,2.56,20.78,1.36a81.22,81.22,0,0,0-10,11.82A181.61,181.61,0,0,0,124,403.64l-9.6,10.88A33.84,33.84,0,0,0,139,410.1a26.07,26.07,0,0,1-8,9.43,118.32,118.32,0,0,1-15.67,10c-7-3.5-13.93-7.55-20.81-11.6L63.18,399.53C70.86,402.38,79,402.54,86.93,401.18ZM64.51,670.61a126.18,126.18,0,0,0,12.76,9.56c-1.18.65-2.37,1.27-3.56,1.89Q69,676.69,64.51,670.61ZM193.75,836.23c-13.2.8-26.39,1.26-39.56-.08-28.72-2.91-58.36-15.46-79.44-47.1,18.31,13.73,38.49,20.92,58.68,20.89a180.39,180.39,0,0,1-22.17-38c17.31,15.81,35.78,32,55.25,34.58-15.2,5-31.46,6.31-47.26,5.11l-2.19,1.54a46.2,46.2,0,0,0,23.32,4.48l-16.21,8.65a80.83,80.83,0,0,0,38.38-3.41l-11.34,11.28A357.45,357.45,0,0,0,203,829.8,95.92,95.92,0,0,1,193.75,836.23Zm15.61-83.91q-3.29-1.56-6.54-3.24a104.49,104.49,0,0,0,18.12-5.76A138.88,138.88,0,0,1,209.36,752.32Zm-18-25.55a122.28,122.28,0,0,1-18.2,3.42c0-6.58.3-16.33.53-25.25a112.7,112.7,0,0,0,17.15-2,59.81,59.81,0,0,0,8.57,4c-1-1.73-1.86-3.48-2.75-5.26a118,118,0,0,0,14.84-4.76l-13.88,12.21a97.73,97.73,0,0,0,36.83-7.92l.05,0C222.6,714.24,207.23,722.46,191.32,726.77Zm63.59-145.72a133.9,133.9,0,0,1-13.49,9.7c-14-3-27.36-9.16-37.67-20.29a81.61,81.61,0,0,0,38.77,9.93,81.33,81.33,0,0,1-6.17-6.41,67.79,67.79,0,0,0,10.56-.41,60.05,60.05,0,0,0,11.59,4.22A37.62,37.62,0,0,1,254.91,581.05Zm-26.62-18,.51,0,3.5,2.27-1.82,1.13C229.73,565.25,229,564.13,228.29,563Zm34.55,6.75-.09-.08.11,0A.5.5,0,0,0,262.84,569.75Zm-14.69-29.68c-18.53-3.83-36.82-11.73-51.16-25.89a84.35,84.35,0,0,0,40.13,12.52l-6.71-12.93a40.57,40.57,0,0,0,26.93,10.35c-.71-.84-1.44-1.65-2.18-2.46,5.55.31,11.1.41,16.65.27A72.41,72.41,0,0,1,248.15,540.07Zm187,195.13q-4.05-5.15-8.09-10.31A64.38,64.38,0,0,0,438.65,727l-3,9.09a38.45,38.45,0,0,0,10.79-8.88,66.47,66.47,0,0,0,11-1.28c-.1,7.58-.16,15.08-.16,21.52,0,1.86,0,3.74-.07,5.61-8.34-.35-16.66-1-24.95-2a212.33,212.33,0,0,1-48.76-12.53,99.83,99.83,0,0,1-18.65-9.16q2.58-.54,5.11-1.28c9.09,4.47,18.54,7.3,28.31,6.34-.56-2.86-1.13-5.72-1.69-8.57.81.73,1.64,1.42,2.49,2.09-.33.83-.66,1.66-1,2.5.92-.36,1.84-.76,2.75-1.16A39.9,39.9,0,0,0,435.17,735.2Zm20.41,41.89c-.23,2.24-.47,4.37-.71,6.35l-8.67-5.23c1.27-.5,2.53-1,3.79-1.52C451.85,776.87,453.71,777,455.58,777.09ZM368.73,642.94a71.49,71.49,0,0,0,18.79,7.76,72.12,72.12,0,0,1-15.44,1.61c-.83,0-1.66,0-2.49,0C369.31,649.17,369,646.05,368.73,642.94Zm23.31-2.4q8.29.24,16.6.12a44.55,44.55,0,0,1-12.07,7.26A31.37,31.37,0,0,1,392,640.54Zm17.21-34.23a125.06,125.06,0,0,1-14,6.36c-7.88-2.56-15.64-5.75-23.35-9a76.68,76.68,0,0,0,27.61-7.17l-8.91,8a54.94,54.94,0,0,0,22.88-2C412.63,604.42,410.89,605.44,409.25,606.31Zm3.27-33.09c-.85.67-1.72,1.3-2.6,1.92-.69-.42-1.39-.82-2.09-1.22C409.39,573.7,411,573.47,412.52,573.22Zm-20.35,2.33,14,2a63,63,0,0,1-18.3,7.49l-7.75-9Q386.17,576,392.17,575.55Zm-11.73-1.7-1.2,1.19-1.35-1.56Zm1.27,12.35a59.1,59.1,0,0,1-19.27-.7,7.49,7.49,0,0,0-3.21-2.92A60.16,60.16,0,0,0,381.71,586.2Zm-18.15,4a16.34,16.34,0,0,0,3.9,1.69c3.77,1.08,7.71.94,11.59.8L370.29,603l-1.14-.48-31.25-13.2C346.21,591.54,355,591.48,363.56,590.23Zm-6.69,130.24-2.13.78c-2.21-2.06-4.34-4.24-6.7-6.66C350.94,716.57,353.88,718.56,356.87,720.47Zm-10.38-70.32-.72-.09q-2.85-2.85-5.61-5.84a37.36,37.36,0,0,0,14.46,6.93C351.9,650.84,349.2,650.49,346.49,650.15Zm69.77,172.32c-27.9-5.78-55.43-17.69-77-39a127.12,127.12,0,0,0,60.49,18.87l-10.11-19.48c11.58,10.16,26.08,15.73,40.58,15.6a137.38,137.38,0,0,0-19.59-19.1A98.6,98.6,0,0,0,454.43,787c-.86,6.73-1.58,11-1.58,11h18A173.34,173.34,0,0,1,416.26,822.47ZM646.4,884.31A41.76,41.76,0,0,0,654,887c0,3.7-.05,7.39-.07,11l-2.2.74q-5.76-1.34-11.46-3A63.9,63.9,0,0,0,646.4,884.31Zm-9,1.43c-.56-2.86-1.13-5.72-1.69-8.57,1,.94,2.11,1.81,3.21,2.63l-2.85,14.72q-6.76-2.12-13.44-4.68c-1.54-.6-3.08-1.23-4.61-1.87a30.65,30.65,0,0,0,5.85-3.16A42.66,42.66,0,0,0,637.43,885.74ZM588.85,589.37a113.54,113.54,0,0,0,19.85-.67,65.39,65.39,0,0,1-11.15,7.92Zm.31,11a43.63,43.63,0,0,1-15.71,2.48,70.62,70.62,0,0,0-8.29-8C572.39,599.66,580.74,600.65,589.16,600.39ZM610,617.59c-.7,1-1.4,1.87-2.12,2.76-2.21.06-4.43.15-6.64.24A28.13,28.13,0,0,0,610,617.59ZM593,579.3a42.48,42.48,0,0,0,7-1.72l-.81,1.16c8.6.39,17.25-2.39,25.34-8.14a98.82,98.82,0,0,1-12.28,14.83A192.29,192.29,0,0,1,593,579.3Zm6.41-7.17a89.63,89.63,0,0,0,8.81-6.23l-4.41,6.24Zm15,180c-.64,1.23-1.29,2.4-2,3.52l-3.4-1.44A52.09,52.09,0,0,0,614.39,752.14Zm-2.48-49.56c1-.38,1.89-.82,2.83-1.3a10.11,10.11,0,0,1-.85,2.18C613.23,703.17,612.56,702.88,611.91,702.58Zm2.55,179.22c1.41.58,2.83,1.1,4.26,1.57-.51,1.41-1,2.82-1.55,4.23-1.89-.81-3.77-1.68-5.62-2.6Q613,883.47,614.46,881.8ZM542.07,509.87c-.37-1.89-.75-3.79-1.12-5.69a26.79,26.79,0,0,0,25.62,6.27l-5.38-6.84A43,43,0,0,0,569,505c5.07,7,12.07,7,18.42,6.57l-8.1,7.13a51.2,51.2,0,0,0,26.49-4,77.64,77.64,0,0,1-3.91,8l-4.73-.06c-10.87-.15-21.76-.29-32.56-1.73a140.8,140.8,0,0,1-32.36-8.32,60.1,60.1,0,0,1-14.37-7.46,72.57,72.57,0,0,1-9.15-8.35C519,503.79,530.19,511,542.07,509.87Zm55.22,19.91c-.64.84-1.28,1.65-1.95,2.42a36.17,36.17,0,0,1-3.62-2.36C593.55,529.86,595.42,529.86,597.29,529.78Zm-106.72,160-1.23.65c-.51-2.71-1-5.43-1.32-8.16C488.84,684.78,489.69,687.29,490.57,689.8ZM479.19,792.11c.13-2.5.18-5.53.2-8.77A52.45,52.45,0,0,0,491,778C488.47,783.66,483.78,788.6,479.19,792.11Zm14.89-59.65A132.19,132.19,0,0,1,479.31,743c.16-6,.33-12.21.43-17.54a66,66,0,0,0,6.73-.49l.17.22v-.24c.95-.12,1.9-.27,2.84-.43a20.45,20.45,0,0,0,3.73,4.26A25,25,0,0,0,496,730.8C495.38,731.38,494.73,731.94,494.08,732.46Zm6.36-6.91c-.52-1.13-1-2.27-1.51-3.42,1-.34,2.07-.7,3.1-1.09A12.77,12.77,0,0,1,500.44,725.55ZM543,555q-3.36-6.46-6.71-12.92a40.6,40.6,0,0,0,26.93,10.35,90.36,90.36,0,0,0-13-12.67,65.28,65.28,0,0,0,32.79,4.75L571,537.25a73.16,73.16,0,0,0,32.65-1.72,32.58,32.58,0,0,1-8.15-3.25,45.71,45.71,0,0,0,23.41-8.13l-8.22,12.2c7.45-.19,14.88-2.9,21.88-8-7,13.1-16.15,21.33-25.59,25.66s-19.22,4.91-28.9,4.19c4.84,5.07,10.53,6.93,15.95,5.23a76.28,76.28,0,0,1-6.15,8.47,197.13,197.13,0,0,1-33.46-3.5c-18.66-3.8-37.07-11.72-51.51-26A84.42,84.42,0,0,0,543,555Zm-26.43,50.15a61.17,61.17,0,0,1-6.94-6.39,84.47,84.47,0,0,0,8.58,4Zm42.85,15.76c-.75-1.27-1.48-2.55-2.18-3.86a148.54,148.54,0,0,1-7.56-16.73c8.72,4.56,17.82,7.66,27.25,6.78-.32-.42-.66-.81-1-1.22a32.12,32.12,0,0,0,8.19-.92,50.58,50.58,0,0,1-12.46,9.11c7.9,4.44,16.58,3.33,24.12-3.09l-7.36,8.37a26.17,26.17,0,0,0,7,1.51c-11.13.53-22.25,1.1-33.36.29ZM596.79,631c-.54.39-1.08.75-1.63,1.1l-2.38-.92A33.54,33.54,0,0,0,596.79,631Zm-6.85,19.2-.32.53-.34-.17ZM588.87,652l-.58,1h-3.22l-.33-.34c.58-.21,1.16-.45,1.73-.7ZM565,667.39l1.17-.08a37.83,37.83,0,0,0,4.31,1.82C568.59,668.61,566.76,668,565,667.39Zm5-32.67a65.88,65.88,0,0,0,11.22,3.41,42.81,42.81,0,0,1-4.74.85A23.45,23.45,0,0,0,569.93,634.72Zm11,24.7.23-.1c.87.42,1.75.82,2.63,1.2-.18.32-.37.63-.56,1l2.62-.09a65.29,65.29,0,0,0,10.24,3.12l-3.43-3.59a130.64,130.64,0,0,0,21.25-3.83c-5.46,7.23-11.53,12.59-17.88,16a131.66,131.66,0,0,1-18.81-2.3,33.46,33.46,0,0,0,9.94-.09A32.41,32.41,0,0,1,580.92,659.42Zm22.41,216.89c.66.38,1.32.75,2,1.11-.36,1.13-.69,2.29-1,3.44-1-.68-2.09-1.39-3.11-2.13C601.9,877.92,602.61,877.11,603.33,876.31Zm-3.74-180-1.64-1q2.19-1.44,4.32-3.13Zm-8.22,47.38a30,30,0,0,0-2.57,2.05l-1.27-.54C588.82,744.68,590.1,744.16,591.37,743.64Zm47.52,210.11-10.11-19.48a63.34,63.34,0,0,0,24.41,13.4c-.16,3.66-.33,7.24-.52,10.69a137.9,137.9,0,0,1-32.81,4.31,137.53,137.53,0,0,1-41.45-27.79A127,127,0,0,0,638.89,953.75Zm13,17.88-.09,1.35-.09.08-2-.47Zm-17.62,43.56-2.8,1.9-.33-.45C632.15,1016.19,633.2,1015.71,634.23,1015.19Zm-16.66,25.72a96.08,96.08,0,0,1-29-21.21,123.76,123.76,0,0,0,49.34,14.6A102.24,102.24,0,0,1,617.57,1040.91Zm26.15-9.45q-3-3-5.89-6.33a71.06,71.06,0,0,0,14-1.63c.86.43,1.72.85,2.59,1.25A88.44,88.44,0,0,1,643.72,1031.46Zm87.21-639.13-2.55,2.89-1.32-1C728.35,393.6,729.64,393,730.93,392.33ZM687.49,850.07l.26,1-1.94-.19Zm-4-17.65-1.12.46q-.63-5.68-1.09-11.45C682,825.08,682.72,828.76,683.48,832.42Zm-9.59,54.31.45-.12-.45-.57c0-2.93.05-5.67.06-8.14q1.41.21,2.82.36a67.46,67.46,0,0,0,3.28,7.76l0-7.5.68,0a36.78,36.78,0,0,0,1.78,6.36q-4.29,2.45-8.69,4.65C673.87,888.6,673.88,887.66,673.89,886.73Zm5.54,90.8-3-.32c2.1-.73,4.19-1.53,6.25-2.39C681.61,975.74,680.52,976.64,679.43,977.53Zm-6-27.27c0-3.1-.08-6-.12-8.57,0-.73,0-1.53,0-2.37,2-.32,4-.71,6-1.16a99.27,99.27,0,0,0,11,.39A85.31,85.31,0,0,1,673.42,950.26Zm16.79-72c1.26-.12,2.52-.29,3.78-.49-1.11.75-2.23,1.49-3.35,2.22C690.5,879.4,690.35,878.83,690.21,878.25Zm3.9,56.64-1.4-.84c1.19-.46,2.38-.94,3.56-1.44Q695.21,933.78,694.11,934.89Zm5.49-67.78v0s0,0,0,0Zm-1.41-390.18,1.69-.65a19.92,19.92,0,0,0,2,1.28l-2.2,1.85Zm23.95.59c.38.18.76.35,1.15.51a89.36,89.36,0,0,1-17.2,11q-2.58-3.57-5-7.45A68.73,68.73,0,0,0,722.14,477.52ZM715.68,715a72.57,72.57,0,0,1-15.08-19.43,58.68,58.68,0,0,0,21.1,12.77C719.74,710.63,717.74,712.86,715.68,715Zm13.25-15.65a150.74,150.74,0,0,1-6-13.91l.83-.32c2.9,3.2,5.86,6.38,8.87,9.31Q730.8,696.92,728.93,699.35ZM738,408.22a116.58,116.58,0,0,1-31.92,17.15l-12.3-8.77c5,2.25,10.28,2.16,15.38.87,0-3.29-1.18-6.43-2.75-7.61a22.21,22.21,0,0,0,17.25,3l-6.2-12.14,5,1.22-1.09,1.25a33,33,0,0,0,8.69.62l10,2.45q-1.62-1.83-3.29-3.54A34.91,34.91,0,0,0,746,398.8,26,26,0,0,1,738,408.22Zm127.59-8.61q-1.5,2.89-3.08,5.63a43,43,0,0,0-11.52-3.7A109.09,109.09,0,0,0,865.58,399.61ZM813.25,686.44A27.68,27.68,0,0,1,809.58,673a43.65,43.65,0,0,0,13.7,12.9,55.72,55.72,0,0,1-17.39,8.91,151.63,151.63,0,0,1-16.84-52.1C794.51,659.12,800.66,676.6,813.25,686.44Zm-32.73,10.44,1.53-.28-1.47-2.08c.12-4.72.22-9.25.25-13,1.22-.09,2.44-.2,3.65-.36a38.18,38.18,0,0,0,3.19,4.37l0-4.87.75-.14a19.07,19.07,0,0,0,5.79,8.6A37.19,37.19,0,0,0,805,695a42.26,42.26,0,0,1-18.46.93c5,4.86,11,3.83,16.55,2.69a50.65,50.65,0,0,1-12.46,9.11c7.9,4.43,16.58,3.32,24.12-3.1q-3.68,4.19-7.36,8.38a25.92,25.92,0,0,0,21.57-1.77c-6.15,8.5-13.11,14.18-20.43,17.6-11.54-6.62-21-17.88-28-30.6C780.49,697.81,780.5,697.34,780.52,696.88Zm46.11-49.52-1-1.08c.44.31.89.59,1.33.89Zm2.17,34q-.74.66-1.47,1.29a25.62,25.62,0,0,1-1.38-4C826.87,679.54,827.82,680.45,828.8,681.32Zm-20,62.55L807,747c-.34-.54-.66-1.1-1-1.67C806.93,744.9,807.88,744.41,808.82,743.87Zm1.58,24.94a156,156,0,0,1-27.93-25.36,37,37,0,0,0,4.51,3l-.89.8A28,28,0,0,0,790,748a34.83,34.83,0,0,0,14.47,3.17l-2.36,4a128,128,0,0,0,30.67-4.39C826.05,759.69,818.37,765.77,810.4,768.81Zm29.8-191.54c-11-3.47-21.23-9.19-29.5-18.12a81.64,81.64,0,0,0,37.76,9.91A110.09,110.09,0,0,1,840.2,577.27Zm8.73-8.72A85,85,0,0,1,834.82,551q2.45,1.61,4.92,3.2v0l.11,0a129.07,129.07,0,0,0,14.28,8.09C852.42,564.53,850.69,566.6,848.93,568.55Zm-9.2-44c-13.05-4.52-25.45-11.46-35.79-21.67a84.35,84.35,0,0,0,40.13,12.52q-3.35-6.47-6.71-12.92a41.86,41.86,0,0,0,18.06,9.36A71.18,71.18,0,0,1,839.73,524.54Zm2.62-49c-.11.17-.23.32-.34.49l-.35-.1Q842,475.74,842.35,475.53Zm-.37-11a28.45,28.45,0,0,0,5.29,3.81c-1.41.58-2.81,1.1-4.23,1.56Q842.52,467.26,842,464.57Zm-9.49,8.09a58.25,58.25,0,0,1-13.55-7.14,71.31,71.31,0,0,1-9.16-8.36c9.91,6.76,20.63,13.72,32,13.17C838.72,471.28,835.61,472,832.49,472.66Zm26.84,34.75a90.18,90.18,0,0,0-8-7.27,67,67,0,0,0,11,3.54C861.31,505,860.33,506.21,859.33,507.41Zm12.14-60.73c-24.83-3.48-48.66-16.34-66.92-36.21,5.42,4.37,12.77,5.8,19.56,5.65l-.6-6.5a46.34,46.34,0,0,0,21.86,6.5A19.72,19.72,0,0,1,839,408c7.35.21,14.7.09,22-.31-4.38,7.17-9.16,13.13-14.55,17A40.53,40.53,0,0,0,862,419.85c-2.27,6.56-6.34,9.59-10.15,12.24l17.9-.06-11.53,9.89a72,72,0,0,0,15.35,1C872.86,444.21,872.18,445.47,871.47,446.68Zm103.24,250c.77.22,1.55.41,2.32.58l-1.61.53-.87-.89C974.6,696.82,974.66,696.76,974.71,696.68ZM959.92,459.53a57.73,57.73,0,0,1-23,15.22A83.71,83.71,0,0,1,922.2,461.9a76.81,76.81,0,0,0,22.41-5.19l-9.21,8.1A64.84,64.84,0,0,0,959.92,459.53Zm-1.29,242.71-1.33.29c-.53-.75-1.06-1.48-1.59-2.21C956.67,701,957.65,701.64,958.63,702.24ZM948.28,489.72q-.49-.41-1-.78c1.22-.44,2.42-.9,3.61-1.4C950,488.28,949.16,489,948.28,489.72Zm2.36,222.67c-1.23,1.1-2.48,2.18-3.74,3.21-.23-.73-.46-1.47-.68-2.21a36.44,36.44,0,0,0,4.2-1.19ZM944.1,705l-.44.07-.39-1.24C943.55,704.22,943.82,704.61,944.1,705ZM919.9,570.73a18.6,18.6,0,0,0,2.05,1.11l-2.67,2.41c-.55-.89-1.11-1.79-1.65-2.71C918.39,571.28,919.15,571,919.9,570.73Zm-1.4-56.28.26-.12-.22.15ZM940,574.25c-.82,1.87-2.57,2.89-4.21,3.76-3.45,1.82-7,3.5-10.58,5-1.49-2.07-3-4.22-4.4-6.43A55.08,55.08,0,0,0,940,574.25Zm-13-53.8a47.7,47.7,0,0,0,7.78-1.73,62.38,62.38,0,0,1-5.05,3.68Zm10.77-23.38-1.34-2.63,4,1C939.47,496,938.58,496.54,937.68,497.07ZM930,450.43a47.9,47.9,0,0,1-9.29,9.8q-3-3.41-5.84-7.25A94.31,94.31,0,0,0,930,450.43Zm-8.16,342.83c-.8-1.29-1.58-2.62-2.34-4,1.4,1.27,2.82,2.47,4.25,3.58ZM941,777c2.54,2.83,5.13,5.67,7.75,8.37-1.28.48-2.57.94-3.86,1.4Q942.85,782.07,941,777Zm9.09,88.17-.43-.37c.25.08.5.13.75.19Zm7.1-4-3.81-10.48A37.61,37.61,0,0,0,965,856.33C962.4,858,959.81,859.58,957.2,861.13Zm-2.31-40.67a56.25,56.25,0,0,1-8.66-3.66q10.21-4.45,20.23-9.46Zm22.68,27.32a22.23,22.23,0,0,0-4.31-4.35,43.85,43.85,0,0,0,5.71,3.33C978.5,847.1,978,847.45,977.57,847.78Zm4.55-99.49a99,99,0,0,1-22.72-4.73c-16.64-5.74-33.08-17.66-46-39.13,8,8.32,16.78,14,25.75,16.87-1.61,1.07-3.24,2.1-4.9,3.06a145.46,145.46,0,0,0,44.94-1.42,167.34,167.34,0,0,1-25.41,14.94,101,101,0,0,0,28.91,3.87C982.54,744,982.34,746.2,982.12,748.29Zm27.56.82-3.81,0c0-3.54-.1-7.08-.17-10.29A101.42,101.42,0,0,0,1018,735C1017.12,740.79,1013.67,745.32,1009.68,749.11Zm9.08-74.32c-1.16-4.19-2.14-8.45-2.94-12.75l1.45,0c1.26,3.55,2.58,7.09,4,10.52Q1020.05,673.73,1018.76,674.79Zm40-237.74-6.76,3.53c-2-1.33-4-2.72-5.88-4.18A50,50,0,0,0,1058.72,437.05Zm20.62,2.07a47.39,47.39,0,0,1-10.53,10.75,114.36,114.36,0,0,1-14.69-7.89A93.93,93.93,0,0,0,1079.34,439.12Zm-49.94,75.06a87.67,87.67,0,0,0,15.52,7.51q-3.32.18-6.62.13A86.39,86.39,0,0,1,1029.4,514.18Zm15.75,12.27-1.36-.83c1,0,2,0,3-.06Zm12.35,6.42c-1.32-.58-2.64-1.17-3.94-1.8a56.11,56.11,0,0,0,6.09-1.45C1058.94,530.71,1058.23,531.79,1057.5,532.87Zm9.49-15.7c-.67.25-1.35.49-2,.72l-2.13-4.12a41.18,41.18,0,0,0,4.23,3.27A.54.54,0,0,0,1067,517.17Zm18.68,18.44-.51-1.52c1.07-.15,2.15-.31,3.22-.48C1087.49,534.31,1086.58,535,1085.67,535.61Zm-7.35-45.33a140.68,140.68,0,0,1-19.55-6,59.92,59.92,0,0,1-14.37-7.46,72,72,0,0,1-9.16-8.36c10.29,7,21.44,14.27,33.33,13.1l-.6-3c.68-.18,1.35-.37,2-.58a27.56,27.56,0,0,0,3.61,2.22l-1.74,1.46c1.64,0,3.28,0,4.92-.07a25.91,25.91,0,0,0,15.62.76A88.11,88.11,0,0,1,1078.32,490.28Zm14.6-8.31-2-2.58a69.31,69.31,0,0,0,7.82-2.56h.83C1097.41,478.66,1095.19,480.37,1092.92,482Zm4.47-23.92a104.78,104.78,0,0,1-26.75-7.38A77.11,77.11,0,0,0,1094,445.4l-9.21,8.1a64.75,64.75,0,0,0,24.51-5.28A54.31,54.31,0,0,1,1097.39,458.05Zm97.72-83.43a5.72,5.72,0,0,0-3.08-5.05,39.84,39.84,0,0,0,19.33,2q-3.46-4-6.95-8.06l24,3.49-.63.38c-10.18,5.86-20.79,8.21-31.34,10.3,5.15,5.43,11.44,6.57,17,3.06a70.57,70.57,0,0,1-4.55,6.26c-3.45-1.33-6.88-2.77-10.29-4.21L1177.88,374A42.54,42.54,0,0,0,1195.11,374.62ZM1228,390.35c-.54.64-1.07,1.28-1.62,1.9-1.06-.2-2.12-.42-3.17-.66C1224.83,391.25,1226.43,390.85,1228,390.35Zm-32.54,306a85.87,85.87,0,0,1-9,10.59q-6.69-3-13.22-6.53A35.28,35.28,0,0,0,1195.48,696.37ZM1186.35,560l.46-.17c.68.35,1.36.69,2,1l-.51,1.16C1187.67,561.35,1187,560.67,1186.35,560ZM1175,670.25c-1.39.67-2.79,1.3-4.19,1.87a154.66,154.66,0,0,1-6.92-29.45C1167,652.07,1170.35,661.8,1175,670.25ZM1171.61,691c.38.24.76.48,1.15.71l-5,5.68c-1.61-.92-3.2-1.86-4.79-2.82A29.48,29.48,0,0,0,1171.61,691Zm-12.4-10c-1.18,1.09-2.38,2.12-3.58,3.11,0-1.32,0-2.56,0-3.72q1.44-.21,2.88-.48C1158.76,680.29,1159,680.65,1159.21,681Zm-2.65-4.94-.92.12c0-1-.06-1.82-.11-2.49C1155.85,674.5,1156.2,675.29,1156.56,676.07Zm-23.42-12.65,0,8.75.32-.19,0,1.41-2.22-1.88A48.06,48.06,0,0,0,1133.14,663.42Zm39.36,103.07c-.12-5-3-9.77-7-11.61h0a92.11,92.11,0,0,0,25.38,5.34c-10,9.46-20.9,14.9-31.94,16l-26.18-11.06C1145.63,768.59,1159.33,768.47,1172.5,766.49ZM1146,859.23c-1.74-1.72-3.46-3.45-5.16-5.22a18.51,18.51,0,0,0,4,.69c1.15.6,2.32,1.16,3.51,1.67C1147.56,857.37,1146.77,858.32,1146,859.23Zm10,105.35-2-2c.79-.09,1.58-.21,2.36-.34l1,.67C1156.88,963.48,1156.43,964,1156,964.58Zm5.62-91.08c-1.56-1.32-3.1-2.66-4.64-4a63.37,63.37,0,0,0,13.52-4.36A47.07,47.07,0,0,0,1161.6,873.5Zm14,106.77c-2-1.23-3.87-2.51-5.75-3.88l9.48.8C1178.05,978.23,1176.8,979.26,1175.56,980.27Zm19.59,10c-1.39-.58-2.77-1.19-4.15-1.82,2.14-.26,4.28-.59,6.41-1C1196.66,988.41,1195.91,989.36,1195.15,990.3Zm-6.27-96.44q-8.06-5.26-15.8-11.14a67,67,0,0,0,28.22-6.21A68.29,68.29,0,0,1,1188.88,893.86Zm13.88-245.05c-.76-.83-1.52-1.67-2.26-2.53.94.66,1.88,1.28,2.84,1.89C1203.15,648.39,1203,648.6,1202.76,648.81Zm3-75.14c-.41-.19-.82-.4-1.23-.6q1.42-.86,2.85-1.8Zm0-52.6a91.1,91.1,0,0,1-27-18.2,85.06,85.06,0,0,0,34.1,12Q1209.35,518.16,1205.75,521.07Zm-13.81-57c1-.08,1.92-.21,2.87-.38,1.55.89,3.11,1.73,4.69,2.49-.42.73-.83,1.47-1.24,2.22a44.19,44.19,0,0,1-4.5-2.91C1193.12,465.05,1192.52,464.57,1191.94,464.1Zm24.77,47.06q-2.26-4.35-4.52-8.69a42.79,42.79,0,0,0,7.71,5.39Q1218.31,509.56,1216.71,511.16Zm-1.25-35.58c-2-.64-4-1.34-5.92-2.08q2.14-1.54,4.26-3.17a25.94,25.94,0,0,0,4.13-.07l-.54-2.75c.5-.4,1-.82,1.49-1.23l1,.76Q1217.7,471.31,1215.46,475.58Zm8.66,104.06-1.85-.41c1.13-.72,2.24-1.47,3.35-2.27C1225.13,577.87,1224.63,578.76,1224.12,579.64Zm2.34-79.21c-.12-.1-.22-.2-.34-.29l.43.18ZM1238.18,481l-2.45-.38a41.59,41.59,0,0,0,3.63-3.34C1239,478.51,1238.61,479.74,1238.18,481Zm3.61-64.74a117.86,117.86,0,0,1-21.69,23.17,117.69,117.69,0,0,1-40.72-28.92c5.42,4.37,12.77,5.8,19.56,5.65l-.6-6.5a46.34,46.34,0,0,0,21.86,6.5,19.83,19.83,0,0,1-6.4-8.09,265,265,0,0,0,27.47-.65c-1.07-.65-2.16-1.25-3.27-1.81a37.43,37.43,0,0,0,10.08-4.65C1247.52,407.57,1244.59,412.34,1241.79,416.22Zm52.53,584.44c-1.15-8.12-2.13-16.34-2.89-24.63h.76c1.57,7.87,3.21,15.78,5,23.51C1296.25,999.94,1295.28,1000.31,1294.32,1000.66Zm33.84-572.21c-.06-4.4-1.58-8.6-3.68-10.18,7.44,4.57,15.37,6,23.1,4.05l-.65-1.27c4.22.8,8.71.31,13-.21a64.89,64.89,0,0,1-14,6.05,35.3,35.3,0,0,0,27-2.06l-8.24,5.56a47.35,47.35,0,0,0,24.17-1.17c-14.64,12-33.39,15.51-51.26,14.16l-1.46,1a30.71,30.71,0,0,0,15.48,3l-9,4.81c-3.46-2.32-6.91-4.77-10.34-7.22l-24.77-17.67C1314.24,430.3,1321.34,430.19,1328.16,428.45Zm55.1,182.19,1.23.32-3.86,2.9c-.27-.58-.53-1.15-.8-1.72C1381,611.67,1382.13,611.17,1383.26,610.64Zm-3.88.53-1.11-2.38c.58.27,1.16.5,1.74.73C1379.79,610.07,1379.59,610.62,1379.38,611.17Zm-26.55-76.66a175.53,175.53,0,0,1-22.29-1.74,211.27,211.27,0,0,1-21.17-32,26.87,26.87,0,0,0,23.36,11.41q-.24-4.64-.5-9.25a28.13,28.13,0,0,0,10.27,4.3,40.27,40.27,0,0,0,5.2,2.55,36.8,36.8,0,0,1-5.12,2.94c7.84,4.2,17,2.21,25.44.13a39.32,39.32,0,0,0-10,6.12c1.84,1.93,4.5,2.28,7,2.44a89.9,89.9,0,0,0,28.8-2.91C1383.3,530.59,1367.62,534.49,1352.83,534.51Zm22.56,33.9-.78.37-1-.46Zm-49.27,38.14-2.87.86c-2.65-3.81-5-7.77-7.64-12.41C1319,598.94,1322.54,602.91,1326.12,606.55Zm5.9-107.48.72.7-.69-.15Zm42.32-3.59a90.59,90.59,0,0,1-22.38,5.18c-.55-1.53-1-3.14-1.47-4.8A188,188,0,0,0,1374.34,495.48Zm-7.3-12c2.48-.66,4.94-1.45,7.36-2.36,1.48-.34,3-.73,4.43-1.17l-6.56,5.93A36.44,36.44,0,0,0,1367,483.5Zm23,5q-4.23,2.24-8.62,4.16a47.32,47.32,0,0,0-7.22-5.64,54.81,54.81,0,0,0,20-2.28C1393.38,486.62,1391.64,487.64,1390,488.51Zm-16.18-22.66c-1.5-.21-3-.46-4.48-.79-8.39-1.87-16.55-6.27-24.58-11.51a53.67,53.67,0,0,0,21.66-2.7l-7.53,7.49a237.47,237.47,0,0,0,34.38-2.92A63.8,63.8,0,0,1,1373.82,465.85Zm-34.9,362.67c-8.14-6.81-15.69-15.87-22.2-27.76,10.72,9.77,22.25,16.07,34,18.67Q1344.9,824.31,1338.92,828.52Zm6.61-44.14.93,1-.33.56ZM1358,902.64c-.28-.24-.56-.46-.83-.71.38.11.75.21,1.13.3Zm.29-89.91a189.27,189.27,0,0,1-10.92-23.55c1,.23,2,.4,3.05.54A187.69,187.69,0,0,0,1366,805.11C1363.42,807.75,1360.85,810.3,1358.25,812.73Zm28.1-104.19a144.57,144.57,0,0,1-28,26.16c-18.14-8.84-35.56-23.84-49.75-47.49,14.76,15.27,31.28,24,47.95,25.26l-8-26.07a69.74,69.74,0,0,0,4.57,6c-.68.51-1.37,1-2.07,1.49a53.2,53.2,0,0,0,5.12,1.84c7.56,7.6,16.06,11.66,24.55,11.53q-2.54-5.1-5.26-9.82a50.59,50.59,0,0,0,17.24-5.41c.58,0,1.16.08,1.75.1C1393.48,699.17,1389.85,704.32,1386.35,708.54Zm-21.14-26.83.24.16-.07.07C1365.32,681.87,1365.27,681.79,1365.21,681.71Zm17-38.06a117.74,117.74,0,0,1-38.48-16.74,71.08,71.08,0,0,1-16.59-14.36c1.89.16,3.78.23,5.67.23,7.26,6.08,14.81,9.94,22.63,8.64q-.67-5.74-1.34-11.48c8.48,13.12,20.14,17.93,30.6,12.65l-2.48-5.33a144.41,144.41,0,0,0,21.7.81A88.33,88.33,0,0,1,1382.2,643.65Zm-36.12-224.26-6.8-13.32,30.23,7.42a112.27,112.27,0,0,0-19.89-18l14.33-1.93a24.45,24.45,0,0,0,7-.26,62.57,62.57,0,0,1-10.55,8c9,1.29,18-2.5,26.47-6.4l-10.15,8.52a68.47,68.47,0,0,0,28.4-5.4C1388.31,412.66,1367.08,420.28,1346.08,419.39Zm137.57,181.49c.6.32,1.2.63,1.81.92-1.65,1.53-3.33,2.94-5,4.25q-1-2.26-1.94-4.58A41.18,41.18,0,0,0,1483.65,600.88Zm-5.83-3.54-.9,0-.33-.9ZM1469.61,567l-.6-.85c-.08-.55-.17-1.11-.24-1.66C1469,565.32,1469.33,566.16,1469.61,567Zm-9.13,41.3a28.66,28.66,0,0,0,14.68,6.22,25.54,25.54,0,0,0,7.39,1.44c1.16.5,2.33,1,3.49,1.43-.27-.48-.52-1-.79-1.47,6-.4,12-3,17.5-7.66q-4.93,5.61-9.86,11.21c9.56,3.46,19.51,2.65,28.89-2.36-10.6,14.65-23,23-35.86,26.76A198.76,198.76,0,0,1,1460.4,612C1460.43,610.73,1460.46,609.49,1460.48,608.3Zm28.82-13.53.43.59-.4.11C1489.32,595.23,1489.3,595,1489.3,594.77Zm19-100.39a64.74,64.74,0,0,1-13.86-9.47c1.13-.1,2.27-.23,3.4-.39a81.7,81.7,0,0,0,13.69,4.39Q1510,491.78,1508.33,494.38Zm13.3,82.61c-1.27,1.16-2.56,2.26-3.85,3.32a107.33,107.33,0,0,1-12.38-12.22A82.66,82.66,0,0,0,1521.63,577Zm-41.7,146.27c-.32.64-.64,1.28-1,1.92l-6.41-4A38.5,38.5,0,0,0,1479.93,723.26ZM1500.15,935c-.93-.91-1.84-1.85-2.74-2.83-5.5-6-9.45-11.88-14.34-19.27,6.58,6.6,13.38,13.29,20.39,18.71C1502.36,932.72,1501.25,933.84,1500.15,935ZM1491,828.14a257.63,257.63,0,0,1-16.1-23c8.49,10.08,20,13.37,30.61,13l-.93-14.93h.06a67.69,67.69,0,0,0,12.88,8.87A50.39,50.39,0,0,1,1491,828.14Zm32-91.4c-3.62,3.22-7.31,6.22-11.07,9-2.33-1.42-4.65-2.87-7-4.31l-18.44-11.47a68.87,68.87,0,0,0,24.82-13l-10.64,16.24a40.36,40.36,0,0,0,27.33-4A14.61,14.61,0,0,1,1523,736.74Zm-.21-65.72c1.38-.34,2.75-.67,4.11-1-.56.74-1.12,1.47-1.69,2.18Zm7.26-146.58-1.68-2.74c1.14.48,2.29.92,3.44,1.32C1531.27,523.51,1530.68,524,1530.09,524.44Zm-2.58-23.32c-2.51-.56-5-1.22-7.45-2a69,69,0,0,0,13.58-7.1Q1530.56,496.57,1527.51,501.12Zm-3.54-53.3c-14.7-4.43-28.78-11.76-40.32-23.14a84.42,84.42,0,0,0,40.14,12.52q-3.36-6.46-6.71-12.92a41.12,41.12,0,0,0,23.3,10.2A128.29,128.29,0,0,1,1524,447.82Zm-2.27-61.44a28.11,28.11,0,0,0,3.06,2.43q-2.28,4.14-4.4,8.59-3.69-1.2-7.34-2.61a60.1,60.1,0,0,1-14.37-7.46,72.57,72.57,0,0,1-9.15-8.35c10.28,7,21.44,14.26,33.32,13.09C1522.45,390.17,1522.08,388.28,1521.7,386.38ZM1531,422a66.23,66.23,0,0,0,17.06,4.63q-2.86,3.17-5.81,6.06A91.37,91.37,0,0,0,1531,422Zm-3-22.31q4.48-2.89,8.91-6.16a25.54,25.54,0,0,0,6.36,0l-4.47,8.56Q1533.34,401.06,1528,399.64Zm15.83-11.47,1.84-1.52,1.09.17-1.6,3.05Zm4.68,115.47c-1.86-.07-3.72-.16-5.58-.29l-.32,0a61.72,61.72,0,0,0,9.34-5.62C1550.81,499.77,1549.66,501.74,1548.48,503.64Zm3.26-84.19c.72.12,1.44.24,2.16.34l-.52.64Zm4.89,545.65c-1.45-.43-2.9-.87-4.34-1.34l1-1.3a51.56,51.56,0,0,0,7.79-3.36A25.61,25.61,0,0,1,1556.63,965.1Zm6.76-560.58c-1.84-.07-3.69-.15-5.53-.26a38.4,38.4,0,0,0,7.8-6.28A53,53,0,0,1,1563.39,404.52Zm4.69-67.56c-9.07,12.54-19.14,22.25-29.72,28.88-20.11-5.51-39-17.14-54.09-33.56,5.42,4.37,12.77,5.8,19.56,5.65l-.6-6.5a46.34,46.34,0,0,0,21.86,6.5,19.83,19.83,0,0,1-6.4-8.09,265,265,0,0,0,27.47-.65,43.73,43.73,0,0,0-15.46-5.84,107,107,0,0,0,13.45-1.71c-1,.88-2,1.72-3,2.53,10.91,5.27,22.57,4.4,33.23-2.5C1573.81,328.31,1570.89,333.09,1568.08,337Zm222.25,260-7.64,10.78c-1.06-.81-2.1-1.66-3.11-2.55A105.81,105.81,0,0,0,1790.33,597Zm-61.59-207.7q-2.58,1.31-5.24,2.44a28.86,28.86,0,0,0-3.78-1.72C1722.74,389.92,1725.77,389.62,1728.74,389.3Zm-14.7,8.26a54.69,54.69,0,0,0,32.53-3.5l-11.26,6.61a73.46,73.46,0,0,0,33-1.39c-19.47,13.91-44.27,18.25-68.1,17,3.13-.24,6.27-.56,9.4-1-5.76-5.94-12-9.94-18.47-11.78A82.08,82.08,0,0,0,1714,397.56Zm-55,35.37q-.36-6.56-.71-13.12c8.07,8.06,17.06,12.58,26.11,13.12-3.24-3.94-5.91-9.65-7.64-16.32a187.64,187.64,0,0,0,21.08-.18l-1.53.93a47.26,47.26,0,0,0,21.14,3.54l-14.69,6.84a83.27,83.27,0,0,0,34.77-2.7L1727.29,434a370.39,370.39,0,0,0,46.93-3.47A93.13,93.13,0,0,1,1700,443.88c2.61,4.67,7.59,7.6,12.73,8.88s10.53,1.12,15.82.95l-12.9,13.21a117.14,117.14,0,0,0,40.81-8.71l-12.16,9.58a85.21,85.21,0,0,0,31.23-2.37c-1.13,2.22-3.51,3.44-5.76,4.47-25.38,11.7-54.12,18.48-81.29,12.81-19.57-12.64-37.76-33.54-52.79-61.17A26.84,26.84,0,0,0,1659,432.93ZM1775,505.62c-9.74,9.76-22.72,15-36.36,17.42L1727,514.18a37.52,37.52,0,0,0,11.49-5A139.75,139.75,0,0,0,1775,505.62Zm-58.77-13.11c-.78.57-1.58,1.11-2.4,1.64-1.66-.44-3.32-.93-5-1.49A38.62,38.62,0,0,0,1716.2,492.51Zm-33.83,41-1.57.67c-.06-.46-.11-.91-.16-1.37.43,0,.87.08,1.3.12C1682.08,533.14,1682.23,533.33,1682.37,533.53Zm-22.78,210.55A99.94,99.94,0,0,1,1643,721.51c9.25,8.43,19.11,14.27,29.19,17.39Q1666,741.75,1659.59,744.08Zm14.84-32.16c.88-.34,1.76-.68,2.64-1,.71.78,1.43,1.54,2.15,2.31l-3,3C1675.58,714.79,1675,713.36,1674.43,711.92Zm9.76,20.89c-2-3.64-3.9-7.46-5.73-11.44a52.75,52.75,0,0,0,8.52-.3c2.22,2.12,4.45,4.14,6.71,6Q1689,730.11,1684.19,732.81Zm7.9-82.31c-3.82,1.14-7.69,2-11.6,2.79-16.62-9.06-32.46-23.51-45.56-45.34,14.76,15.28,31.28,24,48,25.26l-5-16.22c1.9.27,3.82.47,5.74.62h0c-.52.21-1.05.42-1.59.62l2.1-.14a43,43,0,0,0,7.33,5.49l-1.3.47h2.09a29.33,29.33,0,0,0,14.77,4c-.67-1.35-1.36-2.67-2-4l12.59,0-17.65,7.82a211.67,211.67,0,0,0,23.49.77C1714.94,641.38,1703.72,647,1692.09,650.5Zm-17.22-43.36c1.06,1.58,2.16,3.06,3.28,4.47l-1.78.43Zm16.64-4.68a64.44,64.44,0,0,0,5.84,3.68l-2.62.84Q1693.14,604.66,1691.51,602.46Zm9.82,15,2-.21c-.45.41-.91.81-1.4,1.19C1701.7,618.07,1701.52,617.74,1701.33,617.42Zm36-49.78a156.66,156.66,0,0,1-28.68-3.2A118,118,0,0,1,1670,547.66a70.24,70.24,0,0,1-17.17-15.06c-4.2-5.25-7.21-10.39-10.94-16.86,7.76,8.93,15.93,18,24.47,23L1665,539c5.57,3.44,12.31,4.32,18.83,4.38,3.17,0,6.36-.11,9.54-.19a20.33,20.33,0,0,0,6.61,2.09,54.1,54.1,0,0,1-17.22,5.27,9.48,9.48,0,0,0,4.71,2.37,103.24,103.24,0,0,0,38.08,3.12,50.94,50.94,0,0,1-15.39,7.28l29.5,1.29C1738.93,565.63,1738.14,566.64,1737.35,567.64Zm30,3.76c1-.09,2.09-.18,3.14-.29-1.92,1.27-3.86,2.51-5.8,3.73A27.83,27.83,0,0,0,1767.39,571.4Zm25,59.1a24.69,24.69,0,0,1-5.72-9.1,66.06,66.06,0,0,0,13.8,4.21l-10.92-10,7.93.15a48.81,48.81,0,0,1-10-4.66,70.84,70.84,0,0,0,30.61-19.66q-6.17,16.46-12.32,32.93a53.87,53.87,0,0,0,29.48-39.32c0,3.48,0,6.95.05,10.43l.42-.23c-.17,9.94-.34,20.73-.42,30.61-6.35,1-12.75,1.73-19.15,2.39a25,25,0,0,0,19.12,1.9v.16a59.22,59.22,0,0,1-9.62,6.15c3.18.34,6.39.52,9.59.56v.87c0,8-.46,16.21-1.13,23.87a138.9,138.9,0,0,1-66.46-37.08A35.38,35.38,0,0,0,1792.42,630.5Zm41.29,36.43c0,.34-.07.67-.11,1-.75-.29-1.5-.58-2.26-.85Zm-30.23,185.6c-1.46-.83-2.91-1.68-4.34-2.57,1.93-.15,3.86-.31,5.79-.5C1804.48,850.51,1804,851.53,1803.48,852.53Zm1.49-57.72a96.92,96.92,0,0,1-12.5-9.95,187.7,187.7,0,0,0,18.1,9.81c-1.16.49-2.32,1-3.5,1.43C1806.37,795.68,1805.66,795.26,1805,794.81Zm-.52-55c-1,1-2,1.92-3,2.83q-3.42-2.48-6.71-5.15c2.56-.31,5.1-.68,7.64-1.13A21.38,21.38,0,0,0,1804.45,739.76Zm-.85-3.66,1.73-.35c.89.08,1.77.13,2.66.17-.42.5-.85,1-1.28,1.48A15.24,15.24,0,0,1,1803.6,736.1Zm5.46,118.4c-.58-1.76-1.14-3.51-1.7-5.27l1.17-.12c2.36.7,4.75,1.32,7.15,1.88Q1812.44,852.88,1809.06,854.5Zm-.45-107c1.35-.22,2.69-.45,4-.71.52.29,1.06.58,1.6.83a34,34,0,0,0,5.23,2l-3.28,2.52Q1812.33,749.95,1808.61,747.54Zm13.53,7.85q-3-1.53-5.88-3.2a99.64,99.64,0,0,0,11.71-.88c1.34.15,2.69.27,4,.35A89.49,89.49,0,0,1,1822.14,755.39Zm32.28-57.13q-3.62,2.38-7.35,4.57a93.92,93.92,0,0,1-15-2.7,39.66,39.66,0,0,0,6.69,5.14,285,285,0,0,1-27.17-9l-28.31-10.43a66.34,66.34,0,0,0,23.52.69,6.8,6.8,0,0,0-4.2-6,61.13,61.13,0,0,0,14.3,2.71,102.42,102.42,0,0,0-8,8.87q11.48-3.18,22.63-7.38c-1.2,8.23-2.21,13.51-2.21,13.51h25.16Zm21-94h.65c.11.4.24.8.38,1.19l-1,.11C1875.46,605.18,1875.47,604.75,1875.47,604.31Zm-4.56,1.69c-1.61.1-3.22.18-4.83.22,0-.78,0-1.52,0-2.24,1.18.07,2.37.12,3.56.17C1870.05,604.77,1870.47,605.39,1870.91,606Zm-3.56-5.78-1.29.57c0-1.38-.08-2.55-.16-3.47C1866.35,598.31,1866.84,599.27,1867.35,600.22Zm-1.47,16.49.16,0-.16.08Zm2.19,34.31c-1,.71-2,1.38-3,2.06,0-1.78,0-3.82,0-6.05,2.73-.09,5.46-.3,8.17-.65A24.61,24.61,0,0,1,1868.07,651Zm-2.09-38.3c0-1.4,0-2.77.07-4.06,2.21,0,4.43-.12,6.64-.31.34.42.69.83,1,1.24C1871.2,610.75,1868.61,611.8,1866,612.72Zm9.46-3.91v-.72l1.85-.19Zm2.32-45.64c-.16-.93-.32-1.86-.46-2.79.29.77.59,1.55.89,2.32Zm45.57-90.27a83.39,83.39,0,0,1-16.47-12,124.41,124.41,0,0,0,27.33,9.14C1930.61,471.16,1927,472.12,1923.33,472.9Zm22,9.09-.91-.27,2.09-.89Zm-5.53-30.75c5.57,3.19,11.27,6.41,17.1,9.3-2.2,1.19-4.44,2.29-6.7,3.34A105.06,105.06,0,0,1,1939.79,451.24Zm22,372c-2-1.15-3.91-2.34-5.81-3.6,1-.69,1.89-1.41,2.81-2.15q2.25.87,4.54,1.65C1962.81,820.53,1962.29,821.9,1961.78,823.27Zm22.37,3.12q-5.26.61-10.56.87c1.07-1.4,2.06-2.86,3-4.36q3.78.86,7.6,1.47Zm-18.48-407.17-9.68-1.83c-2.42-.45-5-1-6.81-3.81a27,27,0,0,0,3.07,7.75c-19.93-5.29-39-14-54.63-27.46a127.27,127.27,0,0,0,54.79,14.91l-9.15-15.39a60.1,60.1,0,0,0,21.22,10.35l-2.87,1.28a214,214,0,0,0,23.48.76A64.07,64.07,0,0,1,1965.67,419.22Zm-3.4-28.59c.57.21,1.15.4,1.73.6-.14.11-.28.23-.42.33C1963.15,391.25,1962.71,390.93,1962.27,390.63Zm8.61,6.58,8.37,0-5.54,2.46C1972.78,398.82,1971.84,398,1970.88,397.21Zm6-29.67a215.57,215.57,0,0,1-39.13-9.26c-6.82-2.3-13.57-5-19.62-8.89a94.67,94.67,0,0,1-12.51-9.95c14.05,8.35,29.28,17,45.5,15.6l-1.53-6.78a40.51,40.51,0,0,0,35,7.47l-7.33-8.15c1.47.35,3,.65,4.46.9a11.73,11.73,0,0,0,2.84,1.75,15.71,15.71,0,0,0,6.17,1.06C1986.25,356.82,1981.69,362.35,1976.85,367.54Zm18.9-40c-4.83-.4-9.64-1-14.41-1.89a30.51,30.51,0,0,0,17.87-3.18Zm24.71.89-1.49-.08,2-.43Zm6.08,454.69c-.25-1.39-.48-2.78-.69-4.18l1.32,3.46ZM2051.49,505a39,39,0,0,0,5.76,2.16c0,1.37,0,2.75,0,4.12-2.1-1.68-4.16-3.42-6.18-5.2C2051.19,505.74,2051.34,505.38,2051.49,505Zm11.8,181a79.71,79.71,0,0,1-7.88-6.5c3.39,1.59,6.86,3,10.38,4.31C2065,684.56,2064.12,685.29,2063.29,686Zm22.52-212c-.67-.23-1.33-.45-2-.69v0l1.85.22C2085.72,473.65,2085.76,473.82,2085.81,474Zm-.62-2.41-1.48,1c-.71-4.85-1.3-9.76-1.75-14.7C2083,462.4,2084,467,2085.19,471.57Zm-4.33,33.32,1.26.44c.2.63.42,1.25.66,1.85-.65.38-1.29.77-1.93,1.13C2080.85,507.17,2080.86,506,2080.86,504.89Zm-5.54-2.31c1,.47,2,.91,3,1.33q1,2.37,2.25,4.54c-1.77,1-3.56,1.93-5.36,2.81C2075.28,508.1,2075.31,505.15,2075.32,502.58Zm19.17,71.84c-1.25,1.33-2.51,2.62-3.78,3.9-1.48-.47-3-.94-4.44-1.44a117.32,117.32,0,0,1-11.3-4.39c0-1.15,0-2.31,0-3.46a56.13,56.13,0,0,0,20.13,4.74Zm4.21-4.94c-.19-.87-.39-1.74-.59-2.62.53.42,1.06.82,1.61,1.21C2099.39,568.54,2099.05,569,2098.7,569.48Zm16.45-194.23a58.57,58.57,0,0,1-15.69-16.87,55,55,0,0,0,19.41,10.17Q2117,371.91,2115.15,375.25Zm8.78-16.06a112.67,112.67,0,0,1-5-10.48c2.31,2.23,4.65,4.47,7,6.61ZM2142.34,324c-2.25-.49-4.48-1.05-6.71-1.72-15.08-4.53-30-13.95-41.64-30.92,10,9,21.16,14.15,32.45,14.91L2121,290.86c6.22,8,14,12.43,21.78,12.33a98.84,98.84,0,0,0-10.51-15.09,39,39,0,0,0,20.3,6.16A134.74,134.74,0,0,1,2142.34,324Zm34.45,57.5a93,93,0,0,0,14.46-1.3c-1.46,1.23-2.86,2.51-4.25,3.81-3-.06-6.05,0-9.08.14C2177.53,383.25,2177.16,382.37,2176.79,381.48Zm8.71,85.11q-3.06-4.21-6-8.64a47.62,47.62,0,0,0,9.43,7.52C2187.8,465.86,2186.65,466.24,2185.5,466.59Zm15,18.71-1.43-1.63q3.48-1,6.89-2.26C2204.17,482.76,2202.34,484.05,2200.49,485.3Zm7.55-29.12c-.49-1.5-.92-3.05-1.31-4.61l.66-.17c1.34.84,2.7,1.65,4.07,2.39C2210.34,454.62,2209.2,455.41,2208,456.18Zm9.82-7.76-.13-.18.54-.19Zm14.44,266-1.08-1.13c.84-.83,1.66-1.67,2.45-2.54C2233.21,712,2232.75,713.18,2232.3,714.4Zm-9.21-314a167.08,167.08,0,0,1-27.67,14.71A148.71,148.71,0,0,1,2182,393a271.23,271.23,0,0,0,31.41-11.47l-13.11,13a52.1,52.1,0,0,0,33.62-5.26C2231.62,393.68,2227.29,397.63,2223.09,400.41ZM2251,731.79q-4.14-3.45-8.18-7.15a52.93,52.93,0,0,0,8-20.3c0,3.48,0,6.95.05,10.43l.43-.23C2251.2,720.13,2251.11,726,2251,731.79Zm30.44.32c.15-6.83.19-12.55-.07-15.53a51,51,0,0,0,8.06,12.53A58,58,0,0,1,2281.47,732.11Zm9.46-3.71q0-4.42.07-8.83a16.77,16.77,0,0,0,2.11,7.67C2292.39,727.64,2291.67,728,2290.93,728.4Zm49.9-412.69a90,90,0,0,1-10,8.08q-5.92-3.06-11.54-6.68A60.93,60.93,0,0,0,2340.83,315.71Zm-7.62,39.23-.47.3a6.21,6.21,0,0,0-1.5-.86C2331.89,354.58,2332.55,354.76,2333.21,354.94Zm-19.67-50.38c-1.92.32-3.85.62-5.77.92,5.39,4.39,12,5.31,17.81,2.47a57.33,57.33,0,0,1-8.11,8,136,136,0,0,1-21.11-17.35A35.4,35.4,0,0,0,2313.54,304.56Zm-9.45,414.65c-1-2.38-2-4.78-2.88-7.21q2.84-.59,5.65-1.36c.68,1.14,1.38,2.27,2.11,3.37A57.85,57.85,0,0,1,2304.09,719.21ZM2321.89,361c-1,.44-2,.87-2.95,1.27l-7-2.59A54.45,54.45,0,0,0,2321.89,361Zm-1.28,158c-1.06-.77-2.09-1.56-3.13-2.36.52-.19,1-.39,1.54-.6,1,.49,2.08,1,3.13,1.42Zm6.86-104.5A159.93,159.93,0,0,1,2314,403.09c5.57,3.91,12.63,5.85,19.74,6.49C2331.65,411.3,2329.57,413,2327.47,414.54ZM2335.8,470c-.64-.37-1.26-.76-1.88-1.15,1-.46,1.94-.94,2.9-1.45l.68.32C2336.94,468.5,2336.37,469.26,2335.8,470Zm4.24-66.07c-.07-.62-.13-1.24-.2-1.86.47.24.95.45,1.42.68C2340.85,403.15,2340.45,403.55,2340,403.93Zm17.3-69.7a140.25,140.25,0,0,1-15.15-5.2,44,44,0,0,0,19.64-4.77A19.16,19.16,0,0,1,2357.34,334.23Zm181.58,281.84c.67-.26,1.33-.52,2-.8v.58l.28-.14,0,1.67c-.78-.36-1.55-.73-2.32-1.11A1.19,1.19,0,0,0,2538.92,616.07Zm2,16.4c0,3-.05,6-.06,8.7l-8.24-9C2535.4,632.41,2538.17,632.48,2540.94,632.47Zm-90.53-218.25-.75-10.61c8.45,6.52,17.86,10.17,27.33,10.61a32.14,32.14,0,0,1-8-13.2c7.62.28,15.26.21,22.88-.19a53.09,53.09,0,0,0,10.14-.74l.4,0a65,65,0,0,0-8.81,9.05,175.17,175.17,0,0,0,23.16-8.23l-8.46,8.36a33.61,33.61,0,0,0,21.69-3.4,21,21,0,0,1-7,7.24,108.8,108.8,0,0,1-67.26,17.63c5.05,4.76,12.73,4.78,19.62,4.52l-8,3.64a94.1,94.1,0,0,0,26.14-2.05,39.32,39.32,0,0,1-10.43,9,76.25,76.25,0,0,0,23.32-4.15l-8.11,6.22a64.36,64.36,0,0,0,21.6-4.06c-6.94,6.68-15.94,10.88-25.25,13.08-1.89.45-3.79.8-5.69,1.1-23.41-9.59-45.29-27.86-63-53C2432.74,412.13,2441.92,414.46,2450.41,414.22Zm16.67,141.09h.12A52.07,52.07,0,0,0,2483.55,568a63.1,63.1,0,0,1-10.69,1.87Q2470,562.58,2467.08,555.31Zm2.5,35.41-.2.12-.4-.18Zm-4.72-87.5-5.37,2.5a83.44,83.44,0,0,1-7.59-4.53A30.36,30.36,0,0,0,2464.86,503.22Zm-13.48-2.38c-1.43-1-2.84-2-4.22-3.18a51.85,51.85,0,0,0,5.35-.84,50.78,50.78,0,0,0,7,3.53c-2.35,0-4.7,0-7-.2Zm26.43,5.05-6.34,5.51c-2.44-1-4.87-2.15-7.28-3.32A53.74,53.74,0,0,0,2477.81,505.89Zm-5-12.63a38.87,38.87,0,0,0,4.94,4.92c-1.35.33-2.7.62-4.07.87Zm-.75,18.37a239.86,239.86,0,0,0,29.45-2.23,58.72,58.72,0,0,1-15.07,7.37A147.88,147.88,0,0,1,2472,511.63Zm29.5,46.33.27.06a35.63,35.63,0,0,1-7.08,5.39c-1-1.29-2-2.54-3-3.78A89.38,89.38,0,0,0,2501.51,558Zm-59.29-68.45h-.38l-2.87,0c-2.17-2.56-4.2-5.24-6.48-8.3C2435.67,484,2438.91,486.85,2442.22,489.51Zm-8.57,158c15.12,10.65,31.79,16.22,48.47,16.2a137.72,137.72,0,0,1-18.31-29.44c16.74,14.36,34.8,29.18,54,26.83A110,110,0,0,0,2503,641.24c11.24,9.65,24.64,9.81,37.71,8.33,0,.9-.09,1.81-.14,2.7a105.74,105.74,0,0,1-15.41,6.9c-19.67,7-40.07,7.91-60.26,6.75a46.62,46.62,0,0,0,4.51,3.22c-4.62,0-9.26,0-13.9,0A85.25,85.25,0,0,1,2433.65,647.53Zm97.49,65.86q-4.76,3.33-9.65,6.21c-3.32-6-7.66-10.67-12.5-13.42A65.71,65.71,0,0,0,2531.14,713.39Zm-14.51-28.7c3.77-2,7.5-4.23,11.18-6.44l-5.77,6.32C2520.24,684.63,2518.44,684.67,2516.63,684.69Zm-46.89-15.37c9,5.54,18.91,7.34,28.46,5q-3.69,4.51-7.6,8.54a91.9,91.9,0,0,1-29.68-10.46A79.52,79.52,0,0,0,2469.74,669.32Zm12.82,63.62a33.31,33.31,0,0,1-6.62-3.61,47.68,47.68,0,0,0,13,1.14q-3.89-8.24-7.75-16.48c12.44,6.85,26,9,39.11,6.34a132.24,132.24,0,0,1-33.81,13.92A35.57,35.57,0,0,1,2482.56,732.94Zm43.72,33.89c-2.32-.43-4.64-.92-6.94-1.5a72.41,72.41,0,0,0,12.24-3.82C2529.85,763.37,2528.07,765.14,2526.28,766.83Zm17.52-63.28-6.24-3.15a33.94,33.94,0,0,0,12-2Q2546.69,701.07,2543.8,703.55Zm16.53-65.13c.08-2.62.16-5.28.23-7.82q4.79-.89,9.54-2.21c-2.95-.86-5.9-1.8-8.83-2.82,1.26-.43,2.52-.88,3.77-1.37.54.66,1.1,1.3,1.7,1.92,0-.87,0-1.74,0-2.6l1-.42a14.28,14.28,0,0,0,3.23,4.46A114.33,114.33,0,0,1,2560.33,638.42ZM2576.25,621c-.24-.52-.48-1-.7-1.56,1-.52,2-1.05,3-1.6C2577.78,618.92,2577,620,2576.25,621Zm27.45-196.55c-1.3,1.39-2.63,2.74-4,4.08a103.93,103.93,0,0,1-18.14-13.74c4.78,3.36,11.25,4.45,17.23,4.34-.18-1.66-.36-3.33-.53-5A45.4,45.4,0,0,0,2609,418,51.65,51.65,0,0,1,2603.7,424.46Zm167-54.43a21,21,0,0,1-7,7.23c-2,1.32-4,2.54-6.1,3.71a160.4,160.4,0,0,1-16.43-9.75,173.25,173.25,0,0,0,16.31-6.16l-8.46,8.36A33.59,33.59,0,0,0,2770.65,370Zm-17.49,295.41c-3.42.24-6.85.42-10.29.56a83.19,83.19,0,0,1-7.16-6.16c-6.54-6.32-11.23-12.51-17-20.29C2729.65,649.32,2741.16,659.27,2753.16,665.44ZM2734.49,428.6c-.16-.17-.32-.34-.48-.49l.59-.23.56.23Zm3.81,24.87c-.54.38-1.1.74-1.65,1.11l-.89-.49C2736.61,453.9,2737.46,453.7,2738.3,453.47Zm-1.18-20.26a69.68,69.68,0,0,0,8.92-1.67c1,.2,1.95.38,2.93.54a81.46,81.46,0,0,1-10.81,6.1A18.69,18.69,0,0,0,2737.12,433.21Zm6-69a65.11,65.11,0,0,0-5.13,4.84q-2.74-1.95-5.46-4A55.33,55.33,0,0,0,2743.1,364.22Zm-8.71,75.62a82.6,82.6,0,0,1-15.93,4.72l-12.3-6.78C2715.3,441,2725,441.24,2734.39,439.84ZM2709,526.2a41.66,41.66,0,0,0,9.18,7.26c-1.17.19-2.34.34-3.52.47Q2711.73,530.14,2709,526.2Zm38.88,262.06a175,175,0,0,1-32-28.12c1.74,0,3.47,0,5.21-.13,16.46,10.58,34,17.31,51.79,19.89A205.38,205.38,0,0,1,2747.83,788.26ZM2782.74,662l-3.39.56c-.26-1.68-.51-3.36-.76-5A57.57,57.57,0,0,0,2782.74,662Zm-2,114.45q-2-5-3.95-9.94c3.88-.26,7.75-.68,11.6-1.23a70,70,0,0,0,6.78,3.68Q2788.1,773.05,2780.71,776.46Zm6-88c-2.2-.8-4.38-1.63-6.56-2.51,7.07-2.37,14.05-5,20.92-7.73Zm22.12-129.57c-.09-.51-.18-1-.26-1.54l.55,1.44Zm75.86-165.59q-9.3,5.63-19.13,10.31a105.41,105.41,0,0,1-19.42-7.7A212.61,212.61,0,0,0,2884.72,393.33Zm-35.78-11.28.44.11a124.69,124.69,0,0,1-12.46,8.41,104.33,104.33,0,0,1-9.16-6.75A53.35,53.35,0,0,0,2848.94,382.05ZM2832.17,497c.85-.28,1.7-.56,2.55-.86a80.64,80.64,0,0,0,15.66,3.9l-4.64,4.47A59.73,59.73,0,0,1,2832.17,497Zm3.08,114-3.69,2.76c-1-.2-2-.42-3-.63C2830.81,612.45,2833,611.75,2835.25,611Zm4.17-149.66A79,79,0,0,1,2821.71,450a82.5,82.5,0,0,0,26.32,8.75Q2843.74,460.11,2839.42,461.35ZM2832.5,699.6c-3.29-.41-6.58-.89-9.86-1.46s-6.58-1.24-9.86-2a226,226,0,0,0,40.44-10.34Q2843.22,693.21,2832.5,699.6Zm18.71-61.93c.54-.09,1.07-.21,1.61-.32l-1.07.64Zm-.42-148.14,1.54-.61c2,1.13,4.06,2.25,6.13,3.31l-2.92,2.82A69.4,69.4,0,0,1,2850.79,489.53Zm.36-39.86a38.54,38.54,0,0,0,8.65,5q-2.33.87-4.68,1.7Zm15,84.6a36,36,0,0,1-4-.83,28.07,28.07,0,0,1-4.67-1.7,49.83,49.83,0,0,0,9.13.54l-5.46-7.76a57.36,57.36,0,0,0,16.27,3.4Q2871.82,531.21,2866.11,534.27Zm-2.69-86.38a65.45,65.45,0,0,0,7.63,2.26c-1,.43-2,.83-3,1.25C2866.55,450.17,2865,449,2863.42,447.89Zm21.77,75.3a21.05,21.05,0,0,0-4.45-2.35c1.81.64,3.66,1.19,5.52,1.67Zm17.11-13a269.28,269.28,0,0,1-28.41.19c-1.69-.11-3.38-.27-5.07-.45a111.16,111.16,0,0,0,43-12.1A52.88,52.88,0,0,1,2902.3,510.23Zm15.34-85.77q-7.82,5.42-16,10.24a250.56,250.56,0,0,1-25.56-1.29,139.15,139.15,0,0,1-28.49-6.39,56.66,56.66,0,0,1-12.66-5.73,62,62,0,0,1-8.06-6.42c9.06,5.38,18.88,11,29.34,10.06-.32-1.46-.65-2.92-1-4.37a26.11,26.11,0,0,0,22.56,4.81l-4.74-5.25a43.92,43.92,0,0,0,26.4-2l-9.85-3.89a43,43,0,0,0,6.84-1.4,145.28,145.28,0,0,0,36.27-6.82C2931.34,414.05,2924.35,419.79,2917.64,424.46Zm295,80-.12.13-.56-.09Zm-17,16a147.12,147.12,0,0,1-11.81,9,49.74,49.74,0,0,1-6.17-9.19Q3186.6,520.49,3195.58,520.52Zm1.38,16.15a27.77,27.77,0,0,1-2.07,2.6c-.75-.49-1.49-1-2.21-1.5C3194.11,537.42,3195.54,537.05,3197,536.67ZM3083.24,755.14c-1.94-1.52-3.86-3.06-5.75-4.65,2.74,1.43,5.51,2.79,8.3,4.12Zm56.22-85.37a140.1,140.1,0,0,1-19.11-9.93c-10-6.32-17.24-12.51-26.17-20.29,17.77,10.29,36.45,20.79,55.94,26.86Q3144.84,668.23,3139.46,669.77Zm24.9,128.45q-2.47-.86-4.93-1.74c3.73-1.07,7.43-2.26,11.07-3.59C3168.52,794.75,3166.46,796.52,3164.36,798.22Zm18.94-206.48a340.63,340.63,0,0,1-104-65.54c15.49,10.61,36.48,14.08,55.87,13.72l-1.71-15.79a149.17,149.17,0,0,0,37.69,12.94,108.13,108.13,0,0,1-13.1,5.77,183.1,183.1,0,0,0,28-3.56q4.15.4,8.33.57c-5.92,6.18-14.67,9.43-23,12.33l45.09-.09-29,12.54a356.34,356.34,0,0,0,38.66,1.23C3214.29,577.77,3199.25,586.09,3183.3,591.74Zm210.87,17.17a131.8,131.8,0,0,0,22.78-5.43l-11.39,8.5Q3399.83,610.6,3394.17,608.91ZM3421,620a97.42,97.42,0,0,1-9.29,4.11c-2.62-1-5.26-2-7.91-3Zm-21.78,18.46q-2.17,1.54-4.34,3.1l-1.05-1Q3396.51,639.52,3399.18,638.46Zm-4-42.92a66,66,0,0,1-10.77,10.23q-8.72-3-17.17-6.7A163,163,0,0,0,3395.19,595.54Zm-30.65-2.61-5.4,2.39c-1.57-.75-3.12-1.53-4.67-2.32C3357.85,593.12,3361.25,593.05,3364.54,592.93Zm-1.11,51.66c-.83.47-1.67.92-2.51,1.37a10.72,10.72,0,0,0-4.45-3.25C3358.76,643.42,3361.09,644,3363.43,644.59ZM3345.27,814.7c-1.78-1.5-3.59-3.07-5.5-4.73,2.75,1.59,5.53,3.19,8.34,4.77C3347.16,814.74,3346.22,814.72,3345.27,814.7Zm10.19-71.8q-2.36-1.64-4.65-3.33c2.68.07,5.39,0,8.07-.08Zm2.2-11.2c-1.54-.45-3.06-.93-4.58-1.45,3,.51,6.07.87,9.12,1.09C3360.69,731.49,3359.18,731.61,3357.66,731.7Zm46.1,24.95c-4.93,2.21-10,4.26-15.12,6.09q-10.86-5.47-21.19-11.92a129.19,129.19,0,0,0,21.81-6.56L3376,754.42a95,95,0,0,0,34-2.52C3408.8,754.26,3406.2,755.55,3403.76,756.65Zm-33.13-37.47a116.62,116.62,0,0,0,16.12,6.62,104.29,104.29,0,0,1-14.95,4.1Zm34.76-3,1.21,0c-.29.19-.59.37-.89.55C3405.61,716.53,3405.49,716.34,3405.39,716.15Zm-36.52-49-43.45-15.59.19-.07c12.26,2.63,25.26,2.5,37.77.9a10.61,10.61,0,0,0-1.91-5.66,50.58,50.58,0,0,0,11.27-.36,104.14,104.14,0,0,0,14,1l-2.66,1.89a117.69,117.69,0,0,0,42.21-6.82A139.93,139.93,0,0,1,3368.87,667.11Zm58.8-50.88q-8.27-1.17-16.43-2.94A111,111,0,0,0,3439.7,607,77.34,77.34,0,0,1,3427.67,616.23Zm209.73-71a25.37,25.37,0,0,1-8,7.25,73.38,73.38,0,0,0-10.83-3.37A152.63,152.63,0,0,0,3637.4,545.26Zm-80.8,205-.56-.47,1.19-.25C3557,749.74,3556.81,750,3556.6,750.21ZM3543,676a140.37,140.37,0,0,0,19.84,8.44q-1.56,1.68-3,3.4A124.85,124.85,0,0,1,3543,676Zm36.64,88c-1.13-.49-2.25-1-3.36-1.52,3.07-.84,6.1-1.77,9.11-2.78Zm25.83,8q-4.8-1-9.49-2.28a143.07,143.07,0,0,0,18.83-5.42A96.65,96.65,0,0,1,3605.44,772.05Zm16.13-73q-6.27,4-12.8,7.65a171,171,0,0,1-46.56-17.41c2.76-.79,5.52-1.6,8.27-2.45a142.47,142.47,0,0,0,19.21,3.91l-.14.13a75,75,0,0,0,36.28-2.59,65.18,65.18,0,0,0,6.85.32c-.69-.69-1.39-1.38-2.1-2.06,2.14-.87,4.24-1.82,6.29-2.88C3633.57,689.82,3627.48,695.23,3621.57,699Zm-27.08-20.49,1.63-.63c1.38.9,2.8,1.74,4.24,2.53l-3,2.86Zm46.28-44.27a175.68,175.68,0,0,1-20.8,12.38,238.88,238.88,0,0,1-33.35-8.36c-7.42-2.44-14.77-5.27-21.36-9.42a103.57,103.57,0,0,1-13.61-10.55c15.29,8.85,31.87,18,49.53,16.53-.55-2.39-1.11-4.78-1.66-7.18a45,45,0,0,0,38.07,7.92l-8-8.64a75.11,75.11,0,0,0,17.62,1.92A37.63,37.63,0,0,1,3640.77,634.28Zm-22.55-39.51c-3.24.94-6.52,1.76-9.81,2.5a178,178,0,0,1-64.53-37.91c8.06,5.52,19,7.32,29.07,7.14-.3-2.74-.59-5.48-.89-8.22a78.05,78.05,0,0,0,32.49,8.22,26.08,26.08,0,0,1-9.5-10.22c9,.22,18,.15,27-.16-2.15.87-4.34,1.65-6.49,2.4l38.56-.07-24.84,10.72a304,304,0,0,0,33.06,1.05C3650.38,582.26,3634.59,590,3618.22,594.77Zm363.22,14.65c1.91.17,3.83.27,5.74.33l-3.29,3.17L3979,610.4Zm-37.37,8.41c-.9,1-1.78,2-2.66,3l-4.55-7.45A49.92,49.92,0,0,0,3944.07,617.83Zm-46.2,159.67c.26.35.53.71.8,1l-2.25-.86Zm-8.65-14.62c-1.07-.07-2.13-.14-3.2-.23a128,128,0,0,1-3.43-15.45C3884.63,752.42,3886.77,757.75,3889.22,762.88Zm-16,29.3c1.34.12,2.69.22,4,.29-1.35.5-2.72,1-4.09,1.46C3873.17,793.34,3873.18,792.75,3873.2,792.18Zm-.21,7.15a82.25,82.25,0,0,0,43.57-5.71L3900,803.08a110.87,110.87,0,0,0,48.45-2,132.74,132.74,0,0,1-44.87,19.64c-10.39-.29-20.76-.82-31.1-1.8C3872.54,813.57,3872.77,806.36,3873,799.33Zm36.36-19.19-3.13.65a22.83,22.83,0,0,1-.56-4.66h0A46.38,46.38,0,0,0,3909.35,780.14Zm-2.44-112.66c.94.43,1.88.84,2.83,1.24l-1.17.19C3908,668.44,3907.45,668,3906.91,667.48Zm16.82,83.16c1.76,1.05,3.55,2,5.37,3l-1.25.89Q3925.74,752.62,3923.73,750.64Zm-30.53,95.85-4.23,3.57-9.85-5Q3886.13,846.07,3893.2,846.49Zm-21.32,11.18a5.46,5.46,0,0,0,.28-1,144.68,144.68,0,0,0,30.15.21l-12.22-6.25a559.08,559.08,0,0,0,67.06-4.93c-27.63,18.42-62.29,26.16-95.29,21.72q-5.3-5.13-11-9.76Zm-46.33-63.73-1.75,4.56a42.27,42.27,0,0,0,4.9-2.69,58.66,58.66,0,0,0,19.38,6.52c0,2.43,0,4.79,0,7,0,2.07,0,4.17-.11,6.26a310,310,0,0,1-43.21-10.83c-9.59-3.15-19.09-6.81-27.61-12.17-1.85-1.17-3.56-2.33-5.18-3.51l2.86-1.63c2.51,1.31,5,2.58,7.61,3.77-.27.61-.57,1.22-.83,1.84.92-.3,1.82-.64,2.72-1,12.55,5.63,25.66,9.38,39.26,8.24-.72-3.09-1.43-6.19-2.15-9.28C3822.74,792.08,3824.13,793,3825.55,793.94Zm18.74,56.85c-.09.58-.18,1.14-.27,1.66q-2.34-1.71-4.72-3.33C3841,849.71,3842.62,850.26,3844.29,850.79Zm-77.05-133.32a219.83,219.83,0,0,1-17.76-14.76c10.1,6.92,23.68,9.31,36.38,9.23A66.82,66.82,0,0,1,3767.24,717.47Zm2,67c-.44.52-.87,1.06-1.28,1.61l-1.53-1.24c.61-.3,1.23-.59,1.83-.91Zm17.11-79.07c2.15-.25,4.28-.59,6.41-1,1,.42,2,.82,3,1.2a47.14,47.14,0,0,1-8.8,5.73C3786.78,709.37,3786.57,707.39,3786.35,705.4Zm24.78-117.06a103.27,103.27,0,0,1-22.6,12.58,198.87,198.87,0,0,1-20-9.36c7.56-.68,15-3.41,22.12-6.2l-11.41,8.14A89,89,0,0,0,3811.13,588.34ZM3764.46,551l-3,1.34-1.4-1.24C3761.53,551,3763,551,3764.46,551Zm-5,16.39a34,34,0,0,1-8-12.47,94.4,94.4,0,0,0,19.43,5.77l-5.65-5a122.82,122.82,0,0,0,22.45-2.69,49.93,49.93,0,0,1-13.31,11.15,99.32,99.32,0,0,0,29.75-5.16l-10.35,7.73a83.7,83.7,0,0,0,27.54-5c-8.84,8.3-20.32,13.51-32.2,16.25s-24.2,3.11-36.39,2.66a32.72,32.72,0,0,0,20.09,3.31,70.48,70.48,0,0,1-8.13,5.58,192,192,0,0,1-39.93-30A50.85,50.85,0,0,0,3759.44,567.34Zm.72,77.7-1,.85a313.86,313.86,0,0,0,38.62-2.78,76.38,76.38,0,0,1-23,10.24l-28.17-10.11A79.8,79.8,0,0,0,3760.16,645Zm190.58,257c-34.62.08-69.4-.13-103.48-6-35.84-6.21-71.23-19.14-99-42.39A183.15,183.15,0,0,0,3825.42,874l-12.89-21.1a86.11,86.11,0,0,0,38.61,16c4.06,4.38,9.81,7.25,15.71,8.68,7.56,1.83,15.45,1.6,23.23,1.36l-18.94,18.89a175.91,175.91,0,0,0,59.9-12.45l-17.85,13.7a128.31,128.31,0,0,0,45.85-3.4C3957.41,898.79,3954,900.52,3950.74,902Zm-4.26-134A115.59,115.59,0,0,1,3931,757.19q2.67-.06,5.34-.21a98.89,98.89,0,0,0,19.87,6,9.85,9.85,0,0,1-2.76-6.17,62.62,62.62,0,0,0,8.21,3.63Q3954.25,764.55,3946.48,768ZM3934,659.73q2.35,1.32,4.75,2.63l-2.28.63C3935.63,661.92,3934.8,660.84,3934,659.73Zm35.38,96.12a18.41,18.41,0,0,1-1.37-3.35c1.24.65,2.51,1.25,3.79,1.81C3971,754.83,3970.21,755.34,3969.39,755.85Zm1.3-36.56c-6.67,0-13.39-.15-19.83-1.84a36.3,36.3,0,0,1-6-2.11,64.76,64.76,0,0,0,11.64.67l-4.88-6.76c2.26-.06,4.52-.16,6.78-.32a75.41,75.41,0,0,0,27.61,1,26.57,26.57,0,0,0-4.66-4.39c1.21-.28,2.4-.57,3.6-.88,2.52.52,5.06.91,7.62,1.2A114.1,114.1,0,0,1,3970.69,719.29Zm-21.1-12.92c1,.35,1.95.66,2.94,1l-1.45,1.09Zm56.55-74.2q-7.92,5.1-16.22,9.56a247.83,247.83,0,0,1-32.76-3.18c-20.95-3.64-41.64-11.19-57.85-24.78a107.16,107.16,0,0,0,45.09,12l-2-3.22c2.5-.7,5-1.43,7.48-2.17a50.4,50.4,0,0,0,17.2,2.93q-3.24-3.25-6.78-6.21c2.14-.7,4.27-1.43,6.4-2.17a85.71,85.71,0,0,0,13.86,1.22l-7.85,7.56a78.27,78.27,0,0,0,49.36-7.53C4018.66,622.56,4012.31,628.21,4006.14,632.17Zm256.79,99.62-2.5,1.09-1-1.08Zm-65.1,80.9a136.79,136.79,0,0,1-27.11,2,175,175,0,0,1-32.4-21.37A190.62,190.62,0,0,0,4197.83,812.69Zm5.43,6.16q-3.89,3.21-7.46,6.76-7.38-2.67-14.54-5.84C4188.35,820.81,4196.08,819.9,4203.26,818.85Zm-13.16,93.21c-.5.12-1,.22-1.52.33a127.94,127.94,0,0,1-36.7-23.19,186.91,186.91,0,0,0,58.76,15.94A106.53,106.53,0,0,1,4190.1,912.06Zm19.52-24.89.29-.09-.22.16ZM4205,828.72q11.39-3.79,22.42-8.48l-12,11.55Q4210.13,830.37,4205,828.72Zm.37-36.05a88.64,88.64,0,0,0,21.38,11.69q-5.74,2.35-11.68,4.19Zm16.16,106.56q-2.28-2.07-4.45-4.23a109.49,109.49,0,0,0,13.77-3.76l.74.34A78,78,0,0,1,4221.48,899.23Zm20.07-61.66h0c-4.85-.85-9.7-1.81-14.52-2.89a57.76,57.76,0,0,0,22.62-6.3A31.16,31.16,0,0,1,4241.55,837.57Zm-8.31-48.85a150.68,150.68,0,0,0,15,4.49q-2.39,1.51-4.84,2.94Q4238.47,792.25,4233.24,788.72Zm15.53-33.9a323.68,323.68,0,0,1-51.59-12.36c-10-3.29-19.91-7.11-28.8-12.7-7-4.43-12.09-8.78-18.35-14.23,20.62,11.93,43,24.29,66.79,22.3q-1.12-4.85-2.24-9.69a60.56,60.56,0,0,0,36.51,12.43q9.09.49,18.19.3A69.26,69.26,0,0,1,4248.77,754.82Zm173.71,25.08c-2.78,4.06-7.21,6.5-11.88,8.39q-4.4-2.49-9-4.66A119.53,119.53,0,0,0,4422.48,779.9Zm-9.26-4.36a78.09,78.09,0,0,1-13.38,7.24q-6.56-3-13.38-5.43Zm-50.69,194.81c-2.91.67-5.85,1.23-8.8,1.7a126.49,126.49,0,0,1-18.13-12.6,141.22,141.22,0,0,0,27.46,10.77Zm-26-127.28c.4.28.81.54,1.23.79h-.36Zm32.67,75.09a75.54,75.54,0,0,1-11.35-5.75,103.83,103.83,0,0,1-13.57-10.52c9.63,5.58,19.78,11.27,30.4,14.34C4372.84,916.9,4371,917.55,4369.18,918.16Zm19,68.46-2.1-.62c1.86-.56,3.71-1.17,5.53-1.82C4390.53,985,4389.39,985.82,4388.23,986.62Zm-3.08-27.68c.94.7,1.91,1.37,2.89,2l-1.26.65ZM4398.27,880l-1.1-.39,2.63-1.09Zm26.82-31.43a138.07,138.07,0,0,1-50,21.47,175.79,175.79,0,0,1-31.37-20.68c1.11-.45,2.21-.93,3.31-1.43a62,62,0,0,0,18.46,2.26c-.3-2.73-.59-5.46-.89-8.19a77.78,77.78,0,0,0,32.41,8.19,25.89,25.89,0,0,1-9.48-10.19c1.77,0,3.55,0,5.32.07-.4.17-.79.35-1.19.51A75.94,75.94,0,0,0,4432.9,839C4432.19,843.17,4428.57,846.15,4425.09,848.57Zm-17.4-30.48c-1.74.51-3.5,1-5.26,1.39-12.77-2.43-25.15-6.86-37.41-11.25l-30.73-11a73.9,73.9,0,0,0,25.53.72,7.19,7.19,0,0,0-4.55-6.36,68.57,68.57,0,0,0,28.65,2.54L4373.62,784l36.54,4.51c-1.51.6-3,1.15-4.54,1.67l29.74,0-19.15,8.27a235.8,235.8,0,0,0,25.5.81C4432.5,808.44,4420.32,814.43,4407.69,818.09Z"/></g></g></svg>