<svg xmlns="http://www.w3.org/2000/svg" viewBox="0 0 6000 7649.9"><defs><style>.cls-1{fill:#280303;}</style></defs><g id="Layer_2" data-name="Layer 2"><g id="Layer_2-2" data-name="Layer 2"><path class="cls-1" d="M6000,939.7c-14.12-11.56-24.93-27.5-35.16-42.92a203,203,0,0,0,18.75,18.81l5.64-17.19A43.75,43.75,0,0,0,6000,911.08V854.73a121.07,121.07,0,0,1-38.22-22.23,5.15,5.15,0,0,0,2.24.21q-1.12-10.76-2.24-21.5a223.41,223.41,0,0,0,29.11,15.48,30.75,30.75,0,0,0,1.83-15.74l7.28,3.13V775.45c-11.17,1.07-22.95,1.21-32.59-4.4A187.84,187.84,0,0,0,6000,760.32v-8.61a136.45,136.45,0,0,1-22.68-1.05L6000,739.42v-2.48a297.77,297.77,0,0,1-37.56,4.27l34-23.93A79.66,79.66,0,0,0,5962.81,729a215.52,215.52,0,0,0,20.3-34.37,39.38,39.38,0,0,0-16,17.29q-4.05-15-8.09-30a9.91,9.91,0,0,0-4.24,11.85l-12.82-31-4.2,9.7c-10.08,23.34-24.58,38.92-44.45,54.79a122.45,122.45,0,0,1,28.38,0l-37.17,19.51,51.77-2.14-35.54,27.95a201.54,201.54,0,0,0,34.65-3.43,137.28,137.28,0,0,1-97.44,52.7c6.81,4,15.24,3.48,23.15,3.83s16.8,2.41,20.72,9.29l3.81-3.75a7.75,7.75,0,0,0,10.37,5.18c1,5.7,8.77,7.86,14,5.35s8.32-7.88,11.11-12.94c2.67,1.53.71,5.62-1.5,7.75a120.27,120.27,0,0,1-98.95,31.87,19.33,19.33,0,0,1,10.59,15.94l22-10.59-9.87,19.54a46.48,46.48,0,0,0,21.45-6.09,72.3,72.3,0,0,1-5.47,18.43A276.35,276.35,0,0,0,5892,893.72q-1.77,5.82-3.56,11.66l19.55-1.87c-35.76,40.57-89.54,64.64-143.62,64.28a47.45,47.45,0,0,1,3.43,8.69,208.12,208.12,0,0,1-28.92,3.48l23.75-16.7a55.58,55.58,0,0,0-23.49,8.17,151.41,151.41,0,0,0,14.17-24,27.4,27.4,0,0,0-11.16,12.06q-2.82-10.47-5.65-21a6.91,6.91,0,0,0-2.95,8.27q-4.48-10.8-8.95-21.6-1.47,3.38-2.93,6.77c-7,16.28-17.16,27.16-31,38.23a85.23,85.23,0,0,1,19.81,0l-22.9,12c-48-7.94-94.09-39.53-129.32-88.7,10.31,10.66,24.28,14.14,37.19,13.78l-1.14-15.85c12.85,9.74,27.16,15.2,41.57,15.86-5.15-4.77-9.41-11.68-12.16-19.74A392.71,392.71,0,0,0,5676,886a72.92,72.92,0,0,0-29.39-14.24,168.57,168.57,0,0,0,53.29-13.49c-14.83-6.78-30.71-5.32-46.13-7.93-20.28-3.43-39.69-13.9-58.88-24.3l-39.43-21.35c10.6,3.63,21.9,3.5,32.76,1.41-.1-5.33-2.51-10.41-5.85-12.32a60.06,60.06,0,0,0,36.76,4.9q-6.62-9.81-13.21-19.64l48.12,9a172.15,172.15,0,0,0-31.65-21.75l37.55-3.84c-47-3.38-92.82-33.53-126.15-82.94,10,10,22.47,14.32,34.38,11.84a58,58,0,0,1-8-18.63,71.47,71.47,0,0,0,19.23,8.63l-15.22-20.43,11,.32c-19-9.33-34.22-31.38-44.77-56.67s-16.95-53.87-23-82.25c-4.51,21.11-14.48,37.32-23.79,54.59-19.37,35.94-40.2,73.49-69.26,89.34a106.67,106.67,0,0,0,33-7.88c-4.84,10.62-13.51,15.52-21.64,19.81l38.16-.11-24.57,16a202.31,202.31,0,0,0,32.71,1.57,98.89,98.89,0,0,1-43.64,36.66c-16.2,7.08-33.08,9.91-49.88,12.44,8.21,6.57,18.22,7.94,27.09,3.71a85.09,85.09,0,0,1-13.87,13.1A93.81,93.81,0,0,0,5428.8,760a135.4,135.4,0,0,1-21,15.81,66.32,66.32,0,0,0,52.89-3c-.9,8-5.55,13.8-10,18.49-31.25,32.76-69.87,49.62-108,47.17,12.16,14.19,29.39,11.52,44.67,8.14a193.34,193.34,0,0,0-19.09,28.82,307.9,307.9,0,0,0,50-26.14q-9.14,13.26-18.26,26.54c15.84,4.25,32.6.39,46.83-10.78a62.08,62.08,0,0,1-15.14,23c-41.67,40.45-92.11,60.43-141.75,56.29a38.73,38.73,0,0,1-6.16-11.36,94.41,94.41,0,0,0,20.6,6.54L5288.09,924l11.83.24c-20.33-7.07-36.66-23.79-48-43s-18.15-40.84-24.63-62.36c-4.83,16-15.51,28.29-25.48,41.38-20.75,27.26-43.06,55.73-74.18,67.75a154.68,154.68,0,0,0,35.3-6c-5.19,8.06-14.48,11.77-23.18,15l40.87-.08-26.32,12.14a303.63,303.63,0,0,0,35,1.19c-12.65,13.63-29.39,22.43-46.74,27.8s-35.44,7.52-53.43,9.44a36,36,0,0,0,29,2.81,87.21,87.21,0,0,1-14.85,9.93,141.17,141.17,0,0,0,39.69-1.14,151.1,151.1,0,0,1-22.44,12,98,98,0,0,0,56.65-2.29c-1,6.09-5.95,10.47-10.74,14-33.47,24.84-74.83,37.63-115.72,35.77,13,10.76,31.48,8.73,47.85,6.17a154.58,154.58,0,0,0-20.44,21.85,393.34,393.34,0,0,0,53.57-19.82L5112.25,1087a75.07,75.07,0,0,0,50.15-8.18c-3.5,7-9.95,13.11-16.21,17.42-45.68,31.38-101.19,46.53-155.56,42.44,11.68,11.44,29.44,11.5,45.37,10.88l-18.48,8.75a209.64,209.64,0,0,0,60.48-4.92,92.25,92.25,0,0,1-24.13,21.61,170,170,0,0,0,53.94-10l-18.76,15a143.78,143.78,0,0,0,49.94-9.76c-16,16.06-36.86,26.17-58.4,31.47s-43.87,6-66,5.15a55.82,55.82,0,0,0,36.42,6.41,126.06,126.06,0,0,1-21.5,14.81c18.43,2.4,36.67-4.61,53.92-11.83L5062.77,1232a152,152,0,0,0,57.85-10,185.6,185.6,0,0,1-66.37,33.3c-1.58-4.56-3-9.18-4.39-13.8-1.94,6.42-5.55,11.76-9.49,17a178.16,178.16,0,0,1-48.94,2.44c.66-2.29,1.33-4.59,2-6.88a13.23,13.23,0,0,0,8,6.07,31.7,31.7,0,0,0,1.56-13.32,20.33,20.33,0,0,0,11.45,5.6c.12-3.49.24-7,.35-10.46l10.35,4.78q-.9-5.57-1.82-11.12a56.87,56.87,0,0,1,10.82,2.83,20.91,20.91,0,0,0,.85-9.26c-26.69,7.12-56.7.07-77.56-18a3.79,3.79,0,0,0,1.57.14q-.8-7.5-1.57-15a156.06,156.06,0,0,0,20.31,10.8,21.32,21.32,0,0,0,1.28-11l13.95,6q-2.05-8.51-4.12-17a49.17,49.17,0,0,0,14.43,8.89l-5.35-13.8,12.07,4.63a58.28,58.28,0,0,1-5.56-12.15l8.91-.81.18-5.08a268.84,268.84,0,0,1-28.06,4.43c-8.19.86-17,1.21-24.11-2.93a131.57,131.57,0,0,0,38-15.29,95.27,95.27,0,0,1-31.06,1.06l21.48-10.65a208.12,208.12,0,0,1-31.86,4.06l23.75-16.7a55.58,55.58,0,0,0-23.49,8.17,151.41,151.41,0,0,0,14.17-24,27.4,27.4,0,0,0-11.16,12.06q-2.82-10.47-5.65-21a6.91,6.91,0,0,0-2.95,8.27q-4.48-10.8-8.95-21.6-1.47,3.38-2.93,6.77c-7,16.28-17.15,27.16-31,38.23a85.23,85.23,0,0,1,19.81,0l-25.95,13.62,36.13-1.5-24.8,19.5A141.13,141.13,0,0,0,4939,1167a95.91,95.91,0,0,1-60.83,35.94q-2.22-9.11-4.42-18.22a59,59,0,0,0,17.29,10.66q-3.21-8.28-6.41-16.54l14.46,5.55a70.7,70.7,0,0,1-6.66-14.56l10.67-1q.12-3,.22-6.09a320.91,320.91,0,0,1-33.61,5.31c-9.82,1-20.36,1.45-28.9-3.52a157.32,157.32,0,0,0,45.5-18.32,114,114,0,0,1-37.21,1.28l25.73-12.76a250.14,250.14,0,0,1-38.17,4.86l28.46-20a66.5,66.5,0,0,0-28.15,9.79,180.06,180.06,0,0,0,17-28.74,32.92,32.92,0,0,0-13.37,14.46q-3.37-12.55-6.77-25.1a8.27,8.27,0,0,0-3.53,9.9q-5.37-12.93-10.73-25.88l-3.51,8.11c-8.43,19.51-20.55,32.55-37.16,45.81a102.36,102.36,0,0,1,23.73,0l-31.08,16.31,43.29-1.79-29.72,23.36a167.7,167.7,0,0,0,29-2.86A114.76,114.76,0,0,1,4732.6,1207c5.68,3.37,12.74,2.91,19.34,3.2s14.05,2,17.33,7.77l3.19-3.13a6.48,6.48,0,0,0,8.67,4.33c.83,4.76,7.33,6.57,11.68,4.47s7-6.59,9.3-10.82c2.22,1.28.59,4.7-1.26,6.48a100.65,100.65,0,0,1-79,27.09,119.3,119.3,0,0,1-16.82-16.88,25,25,0,0,0,20.15,5.74,25.75,25.75,0,0,1-4.66-9,46.2,46.2,0,0,0,11.27,4.18l-8.92-9.89,6.47.15c-11.13-4.52-20.06-15.21-26.24-27.47s-9.93-26.1-13.48-39.86c-2.64,10.23-8.49,18.09-13.94,26.46-11.35,17.42-23.56,35.62-40.59,43.3a73.58,73.58,0,0,0,19.31-3.82c-2.83,5.15-7.92,7.52-12.68,9.6l22.37,0-14.41,7.76a143,143,0,0,0,19.18.76c-6.93,8.71-16.09,14.33-25.58,17.77s-19.39,4.8-29.23,6a17.2,17.2,0,0,0,15.87,1.79,47.28,47.28,0,0,1-8.12,6.35,66,66,0,0,0,21.72-.73,79.61,79.61,0,0,1-12.28,7.66,46.32,46.32,0,0,0,31-1.46c-.53,3.89-3.25,6.69-5.87,9-14.49,12.56-31.68,20.29-49.3,22.39a46.81,46.81,0,0,1-3.54-9.8,54.83,54.83,0,0,0,14.64,6.56l-11.58-15.55,8.4.24c-14.45-7.1-26.06-23.89-34.09-43.14s-12.9-41-17.51-62.62c-3.43,16.07-11,28.41-18.11,41.56-14.75,27.36-30.61,56-52.73,68a81.34,81.34,0,0,0,25.09-6c-3.68,8.09-10.29,11.82-16.47,15.08l29.05-.08-18.71,12.19a152.71,152.71,0,0,0,24.91,1.2,75.32,75.32,0,0,1-33.23,27.91c-12.33,5.39-25.19,7.55-38,9.47,6.25,5,13.87,6.05,20.63,2.82a64.53,64.53,0,0,1-10.56,10,71.43,71.43,0,0,0,28.22-1.15,102.41,102.41,0,0,1-16,12,50.48,50.48,0,0,0,40.27-2.3c-.69,6.12-4.22,10.51-7.63,14.08-23.79,25-53.19,37.78-82.25,35.92,9.26,10.8,22.37,8.77,34,6.19q-4,4.93-7.6,10.41a209.88,209.88,0,0,1-82.78-52.52,52.66,52.66,0,0,0,37.49,9,38.74,38.74,0,0,1-8.68-14.19,97.5,97.5,0,0,0,21,6.57l-16.58-15.55,12,.24c-20.69-7.1-37.31-23.89-48.82-43.14s-18.47-41-25.07-62.63c-4.91,16.08-15.78,28.42-25.93,41.56-21.12,27.37-43.83,56-75.51,68a159.44,159.44,0,0,0,35.93-6c-5.28,8.09-14.73,11.82-23.59,15.08l41.61-.08-26.8,12.19a314.63,314.63,0,0,0,35.67,1.19c-12.88,13.69-29.92,22.52-47.58,27.92s-36.07,7.55-54.38,9.47a37.06,37.06,0,0,0,29.53,2.82,88,88,0,0,1-15.11,10,145.48,145.48,0,0,0,40.4-1.15,153.73,153.73,0,0,1-22.85,12,101.09,101.09,0,0,0,57.67-2.3c-1,6.12-6.06,10.51-10.93,14.08a186.81,186.81,0,0,1-117.79,35.92c13.27,10.8,32,8.77,48.71,6.19a155.36,155.36,0,0,0-20,20.89,190.08,190.08,0,0,1-63.12-26.58c-4.73-3.11-9.59-7.54-12.23-12.57a58.9,58.9,0,0,0,37.83,5.9l-14.75-14.53a305.31,305.31,0,0,0,40.4,14.31,112.69,112.69,0,0,0-15.42-15.77c12.35,1.84,26.27,3.31,36.09-4.46a141.36,141.36,0,0,1-87.27-25.81c-3.61-2.57-7.36-5.73-8.1-10.12a77.18,77.18,0,0,0,42.73,1.65,115.34,115.34,0,0,1-16.93-8.65,110.8,110.8,0,0,0,29.94.83,65.75,65.75,0,0,1-11.2-7.17,28.19,28.19,0,0,0,21.88-2c-13.57-1.38-27.21-2.93-40.29-6.81s-25.71-10.22-35.25-20.06a240.19,240.19,0,0,0,26.42-.86l-19.85-8.76,30.82.06c-6.56-2.35-13.56-5-17.47-10.84a121.23,121.23,0,0,0,26.62,4.31c-23.47-8.67-40.3-29.22-55.95-48.89-7.52-9.45-15.57-18.32-19.21-29.87-4.89,15.53-10,31.17-18.58,45s-20.84,25.9-36.17,31l8.92-.18L4019.5,1395a73.87,73.87,0,0,0,15.53-4.72,27.76,27.76,0,0,1-6.43,10.2,40,40,0,0,0,27.78-6.48,156.4,156.4,0,0,1-63.94,38.59,143.47,143.47,0,0,0-14.84-14.44c15.59,2.34,33.16,4.18,45.57-5.62A178.52,178.52,0,0,1,3913,1380c-4.56-3.24-9.3-7.22-10.22-12.77a97.38,97.38,0,0,0,53.95,2.08,146.81,146.81,0,0,1-21.38-10.91,140.78,140.78,0,0,0,37.8,1,83.26,83.26,0,0,1-14.14-9.06,35.62,35.62,0,0,0,27.63-2.56c-17.13-1.74-34.35-3.7-50.87-8.6s-32.47-12.91-44.52-25.33a302.16,302.16,0,0,0,33.37-1.08l-25.07-11.07,38.93.08c-8.29-3-17.14-6.35-22.07-13.69a152.51,152.51,0,0,0,33.61,5.44c-29.63-11-50.88-36.89-70.64-61.73-9.49-11.93-19.67-23.13-24.26-37.71-6.18,19.61-12.69,39.35-23.46,56.83s-26.31,32.71-45.67,39.15l11.26-.22L3781.7,1304a93.52,93.52,0,0,0,19.62-6,35.16,35.16,0,0,1-8.12,12.87,50.49,50.49,0,0,0,35.07-8.18A197.15,197.15,0,0,1,3699.59,1360l38.31,2.65a194.41,194.41,0,0,0-32.29,15l49.09-6.19q-6.75,6.78-13.48,13.57a88,88,0,0,0,37.49-3.39,9.63,9.63,0,0,0-6,8.51c11.07,1.45,22.59,1.54,33.41-1L3766,1404c-19.58,7.19-39.37,14.42-60.07,16.79-15.63,1.79-31.74.81-46.8,5.41a41.87,41.87,0,0,1-8.74-13.91c10,7.72,21.83,10.38,33,7.44q-6.42-9.17-12.85-18.34a218,218,0,0,0,35.22,18.07,132.64,132.64,0,0,0-13.44-19.92c10.76,2.34,22.9,4.18,31.46-5.62-26.88,1.69-54.08-10-76.09-32.6-3.15-3.23-6.42-7.22-7.06-12.77a47.58,47.58,0,0,0,37.25,2.09,95.55,95.55,0,0,1-14.76-10.92,67.38,67.38,0,0,0,26.11,1,59.56,59.56,0,0,1-9.77-9.06c6.25,2.93,13.3,2,19.08-2.55-11.83-1.75-23.72-3.71-35.13-8.6a69.43,69.43,0,0,1-30.74-25.34,143.24,143.24,0,0,0,23-1.08L3638.33,1283l26.88.07c-5.72-3-11.83-6.35-15.24-13.69a76.38,76.38,0,0,0,23.21,5.45c-20.46-10.95-35.14-36.9-48.78-61.74-6.56-11.93-13.58-23.13-16.75-37.71-4.27,19.61-8.77,39.36-16.2,56.83s-18.17,32.71-31.54,39.16l7.78-.22q-5.37,7-10.72,14.11a51.1,51.1,0,0,0,13.54-6,39.79,39.79,0,0,1-5.6,12.87c8.39,1.71,17.19-1.26,24.21-8.18-23.47,34.14-55.78,55-88.85,57.31l26.45,2.65a121.07,121.07,0,0,0-22.3,15l33.9-6.2q-4.65,6.79-9.31,13.57a43.1,43.1,0,0,0,25.89-3.38c-2.35,1.32-4.05,4.82-4.12,8.5,7.65,1.45,15.61,1.54,23.08-1l-27.77,14.76c-13.52,7.18-27.19,14.41-41.48,16.79-9.91,1.64-20.09,1-29.73,4.38a59.26,59.26,0,0,1-5.41-3.94,24.26,24.26,0,0,0,19.47-1.88c-12.07-1.28-24.2-2.71-35.85-6.3s-22.87-9.46-31.35-18.56a204.83,204.83,0,0,0,23.5-.8l-17.66-8.11,27.42.06c-5.83-2.17-12.07-4.65-15.54-10a104.19,104.19,0,0,0,23.68,4c-20.88-8-35.85-27-49.77-45.24-6.69-8.75-13.85-17-17.09-27.64-4.35,14.37-8.94,28.84-16.53,41.65s-18.53,24-32.17,28.69l7.93-.16-10.93,10.34a63.8,63.8,0,0,0,13.82-4.37,26.06,26.06,0,0,1-5.72,9.44,34.5,34.5,0,0,0,24.7-6c-24,25-56.9,40.28-90.65,42l27,1.94a135.09,135.09,0,0,0-22.75,11l34.58-4.54-9.49,10a59.76,59.76,0,0,0,26.41-2.49,7,7,0,0,0-4.2,6.24,64.21,64.21,0,0,0,23.54-.71l-28.33,10.81c-6.79,2.59-13.62,5.19-20.55,7.37.35-.34.7-.69,1-1.07-19.7,1.24-39.63-7.3-55.76-23.89-2.31-2.37-4.71-5.29-5.18-9.36a34.85,34.85,0,0,0,27.3,1.53,69.94,69.94,0,0,1-10.81-8,49.33,49.33,0,0,0,19.13.76,44,44,0,0,1-7.16-6.63,13.15,13.15,0,0,0,14-1.88c-8.67-1.28-17.38-2.71-25.74-6.3a50.89,50.89,0,0,1-22.53-18.56,106.12,106.12,0,0,0,16.89-.8l-12.69-8.11,19.7.06c-4.2-2.17-8.67-4.65-11.17-10a56,56,0,0,0,17,4c-15-8-25.75-27-35.75-45.24-4.8-8.75-10-17-12.27-27.64-3.13,14.37-6.43,28.84-11.87,41.65s-13.32,24-23.11,28.69l5.69-.16q-3.91,5.17-7.85,10.34a37.38,37.38,0,0,0,9.93-4.37,29.33,29.33,0,0,1-4.11,9.44c6.15,1.25,12.59-.93,17.74-6-17.2,25-40.87,40.28-65.11,42l19.38,1.94a83.63,83.63,0,0,0-7.77,4.59,94.05,94.05,0,0,1-23.45-4.61,78.08,78.08,0,0,1-38.41-28.69,72,72,0,0,0,32.84,8.9l-12.33-13.64a84.82,84.82,0,0,0,35.47,9.1,73.21,73.21,0,0,1-15.87-19.69,100.84,100.84,0,0,0,39.77,4.49l-12.15-8c10.48.56,22.15.52,29.83-9.91-35.75,3.72-72.25-10.08-102.29-38.68a42.9,42.9,0,0,1-10.66-15.87c10,7.72,21.83,10.39,33,7.45l-12.86-18.34a218.49,218.49,0,0,0,35.23,18.06,133.85,133.85,0,0,0-13.45-19.91c10.77,2.33,22.9,4.18,31.47-5.63-26.89,1.7-54.08-10-76.09-32.59-3.15-3.24-6.43-7.23-7.07-12.78a47.51,47.51,0,0,0,37.26,2.09A94.43,94.43,0,0,1,3097.3,1227a67.34,67.34,0,0,0,26.1,1,59.4,59.4,0,0,1-9.76-9c6.24,2.92,13.3,2,19.08-2.56-11.83-1.75-23.73-3.71-35.14-8.6a69.31,69.31,0,0,1-30.73-25.33,145.63,145.63,0,0,0,23-1.08l-17.31-11.07,26.87.07c-5.72-3-11.83-6.34-15.23-13.68a76.52,76.52,0,0,0,23.21,5.44c-20.47-11-35.14-36.89-48.78-61.73-6.56-11.93-13.58-23.13-16.76-37.72-4.26,19.61-8.76,39.36-16.19,56.83s-18.17,32.72-31.54,39.16l7.77-.22-10.71,14.11a51.1,51.1,0,0,0,13.54-6,39.4,39.4,0,0,1-5.61,12.87c8.39,1.72,17.19-1.25,24.22-8.18-23.48,34.14-55.78,55-88.86,57.31l26.46,2.65a121.24,121.24,0,0,0-22.3,15l33.9-6.19q-4.67,6.78-9.31,13.57a43,43,0,0,0,25.89-3.39c-2.35,1.32-4.05,4.83-4.12,8.51,7.65,1.45,15.61,1.54,23.07-1l-27.76,14.75c-13.52,7.18-27.19,14.42-41.48,16.79-10.86,1.8-22.05.79-32.49,5.48a120.78,120.78,0,0,0,37.54,9.32,51.59,51.59,0,0,0-20.71,9.84,282.49,282.49,0,0,0,36.79,1.09,33.08,33.08,0,0,1-8.56,13.63c10.15-.46,20.22-4.23,29.28-11l-.81,11c9.09.25,18.93-2.16,26.2-9.52-27.64,37.84-64.82,60.62-102.69,62.52-3,.14-5.94.17-8.91.24-3.54-1.62-6.79-3.71-8.93-6.92a102.29,102.29,0,0,0,22.66,3.68c-20-7.41-34.31-25-47.63-41.81-6.4-8.08-13.26-15.67-16.35-25.55-4.17,13.29-8.56,26.66-15.82,38.5s-17.73,22.16-30.79,26.52l7.59-.15-10.46,9.56a62.61,62.61,0,0,0,13.23-4,23.8,23.8,0,0,1-5.48,8.72,33.88,33.88,0,0,0,23.64-5.54,132.56,132.56,0,0,1-86.74,38.82l25.82,1.79a131.85,131.85,0,0,0-21.77,10.18l33.09-4.19-9.08,9.19a59,59,0,0,0,25.28-2.3,6.53,6.53,0,0,0-4,5.77,63.59,63.59,0,0,0,22.53-.66l-27.11,10c-13.2,4.87-26.54,9.77-40.49,11.37-9,1-18.33.71-27.19,2.56a166.37,166.37,0,0,1-67.09-30.18,138.72,138.72,0,0,0,50.89,8.45l-18.2-13.33c15.18,6.11,31.23,12,47.44,10a111.72,111.72,0,0,1-18.91-12.53,50.81,50.81,0,0,0,32-5.42c-19.45.74-39.09.13-58-4.36s-37.27-13-51.38-26.62a130.71,130.71,0,0,0,43.93,8.26l-16.5-12.67a155.07,155.07,0,0,0,47.46,8.45,80,80,0,0,1-21.23-18.28,191.37,191.37,0,0,0,53.2,4.17l-16.25-7.41c14,.53,29.63.48,39.91-9.19a221.39,221.39,0,0,1-136.85-35.9c-5.52-3.65-11.19-8.84-14.27-14.74a68.36,68.36,0,0,0,44.13,6.92l-17.2-17a354.4,354.4,0,0,0,47.12,16.77,132.55,132.55,0,0,0-18-18.48c14.4,2.16,30.63,3.88,42.1-5.22A164.41,164.41,0,0,1,2609,1268.87c-4.21-3-8.59-6.71-9.45-11.86a89.56,89.56,0,0,0,49.84,1.94,134.69,134.69,0,0,1-19.74-10.14,128.88,128.88,0,0,0,34.92,1,76.5,76.5,0,0,1-13.07-8.4A32.8,32.8,0,0,0,2677,1239c-15.83-1.62-31.73-3.44-47-8s-30-12-41.12-23.51a278.16,278.16,0,0,0,30.82-1l-23.16-10.27,36,.07c-7.65-2.75-15.82-5.89-20.39-12.71a141,141,0,0,0,31.06,5.06c-27.38-10.17-47-34.25-65.26-57.3-8.78-11.08-18.17-21.47-22.42-35-5.71,18.2-11.72,36.53-21.67,52.75s-24.31,30.36-42.19,36.35l10.4-.21-14.34,13.1a86.4,86.4,0,0,0,18.12-5.53,32.45,32.45,0,0,1-7.5,12,46.42,46.42,0,0,0,32.4-7.6,181.69,181.69,0,0,1-118.88,53.2l35.39,2.46a177.53,177.53,0,0,0-19.76,8.49c-6.82-1.46-13.58-3.16-20.27-5.2-24.53-7.49-48.19-19.76-66.07-38.76a435.67,435.67,0,0,0,49.53-1.66l-37.21-16.93,57.77.11c-12.3-4.53-25.43-9.71-32.76-20.95a221.47,221.47,0,0,0,49.9,8.34c-44-16.76-75.53-56.46-104.86-94.47-14.09-18.26-29.19-35.4-36-57.71-9.17,30-18.84,60.22-34.82,87s-39.06,50.06-67.79,59.92l16.71-.34-23,21.6a135.92,135.92,0,0,0,29.12-9.12,53.87,53.87,0,0,1-12.06,19.7,73.16,73.16,0,0,0,52.06-12.52,291.52,291.52,0,0,1-115,72.94q-5-7.61-10.55-14.46c16.16,3.57,34.37,6.4,47.24-8.6-40.36,2.59-81.19-15.24-114.24-49.88-4.72-5-9.64-11.06-10.6-19.55,18,8.82,37.58,9.94,55.93,3.19a142.6,142.6,0,0,1-22.16-16.71,99.23,99.23,0,0,0,39.19,1.6,90.22,90.22,0,0,1-14.66-13.86c9.38,4.48,20,3,28.64-3.91-17.76-2.68-35.61-5.67-52.74-13.16a104.55,104.55,0,0,1-46.14-38.77,213,213,0,0,0,34.59-1.65l-26-16.94,40.35.12c-8.59-4.54-17.76-9.72-22.88-21a112.66,112.66,0,0,0,34.85,8.33c-30.72-16.75-52.75-56.46-73.23-94.46-9.84-18.26-20.39-35.4-25.15-57.72-6.4,30-13.16,60.23-24.32,87s-27.27,50-47.34,59.92l11.67-.34L1919.08,1084a75.66,75.66,0,0,0,20.34-9.12,65.56,65.56,0,0,1-4.91,13.62c-24.48-2.91-48.36-13.65-68.48-31.1-3.63-3.15-7.42-7-8.15-12.44a64.28,64.28,0,0,0,43,2,110.12,110.12,0,0,1-17.05-10.63,92.3,92.3,0,0,0,30.16,1,65.76,65.76,0,0,1-11.28-8.82,23.88,23.88,0,0,0,22-2.49c-13.67-1.7-27.41-3.61-40.59-8.38s-25.91-12.58-35.52-24.67a199,199,0,0,0,26.62-1.06l-20-10.78,31.06.08c-6.61-2.89-13.67-6.19-17.61-13.34a102.41,102.41,0,0,0,26.82,5.31c-23.64-10.67-40.6-35.94-56.37-60.14-7.57-11.62-15.69-22.53-19.36-36.74-4.92,19.11-10.12,38.34-18.71,55.36s-21,31.87-36.44,38.14l9-.21q-6.2,6.87-12.38,13.75a65.35,65.35,0,0,0,15.65-5.81,35.94,35.94,0,0,1-6.48,12.54c9.69,1.67,19.86-1.23,28-8a165.85,165.85,0,0,1-23.35,23.44c-39.69,4.12-81-9.94-109.77-37.63-2.57-2.47-4.84-7.21-1.75-9,3.25,5.88,6.86,12.1,12.91,15s15.07.4,16.23-6.21c4.67,2.18,11-1,12-6l4.43,4.35c4.54-8,14.88-10.38,24-10.78s19,.23,26.87-4.46A159.36,159.36,0,0,1,1647,889.66a234.1,234.1,0,0,0,40.23,4l-41.27-32.45,60.12,2.49L1662.89,841a142.4,142.4,0,0,1,32.95,0c-23.07-18.42-39.9-36.52-51.61-63.61q-2.43-5.64-4.87-11.27-7.44,18-14.89,36a11.51,11.51,0,0,0-4.92-13.76q-4.69,17.43-9.4,34.86a45.65,45.65,0,0,0-18.57-20.08,251.37,251.37,0,0,0,23.58,39.91,92.45,92.45,0,0,0-39.09-13.6l39.52,27.79a347.88,347.88,0,0,1-53-6.74l35.74,17.71a158.11,158.11,0,0,1-51.67-1.77,218.94,218.94,0,0,0,63.18,25.45c-11.85,6.89-26.49,6.3-40.13,4.88a446.44,446.44,0,0,1-46.68-7.38l.3,8.46,14.82,1.35a96.87,96.87,0,0,1-9.24,20.21l20.08-7.7-8.91,23a81.88,81.88,0,0,0,24-14.79q-3.07,12.64-6.14,25.31a133.35,133.35,0,0,1-84.48-49.92,196.07,196.07,0,0,0,33.58,3.32q-17.22-13.55-34.45-27.08l50.18,2.07-36-18.9a118.83,118.83,0,0,1,27.51,0c-19.26-15.37-33.3-30.48-43.08-53.09q-2-4.71-4.06-9.41-6.22,15-12.43,30a9.62,9.62,0,0,0-4.1-11.48q-3.93,14.55-7.85,29.1a38.12,38.12,0,0,0-15.5-16.76,208.76,208.76,0,0,0,19.68,33.3A77.21,77.21,0,0,0,1414.28,845l33,23.19a289,289,0,0,1-44.25-5.63l29.83,14.79a132.06,132.06,0,0,1-43.13-1.48,182.73,182.73,0,0,0,52.73,21.24c-9.89,5.75-22.1,5.26-33.49,4.07a371.79,371.79,0,0,1-39-6.16q.13,3.54.25,7.06l12.37,1.13a81.11,81.11,0,0,1-7.71,16.87l16.76-6.43-7.44,19.17a68.37,68.37,0,0,0,20-12.35q-2.85,11.81-5.72,23.62l19.37-8.32A29.84,29.84,0,0,0,1419.7,951a215.81,215.81,0,0,0,28.21-15q-1.08,10.43-2.17,20.84a5.1,5.1,0,0,0,2.16-.21c-29,25.09-70.63,34.88-107.7,25a28.91,28.91,0,0,0,1.18,12.86,78.69,78.69,0,0,1,15-3.93q-1.26,7.73-2.53,15.45l14.37-6.64q.26,7.26.5,14.52a28.22,28.22,0,0,0,15.9-7.78,44,44,0,0,0,2.16,18.5,18.37,18.37,0,0,0,11.07-8.42l2.79,9.55a247.16,247.16,0,0,1-68-3.4c-5.48-7.23-10.5-14.66-13.18-23.57-1.93,6.41-3.91,12.84-6.1,19.17a257.81,257.81,0,0,1-92.17-46.25,211.29,211.29,0,0,0,80.33,13.87l-28.73-21.89c24,10,49.3,19.76,74.88,16.44a176.46,176.46,0,0,1-29.85-20.57,77.51,77.51,0,0,0,50.58-8.91c-30.7,1.23-61.71.22-91.62-7.14s-58.83-21.41-81.1-43.72a199.63,199.63,0,0,0,69.35,13.57l-26-20.8a236.28,236.28,0,0,0,74.91,13.87,128.12,128.12,0,0,1-33.51-30,291.15,291.15,0,0,0,84,6.84l-25.65-12.16c22.12.86,46.78.79,63-15.1-75.51,5.68-152.6-15.36-216-58.94-8.7-6-17.66-14.5-22.52-24.19a104.19,104.19,0,0,0,69.66,11.35l-27.15-28a544.63,544.63,0,0,0,74.39,27.53,214.51,214.51,0,0,0-28.4-30.35c22.74,3.56,48.36,6.37,66.46-8.57-56.78,2.58-114.22-15.17-160.7-49.67-6.65-4.94-13.57-11-14.92-19.47a136.17,136.17,0,0,0,78.68,3.18,210.12,210.12,0,0,1-31.17-16.64,196.27,196.27,0,0,0,55.13,1.59,119.94,119.94,0,0,1-20.63-13.8,50,50,0,0,0,40.3-3.9c-25-2.66-50.1-5.65-74.2-13.11s-47.34-19.67-64.91-38.6a422.76,422.76,0,0,0,48.66-1.65L1137.85,576l56.76.11c-12.08-4.52-25-9.68-32.18-20.86a214,214,0,0,0,49,8.29c-43.22-16.68-74.2-56.22-103-94.07-13.84-18.19-28.68-35.25-35.38-57.48-9,29.89-18.51,60-34.21,86.61s-38.37,49.85-66.6,59.67l16.42-.33L966,579.4a132.18,132.18,0,0,0,28.6-9.08,54,54,0,0,1-8.54,15.77c-69,5.75-139-22-196.87-78.17-8.13-7.89-16.49-19.12-21-31.9,19.76,15.52,43,20.87,65,15l-25.35-36.86a428.58,428.58,0,0,0,69.45,36.31,267.39,267.39,0,0,0-26.5-40c21.22,4.69,45.14,8.4,62-11.31-53,3.41-106.64-20-150-65.51-6.21-6.51-12.66-14.52-13.92-25.68,23.58,11.59,49.35,13.06,73.45,4.2a187.59,187.59,0,0,1-29.1-21.95,130.42,130.42,0,0,0,51.47,2.1,119.38,119.38,0,0,1-19.26-18.2c12.32,5.88,26.23,4,37.62-5.14-23.32-3.52-46.77-7.45-69.27-17.29a137.31,137.31,0,0,1-60.6-50.91,279.68,279.68,0,0,0,45.43-2.18L744.52,216.3l53,.15c-11.28-5.95-23.32-12.76-30-27.51a148.39,148.39,0,0,0,45.77,10.94c-40.35-22-69.28-74.15-96.18-124.07-12.93-24-26.78-46.5-33-75.81-8.41,39.42-17.28,79.1-31.94,114.23S616.26,180,589.9,192.93l15.33-.45L584.1,220.85a99.69,99.69,0,0,0,26.7-12,80.58,80.58,0,0,1-11,25.87c16.54,3.44,33.89-2.53,47.74-16.44-46.28,68.61-110,110.49-175.19,115.18l52.15,5.33a239.09,239.09,0,0,0-44,30.2l66.83-12.45q-9.17,13.63-18.34,27.28A83.4,83.4,0,0,0,580,377c-4.63,2.66-8,9.7-8.12,17.1,15.08,2.91,30.77,3.1,45.49-1.95l-54.75,29.65c-26.65,14.44-53.6,29-81.78,33.75-21.4,3.62-43.46,1.59-64.06,11a234.27,234.27,0,0,0,74,18.73c-14.23,3.08-28.1,9.8-40.83,19.78a544.13,544.13,0,0,0,72.54,2.18c-3.82,11.2-9.73,20.79-16.89,27.41,20-.92,39.88-8.5,57.73-22q-.78,11-1.58,22c17.92.5,37.33-4.33,51.65-19.13-48.92,68.27-113,112.15-179.6,123.17L402.05,622a118.2,118.2,0,0,1,27.5,0c-19.25-15.38-33.3-30.48-43.07-53.1q-2-4.69-4.07-9.4l-12.43,30a9.59,9.59,0,0,0-4.1-11.48Q362,592.63,358,607.18a38.05,38.05,0,0,0-15.49-16.76,209.15,209.15,0,0,0,19.67,33.3,77.17,77.17,0,0,0-32.62-11.34l33,23.19a289.82,289.82,0,0,1-40.16-4.83,67,67,0,0,1,4.76-12.07c-75.1.5-149.79-32.93-199.45-89.27l27.16,2.6q-2.48-8.1-5-16.2a383.71,383.71,0,0,0,45.4,16.56,100.74,100.74,0,0,1-7.59-25.6,64.34,64.34,0,0,0,29.79,8.46l-13.71-27.14,30.55,14.71a26.79,26.79,0,0,1,14.7-22.13c-49.32,7.09-101.52-9.72-137.42-44.27-3.07-3-5.79-8.63-2.09-10.75,3.89,7,8.21,14.47,15.44,18s18,.49,19.41-7.42c5.59,2.6,13.12-1.17,14.4-7.2l5.3,5.2c5.44-9.54,17.8-12.41,28.77-12.89s22.69.28,32.14-5.33C172.33,412,121.83,384.72,89.7,342.79a279.66,279.66,0,0,0,48.12,4.75l-49.36-38.8,71.91,3-51.63-27.1a170.87,170.87,0,0,1,39.41,0c-27.59-22-47.72-43.67-61.73-76.08L80.6,195.08l-17.82,43a13.77,13.77,0,0,0-5.88-16.46q-5.61,20.85-11.24,41.7a54.71,54.71,0,0,0-22.21-24A300,300,0,0,0,51.64,287,110.53,110.53,0,0,0,4.89,270.78L52.16,304A413.44,413.44,0,0,1,0,298.08v3.44l31.5,15.61A188.42,188.42,0,0,1,0,318.59v12a261,261,0,0,0,45.26,14.9C31.88,353.24,15.52,353,0,351.56V405.2l10.11-4.34a42.6,42.6,0,0,0,2.54,21.86,310.42,310.42,0,0,0,40.43-21.5Q51.52,416.15,50,431.08a7.24,7.24,0,0,0,3.1-.3A168.1,168.1,0,0,1,0,461.66v78.25A60.82,60.82,0,0,0,15,522.3q3.93,11.94,7.84,23.88a282.8,282.8,0,0,0,26-26.12C34.63,541.47,19.6,563.61,0,579.66V7649.9H6000ZM322.1,631.81l26,12.92a132.48,132.48,0,0,1-28.22.62A66.71,66.71,0,0,1,322.1,631.81ZM315.75,645q-5.38-.63-10.72-1.7a182.31,182.31,0,0,0,52.73,21.23c-9.89,5.76-22.11,5.27-33.49,4.08q-8.44-.88-16.84-2.15-5.08-15.36-10.19-30.72ZM229.28,998.73c-3.3-2-6.58-4.07-9.82-6.21a51.58,51.58,0,0,0,13.44-20.7A114.27,114.27,0,0,1,229.28,998.73Zm16.09,121.57c-1-.9-2-1.82-3-2.74,1.12-1,2.23-2,3.3-3.06A49,49,0,0,0,245.37,1120.3Zm10.07-106.61q-7.31-3.93-14.5-8.06a181.26,181.26,0,0,0,16.59-16.9A144,144,0,0,1,255.44,1013.69ZM235.56,871.83a84.46,84.46,0,0,0,10.89-7.91,78.71,78.71,0,0,0-4.92,11.4C239.53,874.18,237.54,873,235.56,871.83ZM253,881.6A34.7,34.7,0,0,0,269.23,874l-5.82,13Q258.16,884.35,253,881.6Zm33,268.91A286.53,286.53,0,0,1,259,1131.72a133.25,133.25,0,0,0,33.2-16.36q1.67,8,3.35,16a41.18,41.18,0,0,0,21.62-11.52A298.77,298.77,0,0,1,285.94,1150.51Zm4.85-119.39q-14.7-6.61-29-14.07l19.36-11.13a48.83,48.83,0,0,0,1.43,20.33,140,140,0,0,0,55.85-35.79C326.29,1007.84,309.66,1021.45,290.79,1031.12ZM270.11,890.25a43.83,43.83,0,0,0,5-5.55c0,2.63-.05,5.26-.08,7.89Zm17.13,8a48,48,0,0,0,10.7-16.39q0,10.57,0,21.16Q292.56,900.65,287.24,898.23Zm12.52,5.6A66,66,0,0,0,322.58,890q1.08,6.88,2.17,13.79a34.25,34.25,0,0,0,9.42-9.09,94.35,94.35,0,0,1-11.87,18.84C314.75,910.4,307.24,907.13,299.76,903.83ZM311,837.68a88.2,88.2,0,0,1-19.47,6.42,128.92,128.92,0,0,1-87.29-12.2,61.38,61.38,0,0,0,6.55,23.29C191.19,840,175.46,819.07,164,796.62a15.78,15.78,0,0,0,6.73.51A17.21,17.21,0,0,0,185,782a191.85,191.85,0,0,0,22.65,24.43c1.79,1.62,4,3.31,6.34,2.85,2.18-.43,3.57-2.52,4.71-4.43L232.31,782a278.42,278.42,0,0,0,22,26,114.2,114.2,0,0,1,14.23-26.19,105,105,0,0,0,22.52,7.88q1-5.61,2-11.21a28.28,28.28,0,0,0,3.09-1.84q1.8,1.93,3.66,3.79A43.93,43.93,0,0,0,302.1,792a18.27,18.27,0,0,0,6.64-3.35q3.56,3,7.28,5.89c0-.25.1-.49.14-.74l3.16,10.87a42.52,42.52,0,0,0,17.29-16.78l5.47,16.66a197.65,197.65,0,0,0,18.16-18.22C347,806.35,332.66,827.28,311,837.68ZM363.21,724c-23.53,20.38-55.44,30.67-86.46,28.51-22.06-6.82-43.44-15.58-63.35-27.22-34.27-20-64.12-49.15-80.22-85.41,4.13,7.24,17.7,7,20.72-1.19,6.42,3.93,11.29,9.89,16.79,15s12.29,9.69,19.82,9.63,15.27-6.59,14.1-14l29.72,28.49a68.46,68.46,0,0,0,10.58-18.46l26.22,12c2.21,1,4.8,2,7,.94,5.59-2.78.27-13.69,5.72-16.75a74.16,74.16,0,0,0,15,9.48c-4.52-.79-9-1.66-13.53-2.62.08,2.35.16,4.71.25,7.06l12.37,1.13a81.91,81.91,0,0,1-7.72,16.87L307,681l-7.44,19.16a68.26,68.26,0,0,0,20-12.34l-5.73,23.62,19.38-8.32A29.73,29.73,0,0,0,335,718.4a217.72,217.72,0,0,0,28.22-15q-1.1,10.43-2.18,20.84A5.15,5.15,0,0,0,363.21,724Zm97.91-27.18-6.88,11.25a136.11,136.11,0,0,1-16.35-6.34A91.74,91.74,0,0,0,461.12,696.85Zm-38.76-56.56q-5.69.62-11.39.91c-6.46.33-13,.37-19.43.53l-3.64-2.86Zm-32,24.34a96.56,96.56,0,0,0,21.15,6.45l-10,5.79A126.94,126.94,0,0,1,390.35,664.63Zm12.27,55.81c2.71,4.9,5.72,10.1,10.77,12.53s12.58.34,13.54-5.18a7.51,7.51,0,0,0,10.05-5l3.7,3.63a15.33,15.33,0,0,1,6.93-6.15c22.95,8.47,48.4.34,67-21.47q-1.49,9.65-3,19.27c31.38,4,60.84-20.61,88-44.35-8.25,10.85-14.91,19.49-24.19,28.3-11.71,11.13-24.77,18.72-38,25.26a308.28,308.28,0,0,1-85.27,28.15,115.33,115.33,0,0,1-48.15-27.47C401.93,725.88,400,721.92,402.62,720.44ZM526.79,827.12q-4.92,12.12-9.82,24.25c-4.77-1-9.51-2.16-14.19-3.51A116.89,116.89,0,0,0,526.79,827.12ZM490,819.26c-5.45,5.55-10.73,11.48-15.84,17.72q-6-2.87-11.8-6.15A149.93,149.93,0,0,0,490,819.26Zm-54.73-8.5-.88.68-.48-.4Zm23.33,284.16-1.94.16c-.4-.6-.79-1.2-1.17-1.82,1.31.54,2.62,1.06,3.94,1.57Zm20.67-2.86-.95-2.64c1.05.76,2.12,1.49,3.19,2.22Zm5.87-63.62c16.64-10.38,32.76-23.7,48.35-36.84a295.52,295.52,0,0,1-28.55,48.19C498.18,1036.29,491.55,1032.54,485.14,1028.44ZM553.68,1062c-6.15-2.57-12.27-5.22-18.35-7.9q-4.83-2.13-9.64-4.32c24.7-4.71,48.92-15.06,71.51-30.69A179,179,0,0,1,553.68,1062Zm-74.63-145.6c-5.9,1.55-11.82,2.9-17.75,4.09-18-13.18-33.18-30.26-42.19-50.54,2.88,5,12.34,4.9,14.45-.83,4.49,2.74,7.88,6.89,11.72,10.48s8.58,6.76,13.83,6.71,10.65-4.59,9.84-9.78l20.73,19.87a47.53,47.53,0,0,0,7.39-12.87l18.29,8.35c1.55.71,3.36,1.41,4.88.66,3.9-1.94.19-9.55,4-11.69a51.39,51.39,0,0,0,17,9.18q-3.74-11.24-7.46-22.47l.65-.14,14.93,7.46a46.33,46.33,0,0,1,2-12c22.17-7.1,43.68-18.68,63.74-34.44C577,876.72,528.31,903.53,479.05,916.41ZM822.37,738.26a152.29,152.29,0,0,0,48.5,16.63c-5.1,1-10.23,1.87-15.41,2.49-4.23.51-8.48.87-12.74,1.16A259.39,259.39,0,0,1,822.37,738.26Zm48.18-10.57c11.45,6.77,23.24,13.43,35.22,17.74q-7.24,2.4-14.56,4.49Zm-14.2,312.19a22.68,22.68,0,0,1-2.41-2.81c2.07-.65,4.12-1.34,6.17-2.06l1.85.56C860.07,1037,858.2,1038.41,856.35,1039.88Zm8.85-196a98.65,98.65,0,0,0,63.84,4L907.26,829c13.35,8.64,27.92,13,42.47,13a335.21,335.21,0,0,1-51.42,28.53A158.43,158.43,0,0,1,865.2,843.86Zm66.58-37.46q6.15-2.58,12.05-5.73l-.81,8Q937.4,807.71,931.78,806.4Zm10.54,9.18,0,.29-.53-.38ZM990,810q-11.58,10.75-24.08,20.31a159.45,159.45,0,0,1-21.48-12.94c3,0,6.08-.08,9.14-.29C966.09,818.38,978.74,817.83,990,810Zm-5.48.13a64.22,64.22,0,0,0,13-7.29c-2.27,2.25-4.58,4.44-6.91,6.62Q987.51,809.86,984.47,810.14ZM891.58,941.79q-1.59,7.31-3.17,14.6c31.15,2.78,60.53-13,87.82-29.66l2.32-.14a175.32,175.32,0,0,1-21.78,17.64c-12.54,8.43-26.53,14.19-40.65,19.15q-6,2.11-12.1,4a150.85,150.85,0,0,1-27.7-15.67A80.89,80.89,0,0,0,891.58,941.79Zm12.33,97.88.43,0q-6.45,11.26-12.89,22.55-6.48-3.42-12.84-7.22A122.48,122.48,0,0,0,903.91,1039.67Zm-8.51,145.66a115.8,115.8,0,0,1-10.25-6.11c9.05-5,17.94-10.2,26.68-15.41A227.18,227.18,0,0,1,895.4,1185.33Zm66,15.13h-.79a165.3,165.3,0,0,1-18.14-1,250.9,250.9,0,0,0,37.63-14.78A168.13,168.13,0,0,1,961.36,1200.46Zm-24.28-119.79a213.71,213.71,0,0,1-28.84-10.36,257.21,257.21,0,0,0,91-30.18A253.84,253.84,0,0,1,937.08,1080.67Zm6-348.87c-5.3,2-10.6,4.06-15.93,6.05a187.38,187.38,0,0,1-14.53-15.61c15.57,3.71,31.89-.15,45.94-10.78,14.42,1.51,29.2,1.24,43.16-2.15Zm-96.77-67,55.87,4a278.2,278.2,0,0,0-47.09,22.91l71.58-9.44L907,703a123.15,123.15,0,0,0,54.68-5.17,14.67,14.67,0,0,0-8.7,13l.11,0c-26.45,1-53.07-.79-78.81-9.75-27.93-9.71-54.92-28.22-75.71-57.65,20.69,11.37,42.69,17.45,64.74,17.89L839,633.87c22.5,11.41,46.18,17.61,69.94,18.3-11.88-10.33-22.52-23.79-31.28-39.58a195.26,195.26,0,0,0,78.4,9l-23.95-16c18.95,1,39.9,1,54.92-15.16a71.31,71.31,0,0,0,46.92-12.94C984.36,629.49,916.13,661.25,846.28,664.8Zm412.21,456.77c-1.22-.82-2.42-1.65-3.62-2.5,2.17.32,4.33.59,6.5.88Zm28.81-56.93a166.58,166.58,0,0,1-20.19-12.86,145.63,145.63,0,0,0,26.87,5A85,85,0,0,1,1287.3,1064.64Zm95.45,103.18-1-.58.61-.15c1-.25,1.94-.54,2.9-.85C1384.4,1166.78,1383.58,1167.31,1382.75,1167.82Zm22-18.91a180.54,180.54,0,0,1-42.49,4.75,13.17,13.17,0,0,1-3.78-7,76.3,76.3,0,0,0,44.1,1.79,118.19,118.19,0,0,1-17.47-9.33,110.13,110.13,0,0,0,26.21,1.3A95.56,95.56,0,0,1,1404.74,1148.91Zm-25.11-28.14a46.84,46.84,0,0,0,2.91-6.06h.09c0,2.37,0,4.75,0,7.13C1381.62,1121.5,1380.62,1121.14,1379.63,1120.77Zm27.84,6.89c-1.71-.27-3.41-.55-5.11-.86,1.7-1.3,3.35-2.66,4.92-4.12.24,1.56.49,3.11.73,4.67l-1.36-.07Zm1.49,5.72c.14.87.28,1.74.41,2.61-1.69-1.16-3.34-2.39-4.93-3.71A27.09,27.09,0,0,0,1409,1133.38Zm.79,2.88a31.16,31.16,0,0,0,3.38-2.55c.83,0,1.66,0,2.49-.1-.89,1.55-1.83,3.09-2.81,4.6C1411.77,1137.59,1410.76,1136.94,1409.75,1136.26Zm7.56,94.46-1.83-.2c2.64-2.38,5.21-4.84,7.66-7.42C1421.3,1225.73,1419.34,1228.26,1417.31,1230.72Zm1-102.58c.19-.26.38-.5.56-.76-.12.26-.26.52-.38.77Zm-22.61-57.82a81.54,81.54,0,0,1-14.24,5.16c-10-6.76-18.71-15.61-26.83-25.16a108.1,108.1,0,0,0,34-4.52,195.18,195.18,0,0,1-39.5-15.52c17.4,1.91,35.85,3.63,51.64-4.17l3.27,11.2a42.37,42.37,0,0,0,17.28-16.78q2.75,8.34,5.48,16.66a197.65,197.65,0,0,0,18.16-18.22C1431.66,1039,1417.35,1059.93,1395.7,1070.32Zm108.1,32.28c2.88,5.05,12.35,4.9,14.46-.83a40.88,40.88,0,0,1,7.46,6.27,151.27,151.27,0,0,1-18.13,2.19C1506.24,1107.74,1505,1105.2,1503.8,1102.6Zm26.41,118.18q-2.61-4.33-4.9-8.83a11.1,11.1,0,0,0,4.69.35,12,12,0,0,0,9.94-10.56q3.39,4.35,7.12,8.4A108.32,108.32,0,0,1,1530.21,1220.78Zm34.35-55.9c1.06-.88,2.1-1.8,3.11-2.74.25,1.59.5,3.19.76,4.78Q1566.48,1165.93,1564.56,1164.88Zm14.82,7.23-1-.41a42.23,42.23,0,0,0,3.14-3.93Q1580.53,1170,1579.38,1172.11Zm2.34-93.37a185.88,185.88,0,0,1-81.73-53.25l19,1.81q-1.61-5.25-3.2-10.48l.8-.37c1.49.64,3,1.28,4.5,1.9q.23,6.74.46,13.48a33.84,33.84,0,0,0,16.57-7.14l2.28.75a52.56,52.56,0,0,0,2.79,19.23,22,22,0,0,0,13.27-10.09q3.67,12.63,7.36,25.27a50.87,50.87,0,0,0,20.71-20.1q3.27,10,6.56,20a236.08,236.08,0,0,0,21.76-21.84C1603.39,1052.06,1593.55,1066.62,1581.72,1078.74Zm34.63-115.51a141.83,141.83,0,0,1-54.77,29.12c-26.95-1.75-53.32-13-72.81-31.76-2.14-2.07-4-6-1.46-7.51,2.72,4.91,5.73,10.1,10.77,12.54s12.59.33,13.55-5.18a7.52,7.52,0,0,0,10-5l3.7,3.62c3.79-6.66,12.42-8.66,20.07-9s15.84.19,22.43-3.72c-1.73-.13-3.45-.31-5.17-.5l17.72-7.61a35.63,35.63,0,0,0,2.13,18.27,260.33,260.33,0,0,0,33.8-18l-2.61,25A6,6,0,0,0,1616.35,963.23Zm140.8,55q-4.29,2.6-8.71,4.88l-6.06-12Zm-22.79,11.2c-1.53.59-3.07,1.14-4.62,1.67-.3-1.45-.58-2.9-.81-4.36A53.72,53.72,0,0,0,1734.36,1029.45Zm-30.33,7.7q-2.82.36-5.66.59c-.35-1.14-.7-2.28-1-3.42C1699.55,1035.29,1701.79,1036.23,1704,1037.15Zm-20.7,100.93c3.45,6.05,14.79,5.87,17.32-1,5.37,3.28,9.44,8.26,14,12.55s10.27,8.1,16.57,8,12.76-5.51,11.79-11.73l7.17,6.88a172.83,172.83,0,0,1-41.35,23.59A141.76,141.76,0,0,1,1683.33,1138.08Zm34.75,146.55a67.73,67.73,0,0,0,9.62-7.45l-6.15,12.56C1720.36,1288.06,1719.2,1286.35,1718.08,1284.63Zm18.85,23.44a139.76,139.76,0,0,1-9.55-10.62,127.08,127.08,0,0,0,52.06-19.61A141.28,141.28,0,0,1,1736.93,1308.07Zm19.13-95.4c4.89-3.08,9.67-6.48,14.33-9.85a134.71,134.71,0,0,1-11.38,11.41C1758,1213.71,1757,1213.21,1756.06,1212.67Zm-7.35-131.92c-6,2.69-12,5.38-18.09,7.81a217.93,217.93,0,0,1-51.86-42.88l22.71,2.18-3-9.69,10.2.86q5.76,2.27,11.6,4.31a145,145,0,0,0-19.73,11.82l39.17-6L1729,1062.34a58.19,58.19,0,0,0,29.92-3.3c-2.72,1.29-4.68,4.7-4.76,8.29,8.84,1.41,18,1.5,26.66-.95ZM1889,1190.41c-.68-.74-1.36-1.49-2-2.27.91.42,1.83.81,2.75,1.2Zm14.63,46.12c-.9-.8-1.8-1.6-2.69-2.42,1.33.6,2.68,1.15,4,1.69Zm8-28.52c-1.19-.65-2.37-1.32-3.53-2a67.23,67.23,0,0,0,7.89-3.11A11.61,11.61,0,0,0,1911.62,1208ZM1924,1437.73c-.54-.52-1.07-1-1.6-1.59l3-2.55,1.59.36Q1925.43,1435.89,1924,1437.73Zm-4.62-109.43c1.89.32,3.79.61,5.68.9-.61.71-1.24,1.4-1.86,2.11Q1921.21,1329.86,1919.33,1328.3Zm18.85-110.49q-2-.45-4-1a56,56,0,0,0,10.28-2.43Zm-28-76.46a181.26,181.26,0,0,1-28.67-18.87c-4.76-3.83-9.66-9.27-12.32-15.46a50,50,0,0,0,38.11,7.25l-14.85-17.86a273,273,0,0,0,40.7,17.59,131.22,131.22,0,0,0-15.54-19.4c9.16,1.68,19.17,3.09,27.77-.09,7.83-1.64,15.42-5.89,22-12.48C1950.8,1106.57,1931.32,1126.61,1910.17,1141.35Zm207.56,136.53q-7.21,2-14.52,3.69-6.89-10-13.75-20Q2103.38,1270.53,2117.73,1277.88Zm-58.48.37a64.83,64.83,0,0,0,13.85,8.36q-4.76.54-9.54.92A57.21,57.21,0,0,1,2059.25,1278.25Zm16,24.29a69.61,69.61,0,0,1-11.14-14l18.21,1.3a52.67,52.67,0,0,0,18.48,1.32l12.72.91a284.16,284.16,0,0,0-33.58,15C2078.38,1305.52,2076.81,1304.05,2075.26,1302.54Zm19.4,118q8.39,0,16.77-.25a52.22,52.22,0,0,1-6.29,9.86A118.83,118.83,0,0,1,2094.66,1420.54Zm20.06,71.69a196.27,196.27,0,0,1-14.22-14.32,118.24,118.24,0,0,0,23.78,9.74Q2119.53,1490,2114.72,1492.23Zm29.18-15.13-6.72-7.24c3.18,1.88,6.39,3.75,9.63,5.52C2145.84,1476,2144.88,1476.54,2143.9,1477.1Zm25.23,91.44a132.8,132.8,0,0,1-14,8q-3.3-2.14-6.53-4.54c5.94-2.4,11.79-5.17,17.56-8.16a74.47,74.47,0,0,0,11.75-1.63C2175.15,1564.38,2172.28,1566.45,2169.13,1568.54Zm11.31-8.31-2.94-2.54c1.66-1,3.31-1.9,4.95-2.87,1.14.32,2.29.59,3.44.84C2184.09,1557.22,2182.28,1558.74,2180.44,1560.23Zm-5.32-103.59a139,139,0,0,1-35.11-7.05,116.05,116.05,0,0,1-23.35-11.19,145.73,145.73,0,0,0,39.3-14q-.86,8.37-1.73,16.76c19.54.38,40.7-3.3,56.31-14.57A338.37,338.37,0,0,1,2175.12,1456.64ZM2158.31,1354c-25.36-8.23-49.86-22.29-72.31-41.68l52.46-6.82-20,20.76a126.86,126.86,0,0,0,55.65-5.18,14.72,14.72,0,0,0-8.85,13c16.44,2.22,33.54,2.36,49.59-1.49Zm304.44-93-5.28,5.34c-5.64-.75-11.28-1.58-16.88-2.53ZM2402,1420.66c-.74-.51-1.48-1-2.22-1.58,1.49-.27,3-.57,4.47-.92Zm36.91,175.94-.59-.45,1,.35Zm56.59-28.64-.6-.13-.12,0,1.8-.82C2496.24,1567.31,2495.87,1567.64,2495.51,1568Zm-13.67-147.42c-8,5.13-16.81,8.64-25.75,11.66q-11.7,4-23.7,6.86-8.22-4.43-16.2-9.3a52.83,52.83,0,0,0,24.35-10.71l-2,8.9c21.29,1.82,41.28-9.52,59.72-20.49C2492.65,1412.47,2488.13,1416.47,2481.84,1420.54Zm-59.31-40.72c1.71.77,3.45,1.51,5.17,2.27-.74.24-1.48.49-2.23.72Zm1.88-59.35a85.46,85.46,0,0,0-27.7,9.13q24.57,1.62,49.22,1a32.1,32.1,0,0,1-11.46,12.66,92.21,92.21,0,0,0,39.17-10.17q-.54,5.09-1.07,10.17c12.16.23,25.32-2,35-8.84a211,211,0,0,1-37,28,260.92,260.92,0,0,1-97.18-44c-6.76-5-13.8-11-15.18-19.55a140.46,140.46,0,0,0,80.09,3.2,215.37,215.37,0,0,1-31.73-16.71,202.5,202.5,0,0,0,56.11,1.59,122.1,122.1,0,0,1-21-13.85,51.46,51.46,0,0,0,32.18-.06,81.14,81.14,0,0,0,11.05-2.66,8.92,8.92,0,0,0-5.51,7.9c10.23,1.34,20.87,1.43,30.87-.91l-37.16,13.7c-18.08,6.67-36.37,13.38-55.49,15.58-14.52,1.67-29.49.74-43.46,5.09A221.88,221.88,0,0,0,2424.41,1320.47Zm307.29,152.61a159.52,159.52,0,0,0,16.88,1.85,61,61,0,0,0-9.23,2.11q-4.56-1.87-9-4.09Zm-9.94,14.8-14.78-8.69a71.71,71.71,0,0,0,48.24,3.26c3,0,6.05,0,9.07-.12a23.33,23.33,0,0,1-8.36,9.23,67,67,0,0,0,28.58-7.42l-.78,7.42c8.87.17,18.48-1.46,25.57-6.45a155.7,155.7,0,0,1-54.92,33.62l-9.21-4.28a62.06,62.06,0,0,0,27.74-4.66l-2.61-1.59c-32,2.11-65.62-3.41-91.86-22.15A96.68,96.68,0,0,0,2721.76,1487.88Zm16,76.92q-3.54-3.65-7.09-7.27c7,.22,14,.43,20.76-1.25a31.75,31.75,0,0,0,7.54-2.92c15.52,1.3,30.08-7,43.51-14.95a91.33,91.33,0,0,1-12,9.54,83.11,83.11,0,0,1-18.79,8.51A206.71,206.71,0,0,1,2737.75,1564.8Zm28.64,25.31-4.8,8.08q-4.86.16-9.74,0A57.4,57.4,0,0,0,2766.39,1590.11Zm-40.64-64.2-6.94-6a108.08,108.08,0,0,0,18.67,3.8Q2731.66,1525,2725.75,1525.91Zm8.13,20.3-1.51,1.68c-1.82-.1-3.64-.24-5.46-.43A63.18,63.18,0,0,0,2733.88,1546.21Zm14.3,41.25a113.76,113.76,0,0,0-11.81,9.43,178.26,178.26,0,0,1-18.77-3.56A96.94,96.94,0,0,0,2748.18,1587.46Zm-63.41-58.7-.84.13a65.73,65.73,0,0,0,25.38,8.64l-9.86,3.89a119.32,119.32,0,0,1-28.76-14.39Q2677.71,1528,2684.77,1528.76Zm20.63,38.82-5.92.16-5.45-4.3C2697.76,1565,2701.56,1566.35,2705.4,1567.58Zm-33.16,6.13a47.51,47.51,0,0,0,13.79,2.35q3.6.38,7.22.53a46.73,46.73,0,0,1-10.59,4.91q-3.07-1.32-6.11-2.72c-3-1.35-6.07-3-7.55-5.87C2670.07,1573.19,2671.15,1573.46,2672.24,1573.71Zm10,62a72.63,72.63,0,0,1-12.56-10l2.35.53a64.84,64.84,0,0,0,20.23,6.37C2689,1633.7,2685.62,1634.72,2682.26,1635.69Zm9.06-50.66a109.46,109.46,0,0,0,29.76-.43l-12.16,6.4C2703,1589.26,2697.1,1587.26,2691.32,1585Zm36.27,37.33a73.24,73.24,0,0,0-11.65-5.49c8.18,1.75,16.73,3.46,25.07,3.63Q2734.34,1621.63,2727.59,1622.36Zm39.1,27.28c-1.63.13-3.26.26-4.89.37,2.67-1.47,5.31-3,7.92-4.46Q2768.25,1647.64,2766.69,1649.64Zm26,12.16-2.82-.06c1.09-.07,2.18-.16,3.27-.26Zm-32.28-45.62a70.13,70.13,0,0,1-13.53-7.69,53.62,53.62,0,0,0,31.79-6.33,122.47,122.47,0,0,0,31.48-11.59C2795.81,1602.89,2778.52,1611.05,2760.37,1616.18Zm117.84-231.9a62.31,62.31,0,0,0,5.94,4.4l-10-4.41Zm11.47,7.59a51,51,0,0,0,14,4.72l-15,8.53c12.66,7.33,26.87,8.85,40.14,4.29l-3.29,5.27a155.44,155.44,0,0,1-26.94-5c-11.14-3.31-21.89-8.74-30-17.15A202.87,202.87,0,0,0,2889.68,1391.87Zm-13.3,36.75a65.34,65.34,0,0,0,36.37,1.42,99,99,0,0,1-14.41-7.4,94.16,94.16,0,0,0,25.48.71,55.89,55.89,0,0,1-9.53-6.14,23.39,23.39,0,0,0,9,1.06l-1.67,2.67c11.73,4.41,24.8.39,34.31-10.57l-1.5,9.59c15.92,2,30.86-10.26,44.64-22.07-4.19,5.4-7.56,9.7-12.27,14.08-5.94,5.54-12.56,9.32-19.24,12.57a158.37,158.37,0,0,1-43.34,14c-11.58,1.93-23.24,2.48-34.9,2.74-2.06-1.28-4.1-2.61-6.08-4C2880.2,1435.08,2877,1432.38,2876.38,1428.62Zm67.11,41.69q-2.38,2.4-4.69,5c-.54-.65-1.08-1.31-1.64-2C2939.29,1472.41,2941.41,1471.42,2943.49,1470.31Zm-29.94-2.57-2.61,2-2.43-2.4c1-.12,2-.27,2.95-.43Zm7.49,98.15-.57-.36c1-.66,1.94-1.37,2.88-2.14h0C2922.6,1564.21,2921.81,1565,2921,1565.89Zm7.61,95.21a6.41,6.41,0,0,1-1.58-2q3.48.93,7,1.54C2932.29,1660.89,2930.47,1661,2928.65,1661.1Zm21.27-5.25-1.17-.93c.86-.12,1.72-.27,2.57-.44l.55.19C2951.23,1655.09,2950.58,1655.48,2949.92,1655.85Zm-1.82-52.1a79,79,0,0,1-14.14-8,70.52,70.52,0,0,0,31.55,1.35A97.57,97.57,0,0,1,2948.1,1603.75Zm8.68-40.57c1.56.32,3.12.56,4.69.73a143,143,0,0,1-10.08,15.71,123.76,123.76,0,0,1-12-4.24A156.48,156.48,0,0,0,2956.78,1563.18Zm-16.66-45.36.53.11-.35.1Zm25.43,79.26-10.76-6.33a51.86,51.86,0,0,0,15.06,4C2968.43,1595.59,2967,1596.36,2965.55,1597.08Zm-3.05-38.5,3.05-2.52c-.56,1.17-1.14,2.31-1.73,3.44Zm16,30.63c-2.24-.92-4.44-1.92-6.6-3,3.15.34,6.39.66,9.59.71C2980.47,1587.7,2979.48,1588.47,2978.47,1589.21Zm5.74-4.6a118.11,118.11,0,0,1-15.6-1.22,98.27,98.27,0,0,0,29.25-13.64A91.86,91.86,0,0,1,2984.21,1584.61Zm-18-76.58a161.87,161.87,0,0,1-69.88-25.48c-4-2.66-8.17-6.45-10.41-10.76a49.52,49.52,0,0,0,15.43,5.19l-1.78,1.35a69.75,69.75,0,0,0,33.9-3.58c1.52.46,3.05.92,4.58,1.35a146,146,0,0,0-12,15.57c12.89.14,25.78-6.09,36.07-17.44q-4.5,10.88-9,21.77c18.69-1.07,37.21-8.34,53.75-21.1A124.77,124.77,0,0,1,2966.22,1508Zm199.94-23.5-2-1.69a35.56,35.56,0,0,0,7.62-1.55,37.43,37.43,0,0,0,11.85-.36l-.15,2c6.66.19,13.87-1.58,19.2-7a126.9,126.9,0,0,1-28.91,28.89,78.23,78.23,0,0,1-40-22.31A50.88,50.88,0,0,0,3166.16,1484.53Zm-11-9.37a42,42,0,0,0,10.21,4.73,19.77,19.77,0,0,1-1.93,2.29Zm28.53.07.43-.31c0,.17,0,.34,0,.51Zm-17.7,67.54c-.27,1.68-.53,3.36-.79,5-1.2-.27-2.39-.58-3.58-.92A29.53,29.53,0,0,0,3166,1542.77Zm-30.56,41.65-.72-.46,1.8-.36Zm15.58,8.68c-1.47-.7-2.93-1.44-4.39-2.2a56.81,56.81,0,0,0,10.23-4.2Q3153.8,1589.72,3151,1593.1Zm15.51,6.17c-1.81-.57-3.61-1.18-5.4-1.85a43.16,43.16,0,0,0,9.4-7.85Zm6.89-50.15c8.51-2.29,16.59-9,24.19-15.49a81.63,81.63,0,0,1-9,10.32,47,47,0,0,1-7.17,5.43A65.23,65.23,0,0,1,3173.37,1549.12Zm16.7,54.31a79.58,79.58,0,0,1-10.06-1,76.66,76.66,0,0,0,23.28-12.42A92,92,0,0,1,3190.07,1603.43Zm-6.26-161.63c-9.91,5.26-19.93,10.56-30.4,12.3-3.12.52-6.27.72-9.42,1a119.13,119.13,0,0,1-31.93-25.06,75.7,75.7,0,0,0,38,9.1l-13.6-14.36c11.34,6.57,23.34,13,35.45,10.78a89.05,89.05,0,0,1-14.13-13.5,27.25,27.25,0,0,0,19.53-2.93q-3,4.42-6,8.84a31.58,31.58,0,0,0,19-2.49c-1.73,1-3,3.54-3,6.24a33.44,33.44,0,0,0,16.91-.71Zm112.9,11.47c-1.47.26-2.95.49-4.44.68-.45-.58-.9-1.17-1.36-1.73C3292.8,1452.63,3294.75,1453,3296.71,1453.27Zm-19.25,1.85-1.37.08-1.14-1.63C3275.78,1454.1,3276.62,1454.61,3277.46,1455.12Zm-17.26,6.44c7.35,5.65,16,7.61,24.17,5.45l-2.48-3.54q7.18,1.07,14.43,1.48a63.51,63.51,0,0,0-21.13,7.21q18.73,1.27,37.53.79a24.91,24.91,0,0,1-8.73,10,68.44,68.44,0,0,0,29.87-8c-.28,2.67-.55,5.35-.82,8,9.27.19,19.31-1.58,26.72-7a162,162,0,0,1-34,25.53c-20.48-2.17-40.58-11.93-57.78-28.31A31.65,31.65,0,0,1,3260.2,1461.56Zm65.83,85.68c9.26-3.1,18.14-8.41,26.59-13.61a97.53,97.53,0,0,1-12.51,10.32c-6.06,4-12.82,6.82-19.64,9.21-1.26.44-2.53.85-3.8,1.27-1-1-1.89-2-2.8-3.1,6,1.39,12.22-.14,17.55-4.29C3329.62,1547.14,3327.82,1547.21,3326,1547.24Zm-12.16,44.16c-.07.12-.14.24-.2.36l-.78-.65.19-.15C3313.34,1591.12,3313.61,1591.26,3313.87,1591.4Zm-14.68,7.1c.89-.34,1.78-.7,2.65-1.08a37,37,0,0,0,8,1l-3.31,5.75A59,59,0,0,1,3299.19,1598.5Zm11.34,61.31c-.51.58-1,1.17-1.53,1.74l-3.87-4.4.17-.09C3307,1658.06,3308.76,1659,3310.53,1659.81Zm-4.39-102.22-3.07.81-4.83-5.09C3300.83,1554.81,3303.47,1556.3,3306.14,1557.59Zm-5.26-46.24c.77.25,1.54.46,2.32.68l-1.57.58C3301.38,1512.19,3301.12,1511.78,3300.88,1511.35Zm4.39,33.88a37.73,37.73,0,0,0,3.34-2.46l-.66,3C3307.06,1545.63,3306.16,1545.44,3305.27,1545.23Zm-20,16.91c-1.67-1.58-3.3-3.23-4.89-5a60.13,60.13,0,0,0,9.75,4.11C3288.47,1561.58,3286.85,1561.87,3285.23,1562.14Zm10,106.74a9.26,9.26,0,0,1-4.14-4.64,44.25,44.25,0,0,0,12.57,2.84q-2.28,2.18-4.66,4.21Q3297.09,1670.12,3295.22,1668.88Zm21.74,11.21a98.43,98.43,0,0,1-17.13-8.29,120.94,120.94,0,0,0,51.53-12.24C3341.55,1669.13,3329.7,1675.72,3317,1680.09Zm8.22-68.16a57.5,57.5,0,0,1-16.64-6.56,124.24,124.24,0,0,0,52.06-15.31A125.15,125.15,0,0,1,3325.18,1611.93Zm114.65-150.37a50.56,50.56,0,0,0,33.65,5.45l-13.11-13.44a263.76,263.76,0,0,0,35.93,13.24,103,103,0,0,0-13.71-14.59c11,1.71,23.36,3.06,32.1-4.12a122.3,122.3,0,0,1-77.63-23.89c-3.21-2.37-6.55-5.29-7.21-9.36a66.1,66.1,0,0,0,38,1.53,102,102,0,0,1-15.06-8,95.52,95.52,0,0,0,23.94,1,119.79,119.79,0,0,0,32.92,7.46,51.92,51.92,0,0,0-20.71,9.84,280.85,280.85,0,0,0,36.79,1.09,33.09,33.09,0,0,1-8.56,13.64c10.15-.46,20.23-4.23,29.28-11q-.4,5.47-.8,11c9.09.25,18.93-2.15,26.19-9.52-23.23,31.81-53.2,53-84.66,60a165.48,165.48,0,0,1-36.48-18.75C3446.51,1470.31,3442.18,1466.21,3439.83,1461.56Zm43.42,62.94a46.52,46.52,0,0,0,7.62-1.3c.9.2,1.8.39,2.7.56l-6.16,9.87c11.72,4.42,24.79.39,34.31-10.56q-.76,4.8-1.51,9.58c15.92,2,30.86-10.25,44.64-22.06-4.18,5.4-7.56,9.7-12.26,14.08-5.94,5.54-12.57,9.31-19.25,12.57a164.39,164.39,0,0,1-22.85,9.09,122.61,122.61,0,0,1-15.77-2.72c-14.45-3.55-28.42-10.3-39.18-21a96.85,96.85,0,0,0,33.5,6.52Zm12.13,74.8c-1.82-1.14-3.61-2.34-5.36-3.63,2.27.64,4.57,1.17,6.88,1.59C3496.39,1597.93,3495.88,1598.61,3495.38,1599.3Zm11.35,31.23c-1,.28-2,.56-3,.82-3.49.9-7,1.65-10.5,2.31a89,89,0,0,1-9.08-5.64Q3495.39,1629.64,3506.73,1630.53Zm-4.11,88.42a58.07,58.07,0,0,1-19.26-13,135.1,135.1,0,0,0,39.35,3.59c3.39-.19,7-.62,9.54-3a55,55,0,0,0-13.63-7.55c8.61,1.91,17.76,3.76,26.3,2.43C3532,1711.08,3517.33,1716.46,3502.62,1719Zm28.68-50.19q-3.2,6.6-6.87,12.67c-2.31-.51-4.62-1.06-6.92-1.68C3522.2,1676.25,3526.8,1672.49,3531.3,1668.76Zm-10.5-46.38c1.63.5,3.26.94,4.91,1.33-.77.35-1.54.68-2.31,1Zm29.25,74.85a53.26,53.26,0,0,1-6.73-4.1l1.51-.58a38.8,38.8,0,0,0,11.25-1.1C3554.13,1693.51,3552.11,1695.43,3550.05,1697.23Zm12.85-13.84-.92.12c.55-.36,1.09-.7,1.63-1.07C3563.38,1682.76,3563.13,1683.07,3562.9,1683.39Zm-18.35-70c-14.68-.63-29.28-3.74-42.35-10.26a46.27,46.27,0,0,0,11.81-4.84,70.63,70.63,0,0,0,9-1.15l-3.8-2.31c.59-.44,1.17-.89,1.75-1.36,1.28.32,2.57.58,3.87.8q-3,7.23-6,14.46c18.69-1.08,37.21-8.34,53.76-21.1A124.89,124.89,0,0,1,3544.55,1613.36Zm121.19-117.84a72,72,0,0,0,32.84,8.9l-12.34-13.65a85,85,0,0,0,35.47,9.11,73.18,73.18,0,0,1-15.86-19.69,100.79,100.79,0,0,0,39.76,4.48l-12.15-8c10.48.57,22.15.52,29.84-9.9-35.76,3.72-72.26-10.08-102.3-38.68-.58-.56-1.16-1.15-1.75-1.77a240.93,240.93,0,0,0,53.94,9.2,92.73,92.73,0,0,0-30,9.84q26.6,1.75,53.27,1.09a34.37,34.37,0,0,1-12.4,13.63,99.89,99.89,0,0,0,42.4-10.95q-.57,5.47-1.16,10.95c13.16.25,27.42-2.15,37.93-9.52A231.34,231.34,0,0,1,3680,1510.73,80.49,80.49,0,0,1,3665.74,1495.52Zm64.91,46.23-.09.4-.2-.19ZM3684,1549q-3-2.9-5.93-6l.2,0a82.58,82.58,0,0,0,7.93,3.62Zm26.94,2.82c1.65.06,3.3.06,5,0l-1.17-1.24a58.51,58.51,0,0,0,7.89-3.51,38.76,38.76,0,0,0,6.55,1.37c-.22,1-.43,1.93-.65,2.89,23.05,2,44.68-10.25,64.64-22.06-6.06,5.39-10.95,9.69-17.76,14.08-8.61,5.53-18.2,9.31-27.88,12.57a307.64,307.64,0,0,1-40.16,10.54,113.34,113.34,0,0,1-18.07-12.7A58.08,58.08,0,0,0,3710.91,1551.81Zm42.19,84.75q-7.5,3-15.21,5.38l-8.18-10.24A58.84,58.84,0,0,0,3753.1,1636.56Zm-26.32-22.92a83.61,83.61,0,0,0,12.83-8l-6.19,10.36C3731.19,1615.29,3729,1614.52,3726.78,1613.64Zm-14.19-12c-1.06.73-2.11,1.48-3.16,2.24l-1-.79C3709.8,1602.68,3711.2,1602.2,3712.59,1601.69Zm-18.85,37.71a253.75,253.75,0,0,0,37.2,4.61c-8.13,2.3-16.37,4.18-24.65,5.7A87.44,87.44,0,0,1,3693.74,1639.4Zm31.74,70.19a126.6,126.6,0,0,1-12.4-5.6c9.37-4.22,18.51-9.21,27.42-14.25l2.11.35A148.46,148.46,0,0,1,3725.48,1709.59Zm48.92,4.63a72.33,72.33,0,0,1-28.11,1,177.28,177.28,0,0,0,45-14.13A115.1,115.1,0,0,1,3774.4,1714.22Zm-13.71-80.81-11.28-7.57a33.9,33.9,0,0,0,20.74-5l-.53-.46a181.23,181.23,0,0,0,34.83-14.09A176.08,176.08,0,0,1,3760.69,1633.41Zm224.67-198.78a151.39,151.39,0,0,1-24.72,4.33c1.35-.16,2.7-.35,4-.6L3946.06,1420A382.18,382.18,0,0,0,3985.36,1434.63Zm-4.84,276a9.74,9.74,0,0,1-2.58-3.09c1.46.38,2.93.74,4.4,1.07C3981.74,1709.27,3981.13,1709.93,3980.52,1710.6Zm5.74-48.39c-2.2-1.31-4.37-2.68-6.49-4.13,4.51.62,9,1.17,13.57,1.68Q3989.83,1661,3986.26,1662.21Zm22.37,60.76c-3.3-1.16-6.57-2.4-9.82-3.69a139.9,139.9,0,0,0,28.31-9.72A93.47,93.47,0,0,1,4008.63,1723Zm5.84-138.36a68.68,68.68,0,0,1-6.42,3.63q-2.45-.81-4.86-1.69c8.78-3.41,17.24-8.29,25.35-13.09A107.65,107.65,0,0,1,4014.47,1584.61Zm-22.66-42.48c-19.43-5-38.07-14-52.6-27.93a142.13,142.13,0,0,0,47.56,8.9l-6.4-4.89a80.44,80.44,0,0,0,12.47-2.47c4.56.85,9.16,1.52,13.79,2,0,.32-.07.64-.11,1a71.82,71.82,0,0,0,8.4-.32c1.78.09,3.57.16,5.35.2-.41-.24-.8-.5-1.21-.75a42.54,42.54,0,0,0,17.5-6.67A181.87,181.87,0,0,1,3991.81,1542.13Zm-22.91-32.68q5.68,2,11.48,3.48a28.15,28.15,0,0,1-2.93,3Zm68.37,125.2-.11,0,.35-.18ZM4007,1474.22c-2.63,1-5.27,1.93-7.92,2.88a239.3,239.3,0,0,1-66.74-30.31c-6-3.93-12.11-9.52-15.44-15.88a74.26,74.26,0,0,0,38.13,8.53l29.76,2.06a153.84,153.84,0,0,0-25.57,11.9l38.87-4.9-10.67,10.74a69.6,69.6,0,0,0,29.69-2.68,7.62,7.62,0,0,0-4.72,6.74c8.77,1.15,17.89,1.22,26.46-.77Zm213.12,167.85-12.67-7.41a61.64,61.64,0,0,0,27.46,5,142.59,142.59,0,0,1-31.45,11.56l-.39.09a95.58,95.58,0,0,1-20.09-10.83A83.23,83.23,0,0,0,4220.14,1642.07Zm-16.44-20.37a174.83,174.83,0,0,0,27.49-7.29l-13.51,10.64A142.81,142.81,0,0,1,4203.7,1621.7Zm-4.27-17.26-1.46-1.07,2.87-.62C4200.38,1603.32,4199.9,1603.88,4199.43,1604.44Zm-1.42,1.69a94.77,94.77,0,0,1-10.11,9.93,141.39,141.39,0,0,1-17.15-8.68q8-.66,15.83-1.9C4190.38,1605.88,4194.2,1606.1,4198,1606.13ZM4177.1,1676l1.06-.25q6.53.87,13.08,1.54l-5.31,4A98.5,98.5,0,0,1,4177.1,1676Zm32.56,54.24-.75-.21,1.7-.46Zm3.66-39.06a105.16,105.16,0,0,1-26.52-9.45,156.08,156.08,0,0,0,30.73-2.61c3.88.14,7.76.25,11.64.29l-2.59-2.24q6.84-1.7,13.52-4c.69,0,1.38.06,2.07.07A188,188,0,0,1,4213.32,1691.14Zm29.15-55.66a108.48,108.48,0,0,1-14.93-6.15c8.57.9,17.62,1.72,25.63-1.17A114.84,114.84,0,0,1,4242.47,1635.48Zm12.07-8.42a138.08,138.08,0,0,1-19.08.18,147.77,147.77,0,0,0,27.46-7.6A103.11,103.11,0,0,1,4254.54,1627.06Zm15.71-81.69a252.43,252.43,0,0,1-87.36,37.46c-14.3-4.1-27.9-11-38.65-21.3a112.48,112.48,0,0,0,37.66,7l-14.14-10.8a133.89,133.89,0,0,0,40.67,7.21,68.79,68.79,0,0,1-18.19-15.6,164.45,164.45,0,0,0,45.61,3.55l-13.94-6.31c12,.44,25.41.41,34.22-7.85a188.18,188.18,0,0,1-52.61-3.71,404.66,404.66,0,0,0,52.09-19.19l-19.91,20.21a77.29,77.29,0,0,0,51.06-8.21C4283.2,1534.88,4276.63,1541,4270.25,1545.37Zm225.18-114.63-9.89,14.38q-5.27-1.18-10.46-2.65Q4485.4,1437.16,4495.43,1430.74ZM4447.55,1548a104.57,104.57,0,0,0,28.3,10.09,83.18,83.18,0,0,1-16.81,8.06,99.89,99.89,0,0,1-25.29,5.08,244,244,0,0,1-25.5-21.65c11.24,8.12,26.47,10.77,40.55,10.5Q4448.17,1554,4447.55,1548ZM4426,1642.49c.83-.18,1.65-.38,2.47-.6L4432,1644l-2.12,1.83C4428.6,1644.71,4427.3,1643.61,4426,1642.49Zm22.17,15.07a93.81,93.81,0,0,1-10.1-5.8c-2.27-1.5-4.33-3-6.3-4.52a54,54,0,0,0,8.46,1.18c4.15,2.15,8.37,4.14,12.64,5.87C4451.32,1655.45,4449.76,1656.54,4448.17,1657.56Zm8.06-71.64c-.7-.4-1.39-.82-2.09-1.23,2.33-1.28,4.65-2.63,6.94-4C4459.46,1582.45,4457.85,1584.19,4456.23,1585.92Zm21,10.89q-3.47-1.59-6.88-3.29a86.3,86.3,0,0,0,17.12-7A142.29,142.29,0,0,1,4477.25,1596.81Zm6.9-44.7a37.77,37.77,0,0,1-4.53-7.09q6,.15,12.07.17A85.29,85.29,0,0,1,4484.15,1552.11Zm-38.29-54.8-40.72-15.4c11.56,2.77,23.88,2.67,35.72,1.07a10.59,10.59,0,0,0-6.38-9.37,91.52,91.52,0,0,0,40.07,3.73l-14.4-15,37.78,4.92C4481.76,1481.26,4464.12,1491.38,4445.86,1497.31Zm59.8-37.08c-1.12,1.08-2.24,2.14-3.38,3.19a204.36,204.36,0,0,0-24.17-10.77l9.16-.65a38.05,38.05,0,0,0,13.3-1l13.11-.94A50.11,50.11,0,0,1,4505.66,1460.23Zm8.43-10.82c-2.3-.17-4.59-.4-6.87-.65a47.45,47.45,0,0,0,10-6A41.32,41.32,0,0,1,4514.09,1449.41Zm90.28-50.2-4.5-2.44a39.69,39.69,0,0,0,7.39,1.75C4606.3,1398.77,4605.33,1399,4604.37,1399.21Zm10.24,158.36c-.71-.88-1.42-1.79-2.14-2.72l1.14-.26,2.16,1.83C4615.39,1556.81,4615,1557.2,4614.61,1557.57Zm.58-76.63c-.44-.51-.9-1-1.34-1.52,1.37-.21,2.73-.42,4.09-.65C4617,1479.52,4616.12,1480.24,4615.19,1480.94Zm8.3-88.78a8.17,8.17,0,0,0-3.14-3.69,49.64,49.64,0,0,0,5.69,2.23C4625.2,1391.21,4624.35,1391.69,4623.49,1392.16Zm5.76,20.53-1-.52c1-.39,1.94-.79,2.9-1.22C4630.55,1411.54,4629.91,1412.12,4629.25,1412.69Zm10.54-33.2c-.18-.26-.35-.52-.52-.78.66-.28,1.32-.56,2-.86C4640.77,1378.41,4640.28,1379,4639.79,1379.49Zm5.39-48.92a130.22,130.22,0,0,1-20.64,13.58c-15.23-10.6-29.26-25-41.18-42.71a31.7,31.7,0,0,0,15.83,9c6.19,2.29,13.4,1.27,20,.07a93.86,93.86,0,0,0-11.19,14,197,197,0,0,0,29.31-12.68l-10.7,12.87a36,36,0,0,0,27.44-5.23A30.48,30.48,0,0,1,4645.18,1330.57Zm132.62-63.49-.75,2.47q-2-.16-4.08-.42C4774.59,1268.46,4776.2,1267.79,4777.8,1267.08Zm-22.76-5.44c-.16,1-.36,2.1-.58,3.14-1.11-.38-2.22-.77-3.32-1.2A38.25,38.25,0,0,0,4755,1261.64Zm-9.68-11.24L4741,1259q-3.18-1.63-6.28-3.51Zm3.92,213.81a101.66,101.66,0,0,1-30.6-21.77,91.47,91.47,0,0,0,37.48,14.12A100,100,0,0,1,4749.28,1464.21Zm-24.09-75.79c3.36,2.43,6.8,4.88,10.32,7.1-.7.38-1.42.74-2.13,1.12A97.82,97.82,0,0,1,4725.19,1388.42Zm35.17,62.59-4.43-9a48.21,48.21,0,0,0,6.93,5.37C4762.05,1448.57,4761.21,1449.8,4760.36,1451Zm9.13-81.59a124.44,124.44,0,0,1-29.77-17l5.16-5c-.7,4.48,4,8.41,8.49,8.45s8.61-2.71,11.93-5.8,6.24-6.68,10.11-9c1.82,4.94,10,5.07,12.47.71A101.93,101.93,0,0,1,4769.49,1369.42Zm-15.66-63.28c-4.38-1.74-8.71-3.68-13-5.62l-23.11-10.34a44.88,44.88,0,0,0,19.2.68,6.83,6.83,0,0,0-3.43-6,41.87,41.87,0,0,0,21.55,2.37l-7.75-9.51,28.21,4.34a105.52,105.52,0,0,0-14.21-8.51c2.8-1,5.59-2,8.35-3.1l7.34-.62-2.13,7,16.35-1.56A156.75,156.75,0,0,1,4753.83,1306.14Zm108.9,60.17c-.55-1-1.07-2.08-1.57-3.13a32.58,32.58,0,0,0,2.26,2.83Zm7.89-3.74.54-3.44c.73.68,1.48,1.33,2.24,2C4872.48,1361.6,4871.55,1362.09,4870.62,1362.57Zm27.52,38.78a76.8,76.8,0,0,1-12.14-7.66c1.79-1.94,3.51-4,5.13-6a8.65,8.65,0,0,0,7.16,7.6,8.06,8.06,0,0,0,3.38-.26Q4900,1398.23,4898.14,1401.35Zm16.28-79.6a108.34,108.34,0,0,1-13.05-1.58,29.54,29.54,0,0,1,5.37-4.51c1.52,4.12,8.34,4.23,10.41.59C4916.32,1318.13,4915.4,1320,4914.42,1321.75Zm-53.37-22.68c-8.53-8.72-15.61-19.21-22.38-29.42a169.7,169.7,0,0,0,15.67,15.72q2.35-7.18,4.72-14.37a36.58,36.58,0,0,0,14.91,14.47q2.65-9.09,5.3-18.19a15.89,15.89,0,0,0,9.56,7.26,37.88,37.88,0,0,0,2-13.85l1.65-.54a24.36,24.36,0,0,0,11.93,5.14l.33-9.7c1.09-.45,2.17-.91,3.24-1.37l.58.26-2.31,7.55,13.65-1.3A133.86,133.86,0,0,1,4861.05,1299.07ZM4928,1214a84,84,0,0,1-52.42,22.87,102.2,102.2,0,0,1-39.44-21,4.38,4.38,0,0,0,1.87.18q-.94-9-1.88-18a185.94,185.94,0,0,0,24.34,12.94,25.68,25.68,0,0,0,1.54-13.15l12.75,5.48c-1.24.14-2.48.27-3.72.36,4.75,2.82,10.64,2.43,16.15,2.67s11.73,1.69,14.46,6.48l2.66-2.61a5.42,5.42,0,0,0,7.24,3.62c.69,4,6.12,5.48,9.75,3.73s5.8-5.5,7.76-9C4930.88,1209.66,4929.52,1212.51,4928,1214Zm51.46,194.52c-1.46-1.77-2.87-3.59-4.19-5.49,1.76,1.86,3.61,3.64,5.51,5.35Zm-1.12-74.41.4.54-.13,0Zm2.34,4.48c.6.05,1.19.08,1.79.08a24.12,24.12,0,0,0,2.43,1.83q-1.08.73-2.19,1.41C4982,1340.81,4981.29,1339.7,4980.65,1338.58Zm23.67,24.64c-.59-.37-1.19-.75-1.77-1.14.69.22,1.39.43,2.09.61l.44.11Zm14.76-10.2a129.89,129.89,0,0,1-30.6-3.42,71,71,0,0,1-4.73-6.1,79.08,79.08,0,0,0,18.88-.94,84.85,84.85,0,0,1-12.58,6.71,54.82,54.82,0,0,0,31.75-1.28A9.52,9.52,0,0,1,5019.08,1353Zm-32.95-18.94c.18-1.12.35-2.25.53-3.37a45.59,45.59,0,0,0,3.54,3c-1.22.22-2.45.42-3.68.62l.59-.27Zm2.57,3.55c-1.14.95-2.33,1.83-3.55,2.67.1-.63.2-1.25.29-1.88A19.13,19.13,0,0,0,4988.7,1337.63Zm15.7-12.66h.07a33.73,33.73,0,0,0,2.1,4.37l-2.16.77C5004.41,1328.39,5004.41,1326.68,5004.4,1325Zm20.17-46.36c-5.85,6.88-12.15,13.25-19.33,18.11A58.27,58.27,0,0,1,4995,1293c-15.6-7.48-25.9-22.56-35.46-37a142.19,142.19,0,0,0,13.08,13.13q2-6,3.94-12a30.53,30.53,0,0,0,12.44,12.08q1.18-4,2.35-8.07c11.37,5.63,24.66,4.39,37.19,3a140,140,0,0,1-28.44,11.17A77.79,77.79,0,0,0,5024.57,1278.61Zm48.48,10.31a60.46,60.46,0,0,1-4.81-5.63,104.61,104.61,0,0,0,19.35-3.63A121.31,121.31,0,0,1,5073.05,1288.92Zm20.75,41c-.7-.38-1.39-.76-2.08-1.16l4.68-.63C5095.54,1328.73,5094.67,1329.32,5093.8,1329.91ZM5321,1104.58c-.19-1.92-.39-3.83-.58-5.74q4.24,2.28,8.68,4.13C5326.36,1103.6,5323.66,1104.13,5321,1104.58Zm.92,4.93-.39.28a1.49,1.49,0,0,0,0-.21Zm-.94-60.26-42.22-16.19c10.06,2.44,20.7,2.63,31.08,1.55,10.12,7.65,21.87,10.43,33.08,7.76a139.17,139.17,0,0,1-10.46,11.24Q5326.65,1051.45,5320.93,1049.25Zm-7.54,61.42c2.21.15,4.4.21,6.58.2a115,115,0,0,1-15.47,9.33q-9-6.89-17.33-14.63C5295.24,1111.2,5304.35,1111.6,5313.39,1110.67Zm-26.65-5.49c-1.68-1.57-3.34-3.15-5-4.77a46.57,46.57,0,0,0,9.35,5.25C5289.65,1105.53,5288.19,1105.37,5286.74,1105.18Zm21.58,281.54h-.57a121.62,121.62,0,0,1-13.47-11.38,179.88,179.88,0,0,0,27.1,10.64A117.08,117.08,0,0,1,5308.32,1386.72Zm-27.82-115.45A185.23,185.23,0,0,0,5346,1293a153.17,153.17,0,0,1-20.76,7.46A182.84,182.84,0,0,1,5280.5,1271.27Zm74.75,104.56a162.56,162.56,0,0,1-11.83-15.5c6.29,3.75,12.69,7.53,19.21,11.09A83.54,83.54,0,0,1,5355.25,1375.83Zm2.84-88.68q-4.64-8.13-9.28-16.24l.31,0a88.07,88.07,0,0,0,18.22,11Q5362.75,1284.68,5358.09,1287.15Zm-9.05-68.23c-2.92-.93-5.82-1.9-8.72-2.91-10.16-3.58-20.23-7.72-29.27-13.8a126.27,126.27,0,0,1-15.68-12.7l1.67.1c19.66,12,40.81,23.37,63.24,21.36l-2.28-10.51a57.69,57.69,0,0,0,11,7.18A108.89,108.89,0,0,1,5349,1218.92Zm4.11-69.8a240.65,240.65,0,0,1-37-20.54,56,56,0,0,0,30.59-9.33L5331,1132.8a71.05,71.05,0,0,0,46-2.86A113.65,113.65,0,0,1,5353.15,1149.12Zm-5.37-90.06c8.63-3.1,17.11-7.89,25.36-12.77l-14.88,16Q5353,1060.8,5347.78,1059.06Zm35.59,212c-1.34-1.06-2.68-2.09-4-3.1l1.33-.41c1.47.52,2.95,1,4.44,1.49A17,17,0,0,1,5383.37,1271.09Zm9.81-202.58c-3.07-.22-6.13-.47-9.17-.84-3.73-.44-7.43-1.06-11.1-1.79a109.68,109.68,0,0,0,34.92-12A186.87,186.87,0,0,1,5393.18,1068.51Zm-22.72-41.39c-18.54,6.45-37.7,7.76-56.75,7h.08a10.52,10.52,0,0,0-6.26-9.33,88.71,88.71,0,0,0,39.37,3.71l-14.15-14.89,51.54,6.8a199.82,199.82,0,0,0-33.9-16.49l40.22-2.91c-50.29-2.56-99.42-25.43-135.12-62.89a51.37,51.37,0,0,0,33.79,9.32c10.82,11.66,25.9,11.67,39.55,10.92l-17.25,11.54a140.45,140.45,0,0,0,56.46-6.49,105.39,105.39,0,0,1-22.53,28.5,118.6,118.6,0,0,0,50.36-13.18l-17.51,19.76A100.94,100.94,0,0,0,5425,985.61,111.17,111.17,0,0,1,5370.46,1027.12Zm314.23.5a97.69,97.69,0,0,1-11.77,4.56q-2.49-4-5-8.1A65.75,65.75,0,0,0,5684.69,1027.62Zm-70.17,253.72c-4.38,1.93-8.78,3.84-13.21,5.69a129.23,129.23,0,0,1-31.34-30.9c16.27,11.25,33.71,18.71,51.49,22.1C5619.16,1279.28,5616.84,1280.31,5614.52,1281.34ZM5636.4,1271a213.48,213.48,0,0,1-20.55-34.7c11.22,9.46,22.83,19.05,34.81,26.53C5646.05,1265.8,5641.27,1268.5,5636.4,1271Zm18.49,37.64-1.61-.31c.77-.53,1.54-1,2.29-1.59C5655.35,1307.4,5655.12,1308,5654.89,1308.67Zm16.28,2.17-1.4-.12-.59-.06c.95-.37,1.89-.74,2.83-1.13C5671.74,1310,5671.46,1310.41,5671.17,1310.84Zm-3.34-125.71c-4.27-.86-8.53-1.83-12.78-2.94-35.47-9.28-70.5-28.58-97.94-63.32a146.84,146.84,0,0,0,45.89,24.79,33.3,33.3,0,0,1,1.43,8.63l10.75-5.38.47.1-5.37,16.19a37.15,37.15,0,0,0,12.23-6.61c2.74,1.53.07,7,2.88,8.41,1.1.55,2.4,0,3.51-.47l13.17-6a34.53,34.53,0,0,0,5.32,9.28l14.93-14.32c-.58,3.74,3.31,7,7.09,7s7.19-2.26,9.95-4.84,5.22-5.57,8.44-7.54c1.52,4.12,8.34,4.23,10.41.59C5691.72,1163.34,5680.79,1175.64,5667.83,1185.13Zm-47.15-67.24a83.84,83.84,0,0,0,17.28,14.93q-5.05,1.47-10.22,2.53Zm26.49-5.66a107.77,107.77,0,0,0,19.89,8.33c-2.77,1.57-5.61,3-8.49,4.43C5654.89,1120.5,5651.09,1116.23,5647.17,1112.23Zm39.41-6.12,1,.2-.34.29Zm22.45-59.64a83,83,0,0,1-34.67,19.78A222.46,222.46,0,0,1,5613,1046c-9.49-4.72-18.9-10.18-27.33-18.2-6.68-6.34-11.47-12.56-17.41-20.38,19.56,17.1,40.77,34.79,63.37,31.94l-2.13-13.87c13.38,15.7,31.7,21.55,48.23,15.46a11,11,0,0,1,5,4.42l2.66-2.61a5.42,5.42,0,0,0,7.24,3.62c.69,4,6.12,5.48,9.75,3.73s5.8-5.5,7.76-9C5711.94,1042.14,5710.58,1045,5709,1046.47Zm1.85-36.77-7.19-4.17a69.67,69.67,0,0,0,15.23-4.64A93.21,93.21,0,0,1,5710.88,1009.7Zm7.18-25.3c-4.66-.12-9.33-.15-14-.39-2.74-.13-5.47-.36-8.2-.65l24.81-1Zm50-7.15a48.12,48.12,0,0,1,1.57,9.75,95.31,95.31,0,0,1-20.33-.45Zm12.3,8.24q-3.84.76-7.72,1.22l13.32-6.66q-3.66,11.06-7.34,22.11c-4,.61-8.07,1.13-12.12,1.55-8.19.86-17,1.21-24.11-2.93A131.28,131.28,0,0,0,5780.36,985.49Zm-24.06,250a100.71,100.71,0,0,0,40.21,25.77,34.94,34.94,0,0,0,1-14.63l13.94,8q-10.29,5.36-20.87,10.13A93.38,93.38,0,0,1,5756.3,1235.5Zm3.07-68.92a24.69,24.69,0,0,0,6.78,6.54q.8-5,1.57-9.93a47.46,47.46,0,0,0,16.43,9.93q-8.07,3.57-16.23,7A68.29,68.29,0,0,1,5759.37,1166.58Zm26.09-9.29a34.56,34.56,0,0,0,7.71,11.81c-2.56,1.15-5.12,2.3-7.68,3.43Zm16.44,2.06a31.73,31.73,0,0,0,3.6,4c-1.18.56-2.36,1.13-3.54,1.68Zm4.23-7.73a25.16,25.16,0,0,0,11.72,5.5c-2.49,1.32-5,2.6-7.52,3.86Zm-12,199.14a216.38,216.38,0,0,1-22.48-22.12,29.74,29.74,0,0,0,15.57,8.3q1.22-5.75,2.41-11.5a95.88,95.88,0,0,0,23.91,11.78A206.59,206.59,0,0,1,5794.1,1350.76Zm29.21-21.76a34.16,34.16,0,0,0-.21-4.17c.77.75,1.57,1.48,2.38,2.2C5824.76,1327.69,5824,1328.35,5823.31,1329Zm-7.25-76.77a104,104,0,0,1-1.5-18,130.63,130.63,0,0,0,11.94,12.17Q5821.33,1249.42,5816.06,1252.23Zm10-99.63a55.8,55.8,0,0,0-3.54-8.22,59.18,59.18,0,0,0,7.84,5.7C5829,1150.94,5827.52,1151.77,5826.08,1152.6Zm8.82,88.86a82.37,82.37,0,0,1-2.61-19.38A37.19,37.19,0,0,0,5842,1237C5839.64,1238.53,5837.27,1240,5834.9,1241.46Zm13.31-103.36a44.14,44.14,0,0,0,4.72-16.77,92.81,92.81,0,0,1-62.85,8.79,63.17,63.17,0,0,1-14-4.63c-15.6-7.48-25.9-22.56-35.46-37a142.19,142.19,0,0,0,13.08,13.13q2-6,3.94-12a30.53,30.53,0,0,0,12.44,12.08l2.28-7.82c0,.17.07.35.1.53,1.79-1.36,3.54-2.78,5.25-4.24a13.2,13.2,0,0,0,4.77,2.41,31.46,31.46,0,0,0,1.65-8.37c.89-.89,1.77-1.8,2.63-2.73a19.22,19.22,0,0,0,2.23,1.32c.48,2.7.95,5.39,1.43,8.08a75.23,75.23,0,0,0,16.22-5.67,82,82,0,0,1,10.24,18.86,200.84,200.84,0,0,0,15.86-18.72q4.9,8.24,9.82,16.48c.82,1.38,1.81,2.89,3.38,3.19s3.29-.89,4.57-2a138.54,138.54,0,0,0,16.31-17.59,12.41,12.41,0,0,0,10.26,10.9,11.68,11.68,0,0,0,4.85-.37C5873.65,1112.1,5862.33,1127.13,5848.21,1138.1Zm-1.87-93.52a216.67,216.67,0,0,1-45.62,19.6,87,87,0,0,1-62.26-20.52,3.79,3.79,0,0,0,1.57.14q-.79-7.5-1.57-15a156.06,156.06,0,0,0,20.31,10.8,21.32,21.32,0,0,0,1.28-11l13.95,6q-2.06-8.5-4.12-17a49.17,49.17,0,0,0,14.43,8.89l-5.35-13.8,12.07,4.63a58.28,58.28,0,0,1-5.56-12.15l8.91-.81.18-5.08c-3.24.69-6.49,1.31-9.75,1.88a52.76,52.76,0,0,0,10.8-6.82c3.93,2.2.1,10.06,4.13,12.06,1.57.78,3.43.05,5-.68l18.88-8.62a49.23,49.23,0,0,0,7.62,13.29q10.69-10.26,21.4-20.51c-.84,5.35,4.73,10.06,10.15,10.1s10.3-3.24,14.27-6.94,7.46-8,12.09-10.81c2.18,5.91,11.95,6.07,14.92.86C5892.5,1009.19,5871,1030.16,5846.34,1044.58Z"/></g></g></svg>