<svg xmlns="http://www.w3.org/2000/svg" viewBox="0 0 4680.36 1771.94"><defs><style>.cls-1{fill:#601414;}</style></defs><g id="Layer_2" data-name="Layer 2"><g id="Layer_5" data-name="Layer 5"><path class="cls-1" d="M4680.36,1208.37V215q-3.07-6-6.06-12.07c-7.41-14.9-15.35-28.89-18.94-47.1-4.82,24.49-9.9,49.15-18.3,71s-20.53,40.85-35.64,48.9l8.79-.28q-6.06,8.82-12.11,17.63a55.21,55.21,0,0,0,15.3-7.45,52.11,52.11,0,0,1-6.33,16.08c9.48,2.14,19.42-1.57,27.36-10.22-20.65,33.19-47.36,56.31-75.81,66.3a77.2,77.2,0,0,1-7.56-2.13c-8.52-2.9-16.74-7.66-23-15a135.37,135.37,0,0,0,17.2-.65l-12.92-6.56,20.07,0c-4.28-1.76-8.84-3.77-11.38-8.12a69.64,69.64,0,0,0,17.33,3.23c-15.28-6.5-26.23-21.9-36.42-36.64-4.9-7.08-10.14-13.72-12.51-22.38-3.18,11.64-6.54,23.36-12.09,33.73s-13.57,19.41-23.55,23.24l5.81-.13-8,8.37a44,44,0,0,0,10.11-3.54,21.37,21.37,0,0,1-4.19,7.64,23.38,23.38,0,0,0,18.08-4.85c-17.53,20.26-41.64,32.62-66.34,34l19.75,1.57a95.13,95.13,0,0,0-16.65,8.92l25.31-3.68q-3.47,4-6.95,8.06a39.84,39.84,0,0,0,19.33-2,5.73,5.73,0,0,0-3.07,5.05,42.67,42.67,0,0,0,17.22-.58l-20.73,8.76c-10.09,4.26-20.3,8.55-31,10-8.11,1.07-16.46.47-24.26,3.25a109.53,109.53,0,0,0,28,5.53,43.81,43.81,0,0,0-15.46,5.84,265.11,265.11,0,0,0,27.47.65,19.72,19.72,0,0,1-6.39,8.09,46.24,46.24,0,0,0,21.86-6.51l-.6,6.51c6.78.14,14.13-1.28,19.56-5.65-20.53,22.34-48.11,35.83-76.23,37.07-2.44-3.42-4.84-6.87-7.21-10.3-7.38-10.67-15.28-20.69-18.85-33.73-4.8,17.53-9.86,35.19-18.22,50.82s-20.45,29.26-35.49,35l8.75-.19-12.06,12.62a66,66,0,0,0,15.24-5.33,32.33,32.33,0,0,1-6.31,11.51,35.26,35.26,0,0,0,27.25-7.32c-18.87,21.81-42.8,37.54-68.5,45.51a60.82,60.82,0,0,1-19-10.44,47.34,47.34,0,0,0,24.17,1.17l-8.25-5.56a35.33,35.33,0,0,0,27,2.06,64.89,64.89,0,0,1-14-6.05c6.26.76,12.91,1.45,18.55-1.78-22.5,2.33-45.66-5.31-63.76-21a68.47,68.47,0,0,0,28.4,5.4l-10.16-8.52c8.47,3.9,17.43,7.69,26.47,6.4a63.39,63.39,0,0,1-10.55-8,25.24,25.24,0,0,0,17.88-3.47c-10.85.48-21.81.09-32.39-2.78a59.3,59.3,0,0,1-28.67-17,64.85,64.85,0,0,0,24.52,5.29l-9.21-8.1a76.68,76.68,0,0,0,26.48,5.4,47.09,47.09,0,0,1-11.84-11.69,93.86,93.86,0,0,0,29.69,2.67l-9.07-4.74c7.82.34,16.53.31,22.27-5.88-26.69,2.21-54-6-76.37-22.95a26,26,0,0,1-8-9.42,33.94,33.94,0,0,0,24.62,4.42l-9.6-10.89a182.8,182.8,0,0,0,26.3,10.73,79.63,79.63,0,0,0-10-11.82c8,1.38,17.1,2.48,23.5-3.34-20.08,1-40.38-5.91-56.81-19.35-2.36-1.92-4.8-4.28-5.28-7.58a43.91,43.91,0,0,0,27.82,1.24,72.59,72.59,0,0,1-11-6.48,62.8,62.8,0,0,0,19.49.62,42.7,42.7,0,0,1-7.3-5.37,16.28,16.28,0,0,0,14.25-1.52c-8.83-1-17.71-2.2-26.23-5.11s-16.74-7.66-23-15a135.3,135.3,0,0,0,17.2-.64l-12.92-6.57,20.07,0c-4.27-1.76-8.83-3.77-11.38-8.13a69.19,69.19,0,0,0,17.33,3.23c-15.28-6.5-26.23-21.89-36.42-36.63-4.9-7.08-10.14-13.73-12.51-22.39-3.18,11.64-6.54,23.36-12.09,33.73s-13.57,19.41-23.55,23.24l5.81-.13-8,8.37a43.54,43.54,0,0,0,10.11-3.53,21.45,21.45,0,0,1-4.19,7.64,23.39,23.39,0,0,0,18.08-4.86c-17.52,20.26-41.64,32.62-66.34,34l19.75,1.57a95.4,95.4,0,0,0-16.64,8.92l25.3-3.67q-3.47,4-6.94,8.05a39.69,39.69,0,0,0,19.32-2,5.73,5.73,0,0,0-3.07,5.05,42.49,42.49,0,0,0,17.22-.58l-20.73,8.76c-10.09,4.26-20.29,8.55-31,10-8.11,1.07-16.46.47-24.26,3.25a108.69,108.69,0,0,0,28,5.53A43.69,43.69,0,0,0,4115,447a264.91,264.91,0,0,0,27.46.65,19.66,19.66,0,0,1-6.39,8.09,46.34,46.34,0,0,0,21.86-6.5l-.6,6.5c6.79.15,14.13-1.28,19.56-5.65-20.64,22.46-48.39,36-76.67,37.1-6.41.26-12.89-.09-19.21,1.26a46.07,46.07,0,0,0,19.41,7.56l-11,5c-15.88-4.5-31.27-15.7-44.71-32.88a41.06,41.06,0,0,1-7.11-14.2c6.68,6.9,14.55,9.29,22,6.66l-8.57-16.4a136.49,136.49,0,0,0,23.47,16.15,127.56,127.56,0,0,0-9-17.81c7.17,2.09,15.26,3.74,21-5-17.92,1.52-36-8.9-50.7-29.15a22.11,22.11,0,0,1-4.71-11.42c8,5.15,16.68,5.8,24.82,1.86A69,69,0,0,1,4046,389a33.85,33.85,0,0,0,17.39.93,48.12,48.12,0,0,1-6.51-8.1c4.17,2.62,8.87,1.77,12.72-2.29-7.89-1.56-15.81-3.31-23.41-7.69s-14.94-11.55-20.48-22.65a72.61,72.61,0,0,0,15.35-1l-11.53-9.9,17.91.07c-3.82-2.65-7.88-5.68-10.16-12.25a40.24,40.24,0,0,0,15.47,4.87c-13.64-9.79-23.41-33-32.5-55.21-4.37-10.67-9.05-20.68-11.16-33.73-2.85,17.54-5.84,35.2-10.8,50.83s-12.1,29.26-21,35l5.18-.2-7.14,12.62a30.2,30.2,0,0,0,9-5.33,42.59,42.59,0,0,1-3.74,11.52c5.59,1.53,11.45-1.13,16.14-7.32-10.57,20.62-23.82,35.8-38.09,44.14a87.25,87.25,0,0,1-26.3-14.82c-2.35-1.92-4.79-4.29-5.27-7.58a44,44,0,0,0,27.81,1.24,73.58,73.58,0,0,1-11-6.48,63.43,63.43,0,0,0,19.49.62,43.09,43.09,0,0,1-7.29-5.38,16.24,16.24,0,0,0,14.25-1.51c-8.83-1-17.71-2.2-26.23-5.11s-16.74-7.66-23-15a137.24,137.24,0,0,0,17.2-.64l-12.92-6.57,20.07,0c-4.28-1.76-8.84-3.76-11.38-8.12a69.64,69.64,0,0,0,17.33,3.23c-15.28-6.5-26.24-21.9-36.42-36.64-4.9-7.08-10.14-13.72-12.51-22.38-3.19,11.64-6.54,23.36-12.09,33.73s-13.57,19.41-23.55,23.24l5.8-.13-8,8.37a43.49,43.49,0,0,0,10.12-3.54,21.28,21.28,0,0,1-4.19,7.64,23.37,23.37,0,0,0,18.08-4.85c-17.53,20.26-41.65,32.62-66.34,34l19.75,1.57a95.13,95.13,0,0,0-16.65,8.92l25.31-3.68-6.95,8.06a39.84,39.84,0,0,0,19.33-2,5.73,5.73,0,0,0-3.07,5.05,42.49,42.49,0,0,0,17.22-.58l-20.73,8.76c-10.09,4.26-20.3,8.55-31,10-4.54.6-9.14.67-13.69,1.11-3.72-7.77-7.18-16.13-10.55-24.36-4.36-10.67-9-20.69-11.16-33.73-2.84,17.54-5.84,35.2-10.79,50.83s-12.11,29.25-21,35l5.18-.19-7.14,12.62a30.71,30.71,0,0,0,9-5.33,42.63,42.63,0,0,1-3.73,11.51c5.59,1.53,11.45-1.13,16.13-7.32-1.65,3.22-3.36,6.29-5.14,9.24a114.09,114.09,0,0,1-55.83-22.62,26.07,26.07,0,0,1-8-9.43,33.87,33.87,0,0,0,24.63,4.42l-9.6-10.88a181.82,181.82,0,0,0,26.3,10.72,81.91,81.91,0,0,0-10-11.82c8,1.39,17.09,2.48,23.49-3.34-20.07,1-40.38-5.9-56.81-19.34-2.35-1.92-4.8-4.29-5.27-7.58a44,44,0,0,0,27.81,1.24,72.59,72.59,0,0,1-11-6.48,63.42,63.42,0,0,0,19.49.62,42.69,42.69,0,0,1-7.29-5.38,16.19,16.19,0,0,0,14.24-1.52c-8.83-1-17.71-2.19-26.22-5.1s-16.74-7.66-23-15a135.44,135.44,0,0,0,17.2-.65L3700,333.42l20.06,0c-4.27-1.76-8.83-3.77-11.38-8.12a69.73,69.73,0,0,0,17.33,3.23c-15.27-6.5-26.23-21.9-36.42-36.64-4.89-7.08-10.13-13.72-12.5-22.38-3.19,11.64-6.55,23.36-12.1,33.73s-13.56,19.41-23.54,23.24l5.8-.13-8,8.37a43.71,43.71,0,0,0,10.11-3.54,21.5,21.5,0,0,1-4.18,7.64,23.4,23.4,0,0,0,18.08-4.85c-17.53,20.26-41.65,32.62-66.34,34l19.75,1.57a95.13,95.13,0,0,0-16.65,8.92l25.31-3.68-6.95,8.06a39.84,39.84,0,0,0,19.33-2,5.74,5.74,0,0,0-3.08,5.05,42.72,42.72,0,0,0,17.23-.58l-20.73,8.76c-10.09,4.26-20.3,8.55-31,10-8.1,1.07-16.46.47-24.26,3.25a109.61,109.61,0,0,0,28,5.53,43.73,43.73,0,0,0-15.46,5.84,265,265,0,0,0,27.47.65,19.83,19.83,0,0,1-6.4,8.09,46.21,46.21,0,0,0,21.86-6.51l-.6,6.51c6.79.14,14.14-1.28,19.56-5.65a122.64,122.64,0,0,1-9.89,9.61c-25.58,1.26-51.46-6.93-72.91-23.17a26,26,0,0,1-8-9.42,33.94,33.94,0,0,0,24.62,4.42l-9.6-10.89a181.61,181.61,0,0,0,26.3,10.72,80.66,80.66,0,0,0-10-11.82c8,1.39,17.1,2.48,23.5-3.33-20.08,1-40.38-5.91-56.81-19.35-2.36-1.92-4.8-4.29-5.28-7.58a44,44,0,0,0,27.82,1.24,72.59,72.59,0,0,1-11-6.48,63.42,63.42,0,0,0,19.49.62,42.3,42.3,0,0,1-7.29-5.38,16.22,16.22,0,0,0,14.24-1.51c-8.83-1-17.71-2.2-26.23-5.11s-16.74-7.66-23-15a137.17,137.17,0,0,0,17.2-.64l-12.92-6.57,20.07,0c-4.27-1.76-8.83-3.76-11.38-8.12a69.64,69.64,0,0,0,17.33,3.23c-15.28-6.5-26.23-21.9-36.42-36.64-4.89-7.08-10.14-13.72-12.51-22.38-3.18,11.64-6.54,23.36-12.09,33.73s-13.57,19.41-23.55,23.24l5.81-.13-8,8.37a43.41,43.41,0,0,0,10.11-3.54,21.28,21.28,0,0,1-4.19,7.64,23.34,23.34,0,0,0,18.08-4.85c-17.52,20.26-41.64,32.62-66.34,34l19.75,1.57a94.66,94.66,0,0,0-15.86,8.41c-9.76-5.91-19.11-15.33-26.25-29.63a96.61,96.61,0,0,0,20.56-1.29l-15.44-13.25,24,.09c-5.1-3.55-10.55-7.61-13.59-16.4a53.87,53.87,0,0,0,20.7,6.52c-18.25-13.11-31.34-44.17-43.51-73.91-5.85-14.29-12.11-27.7-14.94-45.16-3.81,23.48-7.82,47.12-14.45,68s-16.21,39.16-28.13,46.88l6.93-.26-9.55,16.89a40.69,40.69,0,0,0,12.08-7.13,57,57,0,0,1-5,15.41c7.49,2.05,15.34-1.51,21.6-9.79-18.13,35.39-42.17,58.83-67.45,66.3a94.78,94.78,0,0,1-24.09-2.95,59.3,59.3,0,0,1-28.67-17,64.84,64.84,0,0,0,24.52,5.28l-9.21-8.1a76.87,76.87,0,0,0,26.48,5.41,46.93,46.93,0,0,1-11.84-11.69,93.54,93.54,0,0,0,29.69,2.66q-4.55-2.35-9.07-4.73c7.82.34,16.53.31,22.27-5.88-26.69,2.21-53.95-6-76.37-23a26,26,0,0,1-8-9.42,33.93,33.93,0,0,0,24.62,4.42l-9.6-10.89a181.61,181.61,0,0,0,26.3,10.72A80.66,80.66,0,0,0,3286,313c8,1.39,17.1,2.49,23.5-3.33-20.08,1-40.38-5.91-56.82-19.35-2.35-1.92-4.79-4.29-5.27-7.58A43.91,43.91,0,0,0,3275.2,284a72.59,72.59,0,0,1-11-6.48,63.1,63.1,0,0,0,19.49.62,42.24,42.24,0,0,1-7.3-5.38,16.24,16.24,0,0,0,14.25-1.51c-8.83-1-17.71-2.2-26.23-5.11s-16.74-7.66-22.95-15a137.24,137.24,0,0,0,17.2-.64l-12.92-6.57,20.07,0c-4.28-1.75-8.84-3.76-11.38-8.12a69.64,69.64,0,0,0,17.33,3.23c-15.28-6.5-26.23-21.89-36.42-36.63-4.9-7.09-10.14-13.73-12.51-22.39-3.18,11.64-6.54,23.36-12.09,33.73s-13.57,19.41-23.55,23.24l5.81-.13-8,8.37a44,44,0,0,0,10.11-3.53,21.32,21.32,0,0,1-4.19,7.63,23.34,23.34,0,0,0,18.08-4.85c-17.53,20.26-41.64,32.62-66.34,34l19.75,1.57a95.49,95.49,0,0,0-16.65,8.92l25.31-3.68-6.94,8.06a39.81,39.81,0,0,0,19.32-2,5.73,5.73,0,0,0-3.07,5.05,42.49,42.49,0,0,0,17.22-.58l-20.73,8.76c-10.09,4.26-20.3,8.55-31,10-5.17.68-10.44.69-15.6,1.32q-2.16-2.28-4.25-4.8a45.09,45.09,0,0,0,23.28,1.25,63.61,63.61,0,0,1-8.71-10.84c5.57,3.5,11.86,2.37,17-3.06-10.55-2.1-21.16-4.44-31.34-10.3s-20-15.46-27.42-30.33a96.62,96.62,0,0,0,20.56-1.3L3104,243.26l24,.09c-5.1-3.55-10.55-7.6-13.59-16.39a54.21,54.21,0,0,0,20.7,6.52c-18.25-13.11-31.34-44.18-43.51-73.91-5.85-14.29-12.11-27.7-14.94-45.16-3.81,23.48-7.82,47.12-14.45,68S3046,221.62,3034,229.34l6.93-.27q-4.77,8.46-9.55,16.9a40.73,40.73,0,0,0,12.08-7.14,57.11,57.11,0,0,1-5,15.42c7.49,2.05,15.34-1.51,21.61-9.8-20.94,40.87-49.76,65.82-79.26,68.62l23.59,3.17a112.69,112.69,0,0,0-19.88,18l30.23-7.42-8.3,16.25c7.73,1.9,15.66.51,23.09-4.06-2.09,1.58-3.61,5.78-3.67,10.19,6.82,1.73,13.92,1.84,20.58-1.16l-24.77,17.66c-12.06,8.6-24.25,17.27-37,20.1a113.9,113.9,0,0,1-12.16,1.68,126.89,126.89,0,0,1-82.65-25.33,105.78,105.78,0,0,0,38.78,6.43l-13.87-10.15c11.56,4.65,23.79,9.16,36.14,7.62a85.68,85.68,0,0,1-14.41-9.54,38.7,38.7,0,0,0,24.41-4.13c-14.81.57-29.78.1-44.22-3.31s-28.39-9.93-39.14-20.28a99.53,99.53,0,0,0,33.47,6.29l-12.57-9.64a118.19,118.19,0,0,0,36.15,6.43A61.19,61.19,0,0,1,2918.47,318a146.1,146.1,0,0,0,40.54,3.17l-12.39-5.64c10.68.41,22.58.37,30.41-7a168.7,168.7,0,0,1-104.26-27.33c-4.2-2.78-8.53-6.73-10.87-11.22a52.1,52.1,0,0,0,33.62,5.26l-13.11-13A272.27,272.27,0,0,0,2918.32,275a101.39,101.39,0,0,0-13.71-14.08c11,1.65,23.34,3,32.08-4a125.33,125.33,0,0,1-77.57-23c-3.2-2.29-6.54-5.11-7.19-9a68.24,68.24,0,0,0,38,1.47,103.15,103.15,0,0,1-15.05-7.71,98.84,98.84,0,0,0,26.61.73,57.54,57.54,0,0,1-9.95-6.4,25,25,0,0,0,19.45-1.81c-12.06-1.23-24.18-2.62-35.81-6.07s-22.85-9.13-31.33-17.91a214,214,0,0,0,23.48-.76l-17.64-7.83,27.39.06c-5.83-2.1-12.05-4.49-15.53-9.68a107.22,107.22,0,0,0,23.66,3.85c-20.86-7.74-35.81-26.08-49.72-43.63-6.68-8.44-13.84-16.35-17.08-26.66-4.35,13.86-8.93,27.82-16.51,40.17s-18.52,23.12-32.14,27.67l7.92-.15-10.92,10a65.47,65.47,0,0,0,13.8-4.21,24.8,24.8,0,0,1-5.71,9.1,35.41,35.41,0,0,0,24.68-5.78,138.47,138.47,0,0,1-90.57,40.5l27,1.87a137.07,137.07,0,0,0-22.73,10.63l34.55-4.38-9.49,9.59a61.75,61.75,0,0,0,26.39-2.39,6.82,6.82,0,0,0-4.2,6,66.34,66.34,0,0,0,23.52-.69l-28.3,10.43c-13.78,5.08-27.71,10.19-42.28,11.87-11.06,1.27-22.47.56-33.11,3.87a169,169,0,0,0,38.26,6.59,65,65,0,0,0-21.11,6.95q18.72,1.25,37.5.77a24.3,24.3,0,0,1-8.73,9.64,70.09,70.09,0,0,0,29.85-7.75c-.28,2.58-.55,5.17-.82,7.75,9.26.17,19.29-1.53,26.7-6.73a162.7,162.7,0,0,1-80.19,41.35l-8.67-6.81a18.16,18.16,0,0,0,12.51-3.54l-1.17-1.21c-14.45,1.61-29.61-2.6-41.44-16.87a26.58,26.58,0,0,0,19.54,1.39l-6.67-6.61c6.83,5.07,14.69,6,21.85,2.44a45.91,45.91,0,0,1-11.29-7.2c5.06.91,10.44,1.72,15-2.12-18.19,2.77-36.91-6.32-51.54-25a40.3,40.3,0,0,0,23,6.44l-8.21-10.15c6.85,4.65,14.09,9.16,21.4,7.62a58.89,58.89,0,0,1-8.53-9.54c4.91,1.35,10.07-.13,14.46-4.13-8.77.57-17.64.1-26.19-3.32s-16.81-9.92-23.17-20.27a38.62,38.62,0,0,0,19.82,6.29q-3.74-4.81-7.45-9.65a45.35,45.35,0,0,0,21.41,6.44,51.11,51.11,0,0,1-9.58-13.92,52.54,52.54,0,0,0,24,3.17l-7.33-5.64c6.32.4,13.37.37,18-7-21.58,2.63-43.61-7.12-61.74-27.33a31.15,31.15,0,0,1-6.44-11.22c6.05,5.45,13.18,7.34,19.91,5.26l-7.76-13a126.79,126.79,0,0,0,21.26,12.77,97,97,0,0,0-8.11-14.08c6.49,1.65,13.82,3,19-4-16.23,1.2-32.65-7-45.93-23a16.38,16.38,0,0,1-4.26-9,24.89,24.89,0,0,0,22.48,1.47,58.61,58.61,0,0,1-8.91-7.72,34.9,34.9,0,0,0,15.76.74,39.3,39.3,0,0,1-5.9-6.4c3.78,2.07,8,1.4,11.52-1.81-7.14-1.23-14.32-2.62-21.2-6.08a44,44,0,0,1-18.56-17.9,74.54,74.54,0,0,0,13.91-.77L2626,76.06l16.23.06c-3.46-2.1-7.14-4.49-9.2-9.68a40.49,40.49,0,0,0,14,3.85c-12.35-7.74-21.21-26.08-29.45-43.63-3.95-8.44-8.19-16.35-10.11-26.66-2.57,13.86-5.29,27.82-9.77,40.17s-11,23.12-19,27.67l4.69-.15-6.46,10a28.63,28.63,0,0,0,8.17-4.21,30.72,30.72,0,0,1-3.38,9.1c5.06,1.21,10.37-.89,14.61-5.78-14.17,24.12-33.66,38.85-53.63,40.5l16,1.87a74.48,74.48,0,0,0-13.46,10.63l20.46-4.38L2560,135a22.6,22.6,0,0,0,15.63-2.39c-1.42.93-2.44,3.41-2.49,6a23.67,23.67,0,0,0,13.93-.69l-16.76,10.43c-8.16,5.08-16.41,10.19-25,11.87-6.55,1.27-13.3.56-19.61,3.87a64.51,64.51,0,0,0,22.66,6.59,29.5,29.5,0,0,0-12.5,7,145.94,145.94,0,0,0,22.21.77,24.25,24.25,0,0,1-5.17,9.64c6.13-.33,12.21-3,17.67-7.75l-.48,7.75a19.3,19.3,0,0,0,15.81-6.73c-16.69,26.74-39.12,42.84-62,44.18-5.19.31-10.42-.11-15.53,1.5,4.8,4.79,10.18,7.87,15.69,9l-9,6c7.65,5.18,16.23,6.26,24.23,3l-4.34,8.15c7.08,3.12,15,.27,20.71-7.47-.3,2.26-.61,4.52-.91,6.78,9.61,1.39,18.63-7.25,26.94-15.6a74.75,74.75,0,0,1-7.4,10,46,46,0,0,1-11.62,8.89,85.88,85.88,0,0,1-26.15,9.9c-8.73,1.71-17.54,1.89-26.32,2.06l-14.6.29c4.8,8.06,12.29,8.42,19,8.29a24.62,24.62,0,0,1-9.64,6.78,41,41,0,0,0,26.4,2l-9.76,8.66a35.92,35.92,0,0,0,6.2.49c-2.24,10.7-4.54,21.42-7.06,32-7.24.46-14.52.43-21.77.39a31.3,31.3,0,0,0,14.58,8.55,120.75,120.75,0,0,1-20.86,9.2,63.69,63.69,0,0,0,22.62,2.88c-.27,1-.55,1.93-.83,2.9l-7.35,9c1.46.23,2.93.46,4.41.65q-2.64,8.19-5.69,16.06a125.6,125.6,0,0,1-62.2-22.73c-3.21-2.29-6.54-5.11-7.19-9a68.24,68.24,0,0,0,38,1.47,102.22,102.22,0,0,1-15.05-7.72,98.44,98.44,0,0,0,26.61.74,57.54,57.54,0,0,1-9.95-6.4,25,25,0,0,0,19.44-1.81c-12-1.23-24.17-2.62-35.8-6.08s-22.85-9.12-31.34-17.9a211.67,211.67,0,0,0,23.49-.77l-17.64-7.82,27.39.06c-5.83-2.1-12.06-4.49-15.53-9.68a107.13,107.13,0,0,0,23.66,3.85c-20.86-7.74-35.82-26.08-49.72-43.63-6.69-8.44-13.85-16.35-17.08-26.66-4.35,13.86-8.93,27.82-16.51,40.17s-18.52,23.12-32.14,27.67l7.92-.15-10.92,10a65.47,65.47,0,0,0,13.8-4.21,24.62,24.62,0,0,1-4.8,8.12,96,96,0,0,1-20.43-6.21,65.25,65.25,0,0,1-28.7-24.52,129,129,0,0,0,21.51-1.05l-16.16-10.71,25.09.07c-5.34-2.87-11-6.14-14.22-13.25A69.09,69.09,0,0,0,2349,253c-19.1-10.6-32.79-35.71-45.53-59.76-6.12-11.55-12.68-22.39-15.64-36.51-4,19-8.18,38.1-15.12,55s-17,31.66-29.44,37.9l7.26-.21-10,13.66a47,47,0,0,0,12.64-5.77,39.06,39.06,0,0,1-5.23,12.46c7.83,1.66,16-1.22,22.6-7.92-21.91,33.05-52.07,53.22-82.94,55.48l24.69,2.56a113.57,113.57,0,0,0-20.81,14.55l31.64-6-8.69,13.13a38.8,38.8,0,0,0,24.17-3.28c-2.2,1.28-3.78,4.68-3.85,8.24,7.14,1.4,14.57,1.49,21.54-.94l-25.92,14.28c-12.61,7-25.38,14-38.71,16.26-10.14,1.74-20.58.77-30.33,5.3a109.36,109.36,0,0,0,35,9,45.54,45.54,0,0,0-14.32,6,80.91,80.91,0,0,1-33.46-13.82,15.78,15.78,0,0,1-3.32-3c.69-.47,1.37-1,2-1.51l-3.15-.49a4.69,4.69,0,0,1-.21-.84,44,44,0,0,0,24.49,1,66.74,66.74,0,0,1-9.7-5,63.63,63.63,0,0,0,17.16.47,37.34,37.34,0,0,1-6.42-4.13,16.08,16.08,0,0,0,12.54-1.16c-7.78-.8-15.59-1.69-23.1-3.92s-14.74-5.89-20.21-11.55a136.71,136.71,0,0,0,15.15-.5l-11.38-5,17.67,0c-3.76-1.35-7.77-2.89-10-6.24a68.75,68.75,0,0,0,15.27,2.48c-13.46-5-23.11-16.82-32.08-28.14-4.31-5.44-8.93-10.55-11-17.2-2.81,8.94-5.76,17.95-10.65,25.91s-11.95,14.92-20.74,17.86l5.11-.1-7,6.43a42,42,0,0,0,8.9-2.72,16,16,0,0,1-3.68,5.87,22.82,22.82,0,0,0,15.92-3.73A88.52,88.52,0,0,1,2091,362a96.8,96.8,0,0,1-35.17-32.75,192.69,192.69,0,0,0,32-1.56l-24-15.94,37.33.11c-8-4.27-16.43-9.15-21.17-19.72a102.94,102.94,0,0,0,32.24,7.84c-28.42-15.77-48.8-53.15-67.76-88.93-9.1-17.19-18.86-33.32-23.27-54.33-5.92,28.25-12.17,56.7-22.5,81.87s-25.23,47.12-43.8,56.41l10.8-.32L1950.74,315a69.78,69.78,0,0,0,18.81-8.59,58.28,58.28,0,0,1-7.78,18.55c11.65,2.47,23.87-1.82,33.63-11.79a217.07,217.07,0,0,1-43.32,48.52,81,81,0,0,1-44.16-14.88c-2.07-1.47-4.22-3.29-4.64-5.82a44.08,44.08,0,0,0,24.49.95,66.74,66.74,0,0,1-9.7-5,64,64,0,0,0,17.16.48,38,38,0,0,1-6.42-4.13,16.13,16.13,0,0,0,12.54-1.17c-7.78-.8-15.59-1.69-23.1-3.92s-14.74-5.89-20.21-11.55a136.7,136.7,0,0,0,15.15-.49l-11.38-5.05,17.67,0c-3.76-1.35-7.77-2.9-10-6.24a69.93,69.93,0,0,0,15.27,2.48c-13.46-5-23.11-16.82-32.08-28.15-4.31-5.44-8.93-10.54-11-17.19C1878.83,271,1875.88,280,1871,288s-12,14.91-20.74,17.85l5.11-.1-7,6.43a42.14,42.14,0,0,0,8.9-2.71,16,16,0,0,1-3.68,5.87,22.87,22.87,0,0,0,15.92-3.73A89.31,89.31,0,0,1,1811,337.69l17.39,1.21a88.44,88.44,0,0,0-14.66,6.85l22.29-2.82-6.12,6.19a39.9,39.9,0,0,0,17-1.55,4.39,4.39,0,0,0-2.71,3.88,42.93,42.93,0,0,0,15.17-.44l-18.26,6.72c-8.88,3.28-17.87,6.58-27.27,7.66-4.88.56-9.87.52-14.74,1.13l-2.9-.81c-24.34-7-47.82-18.6-65.57-36.49a452.92,452.92,0,0,0,49.15-1.56l-36.92-15.94,57.33.11c-12.2-4.27-25.23-9.15-32.51-19.72a230.47,230.47,0,0,0,49.52,7.84c-43.65-15.77-75-53.15-104.06-88.93-14-17.19-29-33.32-35.73-54.33-9.1,28.25-18.7,56.7-34.55,81.87s-38.76,47.12-67.28,56.41l16.59-.32L1569.36,315a140.17,140.17,0,0,0,28.89-8.59,50.47,50.47,0,0,1-12,18.55A75.65,75.65,0,0,0,1638,313.15c-50.08,49.18-119,79.19-189.54,82.56l56.43,3.81a291,291,0,0,0-47.57,21.65l72.31-8.92-19.85,19.55a132.42,132.42,0,0,0,55.22-4.88,13.88,13.88,0,0,0-8.78,12.26c16.31,2.08,33.28,2.22,49.21-1.4L1546.15,459c-28.83,10.35-58,20.77-88.47,24.19-2.68.3-5.38.54-8.07.75-3.08-3.69-6.11-7.4-9.11-11.09-11-13.52-22.79-26.21-28.11-42.73-7.16,22.22-14.71,44.59-27.18,64.4s-30.49,37.06-52.92,44.36l13-.24-18,16a110.18,110.18,0,0,0,22.72-6.76,39.63,39.63,0,0,1-9.41,14.59,59.55,59.55,0,0,0,40.64-9.27,224.4,224.4,0,0,1-42.61,32.7,187.5,187.5,0,0,1-103.29-29.4c-4.58-2.94-9.29-7.13-11.84-11.9a58,58,0,0,0,36.6,5.58l-14.26-13.74A300.46,300.46,0,0,0,1285,550a109.07,109.07,0,0,0-14.92-14.93c11.94,1.75,25.41,3.13,34.92-4.21a139,139,0,0,1-84.45-24.43c-3.49-2.43-7.12-5.42-7.83-9.58a76.24,76.24,0,0,0,41.34,1.57,112.73,112.73,0,0,1-16.38-8.18,110.64,110.64,0,0,0,29,.78,63.6,63.6,0,0,1-10.84-6.79,27.84,27.84,0,0,0,21.17-1.92c-13.13-1.31-26.32-2.77-39-6.44s-24.88-9.68-34.11-19a237.07,237.07,0,0,0,25.56-.81l-19.2-8.29,29.82.06c-6.35-2.22-13.13-4.76-16.91-10.26a120.08,120.08,0,0,0,25.76,4.08c-22.71-8.21-39-27.65-54.13-46.27-7.28-8.94-15.07-17.33-18.6-28.26-4.73,14.7-9.72,29.49-18,42.59s-20.16,24.51-35,29.34l8.63-.16L1120,449.48a73.41,73.41,0,0,0,15-4.47,26.28,26.28,0,0,1-6.22,9.65,39.36,39.36,0,0,0,26.87-6.14,152.56,152.56,0,0,1-98.6,43l29.35,2a151.14,151.14,0,0,0-24.74,11.26l37.61-4.64-10.32,10.17a69,69,0,0,0,28.73-2.54,7.23,7.23,0,0,0-4.57,6.38c8.49,1.08,17.31,1.15,25.6-.73l-30.81,11.06c-15,5.38-30.17,10.8-46,12.58-3.18.35-6.38.56-9.59.74-17.66-12.56-32.2-30.05-46-47-9.4-11.56-19.48-22.41-24-36.54-6.12,19-12.57,38.13-23.23,55.06-9.65,15.32-23.18,28.83-39.87,35.9a141.54,141.54,0,0,1-64-21.71c-3.45-2.22-7-5.39-8.94-9a43.91,43.91,0,0,0,27.66,4.22l-10.78-10.39a226.19,226.19,0,0,0,29.54,10.24,82.36,82.36,0,0,0-11.27-11.29c9,1.33,19.2,2.37,26.39-3.18a105.05,105.05,0,0,1-63.82-18.46c-2.64-1.84-5.39-4.09-5.92-7.24a57.5,57.5,0,0,0,31.24,1.18,85.08,85.08,0,0,1-12.38-6.18,83.15,83.15,0,0,0,21.89.59,48.27,48.27,0,0,1-8.19-5.13,21.07,21.07,0,0,0,16-1.45c-9.93-1-19.9-2.1-29.47-4.87s-18.8-7.31-25.78-14.35a178.16,178.16,0,0,0,19.33-.61l-14.52-6.27,22.54,0c-4.8-1.67-9.92-3.59-12.78-7.75a90.94,90.94,0,0,0,19.47,3.09c-17.17-6.21-29.47-20.9-40.91-35-5.5-6.76-11.39-13.1-14.06-21.36-3.57,11.11-7.35,22.29-13.58,32.19S781.55,431,770.34,434.67l6.52-.13q-4.49,4-9,8a54.58,54.58,0,0,0,11.36-3.37,19.89,19.89,0,0,1-4.7,7.29,29.74,29.74,0,0,0,20.31-4.63,115.33,115.33,0,0,1-74.52,32.45l22.18,1.51a113.73,113.73,0,0,0-18.7,8.51l28.43-3.51-7.8,7.68a52,52,0,0,0,21.71-1.91,5.46,5.46,0,0,0-3.45,4.82,56.11,56.11,0,0,0,19.35-.55l-23.29,8.35c-11.34,4.07-22.8,8.17-34.79,9.51-9.1,1-18.48.45-27.25,3.1a141.74,141.74,0,0,0,31.49,5.28,54.62,54.62,0,0,0-17.37,5.58q15.4,1,30.86.61A19.63,19.63,0,0,1,734.5,531a58.82,58.82,0,0,0,24.56-6.2q-.34,3.11-.67,6.2c7.62.14,15.87-1.22,22-5.39A134.88,134.88,0,0,1,694.23,561c-7.2.24-14.48-.09-21.57,1.2a57.59,57.59,0,0,0,21.8,7.22l-12.56,4.83a57.39,57.39,0,0,0,33.67,2.43l-6,6.53a34,34,0,0,0,28.78-6l-1.26,5.43c13.35,1.11,25.88-5.81,37.43-12.5a77.61,77.61,0,0,1-10.28,8,72.32,72.32,0,0,1-16.14,7.12,181.19,181.19,0,0,1-31.28,7.29,186,186,0,0,1-62.59-27.9c-4.72-3.27-9.62-7.3-10.57-12.91a102.87,102.87,0,0,0,55.75,2.11,152.28,152.28,0,0,1-22.09-11,148.53,148.53,0,0,0,39.06,1.06,85.92,85.92,0,0,1-14.61-9.16,37.55,37.55,0,0,0,28.55-2.58c-17.7-1.77-35.5-3.75-52.57-8.69s-33.55-13-46-25.6a320,320,0,0,0,34.48-1.1l-25.9-11.18,40.22.08c-8.57-3-17.71-6.42-22.81-13.84a161.38,161.38,0,0,0,34.74,5.5c-30.63-11.06-52.58-37.28-73-62.38-9.81-12.06-20.32-23.38-25.07-38.12-6.38,19.82-13.11,39.78-24.24,57.44s-27.19,33-47.19,39.57l11.63-.22-16,14.26a98.39,98.39,0,0,0,20.26-6,35.21,35.21,0,0,1-8.39,13,53,53,0,0,0,36.24-8.27c-35.13,34.5-83.47,55.56-133,57.92l39.58,2.68a203.58,203.58,0,0,0-33.37,15.19l50.73-6.26L476.7,569.78a93,93,0,0,0,38.74-3.42,9.76,9.76,0,0,0-6.16,8.6c11.45,1.46,23.35,1.55,34.53-1l-41.56,14.91c-20.22,7.25-40.68,14.57-62.06,17-16.25,1.82-33,.8-48.62,5.54a254,254,0,0,0,56.17,9.42,97.46,97.46,0,0,0-31,9.94q27.48,1.77,55.05,1.1A35.11,35.11,0,0,1,459,645.63a105.21,105.21,0,0,0,43.82-11.07l-1.2,11.07c13.6.25,28.33-2.18,39.19-9.62a241.25,241.25,0,0,1-124.58,60.33c-4.94-5.45-9.63-11.16-14.22-16.79-7.25-8.92-15-17.29-18.54-28.19-4.72,14.66-9.7,29.41-17.92,42.48-1.3,2-2.69,4.06-4.17,6a109.31,109.31,0,0,0-12.73,1.48q3.94,2.26,8.09,4.16c-7.17,7.91-16,14.31-26.1,17.61l8.61-.16-11.86,10.54a72.38,72.38,0,0,0,15-4.45,26.1,26.1,0,0,1-6.21,9.62,39.25,39.25,0,0,0,26.8-6.11,149.33,149.33,0,0,1-38.78,27.36l-7.3.08a29.74,29.74,0,0,0,2.49,2.17,151.89,151.89,0,0,1-52.67,13.1c-14.37-9.76-26.06-23.81-37.13-37.42-7.25-8.92-15-17.29-18.54-28.19-4.72,14.66-9.7,29.42-17.92,42.48S173,776.57,158.2,781.38l8.61-.16L155,791.77a72.59,72.59,0,0,0,15-4.46,26.1,26.1,0,0,1-6.21,9.62,39.25,39.25,0,0,0,26.8-6.11,152.17,152.17,0,0,1-98.34,42.83l29.28,2a150.44,150.44,0,0,0-24.68,11.24l37.52-4.63L124,852.38a68.73,68.73,0,0,0,28.65-2.53,7.22,7.22,0,0,0-4.56,6.36c8.47,1.08,17.27,1.15,25.54-.73l-30.73,11c-15,5.37-30.09,10.77-45.91,12.55-12,1.34-24.39.59-36,4.09a188,188,0,0,0,41.55,7,71.93,71.93,0,0,0-22.92,7.35q20.33,1.31,40.72.82a26,26,0,0,1-9.48,10.19,77.78,77.78,0,0,0,32.41-8.19q-.45,4.1-.89,8.18c10.06.19,20.95-1.61,29-7.11A178.15,178.15,0,0,1,57.77,948.09c-9.51.32-19.11-.12-28.47,1.58a75.86,75.86,0,0,0,28.77,9.52L41.5,965.57a75.84,75.84,0,0,0,44.42,3.21l-8,8.61a44.91,44.91,0,0,0,38-7.89c-.55,2.39-1.11,4.77-1.66,7.16,17.62,1.47,34.15-7.66,49.4-16.49a103.64,103.64,0,0,1-13.57,10.52c-6.58,4.14-13.91,7-21.31,9.4a239.55,239.55,0,0,1-48,10.48c-16,1.8-32.15,2-48.26,2.17l-26.77.31c8.81,8.52,22.55,8.9,34.87,8.76A53.61,53.61,0,0,1,23,1009a127.22,127.22,0,0,0,48.4,2.16l-17.88,9.15a112.26,112.26,0,0,0,48.6-6,127.65,127.65,0,0,0-19.27,16,66.52,66.52,0,0,0,39.92-13l-9.94,16.28a141.23,141.23,0,0,0,59.49-15.77c-21.39,17.94-48.7,27.91-76.34,32.7s-55.89,4.72-84,4.64a74.62,74.62,0,0,0,26.73,9,326.49,326.49,0,0,1-38.24,9.73,197.86,197.86,0,0,0,44.41,3L27,1089.48c18,1.66,37.31,3.07,53.05-5.72a99.57,99.57,0,0,0-17.5,15.35c22.74,1.81,44.15-9.64,64-20.72a112.44,112.44,0,0,1-21.71,22.73,138.15,138.15,0,0,0,57.47-12.5c-20.64,18.94-49.67,26.45-77.79,28.19s-56.33-1.6-84.51-1.08a60.54,60.54,0,0,0,39.1,13.7l-24.73,8.13A110.68,110.68,0,0,0,73,1133.9a36,36,0,0,0-15.11,10.68,99.25,99.25,0,0,0,48.12-4.65l-9.19,12.72a85.76,85.76,0,0,0,15.36-.88,47.92,47.92,0,0,1-7.85,2.79C94.85,1157,84.94,1157,75.16,1157l-33.49-.13c8,6.61,18.36,9.49,28.41,12.2a41.78,41.78,0,0,1-15.7,3.42q12.92,1.93,26,2.58c-25.26,7.68-52.15,7.7-78.58,7.65a88.53,88.53,0,0,0,38.8,6.62l-22.83,8.43A155.72,155.72,0,0,0,56,1199.94l-13,10.12a82.4,82.4,0,0,0,38.66-9.25A24.44,24.44,0,0,1,68.42,1216a85.24,85.24,0,0,0,15.94-2.93l-14.47,24.66a149.86,149.86,0,0,1-31.82,4.57l29.1.07L58.57,1257,0,1474.6l92,139.31,6.29,158h4582ZM293.9,777.35q-6.82,2.39-13.38,5.43a78.18,78.18,0,0,1-13.39-7.24Zm-15.19,6.28q-4.56,2.18-8.95,4.66c-4.68-1.89-9.1-4.33-11.89-8.39A119.81,119.81,0,0,0,278.71,783.63ZM282.09,880l-1.53-1.48,2.63,1.09Zm10,106.62c-1.16-.8-2.31-1.61-3.44-2.44q2.74,1,5.54,1.82Zm1.45-25-1.27-.65c1-.65,2-1.32,2.9-2C294.66,959.83,294.12,960.72,293.58,961.61Zm-38.31-113c-3.48-2.42-7.11-5.4-7.81-9.55a75.94,75.94,0,0,0,41.23,1.56c-.4-.16-.8-.34-1.19-.51,1.77,0,3.55,0,5.32-.07a25.89,25.89,0,0,1-9.48,10.19A77.78,77.78,0,0,0,315.75,842q-.45,4.1-.89,8.19a62,62,0,0,0,18.46-2.26c1.09.5,2.2,1,3.31,1.43A175.87,175.87,0,0,1,305.25,870,138.1,138.1,0,0,1,255.27,848.57Zm50.43,67.66c10.61-3.07,20.76-8.76,30.4-14.34a104.5,104.5,0,0,1-13.57,10.52,76,76,0,0,1-11.35,5.75C309.34,917.55,307.52,916.9,305.7,916.23Zm20.93,55.82c-2.95-.47-5.89-1-8.81-1.7l-.53-.13a141.06,141.06,0,0,0,27.47-10.77A127.05,127.05,0,0,1,326.63,972.05Zm16-128.19c.41-.25.83-.51,1.23-.79l-.87.79Zm-27.28-35.63c-12.26,4.39-24.64,8.82-37.41,11.25-1.76-.43-3.52-.88-5.26-1.39-12.63-3.66-24.81-9.65-34-18.93a235.88,235.88,0,0,0,25.5-.81L245,790.08l29.75,0c-1.51-.52-3-1.07-4.54-1.67L306.74,784l-10.3,10.15a68.57,68.57,0,0,0,28.65-2.54,7.22,7.22,0,0,0-4.56,6.36,74,74,0,0,0,25.54-.72ZM420.92,731.8l-1,1.08-2.51-1.09Zm8.34,8.77a60.57,60.57,0,0,0,36.52-12.43q-1.12,4.85-2.24,9.69c23.81,2,46.17-10.37,66.79-22.3C524.07,721,519,725.33,512,729.76c-8.89,5.59-18.8,9.41-28.81,12.7a323.3,323.3,0,0,1-51.58,12.36,69.13,69.13,0,0,1-20.51-14Q420.17,741.08,429.26,740.57ZM475,792.67l-9.7,15.88q-5.94-1.83-11.68-4.19A88.83,88.83,0,0,0,475,792.67Zm-27.92-4q-5.24,3.54-10.19,7.44-2.44-1.42-4.84-2.94A147.55,147.55,0,0,0,447.12,788.71Zm-8.32,48.86a31.44,31.44,0,0,1-8.09-9.19,57.85,57.85,0,0,0,22.63,6.3q-7.23,1.62-14.53,2.89Zm20.08,61.66a78.06,78.06,0,0,1-10.07-7.65l.75-.34A109,109,0,0,0,463.33,895Q461.14,897.16,458.88,899.23Zm-5.89-79q11,4.68,22.41,8.48-5.17,1.65-10.42,3.07Zm17.74,66.93-.06.07-.22-.16C470.54,887.11,470.64,887.13,470.73,887.17Zm21,25.22-1.52-.33a106.67,106.67,0,0,1-20.53-6.92,186.91,186.91,0,0,0,58.76-15.94A127.85,127.85,0,0,1,491.77,912.39Zm-14.68-93.54c7.19,1,14.92,2,22,.92q-7.16,3.16-14.54,5.84Q481,822.07,477.09,818.85Zm32.55-4.13a137,137,0,0,1-27.12-2A190.6,190.6,0,0,0,542,793.35,175.3,175.3,0,0,1,509.64,814.72ZM920.31,551.05l-1.39,1.24-3-1.34C917.35,551,918.83,551,920.31,551.05ZM851.65,795.81a42.41,42.41,0,0,0,4.91,2.69q-.88-2.28-1.75-4.56c1.42-.91,2.81-1.86,4.14-2.89-.72,3.09-1.44,6.19-2.15,9.28,13.6,1.14,26.7-2.61,39.25-8.24.91.34,1.81.68,2.72,1-.26-.62-.55-1.23-.82-1.84,2.56-1.19,5.1-2.46,7.61-3.77l2.86,1.63c-1.63,1.18-3.33,2.34-5.18,3.51-8.52,5.36-18,9-27.61,12.17a310,310,0,0,1-43.21,10.83c-.07-2.09-.11-4.19-.11-6.26,0-2.22,0-4.58,0-7A58.61,58.61,0,0,0,851.65,795.81Zm38.07-210.45c7.13,2.79,14.56,5.52,22.12,6.2a198,198,0,0,1-20,9.36,103.73,103.73,0,0,1-22.6-12.58,89.05,89.05,0,0,0,31.91,5.16Zm-5.16,120.27q1.53-.57,3-1.2c2.13.38,4.27.72,6.42,1-.22,2-.44,4-.65,6A47.14,47.14,0,0,1,884.56,705.63Zm28.56,11.84a66.82,66.82,0,0,1-18.62-5.53c12.7.08,26.28-2.31,36.38-9.23A219.83,219.83,0,0,1,913.12,717.47Zm.81,67.37-1.53,1.24c-.41-.55-.84-1.09-1.28-1.61l1-.54C912.7,784.25,913.31,784.54,913.93,784.84Zm-72.87,64.28q-2.4,1.62-4.72,3.33c-.09-.52-.18-1.08-.28-1.66C837.74,850.26,839.41,849.71,841.06,849.12Zm-32.59,8.55h21.06c-3.82,3.09-7.51,6.34-11,9.76-33,4.44-67.66-3.3-95.29-21.72a559.08,559.08,0,0,0,67.06,4.93l-12.22,6.25a144.69,144.69,0,0,0,30.15-.21A6.52,6.52,0,0,0,808.47,857.67Zm-21.31-11.18c4.71-.29,9.41-.77,14.07-1.46l-9.84,5Zm20.69-27.57c-10.34,1-20.71,1.51-31.1,1.8a132.66,132.66,0,0,1-44.87-19.64,110.87,110.87,0,0,0,48.45,2l-16.53-9.46a82.22,82.22,0,0,0,43.57,5.71C807.59,806.36,807.82,813.57,807.85,818.92ZM751.26,753.6c1.81-.94,3.61-1.92,5.36-3-1.33,1.32-2.71,2.6-4.11,3.85Zm20.53-84.69-1.17-.19c1-.4,1.89-.81,2.83-1.24C772.91,668,772.34,668.44,771.79,668.91Zm2.89,107.22h0a22.16,22.16,0,0,1-.57,4.66l-3.12-.65A46.38,46.38,0,0,0,774.68,776.13Zm32.48,16c0,.57,0,1.16.05,1.75-1.38-.46-2.74-1-4.1-1.46C804.46,792.4,805.81,792.3,807.16,792.18Zm-9.39-45a128,128,0,0,1-3.44,15.45c-1.06.09-2.13.16-3.19.23C793.59,757.75,795.73,752.42,797.77,747.2Zm-15.28,30.3,1.45.19-2.25.86C782,778.21,782.23,777.85,782.49,777.5Zm-39-164.12-4.56,7.45c-.87-1-1.76-2-2.66-3A49.48,49.48,0,0,0,743.5,613.38Zm-44.59-4,2.48,1-4.92,2.52-3.3-3.17C695.09,609.69,697,609.59,698.91,609.42Zm-40.65,6.71a78.25,78.25,0,0,0,49.35,7.53l-7.84-7.56a85.91,85.91,0,0,0,13.86-1.22c2.12.74,4.26,1.47,6.4,2.17-2.36,2-4.63,4-6.79,6.21a50.36,50.36,0,0,0,17.2-2.93c2.49.74,5,1.47,7.49,2.17l-2,3.22a107.16,107.16,0,0,0,45.09-12c-16.22,13.59-36.91,21.14-57.86,24.78a247.52,247.52,0,0,1-32.75,3.18q-8.3-4.47-16.22-9.56C668.05,628.21,661.7,622.56,658.26,616.13Zm88.09,43.6c-.79,1.11-1.63,2.19-2.47,3.26l-2.28-.63Q744,661.06,746.35,659.73Zm-15.58,46.64c-.5.68-1,1.37-1.49,2.06l-1.45-1.09C728.82,707,729.8,706.72,730.77,706.37Zm-35.41-1.74c1.19.31,2.39.6,3.59.88a26.86,26.86,0,0,0-4.65,4.39,75.41,75.41,0,0,0,27.61-1c2.26.16,4.52.26,6.78.32L723.8,716a64.87,64.87,0,0,0,11.65-.67,36.64,36.64,0,0,1-6,2.11c-6.44,1.69-13.16,1.85-19.83,1.84a114.1,114.1,0,0,1-21.93-13.46C690.3,705.54,692.84,705.15,695.36,704.63ZM711,755.85c-.81-.51-1.62-1-2.42-1.54,1.29-.56,2.55-1.16,3.8-1.81A17.77,17.77,0,0,1,711,755.85Zm15.95.93a9.85,9.85,0,0,1-2.76,6.17A99.09,99.09,0,0,0,744,757q2.67.15,5.34.21A116.23,116.23,0,0,1,733.88,768q-7.77-3.45-15.18-7.59A63.82,63.82,0,0,0,726.91,756.78ZM833.1,896c-34.08,5.9-68.86,6.11-103.48,6-3.25-1.47-6.67-3.2-8.3-6.33a128.54,128.54,0,0,0,45.85,3.39q-8.92-6.85-17.86-13.7a176,176,0,0,0,59.91,12.45l-18.94-18.89c7.78.24,15.67.47,23.22-1.36,5.91-1.43,11.66-4.3,15.72-8.68a86.2,86.2,0,0,0,38.61-16L854.94,874a183.06,183.06,0,0,0,77.12-20.44C904.33,876.82,868.94,889.75,833.1,896Zm72.48-242.61a76.44,76.44,0,0,1-23-10.24,313.71,313.71,0,0,0,38.62,2.78l-1-.85a79.8,79.8,0,0,0,13.56-1.8Zm10.15-63.94a69.63,69.63,0,0,1-8.13-5.58,32.72,32.72,0,0,0,20.09-3.31c-12.19.45-24.51.08-36.39-2.66s-23.36-8-32.21-16.25a83.76,83.76,0,0,0,27.55,5l-10.35-7.73A99.32,99.32,0,0,0,906,564.08a49.93,49.93,0,0,1-13.31-11.15,122.71,122.71,0,0,0,22.44,2.69l-5.64,5A94.58,94.58,0,0,0,929,554.87a34,34,0,0,1-8,12.47,50.86,50.86,0,0,0,34.74-7.93A192.31,192.31,0,0,1,915.73,589.41Zm146.06-40.27a72.65,72.65,0,0,0-10.83,3.37,25.37,25.37,0,0,1-8-7.25A152.25,152.25,0,0,0,1061.79,549.14Zm-35.53,9.31,38.56.07c-2.15-.75-4.34-1.53-6.49-2.4,9,.31,18,.38,27,.16a26.11,26.11,0,0,1-9.51,10.22,78.06,78.06,0,0,0,32.5-8.22q-.45,4.11-.89,8.22c10.08.18,21-1.62,29.06-7.14A178,178,0,0,1,1072,597.27c-3.29-.74-6.57-1.56-9.81-2.5C1045.76,590,1030,582.26,1018,570.22a304,304,0,0,0,33.06-1.05Zm6.87,70.43a75.16,75.16,0,0,0,17.62-1.92l-8,8.64a45,45,0,0,0,38.07-7.92c-.56,2.4-1.11,4.79-1.67,7.18,17.67,1.48,34.25-7.68,49.54-16.53a104.24,104.24,0,0,1-13.61,10.55c-6.6,4.15-13.95,7-21.36,9.42a238.88,238.88,0,0,1-33.35,8.36,175.81,175.81,0,0,1-20.81-12.38A37.94,37.94,0,0,1,1033.13,628.88Zm52.74,49.67-2.91,4.76-3-2.86q2.17-1.19,4.25-2.53Zm-10.95,93.5a95.45,95.45,0,0,1-9.34-7.7,143.07,143.07,0,0,0,18.83,5.42C1081.28,770.63,1078.11,771.39,1074.92,772.05Zm25.83-8-5.76-4.3q4.52,1.51,9.11,2.78C1103,763.05,1101.88,763.56,1100.75,764.05Zm-29.17-57.36q-6.51-3.63-12.79-7.65c-5.92-3.81-12-9.22-15.3-15.38,2,1.06,4.15,2,6.29,2.88-.71.68-1.41,1.37-2.1,2.06a65.3,65.3,0,0,0,6.85-.32,75,75,0,0,0,36.28,2.59l-.14-.13a142.79,142.79,0,0,0,19.21-3.91c2.74.85,5.5,1.66,8.27,2.45A170.92,170.92,0,0,1,1071.58,706.69Zm52.17,43.52c-.2-.24-.42-.47-.63-.72l1.2.25Zm-3.15-62.33q-1.5-1.73-3-3.4a140.86,140.86,0,0,0,19.84-8.44A125.49,125.49,0,0,1,1120.6,687.88ZM1325.89,593c-1.55.79-3.11,1.57-4.67,2.32l-5.41-2.39C1319.11,593.05,1322.51,593.12,1325.89,593Zm-2,49.71a10.72,10.72,0,0,0-4.45,3.25c-.84-.45-1.68-.9-2.51-1.37C1319.27,644,1321.59,643.42,1323.89,642.71Zm-10.79-43.64q-8.43,3.69-17.16,6.7a66,66,0,0,1-10.77-10.23A163,163,0,0,0,1313.1,599.07Zm-26.92,9.84q-5.65,1.68-11.38,3.07l-11.39-8.5A131.69,131.69,0,0,0,1286.18,608.91Zm.39,31.61-1,1-4.34-3.1Q1283.85,639.51,1286.57,640.52Zm-10-19.36c-2.66.93-5.29,1.92-7.91,3a96.32,96.32,0,0,1-9.29-4.11ZM1240.66,607a111,111,0,0,0,28.46,6.25q-8.16,1.77-16.43,2.94A77.34,77.34,0,0,1,1240.66,607Zm51.06,155.7c-5.14-1.83-10.19-3.88-15.12-6.09-2.45-1.1-5-2.39-6.27-4.75a95.06,95.06,0,0,0,34,2.52l-13.24-10.16a129.36,129.36,0,0,0,21.8,6.56Q1302.59,757.26,1291.72,762.74Zm-18-46.57,1.21,0c-.1.19-.21.38-.32.57Zm19.86,9.63a116.5,116.5,0,0,0,16.11-6.62c-.39,3.57-.77,7.15-1.16,10.72A104.29,104.29,0,0,1,1293.61,725.8Zm31.29,17.1-3.42-3.41c2.68.08,5.38.15,8.07.08Q1327.24,741.27,1324.9,742.9Zm-6.75-11.56c3.06-.22,6.11-.58,9.12-1.09q-2.26.78-4.57,1.45C1321.18,731.61,1319.67,731.49,1318.15,731.34Zm16.94,83.36c-.95,0-1.89,0-2.84,0,2.8-1.58,5.58-3.18,8.33-4.77C1338.67,811.63,1336.87,813.2,1335.09,814.7Zm-23.6-147.59a140,140,0,0,1-57.43-24.71,117.77,117.77,0,0,0,42.21,6.82l-2.66-1.89a104.18,104.18,0,0,0,14-1,50.56,50.56,0,0,0,11.27.36,10.61,10.61,0,0,0-1.91,5.66c12.51,1.6,25.51,1.73,37.76-.9l.19.07Zm191.26-146.83a49.69,49.69,0,0,1-6.16,9.19,147.27,147.27,0,0,1-11.82-9Q1493.77,520.49,1502.75,520.28Zm-15.07,17.49c-.72.52-1.46,1-2.21,1.5a24.85,24.85,0,0,1-2.07-2.6C1484.82,537.05,1486.25,537.42,1487.68,537.77Zm-19.24-33.24-.55.09-.12-.13Zm-14.18,61.33a356.42,356.42,0,0,0,38.66-1.23l-29.05-12.54,45.1.09c-8.28-2.9-17-6.15-23-12.33q4.17-.17,8.33-.57a183.1,183.1,0,0,0,28,3.56,108.13,108.13,0,0,1-13.1-5.77,149.17,149.17,0,0,0,37.69-12.94l-1.71,15.79c19.39.36,40.38-3.11,55.87-13.72a340.56,340.56,0,0,1-104,65.54C1481.11,586.09,1466.07,577.77,1454.26,565.86ZM1516,798.22c-2.11-1.7-4.16-3.47-6.14-5.33q5.46,2,11.06,3.59Q1518.48,797.37,1516,798.22Zm44-138.38a140.1,140.1,0,0,1-19.11,9.93q-5.39-1.54-10.67-3.36c19.5-6.07,38.17-16.57,55.94-26.86C1577.25,647.33,1570.05,653.52,1560,659.84Zm37.11,95.3-2.55-.53c2.78-1.33,5.56-2.69,8.29-4.12C1601,752.08,1599.05,753.62,1597.12,755.14Zm254.67-142c-1,.21-2,.43-3,.63l-3.69-2.76C1847.32,611.75,1849.55,612.45,1851.79,613.14Zm-17.17-108.65L1830,500a80.64,80.64,0,0,0,15.66-3.9c.85.3,1.69.58,2.54.86A59.45,59.45,0,0,1,1834.62,504.49Zm6.32-43.15q-4.34-1.23-8.61-2.61a82.36,82.36,0,0,0,26.31-8.75A78.28,78.28,0,0,1,1840.94,461.34Zm-9.52-79.29a53.35,53.35,0,0,0,21.18,1.77,104.33,104.33,0,0,1-9.16,6.75,123.55,123.55,0,0,1-12.46-8.41Zm2.77,13.89a105.69,105.69,0,0,1-19.42,7.7q-9.82-4.68-19.13-10.31A212.55,212.55,0,0,0,1834.19,395.94Zm-86.53,10.11a145.2,145.2,0,0,0,36.26,6.82,43.22,43.22,0,0,0,6.84,1.4l-9.84,3.89a43.9,43.9,0,0,0,26.39,2l-4.73,5.25a26.11,26.11,0,0,0,22.56-4.81l-1,4.37c10.47.9,20.29-4.68,29.35-10.06a62,62,0,0,1-8.06,6.42,56.66,56.66,0,0,1-12.66,5.73,139.15,139.15,0,0,1-28.49,6.39,250.71,250.71,0,0,1-25.56,1.29q-8.19-4.83-16-10.24C1756,419.79,1749,414.05,1747.66,406.05Zm81.55,43.62c-1.33,2.22-2.65,4.45-4,6.67q-2.35-.82-4.68-1.7A39,39,0,0,0,1829.21,449.67Zm-12.27-1.78c-1.59,1.1-3.13,2.28-4.63,3.51-1-.42-2-.82-3-1.25A65,65,0,0,0,1816.94,447.89Zm-48.41,50a111.06,111.06,0,0,0,43,12.1c-1.69.18-3.38.34-5.07.45a269.27,269.27,0,0,1-28.41-.19A52.62,52.62,0,0,1,1768.53,497.87Zm26.64,25.32-1.08-.68c1.87-.48,3.71-1,5.53-1.67A20.6,20.6,0,0,0,1795.17,523.19Zm23.06,10.25a36.22,36.22,0,0,1-4,.83c-3.79-2-7.56-4.16-11.28-6.35a57.36,57.36,0,0,0,16.27-3.4l-5.46,7.76a49.83,49.83,0,0,0,9.13-.54A28.4,28.4,0,0,1,1818.23,533.44Zm3.66-41.21c2.07-1.06,4.12-2.18,6.14-3.31l1.54.61a69.4,69.4,0,0,1-4.75,5.52Zm7.26,145.44-.54.32-1.07-.64C1828.07,637.46,1828.61,637.58,1829.15,637.67Zm28.57,60.47c-3.28.57-6.57,1-9.87,1.46q-10.68-6.39-20.71-13.77a226,226,0,0,0,40.44,10.34C1864.3,696.9,1861,697.57,1857.72,698.14Zm44-40.61c-.25,1.68-.51,3.36-.76,5l-3.39-.56A57.57,57.57,0,0,0,1901.77,657.53Zm-30.27-98.61-.3-.1.56-1.44C1871.68,557.9,1871.59,558.41,1871.5,558.92ZM1900.18,686c-2.18.88-4.37,1.71-6.56,2.51l-14.36-10.24C1886.13,680.94,1893.11,683.61,1900.18,686Zm-.53,90.48q-7.38-3.42-14.44-7.49a67.75,67.75,0,0,0,6.78-3.68c3.86.55,7.73,1,11.61,1.23Q1901.62,771.49,1899.65,776.46ZM1947.85,365q-2.71,2.09-5.46,4a65.11,65.11,0,0,0-5.13-4.84A55.27,55.27,0,0,0,1947.85,365Zm-5.66,73.16a82,82,0,0,1-10.8-6.1c1-.16,1.95-.34,2.93-.54a69,69,0,0,0,8.92,1.67A19.1,19.1,0,0,0,1942.19,438.18Zm2.41,15.91-.89.49c-.55-.37-1.11-.73-1.66-1.11C1942.9,453.7,1943.75,453.9,1944.6,454.09Zm17.09,185.46c-5.81,7.78-10.5,14-17,20.29a83.31,83.31,0,0,1-7.17,6.16q-5.14-.21-10.28-.55C1939.19,659.27,1950.71,649.32,1961.69,639.55ZM1945.2,428.11l.56-.23.59.23c-.17.15-.32.32-.48.49Zm-22.26-63.05a173.25,173.25,0,0,0,16.31,6.16,159.46,159.46,0,0,1-16.44,9.75c-2.06-1.17-4.1-2.4-6.09-3.71a21.08,21.08,0,0,1-7-7.23,33.57,33.57,0,0,0,21.68,3.39Zm9.58,423.2a206.53,206.53,0,0,1-25-8.36c17.8-2.58,35.34-9.31,51.8-19.89,1.73.08,3.47.12,5.2.13A174.35,174.35,0,0,1,1932.52,788.26Zm33.23-254.33c-1.18-.13-2.35-.28-3.52-.47a41.66,41.66,0,0,0,9.18-7.26C1969.56,528.83,1967.66,531.4,1965.75,533.93Zm-3.86-89.37a82.81,82.81,0,0,1-15.93-4.72c9.44,1.4,19.1,1.13,28.24-2.06Zm118.72-16c-1.33-1.34-2.65-2.69-4-4.08a50.77,50.77,0,0,1-5.25-6.45,45.4,45.4,0,0,0,10.65-3.86c-.18,1.66-.35,3.33-.53,5,6,.11,12.45-1,17.22-4.34A103.55,103.55,0,0,1,2080.61,428.54ZM2104.11,621c-.77-1-1.54-2.09-2.29-3.16,1,.55,2,1.08,3,1.6C2104.58,620,2104.35,620.49,2104.11,621Zm5.25,6.55a14.44,14.44,0,0,0,3.23-4.46l1,.42c0,.86,0,1.73,0,2.6.6-.62,1.16-1.26,1.69-1.92,1.26.49,2.51.94,3.77,1.37q-4.39,1.53-8.82,2.82c3.16.88,6.35,1.62,9.54,2.21.07,2.54.15,5.2.23,7.82A112,112,0,0,1,2109.36,627.56Zm38.36,4.65q-4.12,4.49-8.24,9c0-2.74,0-5.67-.06-8.7C2142.18,632.48,2145,632.41,2147.72,632.21Zm-8.28-16.36c0-.19,0-.39,0-.58.66.28,1.32.54,2,.8,0,.07,0,.14.07.2l-2.31,1.11,0-1.67Zm-2.89,87.7c-1.93-1.65-3.83-3.36-5.72-5.12a33.9,33.9,0,0,0,12,2Zm17.53,63.28q-2.7-2.54-5.31-5.32a72.8,72.8,0,0,0,12.25,3.82C2158.71,765.91,2156.4,766.4,2154.08,766.83Zm17.29-60.65c-4.84,2.75-9.18,7.43-12.51,13.42q-4.87-2.88-9.64-6.21A65.71,65.71,0,0,0,2171.37,706.18Zm-18.83-27.93c3.68,2.21,7.41,4.41,11.18,6.44-1.8,0-3.6-.06-5.41-.12Zm45.25,54.69a35.41,35.41,0,0,1-3.88,1.31,132.3,132.3,0,0,1-33.82-13.92c13.13,2.69,26.67.51,39.12-6.34q-3.87,8.25-7.75,16.48a47.68,47.68,0,0,0,13-1.14A33.1,33.1,0,0,1,2197.79,732.94Zm-8-50.06c-2.6-2.69-5.14-5.53-7.59-8.54,9.55,2.32,19.51.52,28.46-5a78.81,78.81,0,0,0,8.82,3.1A92,92,0,0,1,2189.75,682.88Zm35.06-13.79c-4.63,0-9.27,0-13.89,0a47.89,47.89,0,0,0,4.51-3.22c-20.19,1.16-40.59.21-60.27-6.75a106.71,106.71,0,0,1-15.41-6.9c-.05-.89-.09-1.8-.13-2.7,13.07,1.48,26.47,1.32,37.71-8.33a110,110,0,0,0-14.76,19.88c19.18,2.35,37.24-12.47,54-26.83a138.12,138.12,0,0,1-18.31,29.44c16.67,0,33.34-5.55,48.47-16.2A85.12,85.12,0,0,1,2224.81,669.09Zm-8.64-161c-2.42,1.18-4.84,2.3-7.28,3.33l-6.35-5.51A53.43,53.43,0,0,0,2216.17,508.07Zm-13.51-9.89a38.87,38.87,0,0,0,4.94-4.92l-.87,5.79C2205.36,498.8,2204,498.51,2202.66,498.18Zm25.8,3a83.44,83.44,0,0,1-7.59,4.53l-5.37-2.5A30.36,30.36,0,0,0,2228.46,501.19Zm-7.64-.84a50.78,50.78,0,0,0,7-3.53,51.65,51.65,0,0,0,5.34.84c-1.38,1.14-2.78,2.19-4.22,3.18l-1.12-.69C2225.52,500.31,2223.17,500.37,2220.82,500.35Zm-13.32,69.5a62.93,62.93,0,0,1-10.69-1.87,52.18,52.18,0,0,0,16.35-12.68h.12Q2210.38,562.57,2207.5,569.85Zm3.87,20.81-.39.18-.2-.12Zm-3-79a147.12,147.12,0,0,1-14.39,5.14,59,59,0,0,1-15.06-7.37A239.71,239.71,0,0,0,2208.35,511.63Zm-19.74,48c-1,1.24-2,2.49-3,3.78a35.07,35.07,0,0,1-7.08-5.39l.26-.06A90.21,90.21,0,0,0,2188.61,559.63Zm52.78-70.16-2.87,0h-.38c3.3-2.66,6.55-5.51,9.73-8.34C2245.58,484.23,2243.55,486.91,2241.39,489.47Zm-50-31.49c-1.91-.3-3.81-.65-5.69-1.1-9.31-2.2-18.31-6.4-25.25-13.08a64.3,64.3,0,0,0,21.59,4.06l-8.11-6.22a76.3,76.3,0,0,0,23.32,4.15,39.48,39.48,0,0,1-10.43-9,94.2,94.2,0,0,0,26.15,2.05l-8-3.64c6.89.26,14.56.24,19.62-4.52a108.8,108.8,0,0,1-67.26-17.63,21,21,0,0,1-7-7.24,33.58,33.58,0,0,0,21.68,3.4l-8.45-8.36a175.17,175.17,0,0,0,23.16,8.23,65.54,65.54,0,0,0-8.81-9.05l.4,0a53,53,0,0,0,10.13.74q11.45.6,22.89.19a32.24,32.24,0,0,1-8,13.2c9.47-.44,18.88-4.09,27.33-10.61l-.75,10.61c8.48.24,17.67-2.09,24.45-9.22C2236.7,430.12,2214.82,448.39,2191.42,458Zm169.65-140.87q-5.61,3.61-11.55,6.68a90.85,90.85,0,0,1-10-8.08A60.92,60.92,0,0,0,2361.07,317.11Zm-12,37.27a6.21,6.21,0,0,0-1.5.86l-.47-.3C2347.81,354.76,2348.47,354.58,2349.12,354.38ZM2323,334.23a19.08,19.08,0,0,1-4.49-10,44,44,0,0,0,19.64,4.77A140.25,140.25,0,0,1,2323,334.23Zm17.3,69.7c-.41-.38-.82-.78-1.23-1.18.48-.23,1-.44,1.42-.68C2340.45,402.69,2340.38,403.31,2340.32,403.93Zm4.24,66.07c-.58-.74-1.14-1.5-1.7-2.28l.68-.32c1,.51,1.93,1,2.9,1.45C2345.82,469.24,2345.19,469.63,2344.56,470Zm15.19,49c-.52-.51-1-1-1.54-1.54,1.05-.46,2.09-.93,3.13-1.42l1.53.6C2361.84,517.48,2360.8,518.27,2359.75,519Zm-6.87-104.5c-2.1-1.58-4.17-3.24-6.22-5,7.1-.64,14.16-2.58,19.73-6.49A156.84,156.84,0,0,1,2352.88,414.54Zm8.53-52.25c-1-.4-2-.83-2.95-1.27a54.45,54.45,0,0,0,10-1.32Zm14.86,356.92a57.85,57.85,0,0,1-4.88-5.2c.72-1.1,1.43-2.23,2.11-3.37q2.82.78,5.65,1.36Q2377.79,715.65,2376.27,719.21Zm-13.38-403.3a56.8,56.8,0,0,1-8.11-8c5.83,2.84,12.41,1.92,17.81-2.47-1.92-.3-3.85-.6-5.77-.92a35.43,35.43,0,0,0,17.18-6A136.45,136.45,0,0,1,2362.89,315.91Zm24.36,411.33a17,17,0,0,0,2.11-7.67l.06,8.83C2388.69,728,2388,727.64,2387.25,727.24Zm11.63,4.87a58.39,58.39,0,0,1-8-3,51,51,0,0,0,8.06-12.53C2398.7,719.56,2398.73,725.28,2398.88,732.11Zm30.45-.32c-.08-5.81-.18-11.66-.28-17.25l.42.23c0-3.48,0-6.95.05-10.43a53.25,53.25,0,0,0,8,20.3Q2433.47,728.35,2429.33,731.79Zm18.73-17.39c-.46-1.22-.92-2.45-1.37-3.67.79.87,1.61,1.71,2.45,2.54Zm14.44-266c-.14-.12-.28-.24-.41-.37l.54.19Zm9.82,7.76c-1.16-.77-2.3-1.56-3.42-2.39,1.37-.74,2.73-1.55,4.07-2.39l.66.17C2473.24,453.13,2472.81,454.68,2472.32,456.18Zm7.55,29.12c-1.86-1.25-3.68-2.54-5.47-3.9,2.27.84,4.58,1.59,6.9,2.27Zm-22.6-84.89c-4.21-2.78-8.53-6.73-10.87-11.22a52.1,52.1,0,0,0,33.62,5.26l-13.11-13A270.56,270.56,0,0,0,2498.32,393a148.71,148.71,0,0,1-13.38,22.16A167.08,167.08,0,0,1,2457.27,400.41Zm37.59,66.18c-1.16-.35-2.31-.73-3.45-1.12a47.67,47.67,0,0,0,9.44-7.52C2498.9,460.9,2496.89,463.78,2494.86,466.59Zm7.58-82.46c-3-.14-6.06-.2-9.09-.14-1.38-1.3-2.79-2.58-4.24-3.81a93,93,0,0,0,14.46,1.3C2503.2,382.37,2502.82,383.25,2502.44,384.13ZM2602,503.91c1-.42,2-.86,3-1.33,0,2.57,0,5.52.08,8.68-1.8-.88-3.59-1.81-5.36-2.81A49.1,49.1,0,0,0,2602,503.91Zm-2.49,4.4c-.65-.36-1.29-.75-1.93-1.13.24-.6.46-1.22.65-1.85l1.27-.44C2599.5,506,2599.51,507.17,2599.51,508.31Zm-1.11-50.46c-.45,4.94-1,9.85-1.75,14.7l-1.48-1C2596.31,467,2597.37,462.4,2598.4,457.85Zm-3.72,15.63,1.86-.22v0c-.66.24-1.33.46-2,.69C2594.59,473.82,2594.64,473.65,2594.68,473.48ZM2538,324a134.74,134.74,0,0,1-10.24-29.72,39,39,0,0,0,20.3-6.16,98.84,98.84,0,0,0-10.51,15.09c7.78.1,15.56-4.3,21.77-12.33l-5.42,15.39c11.28-.76,22.46-5.89,32.45-14.91-11.67,17-26.56,26.39-41.64,30.92C2542.5,322.93,2540.26,323.49,2538,324Zm18.41,35.21c-.69-1.29-1.38-2.58-2.06-3.87,2.38-2.14,4.72-4.38,7-6.61A115.28,115.28,0,0,1,2556.43,359.19Zm8.77,16.05q-1.86-3.33-3.71-6.69a55,55,0,0,0,19.41-10.17A58.42,58.42,0,0,1,2565.2,375.24Zm16.45,194.24c-.34-.46-.68-.94-1-1.42.54-.38,1.08-.78,1.6-1.2Zm23.73,3a117.14,117.14,0,0,1-11.29,4.39c-1.48.5-3,1-4.45,1.44-1.26-1.28-2.52-2.57-3.77-3.9l-.6-.65a56.18,56.18,0,0,0,20.14-4.74ZM2617.07,686c-.84-.72-1.67-1.45-2.5-2.19,3.52-1.29,7-2.72,10.38-4.31A79.71,79.71,0,0,1,2617.07,686Zm6.08-174.71c0-1.37,0-2.75,0-4.12a38.43,38.43,0,0,0,5.75-2.16l.47,1.08C2627.31,507.88,2625.25,509.62,2623.15,511.3Zm30.66,271.86-.63-.72c.45-1.16.89-2.31,1.33-3.46C2654.3,780.38,2654.06,781.77,2653.81,783.16Zm6.09-454.69-.46-.51,1.95.43Zm21.25-6a30.51,30.51,0,0,0,17.87,3.18c-4.77.85-9.58,1.49-14.42,1.89Zm14.71,27.72a11.92,11.92,0,0,0,2.84-1.75c1.49-.25,3-.55,4.46-.9l-7.34,8.15a40.5,40.5,0,0,0,35-7.47l-1.53,6.78c16.23,1.39,31.46-7.25,45.5-15.6a93.93,93.93,0,0,1-12.5,9.95c-6.05,3.92-12.81,6.59-19.62,8.89a215.87,215.87,0,0,1-39.14,9.26c-4.84-5.19-9.39-10.72-13.81-16.25A15.74,15.74,0,0,0,2695.86,350.23Zm22.22,40.4c-.44.3-.87.62-1.31.93-.14-.1-.27-.22-.41-.33C2716.94,391,2717.51,390.84,2718.08,390.63Zm-8.61,6.58c-.95.8-1.9,1.61-2.82,2.44l-5.54-2.46Zm-13.26,429.18,0-2q3.83-.61,7.6-1.47c.93,1.5,1.92,3,3,4.36Q2701.48,827,2696.21,826.39Zm22.37-3.12c-.52-1.37-1-2.74-1.54-4.1q2.28-.78,4.54-1.65c.92.74,1.85,1.46,2.81,2.16C2722.49,820.93,2720.54,822.12,2718.58,823.27ZM2735,482l-1.17-1.16,2.09.89Zm-4.86-18.11c-2.27-1.05-4.5-2.15-6.7-3.34,5.83-2.89,11.53-6.11,17.1-9.3A105.06,105.06,0,0,1,2730.17,463.88Zm26.86,9c-3.66-.78-7.28-1.74-10.86-2.85a124.59,124.59,0,0,0,27.33-9.14A83.68,83.68,0,0,1,2757,472.9Zm-28.92-51.57a26.75,26.75,0,0,0,3.06-7.75c-1.81,2.78-4.39,3.36-6.8,3.81l-9.68,1.83a64.24,64.24,0,0,1-19.43-13.44,214.12,214.12,0,0,0,23.49-.76l-2.88-1.28a60.14,60.14,0,0,0,21.23-10.35q-4.57,7.69-9.16,15.39a127.28,127.28,0,0,0,54.8-14.91C2767.1,407.33,2748,416,2728.11,421.33Zm86.37,195.48-.16-.08.16,0Zm0-19.49c-.08.92-.13,2.09-.16,3.47l-1.29-.57C2813.52,599.27,2814,598.31,2814.46,597.32Zm-3.75,6.83c1.19,0,2.37-.1,3.56-.17,0,.72,0,1.46,0,2.24-1.61,0-3.22-.12-4.83-.22C2809.88,605.39,2810.3,604.77,2810.71,604.15Zm-6.47.17h.65c0,.44,0,.87,0,1.31l-1-.11C2804,605.12,2804.13,604.72,2804.24,604.32Zm-1.64-41.15c-.15-.15-.29-.31-.43-.47.3-.77.6-1.55.89-2.32C2802.92,561.31,2802.76,562.24,2802.6,563.17Zm.47,44.73,1.85.19v.72Zm4.6.45c2.21.19,4.43.31,6.64.31,0,1.29,0,2.66.07,4.06-2.63-.92-5.22-2-7.76-3.13C2807,609.18,2807.33,608.77,2807.67,608.35Zm7.64,44.73c-1-.68-2-1.35-3-2.06a24.61,24.61,0,0,1-5.17-4.64c2.71.35,5.44.57,8.16.65C2815.32,649.26,2815.32,651.3,2815.31,653.08ZM2960.64,390a29,29,0,0,0-3.79,1.72c-1.76-.76-3.51-1.57-5.23-2.44C2954.59,389.62,2957.62,389.92,2960.64,390Zm-15.59,10.65-11.26-6.61a54.69,54.69,0,0,0,32.53,3.5,82.08,82.08,0,0,0,22.9,6c-6.44,1.84-12.72,5.84-18.47,11.78q4.7.6,9.4,1c-23.83,1.27-48.63-3.07-68.11-17A73.51,73.51,0,0,0,2945.05,400.67Zm-21.13,57.54a117.13,117.13,0,0,0,40.8,8.71q-6.45-6.6-12.9-13.21c5.3.17,10.68.33,15.82-.95s10.13-4.21,12.74-8.88a93.13,93.13,0,0,1-74.24-13.39,370.39,370.39,0,0,0,46.93,3.47L2942.8,425a83.25,83.25,0,0,0,34.77,2.7l-14.69-6.84a47.2,47.2,0,0,0,21.13-3.54l-1.52-.93a187.49,187.49,0,0,0,21.07.18c-1.72,6.67-4.4,12.38-7.64,16.32,9.06-.54,18-5.06,26.12-13.12l-.72,13.12a26.84,26.84,0,0,0,23.37-11.4c-15,27.62-33.23,48.53-52.79,61.17-27.17,5.67-55.91-1.11-81.3-12.81-2.24-1-4.62-2.25-5.75-4.47a85.2,85.2,0,0,0,31.23,2.37Zm75.8,74.62c0,.46-.11.91-.16,1.37l-1.58-.67.44-.58C2998.85,532.91,2999.29,532.88,2999.72,532.83Zm-28.19-40.17c-1.66.56-3.32,1-5,1.49-.81-.53-1.61-1.07-2.39-1.64A38.6,38.6,0,0,0,2971.53,492.66Zm-18.2,21.52L2941.74,523c-13.64-2.39-26.62-7.66-36.35-17.42a139.75,139.75,0,0,0,36.46,3.57A37.58,37.58,0,0,0,2953.33,514.18Zm-52.55,91.05q-1.52,1.34-3.12,2.55L2890,597A107.06,107.06,0,0,0,2900.78,605.23Zm-42.56,150.16a89.65,89.65,0,0,1-9.87-3.73c1.35-.08,2.7-.2,4-.35a99.64,99.64,0,0,0,11.71.88Q2861.19,753.85,2858.22,755.39Zm2.67-5.76a34,34,0,0,0,5.23-2c.54-.25,1.07-.54,1.6-.83,1.34.26,2.68.49,4,.71q-3.73,2.4-7.58,4.61Zm10.4,104.87q-3.37-1.62-6.61-3.51c2.4-.56,4.78-1.18,7.15-1.88l1.17.12C2872.44,851,2871.87,852.74,2871.29,854.5Zm5.58-2c-.51-1-1-2-1.44-3.07,1.93.19,3.86.35,5.79.5C2879.79,850.85,2878.34,851.7,2876.87,852.53Zm-1.49-57.72c-.69.45-1.39.87-2.1,1.29-1.17-.46-2.34-.94-3.5-1.43a189.06,189.06,0,0,0,18.11-9.81A96.34,96.34,0,0,1,2875.38,794.81Zm-1.73-57.42c-.44-.48-.86-1-1.28-1.47.88,0,1.77-.09,2.66-.17l1.73.35A14.89,14.89,0,0,1,2873.65,737.39Zm4.37-1.08q3.8.68,7.64,1.13-3.28,2.67-6.71,5.15c-1-.91-2-1.86-3-2.83A22.12,22.12,0,0,0,2878,736.31Zm-9.26-40a286,286,0,0,1-27.17,9,39.66,39.66,0,0,0,6.69-5.14,93.92,93.92,0,0,1-15,2.7q-3.73-2.19-7.36-4.57l0,0h25.17s-1-5.28-2.21-13.51q11.14,4.18,22.62,7.38a100.71,100.71,0,0,0-8-8.87,61.13,61.13,0,0,0,14.3-2.71,6.81,6.81,0,0,0-4.2,6,66.35,66.35,0,0,0,23.52-.69Zm-22.11-29.36,2.37.16c-.76.27-1.51.56-2.26.85C2846.72,667.6,2846.69,667.27,2846.65,666.93Zm-.48-5.14c-.67-7.66-1.13-15.85-1.13-23.87,0-.28,0-.58,0-.87,3.21,0,6.41-.22,9.6-.56a58.37,58.37,0,0,1-9.62-6.15v-.16a25,25,0,0,0,19.11-1.9c-6.39-.66-12.8-1.36-19.14-2.39-.08-9.88-.25-20.67-.43-30.61.14.08.28.16.43.23,0-3.48,0-7,.05-10.43a53.87,53.87,0,0,0,29.48,39.32q-6.16-16.47-12.32-32.93a70.72,70.72,0,0,0,30.61,19.66,48.81,48.81,0,0,1-10,4.66l7.92-.15-10.92,10a66,66,0,0,0,13.81-4.21,24.82,24.82,0,0,1-5.72,9.1,35.39,35.39,0,0,0,24.69-5.79A138.9,138.9,0,0,1,2846.17,661.79Zm63.66-90.68c1,.11,2.09.2,3.14.29a26.89,26.89,0,0,0,2.66,3.44Q2912.71,573,2909.83,571.11Zm30.84-6.5,29.49-1.29a51.16,51.16,0,0,1-15.39-7.28,103.22,103.22,0,0,0,38.08-3.12,9.47,9.47,0,0,0,4.72-2.37,54,54,0,0,1-17.22-5.27,20.58,20.58,0,0,0,6.61-2.09c3.18.08,6.36.22,9.54.19,6.52-.06,13.26-.94,18.83-4.38l-1.35-.29c8.54-4.92,16.71-14,24.47-23-3.74,6.47-6.75,11.61-10.94,16.86a70.24,70.24,0,0,1-17.17,15.06,118,118,0,0,1-38.66,16.78,156.46,156.46,0,0,1-28.67,3.2Q2941.81,566.14,2940.67,564.61Zm64.82,42.53L3004,612l-1.78-.43C3003.33,610.2,3004.42,608.72,3005.49,607.14Zm-16.64-4.68q-1.63,2.19-3.22,4.52l-2.62-.84A64.44,64.44,0,0,0,2988.85,602.46Zm-9.82,15-.56,1a17.8,17.8,0,0,1-1.4-1.18C2977.72,617.28,2978.37,617.36,2979,617.42Zm17.14,115.39q-4.85-2.71-9.5-5.75c2.25-1.85,4.49-3.87,6.71-6a52.58,52.58,0,0,0,8.51.3Q2999.16,727.34,2996.17,732.81Zm8-16.62-3-3,2.15-2.31c.88.36,1.76.7,2.64,1C3005.36,713.36,3004.77,714.79,3004.18,716.19Zm16.59,27.89q-6.41-2.34-12.62-5.18c10.08-3.12,19.94-9,29.19-17.39A99.94,99.94,0,0,1,3020.77,744.08Zm-20.91-90.79c-3.9-.76-7.77-1.65-11.59-2.79-11.63-3.46-22.85-9.12-31.33-17.9a211.5,211.5,0,0,0,23.48-.77L2962.78,624l12.59,0c-.7,1.31-1.38,2.63-2,4a29.26,29.26,0,0,0,14.76-4h2.1l-1.3-.47a43.35,43.35,0,0,0,7.33-5.49l2.09.14-1.59-.62h0c1.92-.15,3.83-.35,5.74-.62l-5,16.22c16.67-1.28,33.19-10,47.94-25.26C3032.33,629.78,3016.49,644.23,2999.86,653.29Zm211.73-88.8-.24,1.66-.6.85Zm-7.82,32-.33.9-.9,0Zm-1.9,5q-.93,2.31-1.94,4.58c-1.7-1.31-3.38-2.72-5-4.25.61-.29,1.22-.6,1.82-.92A41.18,41.18,0,0,0,3201.87,601.47ZM3106,321.67c10.67,6.9,22.33,7.77,33.23,2.5-1-.81-2-1.65-3-2.53a107.12,107.12,0,0,0,13.44,1.71,43.69,43.69,0,0,0-15.45,5.84,264.91,264.91,0,0,0,27.46.65,19.72,19.72,0,0,1-6.39,8.09,46.34,46.34,0,0,0,21.86-6.5l-.6,6.5c6.79.15,14.13-1.28,19.56-5.65-15.09,16.42-34,28.05-54.1,33.56-10.57-6.63-20.64-16.34-29.72-28.88C3109.46,333.09,3106.54,328.31,3106,321.67ZM3190.86,379a72,72,0,0,1-9.16,8.35,59.92,59.92,0,0,1-14.37,7.46c-2.42.94-4.87,1.81-7.33,2.61q-2.13-4.45-4.4-8.59a29.11,29.11,0,0,0,3.06-2.43c-.38,1.9-.75,3.79-1.13,5.69C3169.42,393.24,3180.57,386,3190.86,379Zm-38.48,20.66q-5.36,1.42-10.79,2.41l-4.47-8.56a25.54,25.54,0,0,0,6.36,0Q3147.89,396.73,3152.38,399.64Zm-15.82-11.47-1.34,1.7-1.59-3.05,1.09-.17C3135.33,387.15,3135.94,387.67,3136.56,388.17Zm-7.94,31.28-1.64,1-.53-.64C3127.18,419.69,3127.9,419.57,3128.62,419.45ZM3114.7,398a38.35,38.35,0,0,0,7.79,6.28c-1.84.11-3.68.19-5.52.26A49.87,49.87,0,0,1,3114.7,398Zm9,567.12a25.84,25.84,0,0,1-4.49-6,51.45,51.45,0,0,0,7.78,3.36c.35.44.71.87,1.06,1.3C3126.62,964.23,3125.17,964.68,3123.72,965.1Zm13.74-461.75c-1.86.13-3.72.22-5.58.29-1.18-1.9-2.34-3.87-3.45-5.94a61.8,61.8,0,0,0,9.35,5.62Zm-5.17-76.77a66.45,66.45,0,0,0,17.06-4.63,91.37,91.37,0,0,0-11.25,10.69Q3135.16,429.75,3132.29,426.58Zm31-2.3-6.7,12.92a84.38,84.38,0,0,0,40.13-12.52c-11.53,11.38-25.61,18.71-40.31,23.14A127.6,127.6,0,0,1,3140,434.48,41.07,41.07,0,0,0,3163.27,424.28Zm27.79,170.49c0,.23,0,.46,0,.7l-.39-.11Zm-19-100.39q-1.67-2.61-3.23-5.47a82.29,82.29,0,0,0,13.69-4.39q1.7.24,3.39.39A64.43,64.43,0,0,1,3172,494.38Zm2.93,73.71a107.33,107.33,0,0,1-12.38,12.22c-1.3-1.06-2.58-2.16-3.86-3.32A82.74,82.74,0,0,0,3175,568.09Zm-14.66-69c-2.46.78-4.94,1.44-7.45,2q-3.06-4.56-6.13-9.1A69,69,0,0,0,3160.3,499.12ZM3157.52,671c-.8.39-1.61.76-2.41,1.14-.57-.71-1.14-1.44-1.7-2.18C3154.78,670.35,3156.15,670.68,3157.52,671Zm-7.25-146.58c-.59-.46-1.18-.93-1.77-1.42q1.74-.6,3.45-1.32Zm2,204.72a40.35,40.35,0,0,0,27.33,4Q3174.3,725.07,3169,717a68.91,68.91,0,0,0,24.82,13l-18.44,11.47c-2.32,1.44-4.65,2.89-7,4.31-3.75-2.73-7.44-5.73-11.06-9A14.55,14.55,0,0,1,3152.29,729.16Zm30.66,203c-.9,1-1.81,1.92-2.74,2.83-1.11-1.12-2.21-2.24-3.31-3.39,7-5.42,13.81-12.11,20.38-18.71C3192.4,920.25,3188.45,926.13,3183,932.13Zm6.41-104a50.37,50.37,0,0,1-26.51-16,68,68,0,0,0,12.88-8.87h.06q-.47,7.47-.94,14.93c10.62.34,22.13-3,30.61-13A253.56,253.56,0,0,1,3189.36,828.14Zm12-103c-.32-.64-.64-1.28-1-1.92a38.59,38.59,0,0,0,7.39-2.07Zm-6.95-81.31c-12.87-3.74-25.27-12.11-35.86-26.76,9.38,5,19.33,5.82,28.88,2.36l-9.85-11.21c5.51,4.7,11.49,7.26,17.49,7.66-.26.49-.52,1-.79,1.47,1.17-.46,2.34-.93,3.49-1.43a25.48,25.48,0,0,0,7.39-1.44,28.69,28.69,0,0,0,14.69-6.22c0,1.19,0,2.43.08,3.7A198.76,198.76,0,0,1,3194.44,643.87Zm99-248.95c8.47,3.9,17.43,7.69,26.47,6.4a63.39,63.39,0,0,1-10.55-8,24.51,24.51,0,0,0,7,.26l14.32,1.93a112.23,112.23,0,0,0-19.88,18l30.23-7.42q-3.4,6.66-6.8,13.32c-21,.89-42.24-6.73-59.08-21.35a68.44,68.44,0,0,0,28.4,5.4Zm20.5,55.93a53.67,53.67,0,0,0,21.66,2.7c-8,5.24-16.19,9.64-24.59,11.51-1.48.33-3,.58-4.47.79a63.8,63.8,0,0,1-19.45-10.43,237.47,237.47,0,0,0,34.38,2.92Zm34.19,52.09-.51,9.25A26.88,26.88,0,0,0,3371,500.78a211.27,211.27,0,0,1-21.17,32,175.53,175.53,0,0,1-22.29,1.74c-14.79,0-30.47-3.92-41-16a89.62,89.62,0,0,0,28.8,2.92c2.47-.16,5.14-.51,7-2.44a39.32,39.32,0,0,0-10-6.12c8.45,2.08,17.6,4.07,25.44-.13a37.5,37.5,0,0,1-5.13-2.94,40.38,40.38,0,0,0,5.21-2.55A28.13,28.13,0,0,0,3348.13,502.94Zm-.52-3.17.73-.7,0,.55ZM3364.75,595c-2.68,4.64-5,8.6-7.64,12.41l-2.87-.86C3357.82,602.91,3361.32,598.94,3364.75,595Zm-58-26.68-1,.46-.78-.37Zm-6.43,41.2c.59-.23,1.17-.46,1.74-.73-.36.79-.73,1.59-1.1,2.38C3300.77,610.62,3300.56,610.07,3300.34,609.52Zm.19,2.62c-.27.57-.54,1.14-.8,1.72l-3.87-2.9,1.23-.32C3298.23,611.17,3299.37,611.67,3300.53,612.14Zm7.56-126.24-6.56-5.93c1.47.44,2.95.83,4.43,1.17,2.42.91,4.88,1.7,7.36,2.36A35.94,35.94,0,0,0,3308.09,485.9Zm21.77,10c-.43,1.66-.92,3.27-1.46,4.8a90.59,90.59,0,0,1-22.38-5.18A187.8,187.8,0,0,0,3329.86,495.86ZM3306.2,487a47.32,47.32,0,0,0-7.22,5.64q-4.38-1.92-8.62-4.16c-1.64-.87-3.39-1.89-4.21-3.76A54.81,54.81,0,0,0,3306.2,487Zm-8.06,130.23c-.82,1.78-1.65,3.55-2.47,5.33,10.46,5.28,22.11.47,30.6-12.65q-.67,5.74-1.34,11.48c7.81,1.3,15.36-2.56,22.62-8.64,1.9,0,3.79-.07,5.68-.23a71.28,71.28,0,0,1-16.59,14.36,117.83,117.83,0,0,1-38.48,16.74,88.17,88.17,0,0,1-21.71-25.58A144.28,144.28,0,0,0,3298.14,617.26Zm17,64.45-.17.23-.07-.07Zm-.75,123.4A184.65,184.65,0,0,0,3330,789.72c1-.14,2-.31,3.06-.54a192.2,192.2,0,0,1-10.92,23.55C3319.51,810.3,3316.94,807.75,3314.4,805.11Zm8,97.53-.3-.41,1.13-.3C3323,902.18,3322.68,902.4,3322.4,902.64Zm19-74.12q-6-4.21-11.79-9.09c11.74-2.6,23.27-8.9,34-18.67A95.37,95.37,0,0,1,3341.44,828.52Zm-7.54-43.11.92-1c-.19.54-.39,1.06-.59,1.59ZM3322,734.7a144.57,144.57,0,0,1-28-26.16c-3.5-4.22-7.12-9.37-8.11-16.39.58,0,1.17-.06,1.75-.1a50.54,50.54,0,0,0,17.23,5.41q-2.72,4.72-5.26,9.82c8.5.13,17-3.93,24.55-11.53a53.38,53.38,0,0,0,5.13-1.84c-.7-.49-1.39-1-2.08-1.49a67.83,67.83,0,0,0,4.58-6l-8,26.07c16.67-1.29,33.18-10,47.94-25.26C3357.53,710.86,3340.12,725.86,3322,734.7ZM3348,445c-3.43,2.45-6.88,4.9-10.34,7.22l-9-4.81a30.67,30.67,0,0,0,15.48-3l-1.45-1c-17.87,1.35-36.62-2.18-51.26-14.16a47.34,47.34,0,0,0,24.17,1.17l-8.25-5.56a35.33,35.33,0,0,0,27,2.06,64.89,64.89,0,0,1-14-6.05c4.3.52,8.8,1,13,.21l-.65,1.27c7.73,1.91,15.66.52,23.09-4.05-2.1,1.58-3.61,5.78-3.67,10.18,6.82,1.74,13.92,1.85,20.58-1.16Zm38,555.7c-1-.35-1.93-.72-2.89-1.11,1.8-7.73,3.45-15.64,5-23.51h.76Q3387.77,988.47,3386,1000.66Zm138.79-327c0,.67-.09,1.51-.11,2.49l-.92-.12C3524.16,675.29,3524.5,674.5,3524.83,673.7Zm-3,6.22c1,.18,1.92.34,2.88.48,0,1.16,0,2.4,0,3.72-1.21-1-2.4-2-3.59-3.11C3521.37,680.65,3521.59,680.29,3521.81,679.92Zm-5.33-37.25a155.43,155.43,0,0,1-6.92,29.45c-1.41-.57-2.8-1.2-4.19-1.87C3510,661.8,3513.36,652.07,3516.48,642.67Zm.91,51.91q-2.38,1.44-4.79,2.82l-5-5.68c.39-.23.77-.47,1.15-.71A29.48,29.48,0,0,0,3517.39,694.58Zm-10.27,5.85q-6.51,3.5-13.21,6.53a85.87,85.87,0,0,1-9-10.59A35.25,35.25,0,0,0,3507.12,700.43ZM3491.5,560.84c.69-.33,1.37-.67,2.05-1l.46.17c-.66.68-1.32,1.36-2,2C3491.83,561.62,3491.67,561.23,3491.5,560.84Zm-15.56-197.32-6.94,8.06a39.81,39.81,0,0,0,19.32-2,5.73,5.73,0,0,0-3.07,5.05,42.54,42.54,0,0,0,17.23-.58l-20.74,8.76c-3.41,1.44-6.83,2.88-10.28,4.21a70.57,70.57,0,0,1-4.55-6.26c5.57,3.51,11.86,2.37,17-3.06-10.55-2.09-21.16-4.44-31.34-10.3L3452,367Zm-18.81,28.07q-1.58.36-3.18.66c-.54-.62-1.08-1.26-1.61-1.9C3453.93,390.85,3455.53,391.25,3457.13,391.59Zm-15,89.37c-.43-1.22-.84-2.45-1.18-3.72a43,43,0,0,0,3.62,3.34Zm11.72,19.47-.09-.11.43-.18C3454.12,500.23,3454,500.33,3453.9,500.43Zm2.33,79.21c-.5-.88-1-1.77-1.5-2.68,1.11.8,2.23,1.55,3.36,2.27Zm-17.66-163.42c-2.81-3.88-5.73-8.65-6.3-15.3a37.63,37.63,0,0,0,10.09,4.65c-1.11.56-2.2,1.16-3.27,1.81a264.91,264.91,0,0,0,27.46.65,19.72,19.72,0,0,1-6.39,8.09,46.34,46.34,0,0,0,21.86-6.5l-.6,6.5c6.79.15,14.13-1.28,19.56-5.65a117.69,117.69,0,0,1-40.72,28.92A117.86,117.86,0,0,1,3438.57,416.22Zm49.85,47.88c-.59.47-1.19.95-1.83,1.42a43.11,43.11,0,0,1-4.5,2.91q-.6-1.12-1.23-2.22c1.58-.76,3.14-1.6,4.68-2.49C3486.5,463.89,3487.46,464,3488.42,464.1Zm-27,2.18c.5.41,1,.83,1.5,1.23l-.54,2.75a25.92,25.92,0,0,0,4.13.07q2.11,1.62,4.26,3.17c-2,.74-3.94,1.44-5.92,2.08l-4.47-8.54C3460.79,466.79,3461.13,466.54,3461.47,466.28Zm-1,41.58a42.79,42.79,0,0,0,7.71-5.39q-2.27,4.33-4.52,8.69Q3462,509.55,3460.46,507.86Zm41.13-5a90.93,90.93,0,0,1-27,18.2q-3.6-2.91-7.11-6.2A85,85,0,0,0,3501.59,502.87Zm-27,70.8-1.61-2.4c.94.63,1.9,1.23,2.85,1.8C3475.46,573.27,3475.05,573.48,3474.63,573.67Zm2.39,74.5c.95-.61,1.9-1.23,2.83-1.89-.74.86-1.49,1.7-2.26,2.53Zm8.18,342.13-2.26-2.84c2.14.43,4.27.76,6.42,1C3488,989.11,3486.59,989.72,3485.2,990.3Zm-6.14-113.79a67,67,0,0,0,28.21,6.21q-7.72,5.88-15.8,11.14A68.52,68.52,0,0,1,3479.06,876.51Zm25.74,103.76c-1.25-1-2.49-2-3.73-3.08l9.48-.8C3508.67,977.76,3506.75,979,3504.8,980.27Zm5.08-115.14a63.29,63.29,0,0,0,13.51,4.36q-2.29,2-4.63,4A47.37,47.37,0,0,0,3509.88,865.13Zm14.5,99.45c-.45-.54-.9-1.1-1.34-1.67l1-.67c.79.13,1.58.25,2.37.34Zm10-105.35c-.8-.91-1.58-1.86-2.36-2.86,1.2-.51,2.37-1.07,3.52-1.67a18.61,18.61,0,0,0,4-.69C3537.85,855.78,3536.12,857.51,3534.38,859.23Zm-13-83c-11.05-1.09-22-6.53-31.94-16a92.19,92.19,0,0,0,25.38-5.34h0c-4,1.83-6.89,6.59-7,11.6,13.17,2,26.86,2.1,39.72-1.33Zm25.49-102.82c0-.47,0-.94,0-1.41l.31.19c0-2.92,0-5.84,0-8.76a48.91,48.91,0,0,0,1.89,8.1C3548.38,672.14,3547.64,672.77,3546.89,673.39Zm87.39-237q-2.9,2.19-5.88,4.18l-6.76-3.53A50,50,0,0,0,3634.28,436.4Zm-8,5.58a113.82,113.82,0,0,1-14.7,7.89A47.56,47.56,0,0,1,3601,439.12,93.88,93.88,0,0,0,3626.24,442Zm-55.17,6.24a64.84,64.84,0,0,0,24.52,5.28l-9.21-8.1a77.05,77.05,0,0,0,23.33,5.27,104.59,104.59,0,0,1-26.74,7.38A54.59,54.59,0,0,1,3571.07,448.22Zm9.73,28.61h.84a69.31,69.31,0,0,0,7.82,2.56l-2,2.58Q3584,479.57,3580.8,476.83Zm13.89,58.78c-.92-.64-1.82-1.3-2.71-2q1.61.25,3.21.48C3595,534.6,3594.86,535.1,3594.69,535.61ZM3588,482.32a25.91,25.91,0,0,0,15.62-.76c1.64.08,3.28.11,4.92.07l-1.74-1.46a28.24,28.24,0,0,0,3.61-2.22c.67.21,1.35.4,2,.58l-.6,3c11.88,1.17,23-6.09,33.33-13.1a72.67,72.67,0,0,1-9.16,8.36,60.1,60.1,0,0,1-14.37,7.46,140.68,140.68,0,0,1-19.55,6A88.11,88.11,0,0,1,3588,482.32Zm27.44,35.57c-.68-.23-1.35-.47-2-.72,0,0,0-.09-.07-.13a42.29,42.29,0,0,0,4.23-3.27Q3616.47,515.84,3615.39,517.89Zm7.46,15c-.72-1.08-1.43-2.16-2.14-3.25a56.11,56.11,0,0,0,6.09,1.45C3625.49,531.7,3624.18,532.29,3622.85,532.87Zm12.36-6.42-1.66-.89c1,.08,2,.08,3,.06Zm6.85-4.64c-2.21,0-4.41,0-6.62-.12a88,88,0,0,0,15.52-7.51A85.08,85.08,0,0,1,3642.06,521.81Zm17,150.79c1.47-3.43,2.79-7,4-10.52l1.46,0c-.81,4.3-1.78,8.56-2.95,12.75Q3660.3,673.73,3659,672.6Zm15.45,76.53-3.81,0c-4-3.79-7.44-8.32-8.27-14.09a100.87,100.87,0,0,0,12.25,3.82C3674.59,742.05,3674.52,745.59,3674.49,749.13Zm91-296.15q-2.85,3.84-5.85,7.25a47.86,47.86,0,0,1-9.28-9.8A93.94,93.94,0,0,0,3765.51,453Zm-5.91,123.59c-1.44,2.21-2.91,4.36-4.4,6.43-3.6-1.49-7.13-3.17-10.58-5-1.65-.87-3.39-1.89-4.22-3.76A55.17,55.17,0,0,0,3759.6,576.57ZM3740,495.42l4-1c-.45.87-.89,1.75-1.34,2.63C3741.78,496.54,3740.88,496,3740,495.42Zm5.67,23.3a47.47,47.47,0,0,0,7.78,1.73l-2.73,1.95A59.06,59.06,0,0,1,3745.67,518.72Zm12.74,53.12a19.56,19.56,0,0,0,2.05-1.11c.75.28,1.51.55,2.27.81-.55.92-1.1,1.82-1.66,2.71Zm3.19-57.51.26.12,0,0Zm-25.86-57.62a77.27,77.27,0,0,0,22.42,5.19,83.71,83.71,0,0,1-14.71,12.85,57.66,57.66,0,0,1-23-15.22,64.75,64.75,0,0,0,24.51,5.28Zm1.34,247.11c-.13.42-.25.83-.38,1.24l-.44-.07C3736.53,704.6,3736.81,704.22,3737.08,703.82Zm-7.15,8.38a37.18,37.18,0,0,0,4.21,1.19c-.23.74-.45,1.48-.68,2.21-1.27-1-2.51-2.11-3.74-3.21Zm-.48-224.66c1.2.5,2.4,1,3.61,1.39-.33.26-.66.52-1,.79C3731.19,489,3730.32,488.28,3729.45,487.54Zm-4.8,212.78c-.54.73-1.07,1.46-1.6,2.21l-1.32-.29C3722.71,701.64,3723.69,701,3724.65,700.32Zm-19-3.64c.06.08.12.14.17.22l-.87.89-1.61-.53C3704.1,697.09,3704.87,696.9,3705.64,696.68Zm-2.86,151.1-1.39-1a44.52,44.52,0,0,0,5.71-3.33A22.26,22.26,0,0,0,3702.78,847.78Zm20.38,13.35c-2.61-1.55-5.2-3.16-7.77-4.8a37.72,37.72,0,0,0,11.58-5.68Zm7.1,4-.33-.18c.25-.06.51-.11.76-.19Zm-4.79-44.72-11.58-13.12q10,5,20.23,9.46A56.15,56.15,0,0,1,3725.47,820.46Zm10-33.68c-1.3-.46-2.58-.92-3.87-1.4,2.63-2.7,5.22-5.54,7.76-8.37Q3737.52,782.08,3735.46,786.78Zm23.08,6.48-1.92-.43q2.16-1.67,4.25-3.58C3760.11,790.64,3759.33,792,3758.54,793.26ZM3721,743.56a99.3,99.3,0,0,1-22.72,4.73c-.21-2.09-.41-4.28-.6-6.54a101.06,101.06,0,0,0,28.91-3.87,167.34,167.34,0,0,1-25.41-14.94,145.44,145.44,0,0,0,44.94,1.42c-1.66-1-3.29-2-4.9-3.06,9-2.86,17.7-8.55,25.74-16.87C3754,725.9,3737.6,737.82,3721,743.56Zm170.36-100.89a151.63,151.63,0,0,1-16.84,52.1,55.61,55.61,0,0,1-17.39-8.91,43.51,43.51,0,0,0,13.69-12.9,27.57,27.57,0,0,1-3.67,13.48C3879.69,676.6,3885.84,659.12,3891.31,642.67Zm-61.94-241.13a43.16,43.16,0,0,0-11.52,3.7c-1-1.82-2.07-3.7-3.07-5.63A108.94,108.94,0,0,0,3829.37,401.54Zm-22.53,41.35a72,72,0,0,0,15.35-1L3810.65,432l17.91.06c-3.81-2.65-7.88-5.68-10.15-12.24a40.54,40.54,0,0,0,15.46,4.87c-5.38-3.87-10.16-9.83-14.54-17,7.34.4,14.7.52,22.05.31a19.72,19.72,0,0,1-6.39,8.09,46.34,46.34,0,0,0,21.86-6.5l-.6,6.5c6.78.15,14.13-1.28,19.55-5.65-18.25,19.87-42.08,32.73-66.91,36.21C3808.18,445.47,3807.49,444.21,3806.84,442.89Zm31.86,33-.35.1c-.11-.17-.23-.32-.34-.49Q3838.35,475.74,3838.7,475.92Zm-1.38-6q-2.13-.69-4.23-1.56a28.06,28.06,0,0,0,5.28-3.81Zm1.22.39c11.4.55,22.13-6.41,32-13.17a72,72,0,0,1-9.16,8.36,58.25,58.25,0,0,1-13.55,7.14C3844.75,472,3841.64,471.28,3838.54,470.33Zm-20.47,33.35a66.37,66.37,0,0,0,11-3.54,91.59,91.59,0,0,0-8,7.27C3820,506.21,3819,505,3818.07,503.68Zm24.92-1.21-6.7,12.92a84.38,84.38,0,0,0,40.13-12.52c-10.34,10.21-22.74,17.15-35.79,21.67a71,71,0,0,1-15.69-12.71A41.77,41.77,0,0,0,3843,502.47Zm-16.75,59.91a129.07,129.07,0,0,0,14.28-8.09l.11,0v0q2.48-1.59,4.91-3.2a84.93,84.93,0,0,1-14.1,17.52C3829.67,566.6,3827.94,564.53,3826.24,562.38Zm5.66,6.68a81.6,81.6,0,0,0,37.75-9.91c-8.27,8.93-18.54,14.65-29.49,18.12A110.09,110.09,0,0,1,3831.9,569.06Zm21.83,78.3c-.13-.06-.26-.12-.38-.19.44-.3.89-.58,1.33-.89Zm.68,31.24a25.62,25.62,0,0,1-1.38,4c-.5-.42-1-.85-1.47-1.29C3852.53,680.45,3853.49,679.54,3854.41,678.6ZM3870,768.81c-8-3-15.65-9.12-22.39-18a128.16,128.16,0,0,0,30.68,4.39l-2.36-4a34.87,34.87,0,0,0,14.47-3.17,27.86,27.86,0,0,0,3.9-.73l-.89-.8a36.37,36.37,0,0,0,4.52-3A156,156,0,0,1,3870,768.81Zm1.57-24.94c.95.54,1.89,1,2.85,1.47-.31.57-.64,1.13-1,1.67Zm.33-15c-7.31-3.42-14.27-9.1-20.43-17.6A26,26,0,0,0,3873,713l-7.36-8.38c7.53,6.42,16.21,7.53,24.11,3.1a50.83,50.83,0,0,1-12.46-9.11c5.59,1.14,11.52,2.17,16.56-2.69a42.25,42.25,0,0,1-18.46-.93c3.76-1.51,7.52-3.17,10.71-5.91a19.17,19.17,0,0,0,5.8-8.6l.74.14,0,4.87a38.26,38.26,0,0,0,3.2-4.37c1.21.16,2.43.27,3.65.36,0,3.75.13,8.28.25,13-.49.69-1,1.39-1.48,2.08l1.54.28c0,.46,0,.93,0,1.39C3892.88,711,3883.41,722.25,3871.86,728.87Zm128.42,149.65,0,7.5a69.27,69.27,0,0,0,3.28-7.76q1.41-.15,2.82-.36c0,2.47,0,5.21.05,8.14l-.45.57.46.12c0,.93,0,1.87,0,2.83q-4.39-2.2-8.69-4.65a37.69,37.69,0,0,0,1.79-6.36Zm-1.2-57.09c-.3,3.84-.67,7.65-1.08,11.45l-1.12-.46C3997.63,828.76,3998.37,825.08,3999.08,821.43Zm-6.21,28.64,1.68.82-1.94.19C3992.69,850.74,3992.78,850.41,3992.87,850.07ZM3953.3,394.21l-1.32,1-2.55-2.89C3950.71,393,3952,393.6,3953.3,394.21Zm-18.9,4.59a35.45,35.45,0,0,0,9.22,3.95q-1.66,1.71-3.3,3.54l10-2.45a33,33,0,0,0,8.7-.62l-1.1-1.25,5-1.22q-3.1,6.08-6.2,12.14a22.21,22.21,0,0,0,17.25-3c-1.57,1.18-2.7,4.32-2.75,7.61,5.1,1.29,10.4,1.38,15.37-.87q-6.14,4.39-12.29,8.77a116.58,116.58,0,0,1-31.92-17.15A26.15,26.15,0,0,1,3934.4,398.8Zm44.9,82.81q-2.46,3.87-5,7.45a89.36,89.36,0,0,1-17.2-11c.38-.16.77-.33,1.15-.51A68.67,68.67,0,0,0,3979.3,481.61Zm-27.87,217.74q-1.86-2.43-3.68-4.92c3-2.93,6-6.11,8.86-9.31l.83.32A150.73,150.73,0,0,1,3951.43,699.35ZM3964.67,715c-2.05-2.14-4.05-4.37-6-6.66a58.76,58.76,0,0,0,21.1-12.77A72.39,72.39,0,0,1,3964.67,715Zm16.09,152.11h0l0,0Zm-.09-387.7-2.2-1.85a19.92,19.92,0,0,0,2-1.28l1.68.65C3981.67,477.76,3981.17,478.59,3980.67,479.41Zm5.57,455.48c-.72-.74-1.44-1.5-2.15-2.28,1.18.5,2.36,1,3.55,1.44Zm.13-57.13c1.26.2,2.51.37,3.78.49-.14.58-.29,1.15-.43,1.73C3988.6,879.25,3987.48,878.51,3986.37,877.76Zm14.55,99.77c-1.09-.89-2.17-1.79-3.24-2.71,2.07.86,4.15,1.66,6.26,2.39Zm6.14-35.84c0,2.57-.08,5.47-.12,8.57a85,85,0,0,1-16.84-11.71,99.27,99.27,0,0,0,11-.39q3,.68,5.94,1.16C4007.08,940.16,4007.07,941,4007.06,941.69Zm185.28-259.4q-.56,4.1-1.32,8.16l-1.23-.65C4190.66,687.29,4191.51,684.78,4192.34,682.29ZM4101,518.69l-8.1-7.13c6.35.46,13.35.44,18.41-6.57a42.69,42.69,0,0,0,7.83-1.38l-5.37,6.84a26.8,26.8,0,0,0,25.62-6.27q-.57,2.85-1.12,5.69c11.88,1.17,23-6.08,33.32-13.09a72,72,0,0,1-9.16,8.35,59.92,59.92,0,0,1-14.37,7.46,140.72,140.72,0,0,1-32.35,8.32c-10.8,1.44-21.69,1.58-32.56,1.73l-4.73.06a79.75,79.75,0,0,1-3.92-8A51.24,51.24,0,0,0,4101,518.69Zm-12.38,11.15a35.19,35.19,0,0,1-3.63,2.36c-.66-.77-1.31-1.58-2-2.42C4084.94,529.86,4086.81,529.86,4088.64,529.84Zm-44,347.33q-.85,4.27-1.69,8.57a42.58,42.58,0,0,0,13.52-.93,30.72,30.72,0,0,0,5.86,3.16c-1.53.64-3.07,1.27-4.62,1.87q-6.64,2.58-13.44,4.68-1.41-7.35-2.84-14.72C4042.51,879,4043.59,878.11,4044.62,877.17Zm36.57-298.43-.82-1.16a42.6,42.6,0,0,0,7,1.72,191.65,191.65,0,0,1-19.23,6.13,98.78,98.78,0,0,1-12.27-14.83C4063.94,576.35,4072.58,579.13,4081.19,578.74Zm-9.06-12.85a87,87,0,0,0,8.81,6.24h-4.4Zm10.68,30.73a65.85,65.85,0,0,1-11.16-7.92,113.68,113.68,0,0,0,19.86.67Zm32.38-1.71a70.54,70.54,0,0,0-8.28,8,43.63,43.63,0,0,1-15.71-2.48C4099.62,600.65,4108,599.66,4115.19,594.91Zm-36.11,25.68c-2.21-.09-4.43-.18-6.64-.24-.72-.89-1.43-1.8-2.12-2.76A28,28,0,0,0,4079.08,620.59Zm-11.15,135.07c-.67-1.12-1.33-2.29-2-3.52a52.09,52.09,0,0,0,5.37,2.08ZM4068.8,885c-1.85.93-3.72,1.79-5.62,2.6l-1.55-4.23c1.44-.47,2.86-1,4.27-1.57C4066.86,882.91,4067.82,884,4068.8,885Zm-2.33-181.54a10.11,10.11,0,0,1-.85-2.18c.94.48,1.88.92,2.83,1.3ZM4034,884.31a64.55,64.55,0,0,0,6.16,11.48q-5.7,1.65-11.46,3l-2.2-.74c0-3.63,0-7.32-.07-11A41.67,41.67,0,0,0,4034,884.31Zm-8,140.44c.86-.4,1.73-.82,2.59-1.25a71,71,0,0,0,14,1.63q-2.85,3.28-5.89,6.33A88.33,88.33,0,0,1,4025.94,1024.75Zm2.56-53.12,2.17,1-2,.47-.08-.08C4028.56,972.54,4028.53,972.08,4028.5,971.63Zm34.29,69.28a102,102,0,0,1-20.37-6.61,123.8,123.8,0,0,0,49.34-14.6A96.2,96.2,0,0,1,4062.79,1040.91Zm-16.67-25.72c1,.52,2.08,1,3.14,1.45l-.33.45Zm14.37-52.52a137.89,137.89,0,0,1-32.8-4.31c-.19-3.45-.37-7-.52-10.69a63.41,63.41,0,0,0,24.41-13.4l-10.11,19.48A127.11,127.11,0,0,0,4102,934.88,137.45,137.45,0,0,1,4060.49,962.67Zm18.67-83.94c-1,.74-2,1.45-3.1,2.13-.34-1.15-.67-2.31-1-3.44.67-.36,1.33-.73,2-1.11Zm-1.08-186.57q2.15,1.7,4.32,3.13c-.54.32-1.08.65-1.63,1ZM4089,743.64c1.26.52,2.54,1,3.83,1.51l-1.26.54A30,30,0,0,0,4089,743.64Zm-4.65-70.57c-6.35-3.4-12.42-8.76-17.88-16a130.72,130.72,0,0,0,21.24,3.83l-3.42,3.59a65.61,65.61,0,0,0,10.24-3.12c.87,0,1.74.07,2.62.09l-.57-1c.89-.38,1.76-.78,2.63-1.2l.23.1a32.23,32.23,0,0,1-6.22,11.26,33.45,33.45,0,0,0,9.94.09A131.66,131.66,0,0,1,4084.34,673.07Zm-.77-42.08a33.46,33.46,0,0,0,4,.18l-2.38.92C4084.65,631.74,4084.11,631.38,4083.57,631Zm6.85,19.2.66.36-.34.17Zm1.07,1.79,2.4-.05c.57.25,1.15.49,1.72.7-.1.12-.21.23-.32.34h-3.22Zm7.72-13.85a66.05,66.05,0,0,0,11.21-3.41A23.41,23.41,0,0,0,4104,639,42.81,42.81,0,0,1,4099.21,638.13Zm10.72,31a37.83,37.83,0,0,0,4.31-1.82l1.17.08C4113.59,668,4111.77,668.61,4109.93,669.13Zm13.14-52.08c-.69,1.31-1.43,2.59-2.18,3.86-.89.09-1.79.17-2.68.24-11.11.81-22.24.24-33.36-.29a26.17,26.17,0,0,0,7-1.51l-7.36-8.37c7.54,6.42,16.22,7.53,24.12,3.09a50.39,50.39,0,0,1-12.46-9.11,32,32,0,0,0,8.18.92c-.32.41-.66.8-1,1.22,9.43.88,18.53-2.22,27.25-6.78A146.84,146.84,0,0,1,4123.07,617.05Zm40.68-11.9-1.65-2.37a83.63,83.63,0,0,0,8.59-4A61.17,61.17,0,0,1,4163.75,605.15ZM4126,568.44a197.14,197.14,0,0,1-33.47,3.5,77.58,77.58,0,0,1-6.15-8.47c5.42,1.7,11.12-.16,16-5.23-9.68.72-19.47.13-28.91-4.19s-18.55-12.56-25.58-25.66c7,5.06,14.43,7.77,21.88,8l-8.22-12.2a45.71,45.71,0,0,0,23.41,8.13,32.58,32.58,0,0,1-8.15,3.25,73.16,73.16,0,0,0,32.65,1.72l-12.06,7.26a65.29,65.29,0,0,0,32.79-4.75,90.36,90.36,0,0,0-13,12.67A40.62,40.62,0,0,0,4144,542.08q-3.36,6.45-6.71,12.92a84.35,84.35,0,0,0,40.13-12.52C4163,556.72,4144.6,564.64,4126,568.44Zm54,157.11a12.77,12.77,0,0,1-1.59-4.51c1,.39,2.06.75,3.1,1.09C4180.94,723.28,4180.44,724.42,4179.92,725.55Zm4.42,5.25a25,25,0,0,0,2.81-2.06,20.12,20.12,0,0,0,3.72-4.26c.95.16,1.89.31,2.84.43a1.93,1.93,0,0,1,0,.24l.17-.22a65.79,65.79,0,0,0,6.73.49c.09,5.33.27,11.57.42,17.54a134.05,134.05,0,0,1-14.77-10.5C4185.63,731.94,4185,731.38,4184.34,730.8Zm5,47.24a52.74,52.74,0,0,0,11.64,5.3c0,3.24.07,6.27.2,8.77C4196.58,788.6,4191.89,783.66,4189.33,778Zm113.14-204.56-1.35,1.56-1.21-1.19Zm18.66,9.1a7.49,7.49,0,0,0-3.21,2.92,59.11,59.11,0,0,1-19.27.7A60.16,60.16,0,0,0,4321.13,582.58Zm-32.94-7q6,.44,12,.55-3.87,4.49-7.75,9a63.16,63.16,0,0,1-18.31-7.49Zm-15.66-1.63c-.7.4-1.4.8-2.1,1.22-.87-.62-1.74-1.25-2.59-1.92C4269.4,573.47,4271,573.7,4272.53,573.92Zm17.24,30.63-8.9-8a76.68,76.68,0,0,0,27.6,7.17c-7.71,3.25-15.46,6.44-23.34,9a123.45,123.45,0,0,1-14-6.36c-1.64-.87-3.39-1.89-4.21-3.75A54.89,54.89,0,0,0,4289.77,604.55Zm21.86,38.39-.87,9.34c-.82,0-1.65,0-2.48,0a72.05,72.05,0,0,1-15.44-1.61A71.49,71.49,0,0,0,4311.63,642.94Zm-23.31-2.4a31.08,31.08,0,0,1-4.54,7.38,44.65,44.65,0,0,1-12.06-7.26Q4280,640.78,4288.32,640.54Zm-54.43,86.62a38.41,38.41,0,0,0,10.78,8.88q-1.47-4.54-3-9.09a64.54,64.54,0,0,0,11.57-2.06l-8.1,10.31a39.92,39.92,0,0,0,34.33-6c.91.4,1.82.8,2.75,1.16-.3-.84-.64-1.67-1-2.5.85-.67,1.68-1.36,2.49-2.09q-.85,4.28-1.69,8.57c9.77,1,19.22-1.87,28.3-6.34q2.54.74,5.12,1.28a99.62,99.62,0,0,1-18.66,9.16A212.38,212.38,0,0,1,4248.11,751c-8.29,1.1-16.61,1.7-24.95,2-.05-1.87-.07-3.75-.07-5.61,0-6.44-.07-13.94-.16-21.52A66.34,66.34,0,0,0,4233.89,727.16Zm.26,51.05-8.67,5.23c-.23-2-.47-4.11-.7-6.35,1.87-.09,3.73-.22,5.59-.4C4231.63,777.21,4232.89,777.71,4234.15,778.21Zm29.94,44.26A173.39,173.39,0,0,1,4209.48,798h18s-.73-4.3-1.59-11a98.65,98.65,0,0,0,43.84-7.65,138,138,0,0,0-19.6,19.1c14.51.13,29-5.44,40.59-15.6l-10.11,19.47a127,127,0,0,0,60.48-18.86C4319.52,804.78,4292,816.69,4264.09,822.47Zm68.23-107.88c-2.36,2.42-4.49,4.6-6.7,6.66l-2.13-.78C4326.48,718.56,4329.42,716.57,4332.32,714.59Zm-6.58-63.44a37.25,37.25,0,0,0,14.45-6.93q-2.74,3-5.6,5.84l-.72.09C4331.16,650.49,4328.45,650.84,4325.74,651.15Zm-14.53-48.63-1.15.48-8.75-10.28c3.88.14,7.81.28,11.58-.8a16.24,16.24,0,0,0,3.91-1.69c8.51,1.25,17.35,1.31,25.65-.91Zm284.55-212.4c-2.37,1.47-4.15,5.12-4.56,9.15a83.51,83.51,0,0,1-46.48-15.35l32.3-6.52-10.51,16.94A44.48,44.48,0,0,0,4595.76,390.12Zm-34.78-22q-2.13,1.31-4.24,2.71c-2-1.16-4-2.42-5.89-3.78A64,64,0,0,0,4561,368.11Zm-10.41,7.08q-4.27,3.22-8.44,6.87c-.94-.72-1.88-1.44-2.81-2.2-2.35-1.92-4.79-4.29-5.27-7.58A44.14,44.14,0,0,0,4550.57,375.19Zm-16.43,315.3.09.16-.24-.13Zm.53,1a41.29,41.29,0,0,0,15.92,16.27q-3.36-10.32-6.74-20.64c.94-.45,1.87-.94,2.8-1.45a51.41,51.41,0,0,0,9.89,7.45L4555.1,697q3.84-.26,7.67-.84a45.59,45.59,0,0,0,7.66,2.32l-2.08-3.36c1.56-.34,3.12-.72,4.67-1.14a74.55,74.55,0,0,0,13.15,7.26,143.07,143.07,0,0,1-48.27,24c-2.91.83-5.82,1.55-8.73,2.21q-.16-4.19-.17-8.36c0-8.09-.09-17.87-.22-27.38C4530.74,691.67,4532.71,691.59,4534.67,691.47Zm45.44-207c1.75.8,3.51,1.59,5.29,2.34l-.09,1.31c1.09,0,2.19,0,3.29,0,5.12,1.93,10.37,3.25,15.65,3q-5.7,7.34-11.76,13.9a88.4,88.4,0,0,1-30.62-17.39,68.6,68.6,0,0,0,28.4,5.4Zm2.83-7.5c1.1-.81,2.2-1.65,3.28-2.53l-.21,3.23C4585,477.4,4584,477.17,4582.94,476.92Zm29.15,3.44q-3.41,4.9-6.95,9.53a58,58,0,0,1-5.34-3.84,34.69,34.69,0,0,0,8.54-4.14A26.46,26.46,0,0,0,4612.09,480.36Zm-.48-.94a34.68,34.68,0,0,0,3.3-3.24c-.71,1.08-1.44,2.14-2.16,3.2Zm-13.72,107.29c-1.08-.33-2.16-.67-3.23-1,4.18-3.55,8.27-7.37,12.28-11.17h0C4603.78,579,4601,583,4597.89,586.71Zm0,104.41-.18.16c-.17-.2-.34-.41-.52-.61C4597.47,690.83,4597.71,691,4597.94,691.12Zm-4.77,4.35q-2.82,2.46-5.71,4.72a80.68,80.68,0,0,0-4.37-9.58l1.76-.72Zm-14.84-176.69a.46.46,0,0,1-.07.07l-.17-.13ZM4529,674.72c0,.22.07.44.11.65H4529C4529,675.15,4529,674.94,4529,674.72Zm0,9.72-.33.51c0-.17,0-.34,0-.5Zm-14.79,102c.74.26,1.49.51,2.25.73-.4.52-.8,1-1.19,1.57l-2.35-1.58Zm-2.3,6.94q-3.33,4.81-6.38,10.07a90.84,90.84,0,0,1-18.84-10.88c1.95.05,3.9,0,5.83-.07A71.26,71.26,0,0,0,4511.92,793.34Zm-12.48-104.09.15,0q0,3.78.05,7.56a40,40,0,0,0,4.58-6.76l2.25.34c0,3.57.08,8.16.2,13.07a69.6,69.6,0,0,1-9.3-8.27A16.64,16.64,0,0,0,4499.44,689.25Zm-3.86-27.39,1.42,0c-.45,2.39-.94,4.75-1.5,7.1l-2.27-.71Q4494.46,665.06,4495.58,661.86Zm-50.26-186c-.37,1.9-.74,3.79-1.12,5.69,11.89,1.17,23-6.09,33.33-13.1a71.31,71.31,0,0,1-9.16,8.36,59.92,59.92,0,0,1-14.37,7.46,141.66,141.66,0,0,1-20.34,6.18q-3.9-3.44-7.57-7.3A27.32,27.32,0,0,0,4445.32,475.88ZM4436,511.45a90.56,90.56,0,0,0-7.34,6.56l-5.27-2.67A66.07,66.07,0,0,0,4436,511.45Zm-10.93-36.14-2.86,3.64c-.75-.85-1.49-1.71-2.23-2.58A44.66,44.66,0,0,0,4425.08,475.31Zm-16.54,46.62c5.55.14,11.11,0,16.65-.27-.73.81-1.47,1.62-2.18,2.46a40.53,40.53,0,0,0,26.93-10.35l-6.7,12.93a84.38,84.38,0,0,0,40.13-12.52c-14.34,14.15-32.63,22.06-51.16,25.89A72.56,72.56,0,0,1,4408.54,521.93ZM4452.07,563q-1.07,1.71-2.19,3.36l-1.83-1.13c1.18-.75,2.35-1.51,3.51-2.27Zm-34.55,6.76s0-.08,0-.12l.1,0Zm7.92,11.3a37.52,37.52,0,0,1-3.58-3.26,60.3,60.3,0,0,0,11.59-4.22A67.79,67.79,0,0,0,4444,574a85.1,85.1,0,0,1-6.17,6.41,81.64,81.64,0,0,0,38.77-9.93c-10.31,11.13-23.71,17.28-37.68,20.29A135,135,0,0,1,4425.44,581.05Zm20.46,120.14,0,0a97.82,97.82,0,0,0,36.84,7.92l-13.88-12.21a118,118,0,0,0,14.84,4.76c-.89,1.78-1.8,3.53-2.76,5.26a59.42,59.42,0,0,0,8.58-4,112.7,112.7,0,0,0,17.15,2c.22,8.92.52,18.67.53,25.25a122.17,122.17,0,0,1-18.21-3.42C4473.13,722.46,4457.75,714.24,4445.9,701.19Zm13.52,42.13a104.22,104.22,0,0,0,18.12,5.76c-2.18,1.12-4.35,2.2-6.54,3.24A135.66,135.66,0,0,1,4459.42,743.32Zm66.75,92.83c-13.17,1.34-26.37.88-39.57.08a95.79,95.79,0,0,1-9.26-6.43,357.45,357.45,0,0,0,51.81,4.39l-11.35-11.28a80.88,80.88,0,0,0,38.39,3.41L4540,817.67a46.22,46.22,0,0,0,23.32-4.48l-2.19-1.54c-15.81,1.2-32.07-.15-47.27-5.11,19.48-2.53,37.95-18.77,55.26-34.58a180.85,180.85,0,0,1-22.18,38c20.19,0,40.37-7.16,58.69-20.89C4584.53,820.69,4554.89,833.24,4526.17,836.15Zm80.48-154.09c-1.19-.62-2.38-1.24-3.56-1.89a128.86,128.86,0,0,0,12.76-9.56Q4611.41,676.7,4606.65,682.06ZM4585.8,418c-6.88,4.05-13.8,8.1-20.81,11.6a118.32,118.32,0,0,1-15.67-10,26,26,0,0,1-8-9.43,33.83,33.83,0,0,0,24.62,4.42l-9.6-10.88a182.28,182.28,0,0,0,26.3,10.72,80.66,80.66,0,0,0-10-11.82c7,1.2,14.69,2.18,20.79-1.36,7.92,1.36,16.07,1.2,23.75-1.65Z"/></g></g></svg>