<svg xmlns="http://www.w3.org/2000/svg" viewBox="0 0 4446.27 1357.45"><defs><style>.cls-1{fill:#380705;}</style></defs><g id="Layer_2" data-name="Layer 2"><g id="Layer_3" data-name="Layer 3"><path class="cls-1" d="M4446.27,1202.43V618q-1.8-2-3.57-4,1.79,1,3.57,1.92V560.68a132.25,132.25,0,0,1-22.73-25.55,117.69,117.69,0,0,0,22.73,10V448.47a256.24,256.24,0,0,1-30.23-26,72.21,72.21,0,0,1-16.92-26.54c14.36,11.66,31,16.39,47.15,13.59v-8.91L4431,377.7q7.56,5,15.23,9.57V350.34c-18.3-9.23-35.72-22.55-51.47-39.62-5-5.41-10.19-12.08-11.2-21.36,19,9.64,39.71,10.86,59.1,3.49a151.83,151.83,0,0,1-23.42-18.25,102.64,102.64,0,0,0,27,3.07v-15.2l-1.07-1.26c.35.17.71.32,1.07.48V251.45a148.56,148.56,0,0,1-26.53-8.9A111.45,111.45,0,0,1,4371,200.21a218.19,218.19,0,0,0,36.55-1.81l-27.46-18.5,42.63.12c-9.07-5-18.76-10.61-24.17-22.88a116,116,0,0,0,36.82,9.1c-32.46-18.3-55.74-61.67-77.38-103.19-10.4-19.95-21.54-38.67-26.58-63-6.76,32.78-13.9,65.79-25.69,95s-28.82,54.68-50,65.46l12.33-.37-17,23.59a78.94,78.94,0,0,0,21.48-10,68.3,68.3,0,0,1-8.89,21.52c13.31,2.86,27.26-2.11,38.41-13.68-37.24,57.06-88.49,91.9-140.95,95.8l42,4.43a192.76,192.76,0,0,0-35.37,25.12l53.77-10.35-14.76,22.68a65.15,65.15,0,0,0,41.07-5.66c-3.73,2.21-6.42,8.07-6.54,14.22,12.14,2.42,24.76,2.58,36.6-1.62l-44.05,24.66c-21.44,12-43.12,24.1-65.79,28.07-6.14,1.07-12.35,1.55-18.55,2.07a101.32,101.32,0,0,1-7.85-6.7,65.52,65.52,0,0,0,26.69,1.13,62.37,62.37,0,0,1-10-9.76c6.38,3.15,13.59,2.14,19.5-2.75-12.09-1.89-24.25-4-35.91-9.27a71.82,71.82,0,0,1-31.43-27.29,139.72,139.72,0,0,0,23.56-1.16l-17.7-11.92,27.48.08c-5.85-3.2-12.09-6.84-15.58-14.75a74.84,74.84,0,0,0,23.73,5.86C4131,292.66,4116,264.71,4102,238c-6.7-12.85-13.88-24.92-17.13-40.63-4.36,21.13-8.95,42.4-16.55,61.22s-18.58,35.24-32.24,42.19l7.94-.24-10.95,15.2a50.66,50.66,0,0,0,13.85-6.42,44,44,0,0,1-5.74,13.87c8.58,1.84,17.58-1.36,24.76-8.81-24,36.77-57,59.22-90.83,61.73l27,2.86a123.57,123.57,0,0,0-22.8,16.19l34.65-6.68-9.51,14.62A41.9,41.9,0,0,0,4031,399.4c-2.41,1.43-4.14,5.2-4.21,9.17,7.82,1.56,15.95,1.66,23.58-1.05L4022,423.42c-13.82,7.73-27.8,15.53-42.4,18.08-11.1,1.94-22.54.86-33.22,5.91a118.15,118.15,0,0,0,38.38,10,51.87,51.87,0,0,0-21.17,10.61,274.75,274.75,0,0,0,37.61,1.17,36,36,0,0,1-8.76,14.69c10.38-.49,20.68-4.56,29.94-11.81q-.42,5.91-.83,11.81c9.3.26,19.36-2.33,26.78-10.26-23.56,34-53.9,56.69-85.78,64.48-35.2-13-61.34-38.87-85.77-63.72-12.64-12.85-26.18-24.91-32.3-40.63-8.23,21.13-16.9,42.4-31.24,61.23s-35,35.24-60.81,42.18l15-.24-20.66,15.2a147.22,147.22,0,0,0,26.12-6.41,37.78,37.78,0,0,1-10.82,13.86c16.18,1.85,33.15-1.35,46.7-8.81C3768.36,583.6,3714.42,605,3658,611a117.64,117.64,0,0,1-33.06-25.48c-3.22-3.49-6.57-7.79-7.22-13.77a46.32,46.32,0,0,0,38.08,2.25,98,98,0,0,1-15.09-11.76,65.34,65.34,0,0,0,26.69,1.12,62.29,62.29,0,0,1-10-9.75c6.38,3.15,13.59,2.13,19.5-2.76-12.09-1.88-24.25-4-35.91-9.26a71.82,71.82,0,0,1-31.43-27.29,140.78,140.78,0,0,0,23.56-1.17l-17.7-11.92,27.48.08c-5.85-3.19-12.09-6.84-15.58-14.74a74.84,74.84,0,0,0,23.73,5.86c-20.92-11.8-35.92-39.75-49.87-66.5-6.7-12.86-13.88-24.92-17.12-40.63-4.36,21.12-9,42.4-16.56,61.22s-18.58,35.24-32.24,42.18l7.95-.23q-5.49,7.59-11,15.2a51,51,0,0,0,13.85-6.42,43.73,43.73,0,0,1-5.74,13.86c8.58,1.85,17.58-1.35,24.76-8.81-24,36.78-57,59.22-90.83,61.74l27,2.85a124,124,0,0,0-22.8,16.19l34.65-6.67L3503.66,591a42,42,0,0,0,26.47-3.65c-2.41,1.42-4.14,5.2-4.21,9.17,7.82,1.56,15.95,1.66,23.58-1l-28.38,15.89c-13.82,7.74-27.8,15.54-42.4,18.09-11.1,1.94-22.54.86-33.22,5.9a118.17,118.17,0,0,0,38.38,10,51.85,51.85,0,0,0-21.17,10.6,273.17,273.17,0,0,0,37.61,1.18,35.91,35.91,0,0,1-8.76,14.68c10.38-.49,20.68-4.55,29.94-11.8q-.42,5.89-.83,11.8c9.3.27,19.36-2.32,26.78-10.26-22.15,32-50.3,54-80.09,62.94-19.69-6.79-38.53-19.46-55-37.35-3.94-4.26-8-9.51-8.82-16.82a56.63,56.63,0,0,0,46.54,2.75,118.93,118.93,0,0,1-18.44-14.38,80.11,80.11,0,0,0,32.61,1.38,76.88,76.88,0,0,1-12.2-11.92c7.81,3.85,16.61,2.6,23.84-3.37-14.78-2.3-29.64-4.88-43.9-11.32a87.84,87.84,0,0,1-38.4-33.36,171.32,171.32,0,0,0,28.79-1.42l-21.63-14.57,33.58.1c-7.15-3.9-14.78-8.36-19-18a91.4,91.4,0,0,0,29,7.16c-25.56-14.41-43.89-48.57-60.94-81.27-8.19-15.71-17-30.45-20.93-49.65-5.33,25.81-10.95,51.81-20.24,74.82s-22.7,43.06-39.4,51.55l9.71-.29-13.38,18.58A62.48,62.48,0,0,0,3316,579.3a53.71,53.71,0,0,1-7,17c10.49,2.26,21.48-1.66,30.26-10.77-29.33,44.94-69.69,72.37-111,75.45l33,3.49a151.21,151.21,0,0,0-27.85,19.78l42.35-8.15-11.63,17.86a51.22,51.22,0,0,0,32.34-4.46c-2.64,1.57-4.61,5.46-5,9.75-43.33-4.74-85.7-21.87-122.18-49.9-6.66-5.12-13.52-12.42-17.24-20.72a72.5,72.5,0,0,0,53.34,9.72l-20.8-23.93a391.19,391.19,0,0,0,57,23.57,176.89,176.89,0,0,0-21.74-26c17.41,3,37,5.46,50.89-7.34-43.48,2.21-87.47-13-123.06-42.54-5.09-4.23-10.39-9.43-11.42-16.67a93.79,93.79,0,0,0,60.24,2.72,156.73,156.73,0,0,1-23.87-14.25,134.77,134.77,0,0,0,42.22,1.36,91.9,91.9,0,0,1-15.8-11.82,34.69,34.69,0,0,0,30.86-3.34c-19.13-2.28-38.36-4.83-56.81-11.22s-36.26-16.85-49.71-33.06a288.09,288.09,0,0,0,37.26-1.42l-28-14.44,43.46.1c-9.25-3.87-19.13-8.29-24.64-17.87a148.66,148.66,0,0,0,37.54,7.11c-33.1-14.29-56.83-48.15-78.89-80.57-10.6-15.57-22-30.19-27.1-49.23-6.89,25.6-14.17,51.37-26.19,74.18s-29.38,42.69-51,51.1l12.57-.28L3001,462.88a93.75,93.75,0,0,0,21.91-7.77,47.56,47.56,0,0,1-9.07,16.8A50.12,50.12,0,0,0,3053,461.23c-38,44.55-90.21,71.74-143.69,74.79l42.77,3.46a204.12,204.12,0,0,0-36,19.62l54.81-8.09q-7.52,8.87-15.05,17.71a84.81,84.81,0,0,0,41.87-4.42c-3.8,1.73-6.55,6.3-6.66,11.11,12.37,1.89,25.24,2,37.31-1.27l-44.9,19.26c-21.86,9.37-44,18.81-67.08,21.91-17.55,2.35-35.65,1-52.54,7.15a234.33,234.33,0,0,0,60.7,12.16A93.75,93.75,0,0,0,2891,647.46a562.56,562.56,0,0,0,59.5,1.42,43.28,43.28,0,0,1-13.86,17.8,99.31,99.31,0,0,0,47.36-14.3q-.66,7.14-1.3,14.3c14.7.32,30.61-2.82,42.36-12.43-44.51,49.18-104.3,78.86-165.27,81.55-17.58-6.39-34-15.28-47.22-27.37,16.38.33,32.79-.14,49.11-1.41l-36.89-14.44,57.29.1c-12.2-3.87-25.22-8.29-32.49-17.87a252.41,252.41,0,0,0,49.49,7.11c-43.63-14.3-74.9-48.16-104-80.57-14-15.58-28.95-30.19-35.72-49.23-9.09,25.6-18.68,51.37-34.52,74.17s-38.73,42.7-67.23,51.11l16.57-.29-22.84,18.42a150.94,150.94,0,0,0,28.87-7.78,45.35,45.35,0,0,1-11.95,16.8,81.78,81.78,0,0,0,51.62-10.68c-41.12,36.62-95,61.49-152,70.89a173.89,173.89,0,0,0-16.11-25c13.33,3.05,28.36,5.46,39-7.34-33.3,2.21-67-13-94.25-42.54-3.9-4.23-8-9.43-8.74-16.67a56.14,56.14,0,0,0,46.13,2.72,117.91,117.91,0,0,1-18.28-14.25,79.46,79.46,0,0,0,32.33,1.36,76,76,0,0,1-12.09-11.82c7.74,3.82,16.47,2.59,23.63-3.34-14.65-2.28-29.38-4.83-43.51-11.22A87,87,0,0,1,2478,603.61a169.41,169.41,0,0,0,28.54-1.42q-10.73-7.22-21.44-14.44l33.28.1c-7.08-3.87-14.65-8.29-18.87-17.87a90.66,90.66,0,0,0,28.75,7.11c-25.35-14.29-43.52-48.15-60.42-80.57-8.12-15.57-16.82-30.19-20.75-49.22-5.28,25.59-10.85,51.36-20.06,74.17s-22.5,42.69-39.06,51.1l9.63-.28L2384.3,590.7a61.7,61.7,0,0,0,16.78-7.77,53.43,53.43,0,0,1-6.95,16.8c10.39,2.23,21.29-1.65,30-10.68-26.59,40.75-62.34,67-99.59,73.48-40.81-6.2-80.26-20-114.93-40.58-7.46-4.43-15.13-10.75-19.29-17.92a101.57,101.57,0,0,0,59.66,8.41l-23.26-20.7a519.32,519.32,0,0,0,63.72,20.39,171,171,0,0,0-24.32-22.48c19.47,2.63,41.42,4.72,56.92-6.35-48.63,1.91-97.83-11.24-137.65-36.79-5.69-3.65-11.61-8.16-12.77-14.42a134.07,134.07,0,0,0,67.39,2.36,191.39,191.39,0,0,1-26.7-12.33,194.32,194.32,0,0,0,47.22,1.18,105.15,105.15,0,0,1-17.67-10.22,48.86,48.86,0,0,0,34.52-2.89c-21.4-2-42.91-4.18-63.55-9.71s-40.55-14.57-55.6-28.59a416.76,416.76,0,0,0,41.67-1.22l-31.31-12.49,48.62.08c-10.35-3.34-21.4-7.16-27.56-15.45a209.53,209.53,0,0,0,42,6.15c-37-12.36-63.55-41.64-88.24-69.68-11.85-13.46-24.56-26.1-30.3-42.57-7.71,22.14-15.85,44.43-29.3,64.15a126.92,126.92,0,0,1-17.66,20.8c-24.28-6.15-47.75-20-68.38-40.66a48.86,48.86,0,0,1-11.42-17.91c10.74,8.71,23.39,11.72,35.33,8.4l-13.77-20.7a229.33,229.33,0,0,0,37.73,20.39,150.92,150.92,0,0,0-14.4-22.48c11.53,2.64,24.52,4.72,33.7-6.34-28.8,1.91-57.93-11.24-81.5-36.79-3.37-3.66-6.88-8.16-7.56-14.42a48.54,48.54,0,0,0,39.9,2.35,101.7,101.7,0,0,1-15.81-12.32,68.53,68.53,0,0,0,28,1.17,65.33,65.33,0,0,1-10.46-10.22c6.69,3.31,14.24,2.24,20.43-2.88-12.67-2-25.4-4.19-37.63-9.71A75.2,75.2,0,0,1,1967.32,231a146.71,146.71,0,0,0,24.68-1.22l-18.54-12.49,28.79.08c-6.13-3.34-12.67-7.16-16.32-15.45a78.33,78.33,0,0,0,24.86,6.15c-21.92-12.36-37.64-41.65-52.25-69.68-7-13.47-14.55-26.11-18-42.57-4.56,22.14-9.38,44.42-17.34,64.15s-19.46,36.92-33.78,44.19l8.33-.25-11.48,15.93a53.09,53.09,0,0,0,14.5-6.73,45.85,45.85,0,0,1-6,14.53c9,1.94,18.41-1.42,25.94-9.23-25.15,38.53-59.75,62.05-95.17,64.68l28.33,3A129.58,129.58,0,0,0,1830,303l36.3-7-10,15.32a44,44,0,0,0,27.73-3.82c-2.52,1.49-4.34,5.45-4.42,9.6,8.2,1.63,16.72,1.74,24.72-1.1l-29.75,16.66c-14.47,8.1-29.11,16.27-44.42,18.95-11.63,2-23.61.89-34.8,6.18a123.94,123.94,0,0,0,40.21,10.52,54.24,54.24,0,0,0-22.18,11.1,285,285,0,0,0,39.4,1.23A37.6,37.6,0,0,1,1843.7,396c10.87-.51,21.67-4.77,31.36-12.37q-.43,6.19-.86,12.37c9.74.28,20.28-2.43,28.06-10.75-29.61,42.72-69.42,68.43-110,70.57l-2.49.1c-4.8-2.92-9.42-6.67-12.27-13.14a78.13,78.13,0,0,0,24.86,6.15c-21.92-12.36-37.63-41.64-52.25-69.68-7-13.46-14.54-26.1-17.94-42.57-4.57,22.14-9.39,44.43-17.35,64.15s-19.46,36.92-33.78,44.19l8.33-.24-11.48,15.92a53.4,53.4,0,0,0,14.51-6.72,46.06,46.06,0,0,1-6,14.53c9,1.93,18.42-1.43,25.94-9.24-25.14,38.53-59.74,62.05-95.17,64.68l28.33,3a129.85,129.85,0,0,0-23.88,17l36.31-7-10,15.31a43.94,43.94,0,0,0,27.73-3.82c-2.52,1.49-4.34,5.45-4.41,9.6,8.19,1.64,16.71,1.74,24.71-1.09l-29.74,16.65c-4.7,2.63-9.41,5.26-14.16,7.72-27.46-9-53.76-26.48-76.72-51.37-5.34-5.79-10.89-12.91-12-22.83,20.27,10.3,42.43,11.61,63.16,3.73a161.7,161.7,0,0,1-25-19.51,108.57,108.57,0,0,0,44.26,1.86A104.11,104.11,0,0,1,1629.23,477c10.6,5.22,22.55,3.53,32.35-4.58-20.06-3.12-40.21-6.62-59.56-15.36a119.1,119.1,0,0,1-52.12-45.26A233.34,233.34,0,0,0,1589,409.9l-29.35-19.77,45.57.13c-9.7-5.29-20.06-11.34-25.84-24.46a124.23,124.23,0,0,0,39.36,9.73C1584,356,1559.14,309.61,1536,265.24c-11.11-21.32-23-41.33-28.4-67.39-7.23,35-14.86,70.32-27.46,101.54s-30.81,58.44-53.47,70l13.18-.4-18.17,25.22a84.45,84.45,0,0,0,23-10.65,73,73,0,0,1-9.5,23c14.22,3.06,29.14-2.25,41-14.62-39.8,61-94.57,98.22-150.64,102.39l44.84,4.73a205.73,205.73,0,0,0-37.8,26.86l57.47-11.07-15.78,24.24a69.59,69.59,0,0,0,43.9-6c-4,2.36-6.87,8.63-7,15.21,13,2.58,26.46,2.75,39.12-1.74l-47.08,26.36c-5.06,2.84-10.14,5.67-15.24,8.42a31.33,31.33,0,0,0,2.46-3.1C1346.17,583,1301,565,1263.77,527.67A56.28,56.28,0,0,1,1250.56,507c12.41,10.07,27,13.55,40.85,9.72l-15.93-23.94a266.17,266.17,0,0,0,43.63,23.58,174.09,174.09,0,0,0-16.65-26c13.33,3,28.36,5.45,39-7.35-33.3,2.21-67-13-94.24-42.54-3.9-4.22-8-9.43-8.75-16.67a56.12,56.12,0,0,0,46.14,2.72,117.91,117.91,0,0,1-18.28-14.25,79.1,79.1,0,0,0,32.33,1.36,75.54,75.54,0,0,1-12.1-11.81c7.74,3.81,16.48,2.58,23.64-3.34-14.66-2.28-29.38-4.84-43.52-11.23a86.92,86.92,0,0,1-38.06-33.06,170.34,170.34,0,0,0,28.53-1.41q-10.71-7.23-21.44-14.44l33.29.09c-7.08-3.86-14.65-8.28-18.87-17.86a90.31,90.31,0,0,0,28.75,7.1c-25.35-14.29-43.52-48.15-60.42-80.57-8.12-15.57-16.82-30.19-20.75-49.22-5.28,25.59-10.85,51.37-20.06,74.17s-22.5,42.7-39.06,51.11l9.63-.29-13.27,18.42a61.84,61.84,0,0,0,16.77-7.78,53.09,53.09,0,0,1-6.94,16.8c10.39,2.24,21.29-1.64,30-10.68-29.07,44.56-69.09,71.75-110,74.8l32.76,3.46q-4.1,2.24-8.1,4.81c-39.38-5.64-77.35-19.24-110-39.79-6.71-4.22-13.69-9.43-15-16.67a160.82,160.82,0,0,0,79.41,2.72,226,226,0,0,1-31.46-14.25,232.77,232.77,0,0,0,55.64,1.36,125.15,125.15,0,0,1-20.82-11.82,58.5,58.5,0,0,0,40.68-3.34c-25.22-2.28-50.57-4.83-74.89-11.22s-47.79-16.85-65.53-33.06q24.58.5,49.12-1.41l-36.9-14.45,57.29.1c-12.19-3.87-25.21-8.28-32.48-17.87a251.46,251.46,0,0,0,49.48,7.11c-43.62-14.29-74.9-48.15-104-80.57-14-15.57-29-30.19-35.71-49.22-9.09,25.59-18.68,51.36-34.53,74.17s-38.73,42.69-67.23,51.1l16.58-.28L786.14,283.7A151.57,151.57,0,0,0,815,275.92a45.66,45.66,0,0,1-12,16.8A81.94,81.94,0,0,0,854.69,282c-50.05,44.55-118.91,71.75-189.42,74.8l56.39,3.45a305.26,305.26,0,0,0-47.53,19.62l72.26-8.09-19.84,17.71a145.17,145.17,0,0,0,55.19-4.42c-5,1.73-8.63,6.31-8.78,11.11,16.31,1.89,33.26,2,49.18-1.27L763,414.21c-28.61,9.3-57.54,18.67-87.77,21.84a105.64,105.64,0,0,1-18.24-20,200.08,200.08,0,0,0,64.31,5.85L701.6,411.46c16.95.74,35.83.67,48.25-12.93C692,403.39,633,385.37,584.43,348.05c-6.67-5.12-13.53-12.42-17.25-20.72a72.51,72.51,0,0,0,53.34,9.72l-20.79-23.93a391.78,391.78,0,0,0,57,23.58,176.88,176.88,0,0,0-21.74-26c17.41,3.05,37,5.46,50.89-7.34-43.48,2.21-87.47-13-123.06-42.54-5.09-4.22-10.39-9.43-11.42-16.67a93.82,93.82,0,0,0,60.25,2.72,155.44,155.44,0,0,1-23.87-14.25A134.69,134.69,0,0,0,630,234a92.22,92.22,0,0,1-15.79-11.82A34.69,34.69,0,0,0,645,218.82c-19.14-2.28-38.37-4.83-56.82-11.22S552,190.75,538.49,174.54a288,288,0,0,0,37.26-1.42l-28-14.44,43.46.1c-9.25-3.87-19.13-8.29-24.64-17.87A148.75,148.75,0,0,0,604.12,148C571,133.73,547.3,99.87,525.23,67.45c-10.6-15.57-22-30.19-27.09-49.22-6.9,25.59-14.17,51.36-26.2,74.17s-29.38,42.69-51,51.1l12.58-.28-17.33,18.41a93.51,93.51,0,0,0,21.9-7.77,47.56,47.56,0,0,1-9.07,16.8A50.12,50.12,0,0,0,468.18,160c-38,44.55-90.2,71.75-143.69,74.79l42.78,3.46a204.86,204.86,0,0,0-36.06,19.62L386,249.76l-15,17.71a84.82,84.82,0,0,0,41.87-4.42c-3.81,1.73-6.55,6.3-6.67,11.11,12.37,1.89,25.24,2,37.32-1.27l-44.91,19.26c-21.86,9.37-44,18.81-67.07,21.91-17.56,2.35-35.65,1-52.55,7.15a233.9,233.9,0,0,0,60.71,12.16,93.63,93.63,0,0,0-33.49,12.85,568,568,0,0,0,59.5,1.42,43.29,43.29,0,0,1-13.85,17.79,99.31,99.31,0,0,0,47.35-14.3q-.65,7.15-1.3,14.3c14.7.32,30.62-2.82,42.36-12.43-39.66,43.82-91.45,72.14-145.39,79.71l-21.38-9.48,33.21.06c-7.07-2.54-14.62-5.44-18.83-11.73a130.3,130.3,0,0,0,28.68,4.67c-25.28-9.39-43.41-31.63-60.27-52.92-8.1-10.22-16.78-19.82-20.7-32.32-5.27,16.81-10.82,33.73-20,48.71s-22.44,28-39,33.56l9.61-.19L173,425.17a79.83,79.83,0,0,0,16.73-5.11,30.08,30.08,0,0,1-6.93,11,42.89,42.89,0,0,0,29.92-7A167.74,167.74,0,0,1,102.92,473.2l32.67,2.27a166.26,166.26,0,0,0-27.54,12.88L149.93,483l-11.5,11.64a74.82,74.82,0,0,0,32-2.91,8.28,8.28,0,0,0-5.09,7.3c9.46,1.24,19.28,1.32,28.51-.84l-34.31,12.65c-16.69,6.16-33.58,12.36-51.24,14.39-13.41,1.54-27.23.68-40.14,4.69a204.17,204.17,0,0,0,46.38,8,78.86,78.86,0,0,0-25.58,8.44c15.12,1,30.3,1.31,45.45.93A29.6,29.6,0,0,1,123.81,559a84.94,84.94,0,0,0,36.17-9.4l-1,9.4c11.23.21,23.39-1.85,32.36-8.17-34.15,32.44-80.07,52-126.86,53.59-10.62.37-21.34-.14-31.79,1.82a83.29,83.29,0,0,0,32.12,10.92l-18.5,7.31a82.52,82.52,0,0,0,49.59,3.68L87,638a49.1,49.1,0,0,0,42.38-9c-.62,2.73-1.23,5.47-1.85,8.21,19.66,1.69,38.12-8.79,55.14-18.91a116.26,116.26,0,0,1-15.15,12.07c-7.34,4.74-15.52,8-23.78,10.77a261.38,261.38,0,0,1-53.54,12c-17.86,2.07-35.89,2.28-53.87,2.49L6.48,656c9.83,9.77,25.16,10.21,38.92,10a58.77,58.77,0,0,1-19.72,8.22,138.16,138.16,0,0,0,54,2.48l-20,10.5A122.39,122.39,0,0,0,114,680.36a144.43,144.43,0,0,0-21.52,18.3,73,73,0,0,0,44.57-14.94L126,702.38a154.44,154.44,0,0,0,66.41-18.08c-23.88,20.57-54.36,32-85.22,37.49s-62.39,5.42-93.73,5.32a81.86,81.86,0,0,0,29.85,10.37A353.84,353.84,0,0,1,.58,748.64,215.12,215.12,0,0,0,50.16,752l-20,14.56c20.1,1.9,41.65,3.52,59.22-6.57a112.61,112.61,0,0,0-19.54,17.61c25.38,2.08,49.29-11,71.45-23.76A127.66,127.66,0,0,1,117,779.92a150.72,150.72,0,0,0,64.15-14.33c-23,21.72-55.44,30.33-86.84,32.33S31.45,796.09,0,796.68a66.43,66.43,0,0,0,43.64,15.71L16,821.72a120.39,120.39,0,0,0,65.41-4.21,40.3,40.3,0,0,0-16.87,12.26,108,108,0,0,0,53.73-5.34L108.05,839a92.91,92.91,0,0,0,17.15-1,53.57,53.57,0,0,1-8.77,3.2C105.88,844.05,94.82,844,83.9,844l-37.39-.15c8.91,7.58,20.5,10.88,31.72,14a45.68,45.68,0,0,1-17.52,3.92,281.54,281.54,0,0,0,29,3c-28.19,8.82-58.21,8.84-87.71,8.78a96.53,96.53,0,0,0,43.31,7.59l-25.49,9.66a168.52,168.52,0,0,0,42.71,2.52L48,904.86a90.2,90.2,0,0,0,43.16-10.61,27.83,27.83,0,0,1-14.78,17.44,92.66,92.66,0,0,0,36.24-11,15,15,0,0,1-4.07,9.32c2.76-.53,5.51-1.15,8.23-1.85l-3,14.6A167.93,167.93,0,0,1,42.5,941.86l61.06.14L81.78,954.34a137.34,137.34,0,0,0,26.18-3.1L62.63,1172.37l49.91,185.08H4446.27Zm-4138.09-730c1.8.24,3.61.41,5.43.56l-2.32,3q-2.81-1.5-5.52-3.13C306.57,472.69,307.37,472.55,308.18,472.39Zm-40.63-37.61c-.38-.38-.77-.75-1.15-1.14a256.23,256.23,0,0,0,28.39-.92c-6.84,1-13.71,1.6-20.6,1.88C272,434.69,269.77,434.74,267.55,434.78Zm8.68,44.58a82.75,82.75,0,0,0,29.2,4.16l-1.74,2.25c19,5.76,40.1.51,55.48-13.78q-1.2,6.25-2.42,12.51c25.74,2.57,49.9-13.39,72.18-28.8-6.76,7-12.22,12.65-19.83,18.38-9.61,7.22-20.32,12.15-31.13,16.4a302.8,302.8,0,0,1-61.5,17A150.51,150.51,0,0,1,285,490.31C281.07,487.53,277,484.11,276.23,479.36Zm92.95,76-9.5,18.59q-6.4-1.75-12.68-3.92A92.4,92.4,0,0,0,369.18,555.32ZM339,550.22q-6.6,5.31-12.77,11.3-4.22-2-8.31-4.18A142.85,142.85,0,0,0,339,550.22Zm-9,63.09c-3.42.71-6.85,1.33-10.28,1.92a85.15,85.15,0,0,1-12.41-9.86,120.26,120.26,0,0,0,28,6.77Q332.7,612.75,330,613.31Zm21.85,79.45c-.94-.62-1.87-1.25-2.78-1.91,1.21.34,2.43.64,3.66.92C352.46,692.1,352.18,692.44,351.88,692.76ZM344,610l-11.36-8.72a143.1,143.1,0,0,0,22,5.69Q349.39,608.63,344,610Zm12.86-17.79A176.33,176.33,0,0,0,383.64,596q-8,3.68-16.26,6.7A74.75,74.75,0,0,1,356.89,592.23Zm17.79,69.9c-1.6,2.68-3.28,5.28-5,7.86-1.55-.48-3.09-1-4.63-1.5Q369.91,665.33,374.68,662.13Zm15.46,46.31a118.4,118.4,0,0,1-24.68-8.13,173.78,173.78,0,0,0,40.08-10.37,64.2,64.2,0,0,0,13.7-2.21A138.47,138.47,0,0,1,390.14,708.44Zm.87-119.2c1.94.07,3.92.12,5.91.15l-2.57,1.37Zm28.65,98.1c-1.59-.42-3.16-.87-4.73-1.36,4.05-1.85,8.06-3.83,12-6C424.58,682.56,422.15,685,419.66,687.34Zm-9-106.11A204.62,204.62,0,0,1,386,579.35a185.09,185.09,0,0,0,55.55-23.14A189.5,189.5,0,0,1,410.63,581.23ZM650.4,437.7c-5.13.25-10.25.51-15.35.9l-9.81-8.77A165.72,165.72,0,0,0,650.4,437.7ZM592.08,436a141.72,141.72,0,0,0,17.26,6.21c-1.36.32-2.72.66-4.07,1a395.11,395.11,0,0,0,80,12.16,149.07,149.07,0,0,0-44.14,12.85q39.17,2.28,78.43,1.42a45.51,45.51,0,0,1-8,10.25c-19.29.19-38.6-1.32-57.36-6.48C631.28,467.16,609.14,455.14,592.08,436Zm59,54.73c18.35,8.58,37.75,16.92,57.34,14.07a135.24,135.24,0,0,1-22.86-17.61,52.28,52.28,0,0,0,18.25.17,162.22,162.22,0,0,0,59.88-14.2L762,487.49c19.37.32,40.35-2.81,55.83-12.43-35,29.33-77.14,51.73-122.52,65.6a188.45,188.45,0,0,1-83.72-43,146.34,146.34,0,0,0,61.51,11.88ZM759,598.21c15.19-5.54,29.85-13.06,44-20.45-8.92,7-16.12,12.65-26.15,18.38-12,6.84-25.31,11.62-38.8,15.72l-10.6-5.74a65.66,65.66,0,0,0,33.53-6.54Zm-34.82,79.17-2.39,3.55-1.08-1.3C721.88,678.9,723,678.15,724.18,677.38ZM714,618.49q-5.58,1.39-11.2,2.65l-7.3-7.37A116.47,116.47,0,0,0,714,618.49ZM709.64,595l1.35-.93c-.09.37-.19.75-.29,1.13Zm-35.39,83.87c-.86.58-1.7,1.18-2.55,1.77l-4-3.63,1.37-.35C670.81,677.41,672.53,678.14,674.25,678.85Zm-6.57-51.1q-10.54,1.61-21.18,2.75-4.66-3.13-9.13-6.68Q652.48,626.25,667.68,627.75Zm-23.22,68.84c-3.57-1.91-7.34-4.16-9.13-8.26a118.6,118.6,0,0,0,20.47,4.41c-2.4,2-4.74,4-7,6.1Q646.59,697.73,644.46,696.59Zm82.47,26.71c-25.86-2.41-51.63-11.09-75.7-23.2a139.56,139.56,0,0,0,53.57-12q5.46,1.08,11,1.78-5.37,8-10.73,15.92a294.18,294.18,0,0,0,114.59-27.53C792.61,698.8,760.71,713.36,726.93,723.3Zm348.35-290.44-.31.25-.46-.35Zm-13.57,119A276.47,276.47,0,0,0,1128,563.46a191.07,191.07,0,0,1-37.32,29.95c-26.88-6.73-52.48-18.16-72.68-35.32a233.08,233.08,0,0,0,70,11.62Zm29.94,201.62q-4.39-2.17-8.65-4.57c1-.67,2.08-1.36,3.1-2.1l7.83.84Zm32.29,12.72q-8.64-2.6-17-5.91a114.11,114.11,0,0,0,24.81-9.57c3.07.19,6.13.36,9.2.51A154.56,154.56,0,0,1,1123.94,766.24Zm5.55-112.54c-1.06,1-2.14,2-3.23,3q-3-.81-5.93-1.66c8.41-5.45,16.53-12.63,24.35-19.69C1139.5,642.36,1135.32,648,1129.49,653.7Zm1.57-93.44a124.17,124.17,0,0,1-25.34-19.89c1-.42,2-.85,3-1.32q6.24,1.11,12.51,2l-.27,4a48.26,48.26,0,0,0,16-2.15c2.79.26,5.57.5,8.36.7Q1138.43,552.42,1131.06,560.26Zm-9.62-88.49c-16.74,9.37-33.67,18.82-51.37,21.91-3.45.61-6.93,1-10.41,1.27a363.81,363.81,0,0,1-51.75-24.84c-8.78-5.12-17.83-12.42-22.73-20.72a121.6,121.6,0,0,0,70.31,9.72l-27.41-23.93a618.43,618.43,0,0,0,75.09,23.58,199.4,199.4,0,0,0-24.68-23l8.24-1.58a158.13,158.13,0,0,0,21.37.89l-7.8,12a50.85,50.85,0,0,0,32.06-4.42c-2.91,1.72-5,6.3-5.1,11.1,9.47,1.89,19.32,2,28.57-1.27Zm247.64,119c-3.26,1.5-6.54,2.93-9.83,4.25l-5.74-4A80.33,80.33,0,0,0,1369.08,590.81Zm-27.39,10.1c-2.91.75-5.84,1.4-8.78,1.92s-5.73.87-8.61,1.19c-1.75-2.67-3.43-5.46-5-8.38A122.44,122.44,0,0,0,1341.69,600.91Zm-72.06,14.74a85.72,85.72,0,0,0,40.67,11.62l-3.67-4.28a189,189,0,0,0,34.84,6.27c-12.24,2.74-24.16,8.72-35.11,17.59a452.94,452.94,0,0,0,62.38,1.94,71.85,71.85,0,0,1-4.52,10.72c-15.8.45-31.66-.89-47-6.42C1299.64,646.78,1282.69,634.76,1269.63,615.65Zm34.09,254.47a12.63,12.63,0,0,1-1-2.17c1.44.58,2.89,1.11,4.34,1.6C1306,869.75,1304.84,869.94,1303.72,870.12Zm29.63-6.58q-3.7-4.45-7.43-8.9a115.14,115.14,0,0,0,13.32,7.13C1337.28,862.39,1335.32,863,1333.35,863.54Zm-9.47-106.29a102.16,102.16,0,0,1-12.39-11.44,60.54,60.54,0,0,0,28.82,4.64Q1332.17,754.25,1323.88,757.25Zm14-21.08a50.08,50.08,0,0,0,16.27,7.2c-1.7.94-3.4,1.87-5.11,2.77Zm24,82.85q-1,6.81-2,13.61a76.64,76.64,0,0,1-10.33-1.85A68.75,68.75,0,0,0,1361.91,819Zm-2.33-91.62c5.87.94,12,1.83,17.81,1.14-2.64,1.91-5.31,3.74-8,5.52A102.26,102.26,0,0,1,1359.58,727.4Zm54.67,94.48c-10.07,9.89-21.3,16.64-32.64,22.46q-8.77,4.5-17.71,8.32l-4.07-6.34c6.43.31,13,.61,19.22-1.75s12.3-7.77,15.47-16.4l-.93.33c14.41-7.69,28.24-19.85,41.45-31.78C1428,806.36,1422.23,814,1414.25,821.88Zm-31-97.7c-35,2.2-70.53-14.58-98.64-46.94,15,8.4,31.11,12.45,47.11,11.89l-16.85-18.75c14.05,8.59,28.91,16.92,43.91,14.08a113.12,113.12,0,0,1-17.5-17.62,31.48,31.48,0,0,0,19.51-1.53,48.6,48.6,0,0,1-6.55,7.84c17.21-.82,34.29-7.55,49.64-19.58q-.67,9.79-1.36,19.58c15.41.44,32.1-3.86,44.41-17C1428,683.43,1406.43,706.34,1383.23,724.18ZM1626,609.12c.16.11.33.21.5.31a47.89,47.89,0,0,0-5.94,1.85l-2.07-3.11C1621,608.57,1623.52,608.89,1626,609.12Zm-28,40.24A77,77,0,0,1,1580,621c17,13.79,37,18.55,55.92,13.3l-8.37-12.59q8.46.19,16.93-.12a37.88,37.88,0,0,1-9.17,15.39,53.47,53.47,0,0,0,26.18-8.7c1.59.74,3.17,1.5,4.77,2.22l-.45,6.47c9.73.28,20.27-2.43,28-10.74-16.67,24-36.58,42.71-58,54.81A271.43,271.43,0,0,1,1598.06,649.36Zm46.2,158.25-2.19-1.47a67.3,67.3,0,0,0,4.7-4.95Zm31.23,14.9c-1.43-.47-2.87-1-4.3-1.46q-2.55-.93-5.09-2A112.8,112.8,0,0,0,1694.73,802,139.53,139.53,0,0,1,1675.49,822.51Zm108.1-351.84-2.39-1.61a50.81,50.81,0,0,0,11.36,3.56l-16,9.63c13.57,8.28,28.79,10,43,4.84l-7.71,13c12.56,5,26.56.44,36.75-11.92q-.81,5.42-1.61,10.82c17,2.22,33-11.57,47.81-24.91-4.48,6.1-8.1,11-13.14,15.9-6.36,6.25-13.45,10.51-20.61,14.19a163.93,163.93,0,0,1-45.58,15.66,69,69,0,0,1-6.41-6.76c6.69,3.3,14.25,2.23,20.44-2.89-12.67-2-25.41-4.18-37.63-9.71a75.2,75.2,0,0,1-32.92-28.59A146.76,146.76,0,0,0,1783.59,470.67Zm21.88,80.39L1791.84,562a130.13,130.13,0,0,1-10.57-9.06A79.35,79.35,0,0,0,1805.47,551.06Zm-14-28.94,1.47.33-1,.07Zm43.68,33.72a156.38,156.38,0,0,0-16.82,21.29A106.68,106.68,0,0,1,1797,565.66,74.35,74.35,0,0,0,1835.2,555.84Zm20,4.41q-4.53,11.55-9,23.09a88.52,88.52,0,0,1-21.78-4.07C1835.48,577.23,1846.25,570.64,1855.19,560.25Zm-84.39-19a23.46,23.46,0,0,1-2.2-4.33c2.4.11,4.79.1,7.13.05A51.34,51.34,0,0,1,1770.8,541.25Zm7.11,62.78c10.74,8.71,23.38,11.72,35.33,8.41l-13.78-20.7a234,234,0,0,0,32.25,18l-2.45.69c-14.65,4-29.46,5.71-44.33,6.47A46.37,46.37,0,0,1,1777.91,604Zm50,93.74q-3.3.26-6.57.66l-4.94-5.76A95,95,0,0,0,1827.87,697.77Zm-33.47.26a74.14,74.14,0,0,0,35.17,10.05l-3.57-4.17c3.21,1.36,6.49,2.61,9.82,3.71a120.68,120.68,0,0,1-17.67,3c-4.23.4-8.45.61-12.68.7A90.62,90.62,0,0,1,1794.4,698Zm35.93,66.1-8.93.1h-1.3a140.06,140.06,0,0,1-10.2-10.07c.88,0,1.76-.12,2.63-.2a80,80,0,0,0,19.55,6.39C1831.49,761.61,1830.91,762.87,1830.33,764.13Zm6.82-14.72-1.8-2c.29-.14.58-.27.86-.42l1.61,1C1837.6,748.43,1837.37,748.92,1837.15,749.41Zm.21-68.69c1.41.48,2.82.91,4.23,1.32-.65.89-1.32,1.76-2,2.62C1838.84,683.37,1838.08,682.07,1837.36,680.72Zm6.8,83.2-1.89,0c.88-.16,1.76-.33,2.63-.53C1844.66,763.6,1844.41,763.76,1844.16,763.92Zm18.49-67.13h-.06c-4.67.15-9.35.19-14,.25a83.16,83.16,0,0,1-7.59-10.16,87.74,87.74,0,0,0,14.55-1.77,100.92,100.92,0,0,0,22,.87A95.3,95.3,0,0,1,1862.65,696.79Zm-12.83-36.46c3-2.53,6-5.13,9-7.71q-2.14,4.67-4.49,9.08C1852.83,661.28,1851.33,660.82,1849.82,660.33Zm28.89,24.6-7-4.82c2.51-1,5-2.16,7.48-3.42a31.06,31.06,0,0,0,9.61-2.53A100.49,100.49,0,0,1,1878.71,684.93Zm-43.42-76.31a148.92,148.92,0,0,0-12.5-19c11.46,2.62,24.37,4.68,33.54-6.16,16.31-3,32.27-10.66,46.81-22.47A135.36,135.36,0,0,1,1835.29,608.62ZM2037,457.08q3.19,1.14,6.43,2a40,40,0,0,1-5.79,7.62l-6.81-8C2032.89,458.26,2035,457.69,2037,457.08Zm-7.45-3-1.62,1.33-3.15-3.66C2026.35,452.56,2027.94,453.33,2029.54,454.06Zm14.7,175.58-.86-.65a52.77,52.77,0,0,0,4.95-2.76C2047,627.38,2045.61,628.51,2044.24,629.64Zm-3.87-141.57a84.58,84.58,0,0,1-37.56-31,74.45,74.45,0,0,0,34.45,10c-.48.48-1,1-1.49,1.43a68.44,68.44,0,0,0,43.81-9.24A238.71,238.71,0,0,1,2040.37,488.07ZM2361.2,678.83l-3.27,5-7.3-3Zm-52.39,82.74-3.73-2.46a137.83,137.83,0,0,0,20.63,3.33,62.85,62.85,0,0,0-25.65,12.84,330.4,330.4,0,0,0,45.57,1.42,48.56,48.56,0,0,1-6.29,12.72c-35.81-5.27-70.27-18.32-99.33-38.13A206.17,206.17,0,0,0,2308.81,761.57Zm-24.6-16.21,4.55,1.63-1.49.38Zm38.57-3.06.47.06-.29.07Zm26.75,52.36c15.17,1.45,31.28,2.75,45-3.39-2.09.17-4.18.3-6.27.41a37.72,37.72,0,0,0,14.51-9.61c-15.24,22-32.83,40.08-51.79,53.6-25.72-3.59-50.46-11.46-71.64-25.08a144.85,144.85,0,0,0,58.57,2.23l-20-10.57a107,107,0,0,0,65.48,3.91A183.47,183.47,0,0,1,2349.53,794.66Zm2.67-3.7a70.06,70.06,0,0,0,19.08-10.76q-.41,5.89-.82,11.79Q2361.31,791.83,2352.2,791Zm36.18,101.38a105,105,0,0,1-9.51,10.8,78.59,78.59,0,0,1-12.27,9.77l-4.44-4.09c7.07-3.53,14-8.59,20.63-14.17A44.35,44.35,0,0,0,2388.38,892.34Zm-84.89,13.48-.45.77-2.67-1.89Zm-16.27-43.35c-3.88.58-7.77,1-11.67,1.2l-1.12.05c-1.89-1.07-3.77-2.15-5.61-3.29Q2278,861.57,2287.22,862.47ZM2322,920q-2.55-1.79-5.08-3.59a36.71,36.71,0,0,0,10-3.75,229.26,229.26,0,0,0,31.54,5.1c-1.13.61-2.26,1.21-3.4,1.79a192.48,192.48,0,0,1-43.43,16.18,349.29,349.29,0,0,1-34.86-12.37c-4-1.65-8.21-3.6-10.21-7.15A167.38,167.38,0,0,0,2322,920Zm-47,66.45a95.83,95.83,0,0,1-7.45-6q6,1.27,12.17,2.27Zm6.32,4.21a83,83,0,0,0,29.16-4.73q4.27.21,8.57.29a184.94,184.94,0,0,0-12.17,16.08A119.17,119.17,0,0,1,2281.26,990.66Zm57.34,18.5a181.72,181.72,0,0,1-21.31-3.88c11.2-3.18,21.92-10.32,31-20.89Q2343.46,996.78,2338.6,1009.16Zm41.1,1.44c-4.3.15-8.6.26-12.91.25s-8.89-.12-13.36-.37c17.54-3.94,34.64-12.47,50.32-25.2A160.89,160.89,0,0,1,2379.7,1010.6Zm-8.88-289.38c-9.43,5.28-18.93,10.58-28.58,14.76-18.39-.26-36.74-1.77-54.62-5.57C2262,725,2237.24,714.56,2218.16,698a194.35,194.35,0,0,0,59.4,10.05l-22.31-15.41A230.77,230.77,0,0,0,2319.41,703a105.91,105.91,0,0,1-28.7-22.23,285.48,285.48,0,0,0,30.61,4.38c-.7.61-1.4,1.2-2.1,1.82l7.26-1.4a286.28,286.28,0,0,0,30,.53l-6.82,10.49a50.84,50.84,0,0,0,32.06-4.42c-2.91,1.73-5,6.3-5.1,11.11,9.47,1.89,19.33,2,28.58-1.27Zm154.1,151.71c-2-2.47-4-5.07-5.91-7.83a93.61,93.61,0,0,0,12.46,5.93C2529.27,871.61,2527.08,872.25,2524.92,872.93Zm50.65,135.51-1.48-1.11c.72-.47,1.44-1,2.14-1.45ZM2642,1008c-11.38,6.49-23.94,11.13-36.7,15.08a93.81,93.81,0,0,1-13.54-5c27-3,52.49-15.89,76.38-28.43C2659.26,996.64,2652.07,1002.25,2642,1008Zm-80.16-55.88a155.72,155.72,0,0,1-27.91-25.4c15.05,8.4,31.11,12.45,47.11,11.88q-8.41-9.37-16.85-18.74c14.05,8.58,28.91,16.92,43.91,14.07a112.61,112.61,0,0,1-17.5-17.61c10.07,2.48,20.66-.24,29.66-7.63-18,1.05-36.19.18-53.73-6.12a95,95,0,0,1-34-21.27q26.08.83,52.21.26a47.51,47.51,0,0,1-18.26,17.8A162.31,162.31,0,0,0,2629,885q-.87,7.15-1.72,14.3c19.38.33,40.36-2.81,55.84-12.42C2648.45,916,2606.76,938.18,2561.88,952.09ZM2628.18,826l-6.92,2.25c-38.17-1.25-76.11-19.06-108.11-51.17a56.24,56.24,0,0,1-13.21-20.72c12.42,10.08,27,13.56,40.85,9.72q-8-12-15.92-23.93a266.86,266.86,0,0,0,41.8,22.78,312.38,312.38,0,0,1-36.16,3.7l56.39,3.46a304.82,304.82,0,0,0-47.53,19.61l72.25-8.08-19.83,17.71A145.38,145.38,0,0,0,2647,797c-5,1.72-8.64,6.3-8.79,11.1,16.31,1.89,33.27,2,49.19-1.26Zm272-54.06-3.13,4c-1.66-.71-3.3-1.45-4.94-2.2Q2896.16,773.1,2900.16,772Zm-70.6,6.06a160.73,160.73,0,0,0,61.6,5.57c-.88,1.14-1.75,2.28-2.63,3.41,19,5.76,40.1.51,55.48-13.78l-2.43,12.5c25.74,2.57,49.91-13.38,72.19-28.79-6.77,7-12.23,12.65-19.84,18.37-9.6,7.23-20.31,12.16-31.12,16.41A301.81,301.81,0,0,1,2892.73,810c-5.44.74-10.88,1.31-16.34,1.77a264.31,264.31,0,0,1-31.77-17.07C2837.9,790.49,2830.92,785.29,2829.56,778Zm88.84,78q-3.66,3.19-7.19,6.58-2.77-2.4-5.53-4.82c3.13-.86,6.25-1.83,9.33-2.91Zm-29.15,118.67-.37-.28c.9-.54,1.8-1.1,2.69-1.69C2890.79,973.39,2890,974.06,2889.25,974.72ZM2914.08,990a200.7,200.7,0,0,0,18.62-9.65q7.26.74,14.57,1a183.67,183.67,0,0,1-14.47,16.75A194.92,194.92,0,0,1,2914.08,990Zm28.57-15.66q3.7-2.32,7.36-4.71c1.63.35,3.26.68,4.9,1-1.84,2.78-3.73,5.51-5.7,8.16Zm33,35q-5.29-.89-10.54-2-10.21-2.13-20.19-5.16a176.59,176.59,0,0,0,66.86-21A136.82,136.82,0,0,1,2975.64,1009.33ZM2933.52,910A367.37,367.37,0,0,1,2873.15,882c-8.79-5.13-17.83-12.42-22.73-20.72a120.63,120.63,0,0,0,51.24,11.22q-3,3.38-6,6.88a85.4,85.4,0,0,0,48.63-15.19c1.7.49,3.39,1,5.09,1.47L2939.49,885a180.63,180.63,0,0,0,86.93-27.54C3000,883.94,2967.39,900.48,2933.52,910ZM3295.93,713l-4.39,2.46-5.1-2.7C3289.55,712.84,3292.73,713,3295.93,713Zm-10,65.35c-.07.94-.14,1.88-.2,2.81-1.16,0-2.33-.06-3.49-.11Q3284.12,779.72,3286,778.3Zm-8.25-55.17c-7.11,3.91-14.26,7.65-21.5,10.75a106.3,106.3,0,0,1-14.42-16.61A201.71,201.71,0,0,0,3277.7,723.13Zm-17.64,51.65c-.45,1.39-1,2.72-1.53,4a166.63,166.63,0,0,1-18.76-3.9Q3249.93,775.15,3260.06,774.78Zm-21-35c-1.77.44-3.55.83-5.35,1.14-3.67.65-7.38,1-11.09,1.34l-12.49-11.16A166,166,0,0,0,3239,739.76Zm-62.09-2.48a140.85,140.85,0,0,0,24,8,47.64,47.64,0,0,0-7.86,2.86,144.65,144.65,0,0,0,46.9,12.27,60.29,60.29,0,0,0-19,8A123.25,123.25,0,0,1,3176.92,737.28Zm81,73.47L3236,792c18.35,8.58,37.74,16.92,57.33,14.07a135.57,135.57,0,0,1-22.85-17.61,52.45,52.45,0,0,0,14.74.64c-.08,1.2-.17,2.41-.25,3.61,11.36.33,23.65-2.83,32.73-12.53-16.36,23.59-35.38,42.73-55.9,56.61a190.85,190.85,0,0,1-65.32-37.93A146.41,146.41,0,0,0,3258,810.75Zm51,73c-3.61,4.91-6.75,9.13-10.28,13.18-1.38-.23-2.75-.47-4.12-.73C3299.43,892.3,3304.23,888,3308.92,883.78Zm-46.16,100.5-1,2.43-.67-.62C3261.68,985.49,3262.23,984.9,3262.76,984.28Zm-37.13,11.39a14.32,14.32,0,0,1-5.46-6.1c2.77.87,5.56,1.62,8.37,2.27C3227.56,993.1,3226.59,994.37,3225.63,995.67Zm-3.42-70.6q12.72,2,25.52,3.43-7.08,2.63-14.23,4.66A137,137,0,0,1,3222.21,925.07Zm30.81,84.1c-4.8-2-9.54-4.18-14.23-6.47a63,63,0,0,0,12.94-7.86c2.3.06,4.6.06,6.9,0Zm30.06,10.25a218.7,218.7,0,0,1-22.86-7.38c17-2.49,33.7-9.3,49.29-20,1.16.08,2.31.15,3.47.21A158.15,158.15,0,0,1,3283.08,1019.42ZM3314,991l-1.15-1.37c2-1.43,3.9-2.9,5.82-4.46Q3316.41,988.17,3314,991Zm4.06-290.46h-1.77c1.29-.33,2.58-.71,3.85-1.16Zm97.64,53.75c12.52,10.17,27.27,13.68,41.2,9.81-.57-.87-1.15-1.73-1.73-2.6a46,46,0,0,0,13.28-2.71l-7.35,12.41c12,4.76,25.35.43,35.07-11.37l-1.53,10.32c16.27,2.12,31.54-11,45.63-23.77-4.28,5.81-7.73,10.45-12.54,15.17-6.07,6-12.84,10-19.68,13.54a156.22,156.22,0,0,1-44.3,15.1c-5.19.91-10.39,1.53-15.6,2a204.68,204.68,0,0,1-19.13-17A56.62,56.62,0,0,1,3415.73,754.29Zm82.41,177.55q-1.21,2.07-2.49,4.08l-5.4-6c1.28-1,2.57-2,3.84-3,1.81.92,3.63,1.78,5.45,2.56-.43.76-.86,1.5-1.29,2.24h-.51Zm5.64-81.07a96.65,96.65,0,0,0,19.64,3.49,127.05,127.05,0,0,1-21.09,13,98.38,98.38,0,0,1-17.26-23.5q3.63,1.22,7.29,2.2c.92.52,1.85,1,2.8,1.47l-1.82,4.64A84.11,84.11,0,0,0,3503.78,850.77ZM3435,863.94a86.54,86.54,0,0,0,41,11.72l-15.41-18a103.27,103.27,0,0,0,37.57,11.54,138,138,0,0,1-20.37,7.24,177.61,177.61,0,0,1-27.75,5A104.87,104.87,0,0,1,3435,863.94Zm21.18,68.78c-.72-.75-1.43-1.51-2.14-2.28.76-.36,1.53-.75,2.28-1.17.63.3,1.27.58,1.9.87Q3457.14,931.4,3456.14,932.72ZM3499.71,964q-3.4-1.51-6.75-3.27,5.67.63,11.38,1.11C3502.81,962.58,3501.26,963.3,3499.71,964Zm22.37-13.82q-17.53,4-35.36,7.07a140.92,140.92,0,0,1-19.07-13.69,77,77,0,0,0,12.69-6.63,86,86,0,0,0,13.93,1.21,138.42,138.42,0,0,1-8.32,11.42,86.28,86.28,0,0,0,37.36-8.71c2.28.59,4.59,1.12,6.91,1.6A91.88,91.88,0,0,1,3522.08,950.15Zm16.9-18.56h-.06l.11-.08A.35.35,0,0,0,3539,931.59Zm-1.45-89.81-4,0-4.25,0c1.74-.9,3.47-1.85,5.18-2.87a39,39,0,0,0,7.1-1.52Q3539.58,839.69,3537.53,841.78Zm150.89-226.4c-3.41,1-6.78,2-10.14,3.14a89.16,89.16,0,0,1-13.74-4.48Zm-38.73,14.24-.62.28-.81-1.21Zm-6.26,100.53a70.91,70.91,0,0,0,33.57,9.59q-6.3-7.37-12.61-14.71a83.24,83.24,0,0,0,36.26,9.81,74.73,74.73,0,0,1-13.1-15.87q5.31-.72,10.54-1.78a96.7,96.7,0,0,0,27,1.27l-8.8-6.09q3.48-1.15,6.87-2.47c1.08-.09,2.15-.21,3.21-.39q-.72,5.43-1.43,10.86c17.53.27,36.51-2.32,50.51-10.26-27.81,21.27-60.63,38.12-96,49.66A80.8,80.8,0,0,1,3643.43,730.15ZM3762,794.88c-8.07,5.81-14.58,10.44-23.65,15.17a146.11,146.11,0,0,1-20.57,8.55A88.43,88.43,0,0,1,3707,816C3726.24,811.71,3744.57,803.2,3762,794.88Zm-82.36,97.28q-3.4-2.83-6.65-6.12l1.19-.48q4.54.91,9.1,1.67C3682,888.87,3680.8,890.52,3679.59,892.16Zm34.47,16.53a69.7,69.7,0,0,1-24.12-9.14,285.37,285.37,0,0,0,87.1-21.71C3758.25,890.87,3736.84,901,3714.06,908.69Zm11.71-248.81c-21.36,6.34-42.93,12.72-65.19,16.22a164.68,164.68,0,0,1-22-18.57,46.52,46.52,0,0,1-10.9-17.1c10.25,8.31,22.32,11.19,33.72,8l-11.53-17.33,1.83-.19a218.35,218.35,0,0,0,32.57,17.23,146,146,0,0,0-12.12-19.32l6.17-.63c5.85.84,11.75.8,17-1.74l15.43-1.57-17.95,14.62a143.88,143.88,0,0,0,49.93-3.65c-4.54,1.42-7.81,5.2-7.95,9.16,14.75,1.56,30.09,1.66,44.49-1Zm228.94-120.13a103.82,103.82,0,0,1-11.36,1.25c-3.28.17-6.57.19-9.86.28a29.57,29.57,0,0,1-7.41-6.23A248.34,248.34,0,0,0,3954.71,539.75Zm-29.13,10a51.35,51.35,0,0,0,18,7.26l-7.3,4.38-32.68-11.67Zm10.19,12-7.45,4.48c12.95,7.9,27.47,9.54,41,4.62L3962,583.24c12,4.75,25.35.42,35.07-11.38l-1.53,10.33c16.27,2.12,31.54-11.05,45.63-23.78-4.28,5.82-7.73,10.45-12.54,15.17-6.07,6-12.84,10-19.68,13.55a163.36,163.36,0,0,1-21.37,9.13,317.4,317.4,0,0,1-35.73-6.16c-22-5.28-43.22-13.92-59.27-27.29Q3914.2,563.2,3935.77,561.72Zm-27.84,58.54c4.55,1.23,9.2,2.23,13.89,3a39.51,39.51,0,0,1-8.84,4.83A14.94,14.94,0,0,1,3907.93,620.26Zm7.72,10a76.26,76.26,0,0,0,40.3,1.6L3940.81,644c-6.61-3.05-13-6.36-19.26-9.94A66.74,66.74,0,0,1,3915.65,630.28Zm16.1,64.61a36,36,0,0,1-5-6,111.49,111.49,0,0,0,15.75,5.38Q3937.16,694.69,3931.75,694.89Zm52.57-58.46a147.53,147.53,0,0,0-15,18.74q-12.74-4.18-24.82-9.53A70.41,70.41,0,0,0,3984.32,636.43ZM3968,784.18c-1.13.11-2.26.19-3.4.27-2.81-1.84-5.54-3.77-8.16-5.81q9,2.73,18.39,4.68Q3971.45,783.84,3968,784.18Zm13.74,46.5-2-1.2,2.27.65C3982,830.31,3981.87,830.49,3981.78,830.68Zm-2.28-142.41-13.9-11.08q11.88,4.18,24,7.87C3986.25,686.27,3982.88,687.33,3979.5,688.27Zm11.8,147.79c-.48-.26-1-.51-1.45-.78,1.25-.19,2.49-.43,3.73-.71C3992.83,835.1,3992.07,835.59,3991.3,836.06ZM3978,657.84c9.18-2.64,18-8.52,25.44-17.19q-4.23,10.79-8.45,21.58Q3986.35,660.3,3978,657.84Zm22.29,118.31-4.23-2.62c2.11.59,4.23,1.14,6.36,1.67C4001.67,775.53,4001,775.84,4000.25,776.15Zm5.81-45.64-.85-.26,1.66-1.44C4006.61,729.38,4006.33,729.94,4006.06,730.51Zm3-54.28-1.48-1,2.73.32Zm14.09-9.09q-11.39-1.41-22.56-3.69c15.8-2.18,31.34-8.9,45.57-19.73l.71.54A130.42,130.42,0,0,1,4023.17,667.14Zm178.3-245.23a65.67,65.67,0,0,1-4.7,10.91,88.66,88.66,0,0,1-41.55-11.7A422.32,422.32,0,0,0,4201.47,421.91Zm-82.91-38.11c1.31.67,2.64,1.26,4,1.8-1.13.38-2.26.81-3.38,1.27A18.74,18.74,0,0,1,4118.56,383.8Zm7.22,13.76a30.27,30.27,0,0,1-5.56-7.84A182.28,182.28,0,0,0,4176,403.64a78.3,78.3,0,0,0-28.18,12.91A123.66,123.66,0,0,1,4125.78,397.56Zm2.78,54.9c10.25,8.32,22.32,11.19,33.72,8q-6.57-9.87-13.15-19.75a220.27,220.27,0,0,0,36,19.46,144.88,144.88,0,0,0-13.75-21.46c6.77,1.55,14.07,2.89,20.72,1.24a42.38,42.38,0,0,1-4.24,4.74c16.11-.77,32.09-7.07,46.45-18.32q-.63,9.15-1.27,18.31c14.42.42,30-3.6,41.55-15.91-22.83,32.94-49.77,59-78.83,76.95-20-6.75-39.18-19-56.32-36.18A46.52,46.52,0,0,1,4128.56,452.46Zm50.5,305.92-1.65-1.13c-2.25-1.58-4.64-3.44-5.77-6.82a59.13,59.13,0,0,0,17.68,4.21Q4184.21,756.67,4179.06,758.38Zm4.35-51.82a85.24,85.24,0,0,0,8.65-6.13c2.53.33,5.07.61,7.6.86q-2.44,6.27-4.9,12.52A80,80,0,0,1,4183.41,706.56Zm22.68,40.6c-2.1,1.06-4.21,2.07-6.33,3.05l-9-10.77A92,92,0,0,0,4206.09,747.16Zm-1.79,89.78c-1.9-.65-3.77-1.39-5.63-2.23,3.92-3.29,7.79-6.64,11.62-10Q4207.43,831,4204.3,836.94Zm-19.4-219.5A121.13,121.13,0,0,1,4164.12,601a45.55,45.55,0,0,0,6.45-1.8,71.4,71.4,0,0,0,25,3.66q-5.26-5.88-10.54-11.74.61-.48,1.23-1c2.3,1.35,4.63,2.64,7,3.81-.16,1.1-.33,2.2-.49,3.3a43,43,0,0,0,8.77.21,32.21,32.21,0,0,0,16.4,1.55c-1.56-1.24-3.09-2.57-4.6-4,17.64-5.76,34.42-20.4,50.24-34.69-6.64,9-12,16.21-19.46,23.54-9.42,9.26-19.93,15.57-30.53,21A255.16,255.16,0,0,1,4184.9,617.44Zm37.39,120.64-3.54-5.5c4.22.2,8.49.38,12.66-.53C4228.4,734.17,4225.36,736.17,4222.29,738.08Zm23.7-17.35a25,25,0,0,0,1.4-3.14,61.43,61.43,0,0,1-32.93,3.06c21.41-5.32,42.27-16,61.46-31.59A205.37,205.37,0,0,1,4246,720.73Z"/></g></g></svg>